<svg width="32" height="32" viewBox="0 0 32 32" fill="none" xmlns="http://www.w3.org/2000/svg">
<path d="M19.9637 8.44434H6.52952C5.46959 8.44434 4.61035 9.30358 4.61035 10.3635V23.7977C4.61035 24.8576 5.46959 25.7168 6.52952 25.7168H19.9637C21.0236 25.7168 21.8828 24.8576 21.8828 23.7977V10.3635C21.8828 9.30358 21.0236 8.44434 19.9637 8.44434Z" stroke="#1D1B1B" stroke-width="1.316" stroke-linecap="round" stroke-linejoin="round"/>
<path d="M17.0847 6.52515V10.3635" stroke="#1D1B1B" stroke-width="1.316" stroke-linecap="round" stroke-linejoin="round"/>
<path d="M9.40845 6.52515V10.3635" stroke="#1D1B1B" stroke-width="1.316" stroke-linecap="round" stroke-linejoin="round"/>
<path d="M4.61035 14.2019H21.8828" stroke="#1D1B1B" stroke-width="1.316" stroke-linecap="round" stroke-linejoin="round"/>
<path d="M18.0446 18.04H12.2871" stroke="#1D1B1B" stroke-width="1.316" stroke-linecap="round" stroke-linejoin="round"/>
<path d="M14.206 21.8784H8.44849" stroke="#1D1B1B" stroke-width="1.316" stroke-linecap="round" stroke-linejoin="round"/>
<path d="M8.44849 18.04H8.45808" stroke="#1D1B1B" stroke-width="1.316" stroke-linecap="round" stroke-linejoin="round"/>
<path d="M18.0447 21.8784H18.0543" stroke="#1D1B1B" stroke-width="1.316" stroke-linecap="round" stroke-linejoin="round"/>
<rect x="24.104" y="8.55396" width="6.58" height="1.316" fill="#1D1B1B"/>
<rect x="24.104" y="11.186" width="4.606" height="1.316" fill="#1D1B1B"/>
</svg>
