<svg width="96" height="96" viewBox="0 0 96 96" fill="none" xmlns="http://www.w3.org/2000/svg">
<path d="M24.441 45.3398L10.001 85.9998L50.661 71.5978" stroke="black" stroke-width="4" stroke-linecap="round" stroke-linejoin="round"/>
<path d="M17.6006 13.7998H17.6395" stroke="black" stroke-width="4" stroke-linecap="round" stroke-linejoin="round"/>
<path d="M86.001 32.7998H86.0399" stroke="black" stroke-width="4" stroke-linecap="round" stroke-linejoin="round"/>
<path d="M59.4014 10H59.4403" stroke="black" stroke-width="4" stroke-linecap="round" stroke-linejoin="round"/>
<path d="M86.001 78.4004H86.0399" stroke="black" stroke-width="4" stroke-linecap="round" stroke-linejoin="round"/>
<path d="M86.0006 10L77.4886 12.85C75.0656 13.6571 72.9982 15.2806 71.6397 17.4431C70.2812 19.6057 69.716 22.1729 70.0406 24.706C70.4206 27.974 67.8746 30.9 64.5306 30.9H63.0866C59.8186 30.9 57.0066 33.18 56.3986 36.372L55.6006 40.4" stroke="black" stroke-width="4" stroke-linecap="round" stroke-linejoin="round"/>
<path d="M86.001 51.7999L82.885 50.5459C79.617 49.2539 75.969 51.3059 75.361 54.7639C74.943 57.4239 72.625 59.3999 69.927 59.3999H67.001" stroke="black" stroke-width="4" stroke-linecap="round" stroke-linejoin="round"/>
<path d="M44.2006 10L45.4546 13.116C46.7466 16.384 44.6946 20.032 41.2366 20.64C38.5766 21.02 36.6006 23.376 36.6006 26.074V29" stroke="black" stroke-width="4" stroke-linecap="round" stroke-linejoin="round"/>
<path d="M44.2009 51.8C51.5349 59.134 54.9549 67.646 51.8009 70.8C48.6469 73.954 40.1349 70.534 32.8009 63.2C25.4669 55.866 22.0469 47.354 25.2009 44.2C28.3549 41.046 36.8669 44.466 44.2009 51.8Z" stroke="black" stroke-width="4" stroke-linecap="round" stroke-linejoin="round"/>
</svg>
