<svg width="43" height="42" viewBox="0 0 43 42" fill="none" xmlns="http://www.w3.org/2000/svg">
<rect x="0.365234" width="42.3652" height="41.9005" rx="20.9503" fill="#F4F4F4"/>
<path d="M15.3652 18C15.3652 16.4087 15.9974 14.8826 17.1226 13.7574C18.2478 12.6321 19.7739 12 21.3652 12C22.9565 12 24.4827 12.6321 25.6079 13.7574C26.7331 14.8826 27.3652 16.4087 27.3652 18C27.3652 25 30.3652 27 30.3652 27H12.3652C12.3652 27 15.3652 25 15.3652 18Z" stroke="#1D1B1B" stroke-width="1.5" stroke-linecap="round" stroke-linejoin="round"/>
<path d="M19.666 31C19.8334 31.3044 20.0795 31.5583 20.3785 31.7352C20.6775 31.912 21.0186 32.0053 21.366 32.0053C21.7134 32.0053 22.0545 31.912 22.3535 31.7352C22.6526 31.5583 22.8986 31.3044 23.066 31" stroke="#1D1B1B" stroke-width="1.5" stroke-linecap="round" stroke-linejoin="round"/>
</svg>


