<svg width="25" height="24" viewBox="0 0 25 24" fill="none" xmlns="http://www.w3.org/2000/svg">
<path d="M6.36523 8C6.36523 6.4087 6.99738 4.88258 8.12259 3.75736C9.24781 2.63214 10.7739 2 12.3652 2C13.9565 2 15.4827 2.63214 16.6079 3.75736C17.7331 4.88258 18.3652 6.4087 18.3652 8C18.3652 15 21.3652 17 21.3652 17H3.36523C3.36523 17 6.36523 15 6.36523 8Z" stroke="#1D1B1B" stroke-width="1.5" stroke-linecap="round" stroke-linejoin="round"/>
<path d="M10.666 21C10.8334 21.3044 11.0795 21.5583 11.3785 21.7352C11.6775 21.912 12.0186 22.0053 12.366 22.0053C12.7134 22.0053 13.0545 21.912 13.3535 21.7352C13.6526 21.5583 13.8986 21.3044 14.066 21" stroke="#1D1B1B" stroke-width="1.5" stroke-linecap="round" stroke-linejoin="round"/>
</svg>
