<svg width="96" height="96" viewBox="0 0 96 96" fill="none" xmlns="http://www.w3.org/2000/svg">
<path d="M80 84V52C80 49.8783 79.1571 47.8434 77.6569 46.3431C76.1566 44.8429 74.1217 44 72 44H24C21.8783 44 19.8434 44.8429 18.3431 46.3431C16.8429 47.8434 16 49.8783 16 52V84" stroke="black" stroke-width="4" stroke-linecap="round" stroke-linejoin="round"/>
<path d="M16 64C16 64 18 60 24 60C30 60 34 68 40 68C46 68 50 60 56 60C62 60 66 68 72 68C78 68 80 64 80 64" stroke="black" stroke-width="4" stroke-linecap="round" stroke-linejoin="round"/>
<path d="M8 84H88" stroke="black" stroke-width="4" stroke-linecap="round" stroke-linejoin="round"/>
<path d="M28 32V40" stroke="black" stroke-width="4" stroke-linecap="round" stroke-linejoin="round"/>
<path d="M48 32V40" stroke="black" stroke-width="4" stroke-linecap="round" stroke-linejoin="round"/>
<path d="M68 32V40" stroke="black" stroke-width="4" stroke-linecap="round" stroke-linejoin="round"/>
<path d="M28 16H28.04" stroke="black" stroke-width="4" stroke-linecap="round" stroke-linejoin="round"/>
<path d="M48 16H48.04" stroke="black" stroke-width="4" stroke-linecap="round" stroke-linejoin="round"/>
<path d="M68 16H68.04" stroke="black" stroke-width="4" stroke-linecap="round" stroke-linejoin="round"/>
</svg>
