<svg width="62" height="41" viewBox="0 0 62 41" fill="none" xmlns="http://www.w3.org/2000/svg">
<g id="Group 110">
<path id="Vector" d="M3.42049 10.2596C2.71084 10.9308 2.26525 11.8825 2.26525 12.9332V26.4C2.26525 28.4354 3.92659 30.0912 5.96201 30.0912H11.8757V37.3087C11.8757 39.3442 13.5316 41 15.5725 41C17.6134 41 19.2693 39.3442 19.2693 37.3087V26.4C19.2693 24.3646 17.6134 22.7087 15.5725 22.7087H9.65878V12.9332C9.65878 11.8825 9.21319 10.9363 8.50354 10.2596C13.5371 7.60258 11.6172 0 5.96201 0C0.306841 0 -1.64056 7.58607 3.42049 10.2596ZM5.96201 1.65034C8.06345 1.65034 9.7688 3.35019 9.7688 5.44613C9.7688 7.54206 8.06345 9.24192 5.96201 9.24192C3.86058 9.24192 2.15522 7.54206 2.15522 5.44613C2.15522 3.35019 3.86058 1.65034 5.96201 1.65034ZM8.00844 12.9277V23.5284C8.00844 23.985 8.37701 24.3535 8.83361 24.3535H15.5725C16.7002 24.3535 17.6189 25.2667 17.6189 26.3945V37.3032C17.6189 38.4255 16.7002 39.3442 15.5725 39.3442C14.4448 39.3442 13.5261 38.431 13.5261 37.3032V29.2606C13.5261 28.804 13.1575 28.4354 12.7009 28.4354H5.96201C4.83428 28.4354 3.91559 27.5222 3.91559 26.3945V12.9277C3.91559 11.8054 4.83428 10.8868 5.96201 10.8868C7.08975 10.8868 8.00844 11.7999 8.00844 12.9277Z" fill="#FFFFFF"/>
<path id="Vector_2" d="M55.5602 0C49.894 0 47.9961 7.60808 53.0187 10.2596C52.309 10.9308 51.8634 11.8825 51.8634 12.9332V22.7087H45.9497C43.9088 22.7087 42.2529 24.3646 42.2529 26.4V37.3087C42.2529 39.3442 43.9088 41 45.9497 41C47.9906 41 49.6465 39.3442 49.6465 37.3087V30.0912H55.5602C57.6011 30.0912 59.257 28.4354 59.257 26.4V12.9332C59.257 11.8825 58.8114 10.9363 58.1017 10.2596C63.1463 7.59157 61.1989 0 55.5602 0ZM57.6066 12.9277V26.3945C57.6066 27.5167 56.6879 28.4354 55.5602 28.4354H48.8213C48.3647 28.4354 47.9961 28.804 47.9961 29.2606V37.3032C47.9961 38.4255 47.0774 39.3442 45.9497 39.3442C44.822 39.3442 43.9033 38.431 43.9033 37.3032V26.3945C43.9033 25.2722 44.822 24.3535 45.9497 24.3535H52.6886C53.1452 24.3535 53.5138 23.985 53.5138 23.5284V12.9277C53.5138 11.8054 54.4325 10.8868 55.5602 10.8868C56.6879 10.8868 57.6066 11.7999 57.6066 12.9277ZM51.7534 5.44063C51.7534 3.3502 53.4588 1.64484 55.5602 1.64484C57.6616 1.64484 59.367 3.34469 59.367 5.44063C59.367 7.53656 57.6616 9.23641 55.5602 9.23641C53.4588 9.23641 51.7534 7.53656 51.7534 5.44063Z" fill="#FFFFFF"/>
<path id="Vector_3" d="M46.1883 20.7283V16.7785C46.1883 15.3207 45.0055 14.1379 43.5477 14.1379H39.7795V13.0872C39.7795 11.3929 38.6187 9.95156 36.9629 9.58299L34.7899 9.10439C37.9751 5.61667 35.4886 0 30.7631 0C26.0376 0 23.5511 5.61667 26.7363 9.10439L24.5633 9.58299C22.902 9.95156 21.7467 11.3874 21.7467 13.0872V14.1379H17.9784C16.5206 14.1379 15.3379 15.3207 15.3379 16.7785V20.7283C15.3379 21.1849 15.7065 21.5535 16.1631 21.5535H21.7467V40.1693C21.7467 40.6259 22.1153 40.9945 22.5719 40.9945H38.9598C39.4164 40.9945 39.785 40.6259 39.785 40.1693V21.5535H45.3686C45.8252 21.5535 46.1938 21.1849 46.1938 20.7283H46.1883ZM38.1291 39.3442H23.3916V21.5535H38.1291V39.3442ZM16.9882 19.9031V16.7785C16.9882 16.2339 17.4338 15.7883 17.9784 15.7883H43.5532C44.0979 15.7883 44.5434 16.2339 44.5434 16.7785V19.9031H16.9882ZM23.3971 13.0872C23.3971 12.174 24.0242 11.3929 24.9209 11.1948L28.5241 10.3972C29.9599 11.0463 31.5773 11.0463 33.0131 10.3972L36.6163 11.1948C37.513 11.3929 38.1401 12.1685 38.1401 13.0872V14.1379H23.4026V13.0872H23.3971ZM26.9618 5.44613C26.9618 3.3557 28.6672 1.65034 30.7686 1.65034C32.87 1.65034 34.5754 3.35019 34.5754 5.44613C34.5754 7.54206 32.826 9.24192 30.7686 9.24192C28.7112 9.24192 26.9618 7.56407 26.9618 5.44613Z" fill="#FFFFFF"/>
</g>
</svg>
