<svg width="20" height="20" viewBox="0 0 20 20" fill="none" xmlns="http://www.w3.org/2000/svg">
<g id="building-2" clip-path="url(#clip0_957_11827)">
<path id="Vector" d="M5 18.3332V3.33317C5 2.89114 5.17559 2.46722 5.48816 2.15466C5.80072 1.8421 6.22464 1.6665 6.66667 1.6665H13.3333C13.7754 1.6665 14.1993 1.8421 14.5118 2.15466C14.8244 2.46722 15 2.89114 15 3.33317V18.3332H5Z" stroke="black" stroke-width="1.5" stroke-linecap="round" stroke-linejoin="round"/>
<path id="Vector_2" d="M4.99935 10H3.33268C2.89065 10 2.46673 10.1756 2.15417 10.4882C1.84161 10.8007 1.66602 11.2246 1.66602 11.6667V16.6667C1.66602 17.1087 1.84161 17.5326 2.15417 17.8452C2.46673 18.1577 2.89065 18.3333 3.33268 18.3333H4.99935" stroke="black" stroke-width="1.5" stroke-linecap="round" stroke-linejoin="round"/>
<path id="Vector_3" d="M15 7.5H16.6667C17.1087 7.5 17.5326 7.6756 17.8452 7.98816C18.1577 8.30072 18.3333 8.72464 18.3333 9.16667V16.6667C18.3333 17.1087 18.1577 17.5326 17.8452 17.8452C17.5326 18.1577 17.1087 18.3333 16.6667 18.3333H15" stroke="black" stroke-width="1.5" stroke-linecap="round" stroke-linejoin="round"/>
<path id="Vector_4" d="M8.33398 5H11.6673" stroke="black" stroke-width="1.5" stroke-linecap="round" stroke-linejoin="round"/>
<path id="Vector_5" d="M8.33398 8.33301H11.6673" stroke="black" stroke-width="1.5" stroke-linecap="round" stroke-linejoin="round"/>
<path id="Vector_6" d="M8.33398 11.667H11.6673" stroke="black" stroke-width="1.5" stroke-linecap="round" stroke-linejoin="round"/>
<path id="Vector_7" d="M8.33398 15H11.6673" stroke="black" stroke-width="1.5" stroke-linecap="round" stroke-linejoin="round"/>
</g>
<defs>
<clipPath id="clip0_957_11827">
<rect width="20" height="20" fill="white"/>
</clipPath>
</defs>
</svg>
