<svg width="15" height="15" viewBox="0 0 15 15" fill="none" xmlns="http://www.w3.org/2000/svg">
<path d="M13.5027 1.6619H10.6321V0.568336C10.6321 0.493154 10.5705 0.431641 10.4954 0.431641H9.53849C9.4633 0.431641 9.40179 0.493154 9.40179 0.568336V1.6619H5.02753V0.568336C5.02753 0.493154 4.96602 0.431641 4.89084 0.431641H3.93397C3.85879 0.431641 3.79727 0.493154 3.79727 0.568336V1.6619H0.926665C0.624226 1.6619 0.379883 1.90624 0.379883 2.20868V13.5544C0.379883 13.8569 0.624226 14.1012 0.926665 14.1012H13.5027C13.8051 14.1012 14.0494 13.8569 14.0494 13.5544V2.20868C14.0494 1.90624 13.8051 1.6619 13.5027 1.6619ZM12.8192 12.8709H1.61014V6.3779H12.8192V12.8709ZM1.61014 5.21599V2.89216H3.79727V3.71233C3.79727 3.78752 3.85879 3.84903 3.93397 3.84903H4.89084C4.96602 3.84903 5.02753 3.78752 5.02753 3.71233V2.89216H9.40179V3.71233C9.40179 3.78752 9.4633 3.84903 9.53849 3.84903H10.4954C10.5705 3.84903 10.6321 3.78752 10.6321 3.71233V2.89216H12.8192V5.21599H1.61014Z" fill="currentColor" />
</svg>
