<svg width="18" height="19" viewBox="0 0 18 19" fill="none" xmlns="http://www.w3.org/2000/svg">
<g id="Layer 21">
<path id="Vector" d="M5.42615 10.2929C7.76919 9.67651 10.2318 9.67651 12.5749 10.2929C12.6287 10.2991 12.683 10.2991 12.7368 10.2929C12.8744 10.2925 13.0079 10.2465 13.1166 10.1622C13.192 10.1042 13.2531 10.0297 13.2952 9.94439C13.3372 9.85911 13.3593 9.76533 13.3595 9.67023V5.37976C13.3707 4.21837 12.9231 3.0995 12.1141 2.2662C11.712 1.84665 11.2284 1.51369 10.693 1.28775C10.1576 1.06181 9.58162 0.947652 9.00051 0.952284C7.8356 0.962155 6.72224 1.43397 5.90494 2.26411C5.08765 3.09425 4.63324 4.21484 4.64154 5.37976V9.67023C4.63817 9.7676 4.6577 9.86441 4.69855 9.95286C4.73941 10.0413 4.80045 10.1189 4.87676 10.1795C4.95308 10.2401 5.04254 10.2819 5.13796 10.3016C5.23338 10.3213 5.33209 10.3183 5.42615 10.2929ZM5.88696 5.37976C5.87865 4.54514 6.20184 3.74132 6.78558 3.14474C7.36931 2.54816 8.16591 2.20756 9.00051 2.19771C9.41106 2.1965 9.81757 2.27867 10.1954 2.43923C10.5733 2.59978 10.9146 2.83539 11.1987 3.13177C11.492 3.42755 11.7239 3.77846 11.881 4.16428C12.0381 4.5501 12.1173 4.96319 12.1141 5.37976V8.87939C10.0591 8.46425 7.9419 8.46425 5.88696 8.87939V5.37976ZM17.0957 7.8021C17.0957 7.96725 17.0301 8.12564 16.9134 8.24242C16.7966 8.3592 16.6382 8.42481 16.473 8.42481H15.813C15.6613 9.62896 15.0752 10.7363 14.1648 11.5389C13.2544 12.3415 12.0823 12.7842 10.8686 12.7838H9.62322V13.4065H12.1141C12.6095 13.4065 13.0847 13.6033 13.435 13.9537C13.7854 14.304 13.9822 14.7792 13.9822 15.2746C13.9822 15.4398 13.9166 15.5982 13.7998 15.715C13.683 15.8317 13.5246 15.8973 13.3595 15.8973C13.1943 15.8973 13.0359 15.8317 12.9192 15.715C12.8024 15.5982 12.7368 15.4398 12.7368 15.2746C12.7368 15.1095 12.6712 14.9511 12.5544 14.8343C12.4376 14.7175 12.2792 14.6519 12.1141 14.6519H9.62322C9.62322 14.8171 9.55762 14.9755 9.44083 15.0922C9.32405 15.209 9.16566 15.2746 9.00051 15.2746C8.83536 15.2746 8.67697 15.209 8.56019 15.0922C8.44341 14.9755 8.3778 14.8171 8.3778 14.6519H5.88696C5.72181 14.6519 5.56342 14.7175 5.44664 14.8343C5.32985 14.9511 5.26425 15.1095 5.26425 15.2746C5.26425 15.4398 5.19864 15.5982 5.08186 15.715C4.96508 15.8317 4.80669 15.8973 4.64154 15.8973C4.47638 15.8973 4.318 15.8317 4.20121 15.715C4.08443 15.5982 4.01883 15.4398 4.01883 15.2746C4.01883 14.7792 4.21565 14.304 4.56599 13.9537C4.91633 13.6033 5.3915 13.4065 5.88696 13.4065H8.3778V12.7838H7.13238C5.91871 12.7842 4.74663 12.3415 3.83624 11.5389C2.92584 10.7363 2.33977 9.62896 2.18806 8.42481H1.52798C1.36283 8.42481 1.20444 8.3592 1.08766 8.24242C0.97088 8.12564 0.905273 7.96725 0.905273 7.8021C0.905273 7.63695 0.97088 7.47856 1.08766 7.36178C1.20444 7.245 1.36283 7.17939 1.52798 7.17939H2.77341C2.93856 7.17939 3.09695 7.245 3.21373 7.36178C3.33051 7.47856 3.39612 7.63695 3.39612 7.8021C3.39612 8.79302 3.78976 9.74335 4.49044 10.444C5.19113 11.1447 6.14146 11.5384 7.13238 11.5384H10.8686C11.8596 11.5384 12.8099 11.1447 13.5106 10.444C14.2113 9.74335 14.6049 8.79302 14.6049 7.8021C14.6049 7.63695 14.6705 7.47856 14.7873 7.36178C14.9041 7.245 15.0625 7.17939 15.2276 7.17939H16.473C16.6382 7.17939 16.7966 7.245 16.9134 7.36178C17.0301 7.47856 17.0957 7.63695 17.0957 7.8021ZM10.2459 17.1428C10.2459 17.3891 10.1729 17.6299 10.036 17.8347C9.89919 18.0395 9.70468 18.1991 9.47711 18.2934C9.24954 18.3876 8.99913 18.4123 8.75754 18.3643C8.51595 18.3162 8.29404 18.1976 8.11987 18.0234C7.94569 17.8492 7.82708 17.6273 7.77902 17.3857C7.73097 17.1441 7.75563 16.8937 7.84989 16.6662C7.94415 16.4386 8.10378 16.2441 8.30859 16.1072C8.5134 15.9704 8.75419 15.8973 9.00051 15.8973C9.33082 15.8973 9.64759 16.0286 9.88116 16.2621C10.1147 16.4957 10.2459 16.8125 10.2459 17.1428ZM15.2276 17.1428C15.2276 17.3891 15.1546 17.6299 15.0177 17.8347C14.8809 18.0395 14.6864 18.1991 14.4588 18.2934C14.2312 18.3876 13.9808 18.4123 13.7392 18.3643C13.4976 18.3162 13.2757 18.1976 13.1016 18.0234C12.9274 17.8492 12.8088 17.6273 12.7607 17.3857C12.7127 17.1441 12.7373 16.8937 12.8316 16.6662C12.9258 16.4386 13.0855 16.2441 13.2903 16.1072C13.4951 15.9704 13.7359 15.8973 13.9822 15.8973C14.3125 15.8973 14.6293 16.0286 14.8628 16.2621C15.0964 16.4957 15.2276 16.8125 15.2276 17.1428ZM5.26425 17.1428C5.26425 17.3891 5.1912 17.6299 5.05436 17.8347C4.91751 18.0395 4.723 18.1991 4.49543 18.2934C4.26786 18.3876 4.01744 18.4123 3.77586 18.3643C3.53427 18.3162 3.31236 18.1976 3.13818 18.0234C2.96401 17.8492 2.84539 17.6273 2.79734 17.3857C2.74928 17.1441 2.77394 16.8937 2.86821 16.6662C2.96247 16.4386 3.1221 16.2441 3.32691 16.1072C3.53172 15.9704 3.77251 15.8973 4.01883 15.8973C4.34913 15.8973 4.66591 16.0286 4.89947 16.2621C5.13303 16.4957 5.26425 16.8125 5.26425 17.1428Z" fill="black"/>
</g>
</svg>
