<svg width="20" height="20" viewBox="0 0 20 20" fill="none" xmlns="http://www.w3.org/2000/svg">
<path d="M8.33398 1.66797H11.6673" stroke="currentColor" stroke-width="1.2" stroke-linecap="round" stroke-linejoin="round"/>
<path d="M17.5 6.66841L15.8333 8.33507L14.5833 5.25174C14.4655 4.93619 14.2547 4.66376 13.9789 4.47037C13.7031 4.27698 13.3752 4.1717 13.0383 4.16841H7C6.66042 4.16061 6.32656 4.25675 6.04314 4.44396C5.75972 4.63117 5.54026 4.90051 5.41417 5.21591L4.16667 8.33507L2.5 6.66841" stroke="currentColor" stroke-width="1.2" stroke-linecap="round" stroke-linejoin="round"/>
<path d="M5.83398 11.668H5.84148" stroke="currentColor" stroke-width="1.2" stroke-linecap="round" stroke-linejoin="round"/>
<path d="M14.166 11.668H14.1735" stroke="currentColor" stroke-width="1.2" stroke-linecap="round" stroke-linejoin="round"/>
<path d="M15.8333 8.33203H4.16667C3.24619 8.33203 2.5 9.07822 2.5 9.9987V13.332C2.5 14.2525 3.24619 14.9987 4.16667 14.9987H15.8333C16.7538 14.9987 17.5 14.2525 17.5 13.332V9.9987C17.5 9.07822 16.7538 8.33203 15.8333 8.33203Z" stroke="currentColor" stroke-width="1.2" stroke-linecap="round" stroke-linejoin="round"/>
<path d="M4.16602 15V16.6667" stroke="currentColor" stroke-width="1.2" stroke-linecap="round" stroke-linejoin="round"/>
<path d="M15.834 15V16.6667" stroke="currentColor" stroke-width="1.2" stroke-linecap="round" stroke-linejoin="round"/>
</svg>
