<svg width="20" height="18" viewBox="0 0 20 18" fill="none" xmlns="http://www.w3.org/2000/svg">
<g clip-path="url(#clip0_2_1098)">
<path d="M9.60798 0.287109C4.40998 0.287109 0.179688 3.67424 0.179688 7.83853C0.179688 12.0028 4.40998 15.4041 9.60798 15.4041C10.6632 15.4063 11.7141 15.2636 12.7307 14.9803L17.5997 17.0504L16.9726 12.5732C18.2642 11.3396 19.0084 9.63826 19.0384 7.85013C19.0363 3.67639 14.806 0.287109 9.60755 0.287109H9.60798ZM16.4107 15.4879L12.7882 13.9594L12.6226 14.0076C11.6438 14.2969 10.6284 14.4426 9.60798 14.4409C4.93844 14.4409 1.14053 11.4728 1.14053 7.84068C1.14053 4.20853 4.93801 1.24995 9.60798 1.24995C14.2779 1.24995 18.0754 4.20596 18.0754 7.84068C18.0754 9.36919 17.3861 10.859 16.1323 12.0363L15.9495 12.2074L16.4111 15.4884L16.4107 15.4879Z" fill="#C8C8C8"/>
<path d="M8.86343 8.77654H6.35543V7.46854H8.86343V5.04454H10.2074V7.46854H12.7154V8.77654H10.2074V11.2365H8.86343V8.77654Z" fill="#C8C8C8"/>
</g>
<defs>
<clipPath id="clip0_2_1098">
<rect width="18.8587" height="16.7633" fill="white" transform="translate(0.179688 0.287109)"/>
</clipPath>
</defs>
</svg>
