<svg width="16" height="21" viewBox="0 0 16 21" fill="none" xmlns="http://www.w3.org/2000/svg">
<g clip-path="url(#clip0_2152_9988)">
<path d="M8.00195 2.14648C3.5841 2.14648 0.00195312 5.72863 0.00195312 10.1465C0.00195312 14.5643 3.5841 18.1465 8.00195 18.1465C12.4198 18.1465 16.002 14.5643 16.002 10.1465C16.002 5.72863 12.4198 2.14648 8.00195 2.14648ZM8.00195 16.7893C4.3341 16.7893 1.3591 13.8143 1.3591 10.1465C1.3591 6.47863 4.3341 3.50363 8.00195 3.50363C11.6698 3.50363 14.6448 6.47863 14.6448 10.1465C14.6448 13.8143 11.6698 16.7893 8.00195 16.7893Z" fill="currentColor"/>
<path d="M11.1217 12.4055L8.57531 10.5645V6.14481C8.57531 6.06624 8.51102 6.00195 8.43245 6.00195H7.57352C7.49495 6.00195 7.43066 6.06624 7.43066 6.14481V11.0627C7.43066 11.1091 7.45209 11.152 7.48959 11.1787L10.4432 13.3323C10.5075 13.3787 10.5967 13.3645 10.6432 13.302L11.1539 12.6055C11.2003 12.5395 11.186 12.4502 11.1217 12.4055Z" fill="currentColor"/>
</g>
<defs>
<clipPath id="clip0_2152_9988">
<rect width="16" height="20" fill="white" transform="translate(0 0.143555)"/>
</clipPath>
</defs>
</svg>
