<svg width="329" height="202" viewBox="0 0 329 202" fill="none" xmlns="http://www.w3.org/2000/svg">
<path d="M248.899 193.4C248.399 191.6 247.099 190 245.399 189.4C243.599 188.8 241.399 189.7 240.899 191.5C239.299 190.2 236.799 191.2 235.499 192.9C233.399 195.6 234.999 200 235.399 200.2C235.799 200.5 236.799 200.5 236.799 200.5L252.499 200.4C252.499 200.4 255.4 200.2 256.7 199.7C259.4 198.6 261.199 194 259.499 191.7C258.299 190.1 256 189.8 254.1 190.4C252.2 190.9 250.399 192.1 248.899 193.4Z" fill="#F49D7C"/>
<path d="M236.499 201C236.099 201 235.399 200.9 234.999 200.6C234.399 200.1 232.799 195.4 234.999 192.5C235.899 191.3 237.299 190.5 238.699 190.3C239.399 190.2 239.999 190.3 240.599 190.6C240.899 190 241.499 189.5 242.099 189.1C243.099 188.6 244.399 188.4 245.499 188.8C247.099 189.3 248.399 190.6 249.099 192.4C250.599 191.2 252.299 190.2 253.899 189.7C255.799 189.1 258.399 189.3 259.799 191.2C260.599 192.3 260.799 193.9 260.299 195.6C259.699 197.6 258.299 199.4 256.799 200C255.399 200.6 252.599 200.8 252.399 200.8L236.699 200.9C236.699 201 236.599 201 236.499 201ZM239.099 191.4C238.999 191.4 238.899 191.4 238.799 191.4C237.799 191.5 236.599 192.2 235.799 193.2C233.999 195.6 235.299 199.5 235.599 199.9C235.699 200 236.199 200 236.599 200L252.299 199.9C252.299 199.9 255.099 199.7 256.299 199.2C257.499 198.7 258.699 197.2 259.199 195.5C259.599 194.1 259.499 192.8 258.899 192C257.799 190.5 255.599 190.4 254.099 190.9C252.499 191.4 250.699 192.5 249.099 193.9C248.999 194 248.799 194.1 248.599 194C248.399 194 248.299 193.8 248.199 193.7C247.599 191.9 246.499 190.5 244.999 190.1C244.199 189.8 243.199 189.9 242.399 190.3C241.699 190.6 241.299 191.2 241.099 191.8C240.999 192 240.899 192.1 240.799 192.1C240.599 192.1 240.499 192.1 240.299 192C240.099 191.5 239.599 191.4 239.099 191.4Z" fill="#E49273"/>
<path d="M232.4 192.8C232 193.7 231.8 194.6 231.9 195.6C232 196.1 232.7 196.1 232.7 195.6C232.6 194.8 232.7 193.9 233.1 193.2C233.3 192.7 232.6 192.4 232.4 192.8Z" fill="#E49273"/>
<path d="M230.1 193.4C229.9 194.3 229.8 195.2 230 196C230.1 196.5 230.9 196.3 230.8 195.8C230.6 195 230.7 194.3 230.9 193.6C231 193.1 230.2 192.9 230.1 193.4Z" fill="#E49273"/>
<path d="M234.5 191.8C235 191.8 235 191 234.5 191C234 191.1 234 191.8 234.5 191.8Z" fill="#E49273"/>
<path d="M236.699 195.6C236.699 195.8 236.699 196.1 236.699 196.3C236.699 196.8 237.499 196.8 237.499 196.3C237.499 196.1 237.499 195.8 237.499 195.6C237.499 195.1 236.699 195.1 236.699 195.6Z" fill="#E49273"/>
<path d="M249.8 196.8C249.8 196.9 249.8 197 249.8 197.1C249.8 197.6 250.6 197.6 250.6 197.1C250.6 197 250.6 196.9 250.6 196.8C250.6 196.3 249.8 196.3 249.8 196.8Z" fill="#E49273"/>
<path d="M248.4 195.9C248.5 196 248.5 196 248.6 196.1C249 196.5 249.5 195.9 249.1 195.6C249 195.5 249 195.5 248.9 195.4C248.6 195 248 195.5 248.4 195.9Z" fill="#E49273"/>
<path d="M27.4 178.7H1C0.4 178.7 0 178.2 0 177.7C0 177.1 0.5 176.7 1 176.7H27.3C27.9 176.7 28.3 177.2 28.3 177.7C28.4 178.3 27.9 178.7 27.4 178.7Z" fill="#1D1B1B"/>
<path d="M259.2 87.4H258.4C258.4 86.8 257.9 86.3 257.3 86.3C256.7 86.3 256.2 86.8 256.2 87.4H255.4C255.4 86.4 256.2 85.5 257.3 85.5C258.4 85.5 259.2 86.4 259.2 87.4Z" fill="white"/>
<path d="M261.9 43.6002H261.1C261.1 43.0002 260.6 42.5002 260 42.5002C259.4 42.5002 258.9 43.0002 258.9 43.6002H258.1C258.1 42.6002 258.9 41.7002 260 41.7002C261 41.8002 261.9 42.6002 261.9 43.6002Z" fill="white"/>
<path d="M168.3 195.8H132.5L133.1 194.4C135.4 188.8 135.7 184.1 135.3 178.6L135.2 177.5L165.4 177.4V178.4C165.4 181.9 166.4 189.9 167.8 194.4L168.3 195.8ZM135.6 193.7H165.5C164.3 189.3 163.6 183.1 163.4 179.4L137.5 179.5C137.7 184.4 137.4 188.8 135.6 193.7Z" fill="#1D1B1B"/>
<path d="M122.2 179.4C94.9996 179.4 72.9996 179.3 72.0996 178.9C69.7996 178.1 66.6996 174.8 66.6996 172.6C66.5996 167.6 66.3996 160.9 66.1996 153.1C65.4996 129.6 64.3996 97.3002 65.7996 79.5002C65.9996 76.2002 68.6996 73.7002 71.8996 73.7002H71.9996L228.6 73.9002C231.9 74.0002 234.6 76.6002 234.6 80.0002C234.7 85.2002 234.9 90.5002 235.1 95.9002C235.8 118.5 236.6 141.9 234.1 164C234 164.9 234 165.8 233.9 166.8C233.7 171.4 233.4 177.2 227.5 178.4C224.4 179 166.5 179.4 122.2 179.4ZM71.7996 75.4002C69.3996 75.4002 67.4996 77.2002 67.2996 79.6002C65.9996 97.4002 66.9996 129.5 67.6996 153C67.8996 160.8 68.1996 167.6 68.1996 172.5C68.1996 173.9 70.5996 176.6 72.4996 177.3C75.7996 178 223.1 177.5 226.9 176.8C231.6 175.9 231.8 171.2 232 166.8C232 165.8 232.1 164.8 232.2 163.9C234.7 141.9 233.9 118.6 233.2 96.1002C233 90.7002 232.9 85.4002 232.7 80.2002C232.6 77.7002 230.7 75.8002 228.3 75.7002L71.7996 75.4002C71.8996 75.4002 71.7996 75.4002 71.7996 75.4002Z" fill="#1D1B1B"/>
<path fill-rule="evenodd" clip-rule="evenodd" d="M224.2 79.4002L76.6003 79.2002C73.9003 79.2002 71.7003 81.0002 71.5003 83.4002C69.8003 103.2 72.1003 144.4 72.4003 161C72.4003 162.6 75.1003 165 77.0003 165.6C79.2003 166.3 219.5 165.8 222.9 165.2C229.1 164.1 228 157.8 228.5 153.8C231.4 131 229.6 106.2 229 83.9002C229 81.3002 226.8 79.4002 224.2 79.4002Z" fill="#DEDEDE"/>
<path d="M181.1 201.5H119.7C117.3 201.5 116 199.6 116 197.7C116 195.8 117.3 193.9 119.7 193.9H181.1C183.5 193.9 184.8 195.8 184.8 197.7C184.8 199.5 183.5 201.5 181.1 201.5ZM119.7 195.5C118.1 195.5 117.7 196.8 117.7 197.6C117.7 198.4 118.1 199.7 119.7 199.7H181.1C182.7 199.7 183.1 198.4 183.1 197.6C183.1 196.8 182.7 195.5 181.1 195.5H119.7Z" fill="#1D1B1B"/>
<path d="M76.9 173.6C79.7 173.6 79.7 169.3 76.9 169.3C74.2 169.3 74.2 173.6 76.9 173.6Z" fill="#1D1B1B"/>
<path d="M85.6 173.6C88.4 173.6 88.4 169.3 85.6 169.3C82.8 169.3 82.8 173.6 85.6 173.6Z" fill="#1D1B1B"/>
<path d="M94.1996 173.6C96.9996 173.6 96.9996 169.3 94.1996 169.3C91.3996 169.3 91.3996 173.6 94.1996 173.6Z" fill="#1D1B1B"/>
<path d="M150.4 78.0996C151.7 78.0996 151.7 76.0996 150.4 76.0996C149.1 76.0996 149.1 78.0996 150.4 78.0996Z" fill="#1D1B1B"/>
<path d="M101.3 22.6L102.7 21.2C103 20.9 103 20.5 102.7 20.2L101.5 19C101.2 18.7 101.1 18.2 101.3 17.8L102.3 15.4C102.4 15 102.8 14.7 103.2 14.7H104.9C105.3 14.7 105.6 14.4 105.6 14V12C105.6 11.6 105.3 11.3 104.9 11.3H103.2C102.8 11.3 102.4 11 102.3 10.6L101.3 8.2C101.1 7.8 101.2 7.3 101.5 7L102.7 5.8C103 5.5 103 5.1 102.7 4.8L101.3 3.4C101 3.1 100.6 3.1 100.3 3.4L99.0996 4.6C98.7996 4.9 98.2996 5 97.8996 4.8L95.4996 3.8C95.0996 3.7 94.7996 3.3 94.7996 2.9V1.2C94.7996 0.800001 94.4996 0.5 94.0996 0.5H92.0996C91.6996 0.5 91.3996 0.800001 91.3996 1.2V2.9C91.3996 3.3 91.0996 3.7 90.6996 3.8L88.2996 4.8C87.8996 5 87.3996 4.9 87.0996 4.6L85.8996 3.4C85.5996 3.1 85.1996 3.1 84.8996 3.4L83.4996 4.8C83.1996 5.1 83.1996 5.5 83.4996 5.8L84.6996 7C84.9996 7.3 85.0996 7.8 84.8996 8.2L83.8996 10.6C83.7996 11 83.3996 11.3 82.9996 11.3H81.2996C80.8996 11.3 80.5996 11.6 80.5996 12V14C80.5996 14.4 80.8996 14.7 81.2996 14.7H82.9996C83.3996 14.7 83.7996 15 83.8996 15.4L84.8996 17.8C85.0996 18.2 84.9996 18.7 84.6996 19L83.4996 20.2C83.1996 20.5 83.1996 20.9 83.4996 21.2L84.8996 22.6C85.1996 22.9 85.5996 22.9 85.8996 22.6L87.0996 21.4C87.3996 21.1 87.8996 21 88.2996 21.2L90.6996 22.2C91.0996 22.3 91.3996 22.7 91.3996 23.1V24.8C91.3996 25.2 91.6996 25.5 92.0996 25.5H94.0996C94.4996 25.5 94.7996 25.2 94.7996 24.8V23.1C94.7996 22.7 95.0996 22.3 95.4996 22.2L97.8996 21.2C98.2996 21 98.7996 21.1 99.0996 21.4L100.3 22.6C100.5 22.9 101 22.9 101.3 22.6ZM92.9996 18.7C89.7996 18.7 87.1996 16.1 87.1996 12.9C87.1996 9.7 89.7996 7.1 92.9996 7.1C96.1996 7.1 98.7996 9.7 98.7996 12.9C98.7996 16.1 96.1996 18.7 92.9996 18.7Z" fill="#D2D2D2"/>
<path d="M114.7 28.1002L114.3 26.9002C114.2 26.7002 114 26.5002 113.7 26.6002L112.7 26.9002C112.5 27.0002 112.2 26.9002 112 26.6002L111 25.3002C110.8 25.1002 110.8 24.8002 110.9 24.6002L111.4 23.7002C111.5 23.5002 111.4 23.2002 111.2 23.1002L110.1 22.5002C109.9 22.4002 109.6 22.5002 109.5 22.7002L109 23.6002C108.9 23.8002 108.6 24.0002 108.3 23.9002L106.7 23.7002C106.5 23.7002 106.2 23.5002 106.1 23.3002L105.8 22.3002C105.7 22.1002 105.5 21.9002 105.2 22.0002L104 22.4002C103.8 22.5002 103.6 22.7002 103.7 23.0002L104 24.0002C104.1 24.2002 104 24.5002 103.7 24.7002L102.4 25.7002C102.2 25.9002 101.9 25.9002 101.7 25.8002L100.8 25.3002C100.6 25.2002 100.3 25.3002 100.2 25.5002L99.5998 26.6002C99.4998 26.8002 99.5998 27.1002 99.7998 27.2002L100.7 27.7002C100.9 27.8002 101.1 28.1002 101 28.4002L100.8 30.0002C100.8 30.2002 100.6 30.5002 100.4 30.6002L99.3998 30.9002C99.1998 31.0002 98.9998 31.2002 99.0998 31.5002L99.4998 32.7002C99.5998 32.9002 99.7998 33.1002 100.1 33.0002L101.1 32.7002C101.3 32.6002 101.6 32.7002 101.8 32.9002L102.8 34.2002C103 34.4002 103 34.7002 102.9 34.9002L102.4 35.8002C102.3 36.0002 102.4 36.3002 102.6 36.4002L103.7 37.0002C103.9 37.1002 104.2 37.0002 104.3 36.8002L104.8 35.9002C104.9 35.7002 105.2 35.5002 105.5 35.6002L107.1 35.8002C107.4 35.8002 107.6 36.0002 107.7 36.2002L108 37.2002C108.1 37.4002 108.3 37.6002 108.6 37.5002L109.8 37.1002C110 37.0002 110.2 36.8002 110.1 36.5002L109.8 35.5002C109.7 35.3002 109.8 35.0002 110 34.8002L111.3 33.8002C111.5 33.6002 111.8 33.6002 112 33.7002L112.9 34.2002C113.1 34.3002 113.4 34.2002 113.5 34.0002L114.1 32.9002C114.2 32.7002 114.1 32.4002 113.9 32.3002L113 31.8002C112.8 31.7002 112.6 31.4002 112.7 31.1002L112.9 29.5002C112.9 29.3002 113.1 29.0002 113.3 28.9002L114.3 28.6002C114.7 28.6002 114.8 28.3002 114.7 28.1002ZM110.2 31.5002C109.3 33.3002 107.1 33.9002 105.3 33.0002C103.5 32.1002 102.9 29.9002 103.8 28.1002C104.7 26.3002 106.9 25.7002 108.7 26.6002C110.5 27.5002 111.2 29.7002 110.2 31.5002Z" fill="#D2D2D2"/>
<path d="M173.6 50.7998H141C140.4 50.7998 140 50.2998 140 49.7998C140 49.1998 140.5 48.7998 141 48.7998H173.6C174.2 48.7998 174.6 49.2998 174.6 49.7998C174.7 50.3998 174.2 50.7998 173.6 50.7998Z" fill="#1D1B1B"/>
<path d="M327.7 93.7002H275C274.4 93.7002 274 93.2002 274 92.7002C274 92.2002 274.5 91.7002 275 91.7002H327.7C328.3 91.7002 328.7 92.2002 328.7 92.7002C328.7 93.2002 328.3 93.7002 327.7 93.7002Z" fill="#1D1B1B"/>
<path d="M261.421 202H33.5719C33.2288 202 33 201.75 33 201.5C33 201.2 33.286 201 33.5719 201H261.421C261.764 201 261.993 201.25 261.993 201.5C262.05 201.75 261.764 202 261.421 202Z" fill="#1D1B1B"/>
<path d="M234.3 37.7998C232.1 37.7998 230 38.6998 228.4 40.1998C225.7 42.8998 225.2 47.0998 227.1 50.2998L227.2 50.4998L218.7 58.9998C218.7 58.9998 218.3 59.3998 218.3 59.9998C218.3 60.3998 218.5 60.8998 218.9 61.2998C219.4 61.7998 219.8 61.9998 220.3 61.9998C220.9 61.9998 221.3 61.6998 221.3 61.6998L229.7 53.1998L229.9 53.2998C231.2 54.0998 232.6 54.3998 234.1 54.3998C236.3 54.3998 238.4 53.4998 240 51.9998C243.3 48.6998 243.3 43.3998 240 40.1998C238.6 38.6998 236.5 37.7998 234.3 37.7998ZM234.3 52.0998C231.1 52.0998 228.4 49.4998 228.4 46.1998C228.4 42.9998 231 40.2998 234.3 40.2998C237.5 40.2998 240.2 42.8998 240.2 46.1998C240.2 49.3998 237.5 52.0998 234.3 52.0998Z" fill="#D2D2D2"/>
<path d="M231.2 47.3994H237.3V45.8994H231.2V47.3994Z" fill="#D2D2D2"/>
<path d="M53.7002 123.5C53.1002 123.5 52.7002 123 52.7002 122.5V118.5C52.7002 117.9 53.2002 117.5 53.7002 117.5C54.3002 117.5 54.7002 118 54.7002 118.5V122.5C54.7002 123.1 54.3002 123.5 53.7002 123.5Z" fill="#1D1B1B"/>
<path d="M55.7002 121.5H51.7002C51.1002 121.5 50.7002 121 50.7002 120.5C50.7002 119.9 51.2002 119.5 51.7002 119.5H55.7002C56.3002 119.5 56.7002 120 56.7002 120.5C56.8002 121.1 56.3002 121.5 55.7002 121.5Z" fill="#1D1B1B"/>
<path d="M179.7 188.201C179.6 188.201 179.5 188.201 179.4 188.201L175.5 187.101C174.9 186.901 174.6 186.401 174.8 185.801C175 185.201 175.5 184.901 176.1 185.101L180 186.201C180.6 186.401 180.9 186.901 180.7 187.501C180.5 187.901 180.1 188.201 179.7 188.201Z" fill="#1D1B1B"/>
<path d="M177.2 189.6C177.1 189.6 177 189.6 176.9 189.6C176.3 189.4 176 188.9 176.2 188.3L177.3 184.4C177.5 183.8 178 183.5 178.6 183.7C179.2 183.9 179.5 184.4 179.3 185L178.2 188.9C178 189.3 177.6 189.6 177.2 189.6Z" fill="#1D1B1B"/>
<path d="M159.3 66.2008C159.2 66.2008 159.1 66.2008 159 66.2008L155.1 65.1008C154.5 64.9008 154.2 64.4008 154.4 63.8008C154.6 63.2008 155.1 62.9008 155.7 63.1008L159.6 64.2008C160.2 64.4008 160.5 64.9008 160.3 65.5008C160.1 65.9008 159.7 66.2008 159.3 66.2008Z" fill="#1D1B1B"/>
<path d="M156.8 67.6004C156.7 67.6004 156.6 67.6004 156.5 67.6004C155.9 67.4004 155.6 66.9004 155.8 66.3004L156.9 62.4004C157.1 61.8004 157.6 61.5004 158.2 61.7004C158.8 61.9004 159.1 62.4004 158.9 63.0004L157.8 66.9004C157.6 67.3004 157.2 67.6004 156.8 67.6004Z" fill="#1D1B1B"/>
<path d="M204.9 184H198.2V190.7H204.9V184Z" fill="white"/>
<path d="M205.4 191.2H197.7V183.5H205.4V191.2ZM198.7 190.2H204.3V184.6H198.7V190.2Z" fill="#1D1B1B"/>
<path d="M213.299 185.5H207.299C207.099 185.5 206.899 185.3 206.899 185.1C206.899 184.9 207.099 184.7 207.299 184.7H213.299C213.499 184.7 213.699 184.9 213.699 185.1C213.699 185.3 213.499 185.5 213.299 185.5Z" fill="#1D1B1B"/>
<path d="M215.6 190.1H207.4C207.1 190.1 206.8 189.9 206.8 189.7C206.8 189.5 207.1 189.3 207.4 189.3H215.6C215.9 189.3 216.2 189.5 216.2 189.7C216.2 189.9 215.9 190.1 215.6 190.1Z" fill="#1D1B1B"/>
<path d="M218.599 187.7H207.299C207.099 187.7 206.899 187.5 206.899 187.3C206.899 187.1 207.099 186.9 207.299 186.9H218.599C218.799 186.9 218.999 187.1 218.999 187.3C218.999 187.5 218.799 187.7 218.599 187.7Z" fill="#1D1B1B"/>
<path d="M58.2 86H51.5V92.7H58.2V86Z" fill="white"/>
<path d="M58.7 93.2H51V85.5H58.7V93.2ZM52 92.1H57.6V86.5H52V92.1Z" fill="#1D1B1B"/>
<path d="M42.9996 87.3996H48.9996C49.1996 87.3996 49.3996 87.1996 49.3996 86.9996C49.3996 86.7996 49.1996 86.5996 48.9996 86.5996H42.9996C42.7996 86.5996 42.5996 86.7996 42.5996 86.9996C42.5996 87.2996 42.7996 87.3996 42.9996 87.3996Z" fill="#1D1B1B"/>
<path d="M40.6996 91.9992H48.8996C49.1996 91.9992 49.4996 91.7992 49.4996 91.5992C49.4996 91.3992 49.1996 91.1992 48.8996 91.1992H40.6996C40.3996 91.1992 40.0996 91.3992 40.0996 91.5992C40.0996 91.7992 40.3996 91.9992 40.6996 91.9992Z" fill="#1D1B1B"/>
<path d="M37.6998 89.5998H48.9998C49.1998 89.5998 49.3998 89.3998 49.3998 89.1998C49.3998 88.9998 49.1998 88.7998 48.9998 88.7998H37.6998C37.4998 88.7998 37.2998 88.9998 37.2998 89.1998C37.2998 89.3998 37.4998 89.5998 37.6998 89.5998Z" fill="#1D1B1B"/>
<path d="M61.0998 144.4C60.7998 142.5 59.4998 137.6 56.4998 139.2C51.6998 141.7 57.4998 151.2 51.6998 152.9C51.3998 149.1 50.5998 146.5 48.8998 146.7C45.3998 147 46.2998 155.2 46.1998 157.1C46.0998 158.9 46.0998 160.8 45.9998 162.7C41.7998 163.4 42.6998 152.6 40.0998 151.1C36.1998 148.8 35.2998 154 35.3998 156.4C35.5998 160.5 36.6998 165.4 40.4998 167.5C41.7998 168.2 43.9998 169 45.6998 168.9C45.6998 172.2 45.7998 175.4 46.3998 178.5H46.4998L48.7998 178.6C48.7998 179.6 50.3998 179.6 50.3998 178.6C50.3998 176.6 51.5998 167 51.7998 158.8C53.6998 159.1 55.9998 158.2 57.2998 157.2C61.3998 154.3 61.7998 148.9 61.0998 144.4Z" fill="#F49D7C"/>
<path d="M49.7001 179.8C49.5001 179.8 49.2001 179.7 49.0001 179.6C48.8001 179.4 48.6001 179.2 48.5001 178.9L46.8001 178.8H46.2001L46.1001 178.4C45.6001 175.8 45.4001 172.8 45.4001 169.2C43.5001 169.2 41.4001 168.3 40.4001 167.7C36.3001 165.4 35.2001 160.2 35.1001 156.2C35.0001 154.6 35.4001 151.3 37.2001 150.2C38.1001 149.7 39.2001 149.8 40.5001 150.5C41.7001 151.2 42.2001 153.4 42.7001 156C43.4001 159.5 44.1001 162 45.7001 162V161.1C45.8001 159.6 45.8001 158.2 45.9001 156.7C45.9001 156.4 45.9001 156 45.9001 155.5C45.8001 152.3 45.6001 146.2 49.0001 145.9C49.5001 145.8 50.0001 146 50.4001 146.4C51.3001 147.2 52.0001 149 52.2001 152C54.3001 151 54.2001 148.6 54.1001 145.7C54.0001 142.8 53.8001 139.8 56.4001 138.5C57.2001 138.1 58.0001 138 58.7001 138.4C60.8001 139.5 61.5001 143.6 61.6001 144.1C62.2001 147.6 62.4001 153.9 57.7001 157.3C56.4001 158.3 54.2001 159.1 52.3001 159C52.2001 164.4 51.6001 170.2 51.3001 174.2C51.1001 176.2 51.0001 177.7 51.0001 178.4C51.0001 178.9 50.8001 179.2 50.4001 179.4C50.1001 179.7 49.9001 179.8 49.7001 179.8ZM46.9001 178L49.4001 178.1V178.5C49.4001 178.7 49.5001 178.8 49.5001 178.8C49.6001 178.9 49.8001 178.9 49.9001 178.8C50.0001 178.7 50.1001 178.7 50.1001 178.5C50.1001 177.8 50.2001 176.3 50.4001 174.3C50.8001 170.3 51.3001 164.1 51.4001 158.7V158.2L51.9001 158.3C53.6001 158.6 55.9001 157.7 57.1001 156.8C61.4001 153.6 61.2001 147.7 60.6001 144.5C60.4001 143.1 59.6001 140.2 58.2001 139.5C57.7001 139.3 57.2001 139.3 56.7001 139.6C54.7001 140.7 54.8001 143.2 54.9001 146C55.0001 149 55.2001 152.4 51.8001 153.4L51.3001 153.6V153.1C51.0001 149.3 50.3001 148 49.7001 147.5C49.5001 147.3 49.2001 147.2 48.9001 147.2C46.3001 147.4 46.5001 153.1 46.6001 155.9C46.6001 156.5 46.6001 156.9 46.6001 157.2C46.6001 158.6 46.5001 160.1 46.4001 161.6L46.3001 163.2L46.0001 163.3C43.2001 163.8 42.4001 160 41.6001 156.6C41.1001 154.4 40.7001 152.2 39.8001 151.7C38.8001 151.1 38.0001 151 37.4001 151.4C36.1001 152.2 35.7001 155 35.8001 156.6C36.0001 160.3 37.0001 165.3 40.7001 167.4C42.0001 168.1 44.1001 168.8 45.7001 168.7H46.2001V169.2C46.3001 172.5 46.4001 175.4 46.9001 178Z" fill="#E49273"/>
<path d="M56.5 200.5H39.6C38.7 200.5 38 199.9 37.8 199L34 179.3L35.6 179L39.4 198.7C39.4 198.9 39.6 198.9 39.6 198.9H56.5C56.5 198.9 56.7 198.9 56.7 198.7L60.5 179L62.1 179.3L58.3 199C58.2 199.9 57.4 200.5 56.5 200.5Z" fill="#1D1B1B"/>
<path d="M34.2008 173.001H62.2008C62.7008 173.001 63.1008 173.501 63.1008 174.201V178.501C63.1008 179.101 62.7008 179.701 62.2008 179.701H34.2008C33.7008 179.701 33.3008 179.201 33.3008 178.501V174.201C33.3008 173.501 33.7008 173.001 34.2008 173.001Z" fill="#D2D2D2"/>
<path d="M62.2004 180.001H34.2004C33.5004 180.001 32.9004 179.301 32.9004 178.401V174.101C32.9004 173.201 33.5004 172.501 34.2004 172.501H62.2004C62.9004 172.501 63.5004 173.201 63.5004 174.101V178.401C63.5004 179.301 62.9004 180.001 62.2004 180.001ZM34.2004 173.401C34.0004 173.401 33.8004 173.701 33.8004 174.101V178.401C33.8004 178.801 34.0004 179.101 34.2004 179.101H62.2004C62.4004 179.101 62.6004 178.801 62.6004 178.401V174.101C62.6004 173.701 62.4004 173.401 62.2004 173.401H34.2004Z" fill="#1D1B1B"/>
<path d="M62.2 180H34.2C33.5 180 33 179.3 33 178.5V174.2C33 173.3 33.6 172.7 34.2 172.7H62.2C62.9 172.7 63.4 173.4 63.4 174.2V178.5C63.5 179.3 62.9 180 62.2 180ZM34.2 173.4C34 173.4 33.7 173.7 33.7 174.2V178.5C33.7 179 34 179.3 34.2 179.3H62.2C62.4 179.3 62.7 179 62.7 178.5V174.2C62.7 173.7 62.4 173.4 62.2 173.4H34.2Z" fill="#D2D2D2"/>
<path d="M62.2 180.401H34.2C33.3 180.401 32.5 179.501 32.5 178.401V174.101C32.5 173.001 33.3 172.101 34.2 172.101H62.2C63.1 172.101 63.9 173.001 63.9 174.101V178.401C63.9 179.501 63.1 180.401 62.2 180.401ZM34.2 173.801C34.2 173.801 34.1 174.001 34.1 174.201V178.501C34.1 178.701 34.2 178.901 34.2 178.901H62.2C62.2 178.901 62.3 178.801 62.3 178.501V174.201C62.3 174.001 62.2 173.801 62.2 173.801H34.2Z" fill="#1D1B1B"/>
<path d="M37.2998 156.3C37.7998 156.4 38.1998 156.4 38.6998 156.5C39.1998 156.6 39.1998 155.8 38.6998 155.7C38.1998 155.6 37.7998 155.6 37.2998 155.5C36.7998 155.4 36.7998 156.2 37.2998 156.3Z" fill="#E49273"/>
<path d="M39.2998 150.101C39.2998 150.301 39.2998 150.601 39.2998 150.801C39.2998 151.301 40.0998 151.301 40.0998 150.801C40.0998 150.601 40.0998 150.301 40.0998 150.101C40.0998 149.601 39.2998 149.601 39.2998 150.101Z" fill="#E49273"/>
<path d="M41.9999 157.3C42.2999 157.1 42.6999 156.9 42.9999 156.7C43.3999 156.5 42.9999 155.8 42.5999 156C42.2999 156.2 41.8999 156.4 41.5999 156.6C41.0999 156.9 41.4999 157.5 41.9999 157.3Z" fill="#E49273"/>
<path d="M38.0003 166.201C38.4003 165.901 38.8003 165.601 39.2003 165.301C39.6003 165.001 39.2003 164.301 38.8003 164.601C38.4003 164.901 38.0003 165.201 37.6003 165.501C37.2003 165.801 37.6003 166.501 38.0003 166.201Z" fill="#E49273"/>
<path d="M35.1002 159.5C35.4002 159.6 35.7002 159.7 36.0002 159.8C36.5002 160 36.7002 159.2 36.2002 159C35.9002 158.9 35.6002 158.8 35.3002 158.7C34.8002 158.6 34.6002 159.4 35.1002 159.5Z" fill="#E49273"/>
<path d="M40.7001 163.2C40.9001 163.2 41.0001 163.3 41.1001 163.4C41.4001 163.8 42.0001 163.2 41.6001 162.8C41.4001 162.5 41.0001 162.4 40.6001 162.3C40.2001 162.3 40.2001 163.1 40.7001 163.2Z" fill="#E49273"/>
<path d="M42.3996 166.8C42.2996 167.3 42.3996 167.8 42.5996 168.3C42.7996 168.8 43.4996 168.4 43.2996 167.9C43.1996 167.6 43.0996 167.3 43.1996 167C43.1996 166.5 42.4996 166.3 42.3996 166.8Z" fill="#E49273"/>
<path d="M46.4996 167C46.6996 167.1 46.9996 167.1 47.1996 167.2C47.6996 167.3 47.8996 166.6 47.3996 166.4C47.1996 166.3 46.8996 166.3 46.6996 166.2C46.1996 166.1 45.9996 166.8 46.4996 167Z" fill="#E49273"/>
<path d="M49 159.301C49 159.701 49.1 160.101 49.5 160.401C49.9 160.701 50.4 160.201 50.1 159.801C49.9 159.601 49.8 159.501 49.9 159.201C49.8 158.801 49 158.801 49 159.301Z" fill="#E49273"/>
<path d="M48 153.801C47.8 154.101 47.7 154.401 47.8 154.801C47.9 155.301 48.6 155.101 48.6 154.601C48.6 154.401 48.6 154.301 48.7 154.201C48.9 153.701 48.3 153.401 48 153.801Z" fill="#E49273"/>
<path d="M52.2002 156C52.2002 156.2 52.2002 156.5 52.2002 156.7C52.2002 157.2 53.0002 157.2 53.0002 156.7C53.0002 156.5 53.0002 156.2 53.0002 156C53.0002 155.5 52.2002 155.5 52.2002 156Z" fill="#E49273"/>
<path d="M44.9997 154.801C45.1997 154.901 45.2997 155.001 45.4997 155.101C45.8997 155.401 46.2997 154.701 45.8997 154.401C45.6997 154.301 45.5997 154.201 45.3997 154.101C44.9997 153.901 44.5997 154.501 44.9997 154.801Z" fill="#E49273"/>
<path d="M46.2995 148.4C46.4995 148.6 46.4995 148.8 46.4995 149C46.4995 149.5 47.2995 149.5 47.2995 149C47.2995 148.6 47.0995 148.2 46.7995 147.9C46.4995 147.4 45.9995 148 46.2995 148.4Z" fill="#E49273"/>
<path d="M48.2998 146C48.2998 146.3 48.2998 146.7 48.2998 147C48.2998 147.5 49.0998 147.5 49.0998 147C49.0998 146.7 49.0998 146.3 49.0998 146C49.0998 145.5 48.2998 145.5 48.2998 146Z" fill="#E49273"/>
<path d="M53.1 150.6C53.2 150.7 53.3 150.8 53.4 151C53.7 151.4 54.3 150.8 53.9 150.4C53.8 150.3 53.7 150.2 53.6 150C53.3 149.7 52.7 150.2 53.1 150.6Z" fill="#E49273"/>
<path d="M53.9004 145.901C54.2004 145.901 54.6004 145.901 54.9004 146.001C55.4004 146.001 55.4004 145.301 54.9004 145.201C54.6004 145.201 54.2004 145.201 53.9004 145.101C53.4004 145.101 53.4004 145.901 53.9004 145.901Z" fill="#E49273"/>
<path d="M55.0004 139.7C55.2004 139.9 55.5004 140.2 55.7004 140.4C56.1004 140.8 56.6004 140.2 56.2004 139.8C56.0004 139.6 55.7004 139.3 55.5004 139.1C55.2004 138.8 54.6004 139.4 55.0004 139.7Z" fill="#E49273"/>
<path d="M58 137.7C58 138.1 58 138.5 58 138.9C58 139.4 58.8 139.4 58.8 138.9C58.8 138.5 58.8 138.1 58.8 137.7C58.7 137.2 58 137.2 58 137.7Z" fill="#E49273"/>
<path d="M59.4001 145C59.5001 144.8 59.6001 144.7 59.7001 144.5C60.0001 144.1 59.3001 143.7 59.0001 144.1C58.9001 144.3 58.8001 144.4 58.7001 144.6C58.4001 145 59.1001 145.4 59.4001 145Z" fill="#E49273"/>
<path d="M56.7003 152.6C57.0003 152.5 57.3003 152.4 57.6003 152.3C58.1003 152.1 57.9003 151.4 57.4003 151.5C57.1003 151.6 56.8003 151.7 56.5003 151.8C56.1003 152 56.3003 152.8 56.7003 152.6Z" fill="#E49273"/>
<path d="M60.1996 151.5C60.4996 151.4 60.7996 151.4 61.0996 151.3C61.5996 151.2 61.3996 150.4 60.8996 150.5C60.5996 150.6 60.2996 150.6 59.9996 150.7C59.4996 150.9 59.6996 151.6 60.1996 151.5Z" fill="#E49273"/>
<path d="M58 155.2C58 155.3 58 155.3 58 155.4C58 155.9 58.8 155.9 58.8 155.4C58.8 155.3 58.8 155.3 58.8 155.2C58.7 154.7 58 154.7 58 155.2Z" fill="#E49273"/>
<path d="M51.3001 167.101C51.5001 167.001 51.6001 166.901 51.8001 166.801C52.2001 166.501 51.8001 165.801 51.4001 166.101C51.2001 166.201 51.1001 166.301 50.9001 166.401C50.5001 166.701 50.9001 167.301 51.3001 167.101Z" fill="#E49273"/>
<path d="M50.8002 169.9C51.1002 169.6 51.4002 169.4 51.9002 169.3C52.4002 169.2 52.2002 168.4 51.7002 168.5C51.2002 168.6 50.7002 168.9 50.3002 169.3C49.9002 169.7 50.5002 170.3 50.8002 169.9Z" fill="#E49273"/>
<path d="M47.6 170.401C47.7 170.501 47.7 170.601 47.8 170.701C48 171.101 48.7 170.801 48.5 170.301C48.4 170.201 48.4 170.101 48.3 170.001C48.1 169.601 47.4 170.001 47.6 170.401Z" fill="#E49273"/>
<path d="M44.7005 171.2C45.1005 171.4 45.6005 171.5 46.0005 171.4C46.5005 171.3 46.3005 170.6 45.8005 170.6C45.5005 170.7 45.3005 170.6 45.1005 170.5C44.6005 170.3 44.2005 171 44.7005 171.2Z" fill="#E49273"/>
<path d="M51.0996 163.9C51.5996 163.8 52.0996 163.8 52.6996 163.7C53.1996 163.6 53.1996 162.9 52.6996 162.9C52.1996 163 51.6996 163 51.0996 163.1C50.5996 163.1 50.5996 163.9 51.0996 163.9Z" fill="#E49273"/>
<path d="M84.0996 50.0004C86.0996 50.0004 86.0996 46.9004 84.0996 46.9004C82.0996 46.9004 82.0996 50.0004 84.0996 50.0004Z" fill="#1D1B1B"/>
<path d="M290.6 128.9C290.8 128.9 291.1 128.9 291.3 128.9C292.1 128.9 292.9 128.2 292.9 127.3C292.9 126.5 292.2 125.7 291.3 125.7C291.1 125.7 290.8 125.7 290.6 125.7C289.8 125.7 289 126.4 289 127.3C289.1 128.2 289.8 128.9 290.6 128.9Z" fill="#1D1B1B"/>
</svg>
