<svg width="21" height="21" viewBox="0 0 21 21" fill="none" xmlns="http://www.w3.org/2000/svg">
<path d="M16.5026 9.45768H14.8359C12.8193 9.45768 11.7109 8.34935 11.7109 6.33268V4.66602C11.7109 2.64935 12.8193 1.54102 14.8359 1.54102H16.5026C18.5193 1.54102 19.6276 2.64935 19.6276 4.66602V6.33268C19.6276 8.34935 18.5193 9.45768 16.5026 9.45768Z" fill="#262626"/>
<path d="M6.5026 19.4577H4.83594C2.81927 19.4577 1.71094 18.3493 1.71094 16.3327V14.666C1.71094 12.6493 2.81927 11.541 4.83594 11.541H6.5026C8.51927 11.541 9.6276 12.6493 9.6276 14.666V16.3327C9.6276 18.3493 8.51927 19.4577 6.5026 19.4577Z" fill="#262626"/>
<path d="M5.66927 9.45768C3.48594 9.45768 1.71094 7.68268 1.71094 5.49935C1.71094 3.31602 3.48594 1.54102 5.66927 1.54102C7.8526 1.54102 9.6276 3.31602 9.6276 5.49935C9.6276 7.68268 7.8526 9.45768 5.66927 9.45768Z" fill="#262626"/>
<path d="M15.6693 19.4577C13.4859 19.4577 11.7109 17.6827 11.7109 15.4993C11.7109 13.316 13.4859 11.541 15.6693 11.541C17.8526 11.541 19.6276 13.316 19.6276 15.4993C19.6276 17.6827 17.8526 19.4577 15.6693 19.4577Z" fill="#262626"/>
</svg>
