<svg width="21" height="20" viewBox="0 0 21 20" fill="none" xmlns="http://www.w3.org/2000/svg">
<g id="vuesax/outline/category-2">
<g id="category-2">
<path id="Vector" d="M16.5807 8.95866H14.9141C12.8974 8.95866 11.7891 7.85033 11.7891 5.83366V4.16699C11.7891 2.15033 12.8974 1.04199 14.9141 1.04199H16.5807C18.5974 1.04199 19.7057 2.15033 19.7057 4.16699V5.83366C19.7057 7.85033 18.5974 8.95866 16.5807 8.95866ZM14.9141 2.29199C13.5974 2.29199 13.0391 2.85033 13.0391 4.16699V5.83366C13.0391 7.15033 13.5974 7.70866 14.9141 7.70866H16.5807C17.8974 7.70866 18.4557 7.15033 18.4557 5.83366V4.16699C18.4557 2.85033 17.8974 2.29199 16.5807 2.29199H14.9141Z" fill="#6F6F6F"/>
<path id="Vector_2" d="M6.58073 18.9587H4.91406C2.8974 18.9587 1.78906 17.8503 1.78906 15.8337V14.167C1.78906 12.1503 2.8974 11.042 4.91406 11.042H6.58073C8.5974 11.042 9.70573 12.1503 9.70573 14.167V15.8337C9.70573 17.8503 8.5974 18.9587 6.58073 18.9587ZM4.91406 12.292C3.5974 12.292 3.03906 12.8503 3.03906 14.167V15.8337C3.03906 17.1503 3.5974 17.7087 4.91406 17.7087H6.58073C7.8974 17.7087 8.45573 17.1503 8.45573 15.8337V14.167C8.45573 12.8503 7.8974 12.292 6.58073 12.292H4.91406Z" fill="#6F6F6F"/>
<path id="Vector_3" d="M5.7474 8.95866C3.56406 8.95866 1.78906 7.18366 1.78906 5.00033C1.78906 2.81699 3.56406 1.04199 5.7474 1.04199C7.93073 1.04199 9.70573 2.81699 9.70573 5.00033C9.70573 7.18366 7.93073 8.95866 5.7474 8.95866ZM5.7474 2.29199C4.25573 2.29199 3.03906 3.50866 3.03906 5.00033C3.03906 6.49199 4.25573 7.70866 5.7474 7.70866C7.23906 7.70866 8.45573 6.49199 8.45573 5.00033C8.45573 3.50866 7.23906 2.29199 5.7474 2.29199Z" fill="#6F6F6F"/>
<path id="Vector_4" d="M15.7474 18.9587C13.5641 18.9587 11.7891 17.1837 11.7891 15.0003C11.7891 12.817 13.5641 11.042 15.7474 11.042C17.9307 11.042 19.7057 12.817 19.7057 15.0003C19.7057 17.1837 17.9307 18.9587 15.7474 18.9587ZM15.7474 12.292C14.2557 12.292 13.0391 13.5087 13.0391 15.0003C13.0391 16.492 14.2557 17.7087 15.7474 17.7087C17.2391 17.7087 18.4557 16.492 18.4557 15.0003C18.4557 13.5087 17.2391 12.292 15.7474 12.292Z" fill="#6F6F6F"/>
</g>
</g>
</svg>
