<svg width="57" height="51" viewBox="0 0 57 51" fill="none" xmlns="http://www.w3.org/2000/svg">
<g id="Group">
<g id="Group_2">
<g id="Group_3">
<g id="Group_4">
<path id="Vector" d="M33.7038 50.0901H22.826C22.2016 50.0901 21.6953 49.6022 21.6953 48.9992V40.087C21.6953 39.484 22.2016 38.9961 22.826 38.9961H33.7038C34.3282 38.9961 34.8345 39.484 34.8345 40.087V48.9992C34.8345 49.6022 34.3282 50.0901 33.7038 50.0901ZM23.9568 47.9084H32.573V41.1778H23.9568V47.9084Z" fill="#EFEFEF"/>
</g>
</g>
<g id="Group_5">
<g id="Group_6">
<path id="Vector_2" d="M36.3693 50.088H20.162C19.5375 50.088 19.0312 49.6001 19.0312 48.9971C19.0312 48.3942 19.5375 47.9062 20.162 47.9062H36.3693C36.9937 47.9062 37.5 48.3942 37.5 48.9971C37.5 49.6001 36.9937 50.088 36.3693 50.088Z" fill="#EFEFEF"/>
</g>
</g>
</g>
<g id="Group_7">
<g id="Group_8">
<path id="Vector_3" d="M55.4056 35.3848H1.13073C0.506288 35.3848 0 34.8969 0 34.294V3.2076C0 1.43921 1.49126 0 3.32427 0H53.2121C55.0451 0 56.5364 1.43921 56.5364 3.2076V34.294C56.5364 34.8969 56.0301 35.3848 55.4056 35.3848ZM2.26145 33.2031H54.2749V3.2076C54.2749 2.64193 53.7979 2.18172 53.2121 2.18172H3.32427C2.73848 2.18172 2.26145 2.64193 2.26145 3.2076V33.2031Z" fill="#EFEFEF"/>
</g>
</g>
<g id="Group_9">
<g id="Group_10">
<g id="Group_11">
<path id="Vector_4" d="M53.2121 41.1879H3.32427C1.49126 41.1879 0 39.7497 0 37.9813V34.3018C0 33.6988 0.506288 33.2109 1.13073 33.2109H55.4056C56.0301 33.2109 56.5364 33.6988 56.5364 34.3018V37.9813C56.5364 39.7497 55.0451 41.1879 53.2121 41.1879ZM2.26145 35.3927V37.9813C2.26145 38.5459 2.73848 39.0061 3.32427 39.0061H53.2121C53.7979 39.0061 54.2749 38.5459 54.2749 37.9813V35.3927H2.26145Z" fill="#EFEFEF"/>
</g>
</g>
</g>
<g id="Group_12">
<g id="Group_13">
<g id="Group_14">
<g id="Group_15">
<path id="Vector_5" d="M36.9184 18.6416C36.294 18.6416 35.7877 18.1537 35.7877 17.5507C35.7877 13.5559 32.4138 10.3067 28.2663 10.3067C24.126 10.3067 20.7575 13.5559 20.7575 17.5507C20.7575 18.1537 20.2513 18.6416 19.6268 18.6416C19.0024 18.6416 18.4961 18.1537 18.4961 17.5507C18.4961 12.3532 22.8788 8.125 28.2663 8.125C33.6604 8.125 38.0492 12.3532 38.0492 17.5507C38.0492 18.1537 37.5429 18.6416 36.9184 18.6416Z" fill="#EFEFEF"/>
</g>
</g>
<g id="Group_16">
<g id="Group_17">
<g id="Group_18">
<path id="Vector_6" d="M22.0438 23.5121H16.9842C16.3598 23.5121 15.8535 23.0242 15.8535 22.4213V17.5401C15.8535 16.9371 16.3598 16.4492 16.9842 16.4492H22.0438C22.6682 16.4492 23.1745 16.9371 23.1745 17.5401V22.4213C23.1745 23.0242 22.6682 23.5121 22.0438 23.5121ZM18.115 21.3304H20.9131V18.6309H18.115V21.3304Z" fill="#EFEFEF"/>
</g>
</g>
<g id="Group_19">
<g id="Group_20">
<path id="Vector_7" d="M39.5653 23.5121H34.5057C33.8813 23.5121 33.375 23.0242 33.375 22.4213V17.5401C33.375 16.9371 33.8813 16.4492 34.5057 16.4492H39.5653C40.1897 16.4492 40.696 16.9371 40.696 17.5401V22.4213C40.696 23.0242 40.1897 23.5121 39.5653 23.5121ZM35.6365 21.3304H38.4346V18.6309H35.6365V21.3304Z" fill="#EFEFEF"/>
</g>
</g>
</g>
</g>
<g id="Group_21">
<g id="Group_22">
<g id="Group_23">
<path id="Vector_8" d="M39.4655 10.3067H17.0663C16.4418 10.3067 15.9355 9.81882 15.9355 9.21586C15.9355 8.61291 16.4418 8.125 17.0663 8.125H39.4655C40.0899 8.125 40.5962 8.61291 40.5962 9.21586C40.5962 9.81882 40.0899 10.3067 39.4655 10.3067Z" fill="#EFEFEF"/>
</g>
</g>
<g id="Group_24">
<g id="Group_25">
<g id="Group_26">
<path id="Vector_9" d="M41.9945 12.7348C39.976 12.7348 38.334 11.1507 38.334 9.20333C38.334 7.25597 39.976 5.67188 41.9945 5.67188C44.013 5.67188 45.655 7.25597 45.655 9.20333C45.655 11.1507 44.013 12.7348 41.9945 12.7348ZM41.9945 7.8536C41.2232 7.8536 40.5954 8.45869 40.5954 9.20333C40.5954 9.94797 41.2232 10.5531 41.9945 10.5531C42.7658 10.5531 43.3935 9.94797 43.3935 9.20333C43.3935 8.45869 42.7658 7.8536 41.9945 7.8536Z" fill="#EFEFEF"/>
</g>
</g>
<g id="Group_27">
<g id="Group_28">
<path id="Vector_10" d="M14.5453 12.7348C12.5267 12.7348 10.8848 11.1507 10.8848 9.20333C10.8848 7.25597 12.5267 5.67188 14.5453 5.67188C16.5638 5.67188 18.2058 7.25597 18.2058 9.20333C18.2058 11.1507 16.5638 12.7348 14.5453 12.7348ZM14.5453 7.8536C13.774 7.8536 13.1462 8.45869 13.1462 9.20333C13.1462 9.94797 13.774 10.5531 14.5453 10.5531C15.3166 10.5531 15.9443 9.94797 15.9443 9.20333C15.9443 8.45869 15.3166 7.8536 14.5453 7.8536Z" fill="#EFEFEF"/>
</g>
</g>
</g>
</g>
</g>
<g id="Group_29">
<g id="Group_30">
<path id="Vector_11" d="M28.2674 38.2747C27.9732 38.2747 27.6794 38.1661 27.4647 37.9583C27.2609 37.7506 27.1367 37.4779 27.1367 37.1838C27.1367 36.9005 27.2609 36.616 27.4647 36.42C27.5773 36.3114 27.7021 36.2347 27.8374 36.1803C28.2559 36.0163 28.7533 36.1143 29.0702 36.42C29.285 36.616 29.3982 36.9005 29.3982 37.1838C29.3982 37.4779 29.285 37.7506 29.0702 37.9583C28.8554 38.1661 28.5728 38.2747 28.2674 38.2747Z" fill="#EFEFEF"/>
</g>
</g>
</g>
</svg>
