<svg width="25" height="26" viewBox="0 0 25 26" fill="none" xmlns="http://www.w3.org/2000/svg">
<g clip-path="url(#clip0_957_60018)">
<path d="M22.4286 1.26571H2.50178C2.04965 1.26111 1.61417 1.43606 1.29088 1.75216C0.967589 2.06827 0.782902 2.49971 0.777344 2.95183V22.9591C0.783908 23.4106 0.969036 23.841 1.29222 24.1563C1.6154 24.4716 2.05031 24.646 2.50178 24.6414H22.4286C22.8808 24.645 23.3159 24.4695 23.6391 24.1532C23.9622 23.8368 24.147 23.4055 24.153 22.9534V2.94608C24.145 2.49529 23.9593 2.0659 23.6364 1.75125C23.3135 1.43659 22.8794 1.26211 22.4286 1.26571Z" fill="#0076B2"/>
<path d="M4.23782 10.0282H7.70777V21.193H4.23782V10.0282ZM5.97376 4.47168C6.37174 4.47168 6.76079 4.58972 7.09168 4.81087C7.42256 5.03202 7.68042 5.34634 7.83264 5.71407C7.98486 6.08179 8.02458 6.48641 7.9468 6.87672C7.86902 7.26703 7.67722 7.6255 7.39567 7.90679C7.11411 8.18807 6.75546 8.37953 6.36507 8.45694C5.97469 8.53435 5.57011 8.49424 5.20253 8.34167C4.83495 8.18911 4.52087 7.93095 4.30004 7.59985C4.07921 7.26875 3.96154 6.87959 3.96191 6.48161C3.96242 5.94836 4.17461 5.43714 4.55185 5.06026C4.92909 4.68338 5.44052 4.47168 5.97376 4.47168ZM9.8844 10.0282H13.2106V11.561H13.2566C13.7203 10.6835 14.8508 9.75804 16.5388 9.75804C20.0528 9.75037 20.7043 12.063 20.7043 15.0616V21.193H17.2343V15.761C17.2343 14.4677 17.2113 12.8026 15.4313 12.8026C13.6513 12.8026 13.3486 14.2128 13.3486 15.6767V21.193H9.8844V10.0282Z" fill="white"/>
</g>
<defs>
<clipPath id="clip0_957_60018">
<rect width="24.5253" height="24.5253" fill="white" transform="translate(0.202637 0.69043)"/>
</clipPath>
</defs>
</svg>
