<svg width="28" height="28" viewBox="0 0 28 28" fill="none" xmlns="http://www.w3.org/2000/svg">
<circle cx="14" cy="14" r="13.3" fill="#E49273" stroke="white" stroke-width="1.4"/>
<path d="M19.6 8.4H17.381L16.1 7H11.9L10.619 8.4H8.4C8.0287 8.4 7.6726 8.5475 7.41005 8.81005C7.1475 9.0726 7 9.4287 7 9.8V18.2C7 18.5713 7.1475 18.9274 7.41005 19.1899C7.6726 19.4525 8.0287 19.6 8.4 19.6H19.6C19.9713 19.6 20.3274 19.4525 20.5899 19.1899C20.8525 18.9274 21 18.5713 21 18.2V9.8C21 9.4287 20.8525 9.0726 20.5899 8.81005C20.3274 8.5475 19.9713 8.4 19.6 8.4ZM19.6 18.2H8.4V9.8H11.235L12.516 8.4H15.484L16.765 9.8H19.6V18.2ZM14 10.5C13.0717 10.5 12.1815 10.8687 11.5251 11.5251C10.8687 12.1815 10.5 13.0717 10.5 14C10.5 14.9283 10.8687 15.8185 11.5251 16.4749C12.1815 17.1313 13.0717 17.5 14 17.5C14.9283 17.5 15.8185 17.1313 16.4749 16.4749C17.1313 15.8185 17.5 14.9283 17.5 14C17.5 13.0717 17.1313 12.1815 16.4749 11.5251C15.8185 10.8687 14.9283 10.5 14 10.5ZM14 16.1C13.443 16.1 12.9089 15.8788 12.5151 15.4849C12.1212 15.0911 11.9 14.557 11.9 14C11.9 13.443 12.1212 12.9089 12.5151 12.5151C12.9089 12.1212 13.443 11.9 14 11.9C14.557 11.9 15.0911 12.1212 15.4849 12.5151C15.8788 12.9089 16.1 13.443 16.1 14C16.1 14.557 15.8788 15.0911 15.4849 15.4849C15.0911 15.8788 14.557 16.1 14 16.1Z" fill="white"/>
</svg>
