<svg width="44" height="44" viewBox="0 0 44 44" fill="none" xmlns="http://www.w3.org/2000/svg">
<rect width="44" height="44" rx="22" fill="#F47920"/>
<g clip-path="url(#clip0_7055_13886)">
<path d="M15.5273 17.3311L18.6257 12.7422L20.3866 13.2143L18.3619 16.4339L19.8706 17.0204L22.021 13.6575L23.9542 14.1759L21.868 17.7878L23.322 18.3542L25.5913 14.6098L27.9848 15.2513L24.3355 21.0261L15.5273 17.3311Z" fill="white"/>
<path d="M21.6528 25.3142L23.7865 21.8917L25.4945 24.4549L26.0477 23.5754L24.3343 21.0249L27.9836 15.25L31.251 21.9444L28.2581 26.8674L27.2648 25.4551L26.6767 26.3136L27.6888 27.8037L25.5896 31.2566L21.6523 25.3142H21.6528Z" fill="white"/>
<path d="M25.5894 31.2557L24.6231 29.7968L24.6222 29.7982L23.6589 28.3515C23.5032 28.1168 23.287 27.6181 23.0353 27.5047L15.3344 24.0429C15.0329 23.9076 14.7507 24.2697 14.9405 24.5482L16.3743 26.6542C16.6229 27.019 16.9621 27.7011 17.356 27.8812L25.589 31.2557H25.5894ZM22.7859 29.236L18.5399 27.2789C18.3066 27.1711 18.1133 27.0363 17.9814 26.8889L17.3905 26.2287C17.2873 26.1135 17.4888 26.0332 17.6714 26.1167L22.0447 28.1121C22.1941 28.1802 22.317 28.2666 22.3996 28.3608L23.069 29.1259C23.1695 29.2412 22.9671 29.32 22.7859 29.236Z" fill="white"/>
<path d="M13.9483 23.0744L12.75 21.3501L18.6783 21.3818L14.0529 19.511L15.0044 18.1016L23.7884 21.8866L22.7892 23.499L17.14 23.3016L21.6551 25.3092L22.914 27.2225L13.9483 23.0744Z" fill="white"/>
<path d="M15.5273 17.3311L18.6257 12.7422L20.3866 13.2143L18.3619 16.4339L19.8706 17.0204L22.021 13.6575L23.9542 14.1759L21.868 17.7878L23.322 18.3542L25.5913 14.6098L27.9848 15.2513L24.3355 21.0261L15.5273 17.3311Z" fill="white"/>
<path d="M21.6528 25.3142L23.7865 21.8917L25.4945 24.4549L26.0477 23.5754L24.3343 21.0249L27.9836 15.25L31.251 21.9444L28.2581 26.8674L27.2648 25.4551L26.6767 26.3136L27.6888 27.8037L25.5896 31.2566L21.6523 25.3142H21.6528Z" fill="white"/>
<path d="M25.5894 31.2557L24.6231 29.7968L24.6222 29.7982L23.6589 28.3515C23.5032 28.1168 23.287 27.6181 23.0353 27.5047L15.3344 24.0429C15.0329 23.9076 14.7507 24.2697 14.9405 24.5482L16.3743 26.6542C16.6229 27.019 16.9621 27.7011 17.356 27.8812L25.589 31.2557H25.5894ZM22.7859 29.236L18.5399 27.2789C18.3066 27.1711 18.1133 27.0363 17.9814 26.8889L17.3905 26.2287C17.2873 26.1135 17.4888 26.0332 17.6714 26.1167L22.0447 28.1121C22.1941 28.1802 22.317 28.2666 22.3996 28.3608L23.069 29.1259C23.1695 29.2412 22.9671 29.32 22.7859 29.236Z" fill="white"/>
<path d="M22.9135 27.2298L21.6546 25.3165L12.75 21.3574L13.9483 23.0818L22.9135 27.2298Z" fill="white"/>
</g>
<defs>
<clipPath id="clip0_7055_13886">
<rect width="20" height="20" fill="white" transform="translate(12 12)"/>
</clipPath>
</defs>
</svg>
