<svg width="16" height="16" viewBox="0 0 16 16" fill="none" xmlns="http://www.w3.org/2000/svg">
<g id="Polygon 3">
<path id="Vector" d="M9.69247 2.66602H6.15401C5.94888 2.66602 5.74375 2.77435 5.58991 2.93685C5.43606 3.09935 5.3335 3.31602 5.3335 3.53268V10.466C5.3335 10.6827 5.43606 10.8993 5.58991 11.0618C5.74375 11.2243 5.94888 11.3327 6.15401 11.3327H11.1796C11.3848 11.3327 11.5899 11.2243 11.7438 11.0618C11.8976 10.8993 12.0002 10.6827 12.0002 10.466V5.10352L9.69247 2.66602Z" fill="black" stroke="black" stroke-width="1.55952" stroke-linecap="round" stroke-linejoin="round"/>
<path id="Vector_2" d="M3.3335 5.33398V12.4451C3.3335 12.6673 3.43876 12.8895 3.59665 13.0562C3.75455 13.2229 3.96508 13.334 4.1756 13.334H9.3335" stroke="black" stroke-width="0.935714" stroke-linecap="round" stroke-linejoin="round"/>
<path id="Vector_3" d="M9.3335 2.66602V5.33322H12.0007" fill="white"/>
</g>
</svg>
