<svg width="21" height="20" viewBox="0 0 21 20" fill="none" xmlns="http://www.w3.org/2000/svg">
<g id="align-end-horizontal">
<path id="Vector" d="M7.16732 1.66699H5.50065C4.58018 1.66699 3.83398 2.41318 3.83398 3.33366V13.3337C3.83398 14.2541 4.58018 15.0003 5.50065 15.0003H7.16732C8.08779 15.0003 8.83398 14.2541 8.83398 13.3337V3.33366C8.83398 2.41318 8.08779 1.66699 7.16732 1.66699Z" stroke="#262626" stroke-width="1.3" stroke-linecap="round" stroke-linejoin="round"/>
<path id="Vector_2" d="M15.4993 7.5H13.8327C12.9122 7.5 12.166 8.24619 12.166 9.16667V13.3333C12.166 14.2538 12.9122 15 13.8327 15H15.4993C16.4198 15 17.166 14.2538 17.166 13.3333V9.16667C17.166 8.24619 16.4198 7.5 15.4993 7.5Z" stroke="#262626" stroke-width="1.3" stroke-linecap="round" stroke-linejoin="round"/>
<path id="Vector_3" d="M18.8327 18.333H2.16602" stroke="#262626" stroke-width="1.3" stroke-linecap="round" stroke-linejoin="round"/>
</g>
</svg>
