<svg width="21" height="21" viewBox="0 0 21 21" fill="none" xmlns="http://www.w3.org/2000/svg">
<g id="vuesax/outline/category-2">
<g id="category-2">
<path id="Vector" d="M16.5827 9.45866H14.916C12.8993 9.45866 11.791 8.35033 11.791 6.33366V4.66699C11.791 2.65033 12.8993 1.54199 14.916 1.54199H16.5827C18.5993 1.54199 19.7077 2.65033 19.7077 4.66699V6.33366C19.7077 8.35033 18.5993 9.45866 16.5827 9.45866Z" fill="#262626"/>
<path id="Vector_2" d="M6.58268 19.4587H4.91602C2.89935 19.4587 1.79102 18.3503 1.79102 16.3337V14.667C1.79102 12.6503 2.89935 11.542 4.91602 11.542H6.58268C8.59935 11.542 9.70768 12.6503 9.70768 14.667V16.3337C9.70768 18.3503 8.59935 19.4587 6.58268 19.4587Z" fill="#262626"/>
<path id="Vector_3" d="M5.74935 9.45866C3.56602 9.45866 1.79102 7.68366 1.79102 5.50033C1.79102 3.31699 3.56602 1.54199 5.74935 1.54199C7.93268 1.54199 9.70768 3.31699 9.70768 5.50033C9.70768 7.68366 7.93268 9.45866 5.74935 9.45866Z" fill="#262626"/>
<path id="Vector_4" d="M15.7493 19.4587C13.566 19.4587 11.791 17.6837 11.791 15.5003C11.791 13.317 13.566 11.542 15.7493 11.542C17.9327 11.542 19.7077 13.317 19.7077 15.5003C19.7077 17.6837 17.9327 19.4587 15.7493 19.4587Z" fill="#262626"/>
</g>
</g>
</svg>
