<svg width="21" height="20" viewBox="0 0 21 20" fill="none" xmlns="http://www.w3.org/2000/svg">
<g id="vuesax/bold/home">
<g id="home">
<path id="Vector" d="M11.4512 2.86452L11.4525 2.86559L17.2257 7.48083C17.226 7.48105 17.2263 7.48128 17.2266 7.4815C17.4356 7.65018 17.6415 7.94519 17.7792 8.30624C17.9169 8.66707 17.9605 9.0257 17.9171 9.29361C17.917 9.29401 17.9169 9.29441 17.9169 9.29481L16.8093 15.9238C16.8092 15.9241 16.8092 15.9245 16.8091 15.9248C16.6616 16.788 15.7901 17.5245 14.9167 17.5245H5.58339C4.70095 17.5245 3.83849 16.7956 3.69106 15.9251C3.69103 15.9249 3.691 15.9247 3.69097 15.9246L2.58284 9.29243L2.58285 9.29243L2.58216 9.28845C2.53607 9.02273 2.57741 8.66597 2.71465 8.30625C2.85186 7.94661 3.05896 7.65208 3.27118 7.48338L3.27119 7.48339L3.27304 7.4819L9.04804 2.8569L9.04836 2.85665C9.69281 2.33987 10.7961 2.33798 11.4512 2.86452ZM7.51672 10.8329C7.51672 12.3419 8.74107 13.5662 10.2501 13.5662C11.759 13.5662 12.9834 12.3419 12.9834 10.8329C12.9834 9.3239 11.759 8.09955 10.2501 8.09955C8.74107 8.09955 7.51672 9.3239 7.51672 10.8329Z" stroke="#000000" stroke-width="1.3"/>
</g>
</g>
</svg>
