<svg width="20" height="20" viewBox="0 0 20 20" fill="none" xmlns="http://www.w3.org/2000/svg">
<g id="vuesax/outline/frame">
<g id="frame">
<path id="Vector" d="M10.1322 9.68366C10.1072 9.68366 10.0905 9.68366 10.0655 9.68366C10.0238 9.67533 9.96549 9.67533 9.91549 9.68366C7.49883 9.60866 5.67383 7.70866 5.67383 5.36699C5.67383 2.98366 7.61549 1.04199 9.99883 1.04199C12.3822 1.04199 14.3238 2.98366 14.3238 5.36699C14.3155 7.70866 12.4822 9.60866 10.1572 9.68366C10.1488 9.68366 10.1405 9.68366 10.1322 9.68366ZM9.99883 2.29199C8.30716 2.29199 6.92383 3.67533 6.92383 5.36699C6.92383 7.03366 8.22383 8.37533 9.88216 8.43366C9.92383 8.42533 10.0405 8.42533 10.1488 8.43366C11.7822 8.35866 13.0655 7.01699 13.0738 5.36699C13.0738 3.67533 11.6905 2.29199 9.99883 2.29199Z" fill="#262626"/>
<path id="Vector_2" d="M10.1404 18.7913C8.50703 18.7913 6.86536 18.3747 5.6237 17.5413C4.46536 16.7747 3.83203 15.7247 3.83203 14.583C3.83203 13.4413 4.46536 12.383 5.6237 11.608C8.1237 9.94967 12.1737 9.94967 14.657 11.608C15.807 12.3747 16.4487 13.4247 16.4487 14.5663C16.4487 15.708 15.8154 16.7663 14.657 17.5413C13.407 18.3747 11.7737 18.7913 10.1404 18.7913ZM6.31536 12.658C5.51536 13.1913 5.08203 13.8747 5.08203 14.5913C5.08203 15.2997 5.5237 15.983 6.31536 16.508C8.39036 17.8997 11.8904 17.8997 13.9654 16.508C14.7654 15.9747 15.1987 15.2913 15.1987 14.5747C15.1987 13.8663 14.757 13.183 13.9654 12.658C11.8904 11.2747 8.39036 11.2747 6.31536 12.658Z" fill="#262626"/>
</g>
</g>
</svg>
