<svg width="20" height="20" viewBox="0 0 20 20" fill="none" xmlns="http://www.w3.org/2000/svg">
<g id="Frozen_Post_Asset 4 1" clip-path="url(#clip0_6719_5247)">
<path id="Vector" d="M3.5293 5.3311L6.62761 0.742188L8.38853 1.21433L6.36381 4.43393L7.87259 5.02038L10.0229 1.65754L11.9561 2.17587L9.86994 5.78784L11.324 6.35422L13.5932 2.60976L15.9867 3.25125L12.3375 9.02611L3.5293 5.3311Z" fill="white"/>
<path id="Vector_2" d="M9.65279 13.3152L11.7865 9.89267L13.4945 12.4559L14.0477 11.5764L12.3343 9.02584L15.9836 3.25098L19.251 9.94539L16.2581 14.8683L15.2648 13.4561L14.6767 14.3146L15.6888 15.8047L13.5896 19.2576L9.65234 13.3152H9.65279Z" fill="white"/>
<path id="Vector_3" d="M13.5894 19.2557L12.6231 17.7968L12.6222 17.7982L11.6589 16.3515C11.5032 16.1168 11.287 15.6181 11.0353 15.5047L3.33439 12.0429C3.0329 11.9076 2.75071 12.2697 2.94048 12.5482L4.37434 14.6542C4.62289 15.019 4.96206 15.7011 5.35597 15.8812L13.589 19.2557H13.5894ZM10.7859 17.236L6.53993 15.2789C6.30664 15.1711 6.11327 15.0363 5.98137 14.8889L5.39051 14.2287C5.28732 14.1135 5.48876 14.0332 5.67136 14.1167L10.0447 16.1121C10.1941 16.1802 10.317 16.2666 10.3996 16.3608L11.069 17.1259C11.1695 17.2412 10.9671 17.32 10.7859 17.236Z" fill="white"/>
<path id="Vector_4" d="M1.94637 11.0754L0.748047 9.35107L6.67639 9.3828L2.0509 7.51196L3.00247 6.10254L11.7864 9.8876L10.7873 11.5L5.138 11.3026L9.65313 13.3101L10.912 15.2234L1.94637 11.0754Z" fill="white"/>
<path id="Vector_5" d="M3.5293 5.3311L6.62761 0.742188L8.38853 1.21433L6.36381 4.43393L7.87259 5.02038L10.0229 1.65754L11.9561 2.17587L9.86994 5.78784L11.324 6.35422L13.5932 2.60976L15.9867 3.25125L12.3375 9.02611L3.5293 5.3311Z" fill="white"/>
<path id="Vector_6" d="M9.65279 13.3152L11.7865 9.89267L13.4945 12.4559L14.0477 11.5764L12.3343 9.02584L15.9836 3.25098L19.251 9.94539L16.2581 14.8683L15.2648 13.4561L14.6767 14.3146L15.6888 15.8047L13.5896 19.2576L9.65234 13.3152H9.65279Z" fill="white"/>
<path id="Vector_7" d="M13.5894 19.2557L12.6231 17.7968L12.6222 17.7982L11.6589 16.3515C11.5032 16.1168 11.287 15.6181 11.0353 15.5047L3.33439 12.0429C3.0329 11.9076 2.75071 12.2697 2.94048 12.5482L4.37434 14.6542C4.62289 15.019 4.96206 15.7011 5.35597 15.8812L13.589 19.2557H13.5894ZM10.7859 17.236L6.53993 15.2789C6.30664 15.1711 6.11327 15.0363 5.98137 14.8889L5.39051 14.2287C5.28732 14.1135 5.48876 14.0332 5.67136 14.1167L10.0447 16.1121C10.1941 16.1802 10.317 16.2666 10.3996 16.3608L11.069 17.1259C11.1695 17.2412 10.9671 17.32 10.7859 17.236Z" fill="white"/>
<path id="Vector_8" d="M10.9116 15.2298L9.65268 13.3165L0.748047 9.35742L1.94637 11.0818L10.9116 15.2298Z" fill="white"/>
</g>
<defs>
<clipPath id="clip0_6719_5247">
<rect width="20" height="20" fill="white"/>
</clipPath>
</defs>
</svg>
