<svg width="512" height="512" viewBox="0 0 512 512" fill="none" xmlns="http://www.w3.org/2000/svg">
<g clip-path="url(#clip0_9784_20691)">
<path d="M331.631 230.835C325.06 231.569 319.663 236.305 317.35 243.465C316.836 245.043 316.762 247.356 316.762 259.252C316.762 271.404 316.836 273.46 317.386 275.149C319.222 280.84 323.921 285.502 329.429 287.081C330.126 287.265 331.999 287.522 333.577 287.595C339.892 287.962 346.097 284.401 349.144 278.637C351.2 274.855 351.457 272.579 351.457 259.215C351.457 243.097 350.98 240.858 346.354 235.865C344.151 233.478 340.333 231.349 337.506 230.982C334.385 230.578 334.018 230.541 331.631 230.835ZM337.432 240.124C338.974 240.931 340.48 242.583 341.214 244.309C341.838 245.778 341.911 247.026 341.911 259.215V272.506L340.92 274.525C339.488 277.315 337.469 278.637 334.458 278.784C332.623 278.894 331.852 278.747 330.53 278.049C328.327 276.911 326.638 274.378 326.308 271.808C326.161 270.78 326.124 264.282 326.198 257.416L326.308 244.933L327.373 243.244C328.547 241.372 330.273 240.05 332.072 239.573C333.614 239.206 336.147 239.463 337.432 240.124Z" fill="black"/>
<path d="M427.419 230.837C420.737 231.571 414.679 237.225 413.1 244.201C412.366 247.358 412.366 271.259 413.1 274.123C414.165 278.455 416.845 282.383 420.296 284.77C422.573 286.349 427.052 287.707 429.916 287.707C438.433 287.707 445.519 281.612 446.951 273.021C447.392 270.378 447.392 247.762 446.914 244.972C446.07 239.758 442.288 234.728 437.552 232.452C435.276 231.351 434.138 231.057 430.76 230.653C430.246 230.616 428.741 230.69 427.419 230.837ZM431.604 239.575C433.514 240.015 435.716 241.631 436.671 243.246C437.699 244.972 438.103 249.891 438.066 259.07C437.993 267.918 437.626 273.352 436.965 274.49C436.084 276.069 434.688 277.464 433.257 278.198C430.393 279.667 425.877 278.675 423.968 276.142C422.059 273.645 421.949 272.801 421.949 259.217C421.949 245.229 422.095 244.201 424.262 241.888C426.428 239.611 428.667 238.914 431.604 239.575Z" fill="black"/>
<path d="M67.5089 231.497C67.3987 231.644 67.8026 232.452 68.39 233.223L69.4547 234.655L69.4914 259.033V283.411L68.2064 285.174L66.9214 286.973H74.1174H81.3134L79.9917 285.174L78.67 283.375L78.7434 273.499L78.8536 263.659L86.6737 263.549L94.4572 263.476V273.572V283.705L93.2823 285.174C92.6582 285.945 92.2176 286.679 92.3277 286.789C92.4379 286.899 95.5953 286.936 99.3769 286.899L106.279 286.789L105.141 285.357L104.003 283.925V259.107V234.288L105.104 232.929C105.728 232.195 106.096 231.497 105.949 231.424C105.361 231.094 92.6949 231.13 92.4746 231.461C92.3644 231.644 92.7683 232.452 93.3557 233.186L94.4572 234.581L94.3837 244.715L94.2736 254.848L86.7472 254.921C81.4236 254.958 79.1473 254.848 78.9637 254.554C78.8169 254.297 78.67 249.781 78.67 244.494V234.912L79.9183 233.26C80.9463 231.901 81.0932 231.534 80.6159 231.387C79.7347 231.057 67.7292 231.13 67.5089 231.497Z" fill="black"/>
<path d="M131.355 231.681C131.098 231.901 130.364 233.81 129.703 235.94C128.638 239.501 126.876 245.192 124.746 252.094C123.829 254.958 121.919 261.163 119.386 269.423C118.578 272.103 117.771 274.71 117.587 275.224C117.404 275.738 116.743 277.868 116.082 279.997C115.421 282.163 114.577 284.182 114.136 284.623C113.695 285.027 113.035 285.724 112.667 286.165L111.97 286.973H119.753H127.537L126.252 285.394L124.93 283.779L125.701 281.429C126.105 280.144 126.766 278.014 127.17 276.693C127.573 275.371 128.087 273.866 128.308 273.278L128.675 272.287H136.348C140.534 272.287 144.058 272.434 144.168 272.617C144.278 272.764 144.609 273.829 144.903 274.894C145.196 275.995 145.894 278.418 146.445 280.291L147.436 283.705L146.261 285.321L145.086 286.973H152.613C156.761 286.973 160.176 286.826 160.176 286.679C160.176 286.532 159.588 285.835 158.891 285.137C157.642 283.925 156.468 280.915 154.118 272.838C153.751 271.626 153.09 269.46 152.649 268.065C152.172 266.633 151.291 263.769 150.63 261.64C149.088 256.573 149.015 256.316 147.326 251.029C146.518 248.496 145.857 246.22 145.857 245.963C145.857 245.706 145.71 245.192 145.49 244.825C145.306 244.494 144.756 242.879 144.278 241.263C143.764 239.648 142.92 236.821 142.369 235.022C141.819 233.186 141.158 231.608 140.937 231.461C140.313 231.057 131.906 231.277 131.355 231.681ZM138.147 251.727C139.836 257.565 140.35 259.364 140.937 261.199C141.231 262.08 141.378 262.962 141.268 263.145C141.121 263.329 138.992 263.476 136.458 263.476C132.824 263.476 131.832 263.365 131.685 262.962C131.575 262.668 131.869 261.199 132.383 259.731C132.897 258.262 133.741 255.655 134.255 253.93C136.054 248.056 136.458 246.954 136.679 247.248C136.825 247.395 137.486 249.414 138.147 251.727Z" fill="black"/>
<path d="M166.564 231.572C166.454 231.755 166.858 232.49 167.482 233.224L168.62 234.509V259.108V283.706L167.445 285.175C166.821 285.946 166.38 286.68 166.491 286.79C166.601 286.9 169.795 286.937 173.576 286.9L180.479 286.79L179.414 285.542L178.349 284.257L178.129 276.73C178.019 272.251 178.092 268.874 178.276 268.433C178.9 267.185 182.645 262.742 183.122 262.742C183.342 262.742 184.517 264.505 185.692 266.671C188.262 271.37 188.482 271.774 191.97 278.015C193.476 280.696 194.797 283.119 194.907 283.449C195.054 283.816 194.687 284.551 193.916 285.395L192.705 286.79L200.745 286.9C205.151 286.937 208.859 286.9 208.969 286.79C209.079 286.643 208.418 285.872 207.5 285.028C206.436 284.037 204.82 281.797 203.131 278.897C201.663 276.363 199.864 273.243 199.093 271.921C198.322 270.599 195.789 266.267 193.439 262.265C190.869 257.933 189.253 254.849 189.4 254.592C189.584 254.335 192.007 251.287 194.834 247.836C197.698 244.385 201.222 240.053 202.728 238.18C204.233 236.345 206.289 234.142 207.243 233.334C208.235 232.49 208.969 231.755 208.859 231.645C208.749 231.535 193.622 231.425 191.64 231.535C191.456 231.535 191.823 232.233 192.448 233.04L193.549 234.582L191.273 237.483C190.024 239.098 188.666 240.861 188.262 241.411C185.692 244.862 178.423 253.931 178.239 253.931C178.092 253.931 178.019 249.525 178.092 244.128L178.202 234.289L179.267 232.93C179.891 232.196 180.258 231.498 180.075 231.425C179.524 231.058 166.784 231.241 166.564 231.572Z" fill="black"/>
<path d="M222.7 231.423C219.212 231.496 216.349 231.643 216.349 231.753C216.349 231.9 216.863 232.598 217.45 233.369L218.551 234.764V254.333C218.551 267.66 218.698 274.305 218.955 275.186C220.314 279.555 223.177 283.374 226.555 285.356C231.732 288.404 238.671 288.477 244.398 285.613C246.748 284.438 249.722 281.354 250.933 278.858C252.953 274.672 253.063 273.277 253.063 252.974V234.397L254.201 232.965C254.825 232.194 255.192 231.533 255.009 231.496C253.907 231.386 241.535 231.57 241.388 231.68C241.314 231.79 241.755 232.488 242.379 233.259L243.517 234.654V253.268C243.517 269.349 243.444 272.139 242.93 273.644C240.874 279.776 232.943 280.84 229.309 275.443L228.097 273.681V254.002V234.36L229.052 233.112C229.859 232.047 230.006 231.019 229.272 231.239C229.125 231.276 226.151 231.386 222.7 231.423Z" fill="black"/>
<path d="M266.096 231.534C266.023 231.681 266.537 232.452 267.198 233.333L268.446 234.912L268.483 259.18V283.485L267.161 285.137L265.839 286.789L272.742 286.899C276.523 286.936 279.681 286.899 279.791 286.789C279.901 286.679 279.46 285.945 278.836 285.174L277.661 283.705V273.572V263.476L285.482 263.549L293.265 263.659L293.375 273.499L293.449 283.375L292.127 285.174L290.805 286.973H298.038H305.271L303.949 285.357L302.627 283.742V259.18V234.655L303.765 233.26C304.389 232.525 304.793 231.754 304.646 231.571C304.463 231.204 291.686 231.057 291.136 231.424C290.989 231.497 291.429 232.305 292.164 233.186L293.449 234.765V244.494C293.449 251.837 293.338 254.297 293.008 254.554C292.457 254.995 279.314 255.215 278.322 254.848C277.698 254.591 277.661 253.783 277.661 244.531V234.508L278.8 233.186C279.46 232.452 279.864 231.791 279.754 231.644C279.46 231.387 266.243 231.277 266.096 231.534Z" fill="black"/>
<path d="M363.353 231.571C363.242 231.755 363.646 232.489 364.27 233.224L365.409 234.509V259.181L365.372 283.853L364.307 285.138C363.683 285.835 363.206 286.533 363.206 286.68C363.206 287.084 383.178 287.047 385.785 286.606C390.044 285.909 392.173 284.881 395 282.054C397.387 279.631 397.68 279.227 398.672 276.143L399.736 272.838V259.071C399.736 243.907 399.663 243.173 397.313 239.024C395.037 234.986 391.402 232.673 385.785 231.718C382.077 231.057 363.756 230.947 363.353 231.571ZM384.17 240.346C386.556 240.787 388.428 242.182 389.493 244.275C390.154 245.596 390.264 246.661 390.484 253.6C390.595 257.932 390.558 264.1 390.411 267.331C390.154 272.802 390.081 273.316 389.199 274.711C388.539 275.739 387.584 276.547 386.299 277.207C384.5 278.089 383.986 278.162 379.654 278.162H374.954V259.328C374.954 248.937 375.064 240.346 375.211 240.236C375.578 239.832 381.967 239.942 384.17 240.346Z" fill="black"/>
<path d="M41.7722 251.325C37.5867 252.39 34.8332 256.428 35.5307 260.503C36.5587 266.561 44.3422 269.278 48.7846 265.093C52.0154 262.045 52.3826 257.236 49.5923 254.078C47.6097 251.802 44.3422 250.664 41.7722 251.325Z" fill="black"/>
<path d="M469.09 251.325C463.766 252.646 461.343 258.961 464.354 263.551C468.649 270.049 478.856 267.038 478.856 259.292C478.856 255.877 477.314 253.381 474.266 251.802C473.202 251.251 470.411 250.994 469.09 251.325Z" fill="black"/>
</g>
<defs>
<clipPath id="clip0_9784_20691">
<rect width="512" height="512" fill="white"/>
</clipPath>
</defs>
</svg>
