<svg width="67" height="72" viewBox="0 0 67 72" fill="none" xmlns="http://www.w3.org/2000/svg">
<path d="M39.1616 0H27.8384C16.6376 0 7.52549 9.0649 7.52549 20.2072V22.5302H5.7993C2.60153 22.5302 0 25.1187 0 28.2999V50.3311C0 53.5123 2.60153 56.1004 5.7993 56.1004H12.0344C15.2331 56.1004 17.8347 53.5123 17.8347 50.3311V28.2999C17.8347 25.1187 15.2331 22.5302 12.0344 22.5302H10.3092V20.2072C10.3092 10.5919 18.1726 2.76923 27.8384 2.76923H39.1616C48.8274 2.76923 56.6908 10.5919 56.6908 20.2072V22.5302H54.9656C51.7669 22.5302 49.1654 25.1187 49.1654 28.2999V50.3311C49.1654 53.5123 51.7669 56.1004 54.9656 56.1004H56.5801C55.9007 60.8147 51.8261 64.4536 46.9027 64.4536H45.9493C45.7541 61.8663 43.5805 59.8193 40.9304 59.8193H31.7928C29.0146 59.8193 26.7547 62.0675 26.7547 64.8308V66.9884C26.7547 69.7518 29.0146 72 31.7928 72H40.9304C43.6291 72 45.8323 69.877 45.9565 67.2228H46.9027C53.3638 67.2228 58.6975 62.347 59.393 56.1004H61.2007C64.3985 56.1004 67 53.5123 67 50.3311V28.2999C67 25.1187 64.3985 22.5302 61.2007 22.5302H59.4745V20.2072C59.4745 9.0649 50.3624 0 39.1616 0ZM15.051 28.2999V50.3311C15.051 51.9853 13.6981 53.3311 12.0344 53.3311H5.7993C4.13653 53.3311 2.78366 51.9853 2.78366 50.3311V28.2999C2.78366 26.6453 4.13653 25.2994 5.7993 25.2994H12.0344C13.6981 25.2994 15.051 26.6453 15.051 28.2999ZM43.1848 66.9884C43.1848 68.2248 42.1736 69.2308 40.9304 69.2308H31.7928C30.5496 69.2308 29.5384 68.2248 29.5384 66.9884V64.8308C29.5384 63.5945 30.5496 62.5885 31.7928 62.5885H40.9304C42.1736 62.5885 43.1848 63.5945 43.1848 64.8308V66.9884ZM64.2163 28.2999V50.3311C64.2163 51.9853 62.8635 53.3311 61.2007 53.3311H54.9656C53.3019 53.3311 51.949 51.9853 51.949 50.3311V28.2999C51.949 26.6453 53.3019 25.2994 54.9656 25.2994H61.2007C62.8635 25.2994 64.2163 26.6453 64.2163 28.2999Z" fill="#E49273"/>
</svg>
