<svg width="20" height="20" viewBox="0 0 20 20" fill="none" xmlns="http://www.w3.org/2000/svg">
<g id="history" opacity="0.8">
<path id="Vector" d="M2.5 2.5V6.66667H6.66667" stroke="black" stroke-width="2" stroke-linecap="round" stroke-linejoin="round"/>
<path id="Vector_2" d="M2.54167 10.8335C2.72625 12.505 3.46725 14.066 4.64565 15.2657C5.82405 16.4655 7.37148 17.2344 9.03941 17.449C10.7073 17.6635 12.399 17.3113 13.8427 16.4489C15.2864 15.5864 16.3983 14.2638 17 12.6935C17.6016 11.1231 17.658 9.39608 17.1601 7.7898C16.6622 6.18351 15.639 4.79116 14.2546 3.83636C12.8703 2.88155 11.2052 2.4197 9.52686 2.52497C7.84848 2.63024 6.25418 3.29653 5 4.41683L2.5 6.66683" stroke="black" stroke-width="2" stroke-linecap="round" stroke-linejoin="round"/>
<path id="Vector_3" d="M10 5.8335V10.0002L13.3333 11.6668" stroke="black" stroke-width="2" stroke-linecap="round" stroke-linejoin="round"/>
</g>
</svg>
