<svg width="20" height="24" viewBox="0 0 20 24" fill="none" xmlns="http://www.w3.org/2000/svg">
<path d="M10.002 4.00305C5.5841 4.00305 2.00195 7.58519 2.00195 12.0031C2.00195 16.4209 5.5841 20.0031 10.002 20.0031C14.4198 20.0031 18.002 16.4209 18.002 12.0031C18.002 7.58519 14.4198 4.00305 10.002 4.00305ZM10.002 18.6459C6.3341 18.6459 3.3591 15.6709 3.3591 12.0031C3.3591 8.3352 6.3341 5.36019 10.002 5.36019C13.6698 5.36019 16.6448 8.3352 16.6448 12.0031C16.6448 15.6709 13.6698 18.6459 10.002 18.6459Z" fill="#88898A"/>
<path d="M13.1217 14.2621L10.5753 12.421V8.00138C10.5753 7.92281 10.511 7.85852 10.4325 7.85852H9.57352C9.49495 7.85852 9.43066 7.92281 9.43066 8.00138V12.9192C9.43066 12.9657 9.45209 13.0085 9.48959 13.0353L12.4432 15.1889C12.5075 15.2353 12.5967 15.221 12.6432 15.1585L13.1539 14.4621C13.2003 14.396 13.186 14.3067 13.1217 14.2621Z" fill="#88898A"/>
</svg>
