<svg width="393" height="230" viewBox="0 0 393 230" fill="none" xmlns="http://www.w3.org/2000/svg">
<path d="M303.899 220.4C303.399 218.6 302.099 217 300.399 216.4C298.599 215.8 296.399 216.7 295.899 218.5C294.299 217.2 291.799 218.2 290.499 219.9C288.399 222.6 289.999 227 290.399 227.2C290.799 227.5 291.799 227.5 291.799 227.5L307.499 227.4C307.499 227.4 310.4 227.2 311.7 226.7C314.4 225.6 316.199 221 314.499 218.7C313.299 217.1 311 216.8 309.1 217.4C307.2 217.9 305.399 219.1 303.899 220.4Z" fill="#F49D7C"/>
<path d="M291.5 228C291.1 228 290.4 227.9 290 227.6C289.4 227.1 287.8 222.4 290 219.5C290.9 218.3 292.3 217.5 293.7 217.3C294.4 217.2 295 217.3 295.6 217.6C295.9 217 296.5 216.5 297.1 216.1C298.1 215.6 299.4 215.4 300.5 215.8C302.1 216.3 303.4 217.6 304.1 219.4C305.6 218.2 307.3 217.2 308.9 216.7C310.8 216.1 313.4 216.3 314.8 218.2C315.6 219.3 315.8 220.9 315.3 222.6C314.7 224.6 313.3 226.4 311.8 227C310.4 227.6 307.6 227.8 307.4 227.8L291.7 227.9C291.7 228 291.6 228 291.5 228ZM294.1 218.4C294 218.4 293.9 218.4 293.8 218.4C292.8 218.5 291.6 219.2 290.8 220.2C289 222.6 290.3 226.5 290.6 226.9C290.7 227 291.2 227 291.6 227L307.3 226.9C307.3 226.9 310.1 226.7 311.3 226.2C312.5 225.7 313.7 224.2 314.2 222.5C314.6 221.1 314.5 219.8 313.9 219C312.8 217.5 310.6 217.4 309.1 217.9C307.5 218.4 305.7 219.5 304.1 220.9C304 221 303.8 221.1 303.6 221C303.4 221 303.3 220.8 303.2 220.7C302.6 218.9 301.5 217.5 300 217.1C299.2 216.8 298.2 216.9 297.4 217.3C296.7 217.6 296.3 218.2 296.1 218.8C296 219 295.9 219.1 295.8 219.1C295.6 219.1 295.5 219.1 295.3 219C295.1 218.5 294.6 218.4 294.1 218.4Z" fill="#E49273"/>
<path d="M287.4 219.8C287 220.7 286.8 221.6 286.9 222.6C287 223.1 287.701 223.1 287.701 222.6C287.601 221.8 287.7 220.9 288.1 220.2C288.3 219.7 287.6 219.4 287.4 219.8Z" fill="#E49273"/>
<path d="M285.1 220.4C284.9 221.3 284.8 222.2 285 223C285.1 223.5 285.9 223.3 285.8 222.8C285.6 222 285.7 221.3 285.9 220.6C286 220.1 285.2 219.9 285.1 220.4Z" fill="#E49273"/>
<path d="M289.5 218.8C290 218.8 290 218 289.5 218C289 218.1 289 218.8 289.5 218.8Z" fill="#E49273"/>
<path d="M291.699 222.6C291.699 222.8 291.699 223.1 291.699 223.3C291.699 223.8 292.499 223.8 292.499 223.3C292.499 223.1 292.499 222.8 292.499 222.6C292.499 222.1 291.699 222.1 291.699 222.6Z" fill="#E49273"/>
<path d="M304.799 223.8C304.799 223.9 304.799 224 304.799 224.1C304.799 224.6 305.599 224.6 305.599 224.1C305.599 224 305.599 223.9 305.599 223.8C305.599 223.3 304.799 223.3 304.799 223.8Z" fill="#E49273"/>
<path d="M303.399 222.9C303.499 223 303.499 223 303.599 223.1C303.999 223.5 304.499 222.9 304.099 222.6C303.999 222.5 303.999 222.5 303.899 222.4C303.599 222 302.999 222.5 303.399 222.9Z" fill="#E49273"/>
<path d="M82.4 205.7H56C55.4 205.7 55 205.2 55 204.7C55 204.1 55.5 203.7 56 203.7H82.3C82.9 203.7 83.3 204.2 83.3 204.7C83.4 205.3 82.9 205.7 82.4 205.7Z" fill="#1D1B1B"/>
<path d="M314.2 114.4H313.4C313.4 113.8 312.9 113.3 312.3 113.3C311.7 113.3 311.2 113.8 311.2 114.4H310.4C310.4 113.4 311.2 112.5 312.3 112.5C313.4 112.5 314.2 113.4 314.2 114.4Z" fill="white"/>
<path d="M316.9 70.6002H316.1C316.1 70.0002 315.6 69.5002 315 69.5002C314.4 69.5002 313.9 70.0002 313.9 70.6002H313.1C313.1 69.6002 313.9 68.7002 315 68.7002C316 68.8002 316.9 69.6002 316.9 70.6002Z" fill="white"/>
<path d="M223.3 222.8H187.5L188.1 221.4C190.4 215.8 190.7 211.1 190.3 205.6L190.2 204.5L220.4 204.4V205.4C220.4 208.9 221.4 216.9 222.8 221.4L223.3 222.8ZM190.6 220.7H220.5C219.3 216.3 218.6 210.1 218.4 206.4L192.5 206.5C192.7 211.4 192.4 215.8 190.6 220.7Z" fill="#1D1B1B"/>
<path d="M177.201 206.4C150.001 206.4 128.001 206.3 127.101 205.9C124.801 205.1 121.701 201.8 121.701 199.6C121.601 194.6 121.401 187.9 121.201 180.1C120.501 156.6 119.401 124.3 120.801 106.5C121.001 103.2 123.701 100.7 126.901 100.7H127.001L283.601 100.9C286.901 101 289.601 103.6 289.601 107C289.701 112.2 289.901 117.5 290.101 122.9C290.801 145.5 291.601 168.9 289.101 191C289.001 191.9 289.001 192.8 288.901 193.8C288.701 198.4 288.401 204.2 282.501 205.4C279.401 206 221.501 206.4 177.201 206.4ZM126.801 102.4C124.401 102.4 122.501 104.2 122.301 106.6C121.001 124.4 122.001 156.5 122.701 180C122.901 187.8 123.201 194.6 123.201 199.5C123.201 200.9 125.601 203.6 127.501 204.3C130.801 205 278.101 204.5 281.901 203.8C286.601 202.9 286.801 198.2 287.001 193.8C287.001 192.8 287.101 191.8 287.201 190.9C289.701 168.9 288.901 145.6 288.201 123.1C288.001 117.7 287.901 112.4 287.701 107.2C287.601 104.7 285.701 102.8 283.301 102.7L126.801 102.4C126.901 102.4 126.801 102.4 126.801 102.4Z" fill="#1D1B1B"/>
<path fill-rule="evenodd" clip-rule="evenodd" d="M279.199 106.4L131.599 106.2C128.899 106.2 126.699 108 126.499 110.4C124.799 130.2 127.099 171.4 127.399 188C127.399 189.6 130.099 192 131.999 192.6C134.199 193.3 274.499 192.8 277.899 192.2C284.099 191.1 282.999 184.8 283.499 180.8C286.399 158 284.599 133.2 283.999 110.9C283.999 108.3 281.799 106.4 279.199 106.4Z" fill="#DEDEDE"/>
<path d="M236.1 228.5H174.7C172.3 228.5 171 226.6 171 224.7C171 222.8 172.3 220.9 174.7 220.9H236.1C238.5 220.9 239.8 222.8 239.8 224.7C239.8 226.5 238.5 228.5 236.1 228.5ZM174.7 222.5C173.1 222.5 172.7 223.8 172.7 224.6C172.7 225.4 173.1 226.7 174.7 226.7H236.1C237.7 226.7 238.1 225.4 238.1 224.6C238.1 223.8 237.7 222.5 236.1 222.5H174.7Z" fill="#1D1B1B"/>
<path d="M131.9 200.6C134.7 200.6 134.7 196.3 131.9 196.3C129.2 196.3 129.2 200.6 131.9 200.6Z" fill="#1D1B1B"/>
<path d="M140.6 200.6C143.4 200.6 143.4 196.3 140.6 196.3C137.8 196.3 137.8 200.6 140.6 200.6Z" fill="#1D1B1B"/>
<path d="M149.2 200.6C152 200.6 152 196.3 149.2 196.3C146.4 196.3 146.4 200.6 149.2 200.6Z" fill="#1D1B1B"/>
<path d="M205.401 105.1C206.701 105.1 206.701 103.1 205.401 103.1C204.101 103.1 204.101 105.1 205.401 105.1Z" fill="#1D1B1B"/>
<path d="M156.3 49.6L157.7 48.2C158 47.9 158 47.5 157.7 47.2L156.5 46C156.2 45.7 156.1 45.2 156.3 44.8L157.3 42.4C157.4 42 157.8 41.7 158.2 41.7H159.9C160.3 41.7 160.6 41.4 160.6 41V39C160.6 38.6 160.3 38.3 159.9 38.3H158.2C157.8 38.3 157.4 38 157.3 37.6L156.3 35.2C156.1 34.8 156.2 34.3 156.5 34L157.7 32.8C158 32.5 158 32.1 157.7 31.8L156.3 30.4C156 30.1 155.6 30.1 155.3 30.4L154.1 31.6C153.8 31.9 153.3 32 152.9 31.8L150.5 30.8C150.1 30.7 149.8 30.3 149.8 29.9V28.2C149.8 27.8 149.5 27.5 149.1 27.5H147.1C146.7 27.5 146.4 27.8 146.4 28.2V29.9C146.4 30.3 146.1 30.7 145.7 30.8L143.3 31.8C142.9 32 142.4 31.9 142.1 31.6L140.9 30.4C140.6 30.1 140.2 30.1 139.9 30.4L138.5 31.8C138.2 32.1 138.2 32.5 138.5 32.8L139.7 34C140 34.3 140.1 34.8 139.9 35.2L138.9 37.6C138.8 38 138.4 38.3 138 38.3H136.3C135.9 38.3 135.6 38.6 135.6 39V41C135.6 41.4 135.9 41.7 136.3 41.7H138C138.4 41.7 138.8 42 138.9 42.4L139.9 44.8C140.1 45.2 140 45.7 139.7 46L138.5 47.2C138.2 47.5 138.2 47.9 138.5 48.2L139.9 49.6C140.2 49.9 140.6 49.9 140.9 49.6L142.1 48.4C142.4 48.1 142.9 48 143.3 48.2L145.7 49.2C146.1 49.3 146.4 49.7 146.4 50.1V51.8C146.4 52.2 146.7 52.5 147.1 52.5H149.1C149.5 52.5 149.8 52.2 149.8 51.8V50.1C149.8 49.7 150.1 49.3 150.5 49.2L152.9 48.2C153.3 48 153.8 48.1 154.1 48.4L155.3 49.6C155.5 49.9 156 49.9 156.3 49.6ZM148 45.7C144.8 45.7 142.2 43.1 142.2 39.9C142.2 36.7 144.8 34.1 148 34.1C151.2 34.1 153.8 36.7 153.8 39.9C153.8 43.1 151.2 45.7 148 45.7Z" fill="#D2D2D2"/>
<path d="M169.699 55.1002L169.299 53.9002C169.199 53.7002 168.999 53.5002 168.699 53.6002L167.699 53.9002C167.499 54.0002 167.199 53.9002 166.999 53.6002L165.999 52.3002C165.799 52.1002 165.799 51.8002 165.899 51.6002L166.399 50.7002C166.499 50.5002 166.399 50.2002 166.199 50.1002L165.099 49.5002C164.899 49.4002 164.599 49.5002 164.499 49.7002L163.999 50.6002C163.899 50.8002 163.599 51.0002 163.299 50.9002L161.699 50.7002C161.499 50.7002 161.199 50.5002 161.099 50.3002L160.799 49.3002C160.699 49.1002 160.499 48.9002 160.199 49.0002L158.999 49.4002C158.799 49.5002 158.599 49.7002 158.699 50.0002L158.999 51.0002C159.099 51.2002 158.999 51.5002 158.699 51.7002L157.399 52.7002C157.199 52.9002 156.899 52.9002 156.699 52.8002L155.799 52.3002C155.599 52.2002 155.299 52.3002 155.199 52.5002L154.599 53.6002C154.499 53.8002 154.599 54.1002 154.799 54.2002L155.699 54.7002C155.899 54.8002 156.099 55.1002 155.999 55.4002L155.799 57.0002C155.799 57.2002 155.599 57.5002 155.399 57.6002L154.399 57.9002C154.199 58.0002 153.999 58.2002 154.099 58.5002L154.499 59.7002C154.599 59.9002 154.799 60.1002 155.099 60.0002L156.099 59.7002C156.299 59.6002 156.599 59.7002 156.799 59.9002L157.799 61.2002C157.999 61.4002 157.999 61.7002 157.899 61.9002L157.399 62.8002C157.299 63.0002 157.399 63.3002 157.599 63.4002L158.699 64.0002C158.899 64.1002 159.199 64.0002 159.299 63.8002L159.799 62.9002C159.899 62.7002 160.199 62.5002 160.499 62.6002L162.099 62.8002C162.399 62.8002 162.599 63.0002 162.699 63.2002L162.999 64.2002C163.099 64.4002 163.299 64.6002 163.599 64.5002L164.799 64.1002C164.999 64.0002 165.199 63.8002 165.099 63.5002L164.799 62.5002C164.699 62.3002 164.799 62.0002 164.999 61.8002L166.299 60.8002C166.499 60.6002 166.799 60.6002 166.999 60.7002L167.899 61.2002C168.099 61.3002 168.399 61.2002 168.499 61.0002L169.099 59.9002C169.199 59.7002 169.099 59.4002 168.899 59.3002L167.999 58.8002C167.799 58.7002 167.599 58.4002 167.699 58.1002L167.899 56.5002C167.899 56.3002 168.099 56.0002 168.299 55.9002L169.299 55.6002C169.699 55.6002 169.799 55.3002 169.699 55.1002ZM165.199 58.5002C164.299 60.3002 162.099 60.9002 160.299 60.0002C158.499 59.1002 157.899 56.9002 158.799 55.1002C159.699 53.3002 161.899 52.7002 163.699 53.6002C165.499 54.5002 166.199 56.7002 165.199 58.5002Z" fill="#D2D2D2"/>
<path d="M228.6 77.7998H196C195.4 77.7998 195 77.2998 195 76.7998C195 76.1998 195.5 75.7998 196 75.7998H228.6C229.2 75.7998 229.6 76.2998 229.6 76.7998C229.7 77.3998 229.2 77.7998 228.6 77.7998Z" fill="#1D1B1B"/>
<path d="M382.7 120.7H330C329.4 120.7 329 120.2 329 119.7C329 119.2 329.5 118.7 330 118.7H382.7C383.3 118.7 383.7 119.2 383.7 119.7C383.7 120.2 383.3 120.7 382.7 120.7Z" fill="#1D1B1B"/>
<path d="M316.421 229H88.5719C88.2288 229 88 228.75 88 228.5C88 228.2 88.286 228 88.5719 228H316.421C316.764 228 316.993 228.25 316.993 228.5C317.05 228.75 316.764 229 316.421 229Z" fill="#1D1B1B"/>
<path d="M289.301 64.7998C287.101 64.7998 285.001 65.6998 283.401 67.1998C280.701 69.8998 280.201 74.0998 282.101 77.2998L282.201 77.4998L273.701 85.9998C273.701 85.9998 273.301 86.3998 273.301 86.9998C273.301 87.3998 273.501 87.8998 273.901 88.2998C274.401 88.7998 274.801 88.9998 275.301 88.9998C275.901 88.9998 276.301 88.6998 276.301 88.6998L284.701 80.1998L284.901 80.2998C286.201 81.0998 287.601 81.3998 289.101 81.3998C291.301 81.3998 293.401 80.4998 295.001 78.9998C298.301 75.6998 298.301 70.3998 295.001 67.1998C293.601 65.6998 291.501 64.7998 289.301 64.7998ZM289.301 79.0998C286.101 79.0998 283.401 76.4998 283.401 73.1998C283.401 69.9998 286.001 67.2998 289.301 67.2998C292.501 67.2998 295.201 69.8998 295.201 73.1998C295.201 76.3998 292.501 79.0998 289.301 79.0998Z" fill="#D2D2D2"/>
<path d="M286.201 74.3994H292.301V72.8994H286.201V74.3994Z" fill="#D2D2D2"/>
<path d="M108.699 150.5C108.099 150.5 107.699 150 107.699 149.5V145.5C107.699 144.9 108.199 144.5 108.699 144.5C109.299 144.5 109.699 145 109.699 145.5V149.5C109.699 150.1 109.299 150.5 108.699 150.5Z" fill="#1D1B1B"/>
<path d="M110.699 148.5H106.699C106.099 148.5 105.699 148 105.699 147.5C105.699 146.9 106.199 146.5 106.699 146.5H110.699C111.299 146.5 111.699 147 111.699 147.5C111.799 148.1 111.299 148.5 110.699 148.5Z" fill="#1D1B1B"/>
<path d="M234.7 215.201C234.6 215.201 234.5 215.201 234.4 215.201L230.5 214.101C229.9 213.901 229.6 213.401 229.8 212.801C230 212.201 230.5 211.901 231.1 212.101L235 213.201C235.6 213.401 235.9 213.901 235.7 214.501C235.5 214.901 235.1 215.201 234.7 215.201Z" fill="#1D1B1B"/>
<path d="M232.2 216.6C232.1 216.6 232 216.6 231.9 216.6C231.3 216.4 231 215.9 231.2 215.3L232.3 211.4C232.5 210.8 233 210.5 233.6 210.7C234.2 210.9 234.5 211.4 234.3 212L233.2 215.9C233 216.3 232.6 216.6 232.2 216.6Z" fill="#1D1B1B"/>
<path d="M214.3 93.2008C214.2 93.2008 214.1 93.2008 214 93.2008L210.1 92.1008C209.5 91.9008 209.2 91.4008 209.4 90.8008C209.6 90.2008 210.1 89.9008 210.7 90.1008L214.6 91.2008C215.2 91.4008 215.5 91.9008 215.3 92.5008C215.1 92.9008 214.7 93.2008 214.3 93.2008Z" fill="#1D1B1B"/>
<path d="M211.8 94.6004C211.7 94.6004 211.6 94.6004 211.5 94.6004C210.9 94.4004 210.6 93.9004 210.8 93.3004L211.9 89.4004C212.1 88.8004 212.6 88.5004 213.2 88.7004C213.8 88.9004 214.1 89.4004 213.9 90.0004L212.8 93.9004C212.6 94.3004 212.2 94.6004 211.8 94.6004Z" fill="#1D1B1B"/>
<path d="M259.899 211H253.199V217.7H259.899V211Z" fill="white"/>
<path d="M260.399 218.2H252.699V210.5H260.399V218.2ZM253.699 217.2H259.299V211.6H253.699V217.2Z" fill="#1D1B1B"/>
<path d="M268.298 212.5H262.298C262.098 212.5 261.898 212.3 261.898 212.1C261.898 211.9 262.098 211.7 262.298 211.7H268.298C268.498 211.7 268.698 211.9 268.698 212.1C268.698 212.3 268.498 212.5 268.298 212.5Z" fill="#1D1B1B"/>
<path d="M270.599 217.1H262.399C262.099 217.1 261.799 216.9 261.799 216.7C261.799 216.5 262.099 216.3 262.399 216.3H270.599C270.899 216.3 271.199 216.5 271.199 216.7C271.199 216.9 270.899 217.1 270.599 217.1Z" fill="#1D1B1B"/>
<path d="M273.598 214.7H262.298C262.098 214.7 261.898 214.5 261.898 214.3C261.898 214.1 262.098 213.9 262.298 213.9H273.598C273.798 213.9 273.998 214.1 273.998 214.3C273.998 214.5 273.798 214.7 273.598 214.7Z" fill="#1D1B1B"/>
<path d="M113.2 113H106.5V119.7H113.2V113Z" fill="white"/>
<path d="M113.7 120.2H106V112.5H113.7V120.2ZM107 119.1H112.6V113.5H107V119.1Z" fill="#1D1B1B"/>
<path d="M98.0016 114.4H104.002C104.202 114.4 104.402 114.2 104.402 114C104.402 113.8 104.202 113.6 104.002 113.6H98.0016C97.8016 113.6 97.6016 113.8 97.6016 114C97.6016 114.3 97.8016 114.4 98.0016 114.4Z" fill="#1D1B1B"/>
<path d="M95.7016 118.999H103.902C104.202 118.999 104.502 118.799 104.502 118.599C104.502 118.399 104.202 118.199 103.902 118.199H95.7016C95.4016 118.199 95.1016 118.399 95.1016 118.599C95.1016 118.799 95.4016 118.999 95.7016 118.999Z" fill="#1D1B1B"/>
<path d="M92.7008 116.6H104.001C104.201 116.6 104.401 116.4 104.401 116.2C104.401 116 104.201 115.8 104.001 115.8H92.7008C92.5008 115.8 92.3008 116 92.3008 116.2C92.3008 116.4 92.5008 116.6 92.7008 116.6Z" fill="#1D1B1B"/>
<path d="M116.1 171.4C115.8 169.5 114.5 164.6 111.5 166.2C106.7 168.7 112.5 178.2 106.7 179.9C106.4 176.1 105.6 173.5 103.9 173.7C100.4 174 101.3 182.2 101.2 184.1C101.1 185.9 101.1 187.8 101 189.7C96.7998 190.4 97.6998 179.6 95.0998 178.1C91.1998 175.8 90.2998 181 90.3998 183.4C90.5998 187.5 91.6998 192.4 95.4998 194.5C96.7998 195.2 98.9998 196 100.7 195.9C100.7 199.2 100.8 202.4 101.4 205.5H101.5L103.8 205.6C103.8 206.6 105.4 206.6 105.4 205.6C105.4 203.6 106.6 194 106.8 185.8C108.7 186.1 111 185.2 112.3 184.2C116.4 181.3 116.8 175.9 116.1 171.4Z" fill="#F49D7C"/>
<path d="M104.7 206.8C104.5 206.8 104.2 206.7 104 206.6C103.8 206.4 103.6 206.2 103.5 205.9L101.8 205.8H101.2L101.1 205.4C100.6 202.8 100.4 199.8 100.4 196.2C98.5001 196.2 96.4001 195.3 95.4001 194.7C91.3001 192.4 90.2001 187.2 90.1001 183.2C90.0001 181.6 90.4001 178.3 92.2001 177.2C93.1001 176.7 94.2001 176.8 95.5001 177.5C96.7001 178.2 97.2001 180.4 97.7001 183C98.4001 186.5 99.1001 189 100.7 189V188.1C100.8 186.6 100.8 185.2 100.9 183.7C100.9 183.4 100.9 183 100.9 182.5C100.8 179.3 100.6 173.2 104 172.9C104.5 172.8 105 173 105.4 173.4C106.3 174.2 107 176 107.2 179C109.3 178 109.2 175.6 109.1 172.7C109 169.8 108.8 166.8 111.4 165.5C112.2 165.1 113 165 113.7 165.4C115.8 166.5 116.5 170.6 116.6 171.1C117.2 174.6 117.4 180.9 112.7 184.3C111.4 185.3 109.2 186.1 107.3 186C107.2 191.4 106.6 197.2 106.3 201.2C106.1 203.2 106 204.7 106 205.4C106 205.9 105.8 206.2 105.4 206.4C105.1 206.7 104.9 206.8 104.7 206.8ZM101.9 205L104.4 205.1V205.5C104.4 205.7 104.5 205.8 104.5 205.8C104.6 205.9 104.8 205.9 104.9 205.8C105 205.7 105.1 205.7 105.1 205.5C105.1 204.8 105.2 203.3 105.4 201.3C105.8 197.3 106.3 191.1 106.4 185.7V185.2L106.9 185.3C108.6 185.6 110.9 184.7 112.1 183.8C116.4 180.6 116.2 174.7 115.6 171.5C115.4 170.1 114.6 167.2 113.2 166.5C112.7 166.3 112.2 166.3 111.7 166.6C109.7 167.7 109.8 170.2 109.9 173C110 176 110.2 179.4 106.8 180.4L106.3 180.6V180.1C106 176.3 105.3 175 104.7 174.5C104.5 174.3 104.2 174.2 103.9 174.2C101.3 174.4 101.5 180.1 101.6 182.9C101.6 183.5 101.6 183.9 101.6 184.2C101.6 185.6 101.5 187.1 101.4 188.6L101.3 190.2L101 190.3C98.2001 190.8 97.4001 187 96.6001 183.6C96.1001 181.4 95.7001 179.2 94.8001 178.7C93.8001 178.1 93.0001 178 92.4001 178.4C91.1001 179.2 90.7001 182 90.8001 183.6C91.0001 187.3 92.0001 192.3 95.7001 194.4C97.0001 195.1 99.1001 195.8 100.7 195.7H101.2V196.2C101.3 199.5 101.4 202.4 101.9 205Z" fill="#E49273"/>
<path d="M111.5 227.5H94.6C93.7 227.5 93 226.9 92.8 226L89 206.3L90.6 206L94.4 225.7C94.4 225.9 94.6 225.9 94.6 225.9H111.5C111.5 225.9 111.7 225.9 111.7 225.7L115.5 206L117.1 206.3L113.3 226C113.2 226.9 112.4 227.5 111.5 227.5Z" fill="#1D1B1B"/>
<path d="M89.2008 200.001H117.201C117.701 200.001 118.101 200.501 118.101 201.201V205.501C118.101 206.101 117.701 206.701 117.201 206.701H89.2008C88.7008 206.701 88.3008 206.201 88.3008 205.501V201.201C88.3008 200.501 88.7008 200.001 89.2008 200.001Z" fill="#D2D2D2"/>
<path d="M117.2 207.001H89.2004C88.5004 207.001 87.9004 206.301 87.9004 205.401V201.101C87.9004 200.201 88.5004 199.501 89.2004 199.501H117.2C117.9 199.501 118.5 200.201 118.5 201.101V205.401C118.5 206.301 117.9 207.001 117.2 207.001ZM89.2004 200.401C89.0004 200.401 88.8004 200.701 88.8004 201.101V205.401C88.8004 205.801 89.0004 206.101 89.2004 206.101H117.2C117.4 206.101 117.6 205.801 117.6 205.401V201.101C117.6 200.701 117.4 200.401 117.2 200.401H89.2004Z" fill="#1D1B1B"/>
<path d="M117.2 207H89.2C88.5 207 88 206.3 88 205.5V201.2C88 200.3 88.6 199.7 89.2 199.7H117.2C117.9 199.7 118.4 200.4 118.4 201.2V205.5C118.5 206.3 117.9 207 117.2 207ZM89.2 200.4C89 200.4 88.7 200.7 88.7 201.2V205.5C88.7 206 89 206.3 89.2 206.3H117.2C117.4 206.3 117.7 206 117.7 205.5V201.2C117.7 200.7 117.4 200.4 117.2 200.4H89.2Z" fill="#D2D2D2"/>
<path d="M117.2 207.401H89.2C88.3 207.401 87.5 206.501 87.5 205.401V201.101C87.5 200.001 88.3 199.101 89.2 199.101H117.2C118.1 199.101 118.9 200.001 118.9 201.101V205.401C118.9 206.501 118.1 207.401 117.2 207.401ZM89.2 200.801C89.2 200.801 89.1 201.001 89.1 201.201V205.501C89.1 205.701 89.2 205.901 89.2 205.901H117.2C117.2 205.901 117.3 205.801 117.3 205.501V201.201C117.3 201.001 117.2 200.801 117.2 200.801H89.2Z" fill="#1D1B1B"/>
<path d="M92.3008 183.3C92.8008 183.4 93.2008 183.4 93.7008 183.5C94.2008 183.6 94.2008 182.8 93.7008 182.7C93.2008 182.6 92.8008 182.6 92.3008 182.5C91.8008 182.4 91.8008 183.2 92.3008 183.3Z" fill="#E49273"/>
<path d="M94.3008 177.101C94.3008 177.301 94.3008 177.601 94.3008 177.801C94.3008 178.301 95.1008 178.301 95.1008 177.801C95.1008 177.601 95.1008 177.301 95.1008 177.101C95.1008 176.601 94.3008 176.601 94.3008 177.101Z" fill="#E49273"/>
<path d="M97.0009 184.3C97.3009 184.1 97.7009 183.9 98.0009 183.7C98.4009 183.5 98.0009 182.8 97.6009 183C97.3009 183.2 96.9009 183.4 96.6009 183.6C96.1009 183.9 96.5009 184.5 97.0009 184.3Z" fill="#E49273"/>
<path d="M92.9993 193.201C93.3993 192.901 93.7993 192.601 94.1993 192.301C94.5993 192.001 94.1993 191.301 93.7993 191.601C93.3993 191.901 92.9993 192.201 92.5993 192.501C92.1993 192.801 92.5993 193.501 92.9993 193.201Z" fill="#E49273"/>
<path d="M90.1002 186.5C90.4002 186.6 90.7002 186.7 91.0002 186.8C91.5002 187 91.7002 186.2 91.2002 186C90.9002 185.9 90.6002 185.8 90.3002 185.7C89.8002 185.6 89.6002 186.4 90.1002 186.5Z" fill="#E49273"/>
<path d="M95.6991 190.2C95.8991 190.2 95.9991 190.3 96.0991 190.4C96.3991 190.8 96.9991 190.2 96.5991 189.8C96.3991 189.5 95.9991 189.4 95.5991 189.3C95.1991 189.3 95.1991 190.1 95.6991 190.2Z" fill="#E49273"/>
<path d="M97.4006 193.8C97.3006 194.3 97.4006 194.8 97.6006 195.3C97.8006 195.8 98.5006 195.4 98.3006 194.9C98.2006 194.6 98.1006 194.3 98.2006 194C98.2006 193.5 97.5006 193.3 97.4006 193.8Z" fill="#E49273"/>
<path d="M101.501 194C101.701 194.1 102.001 194.1 102.201 194.2C102.701 194.3 102.901 193.6 102.401 193.4C102.201 193.3 101.901 193.3 101.701 193.2C101.201 193.1 101.001 193.8 101.501 194Z" fill="#E49273"/>
<path d="M104 186.301C104 186.701 104.1 187.101 104.5 187.401C104.9 187.701 105.4 187.201 105.1 186.801C104.9 186.601 104.8 186.501 104.9 186.201C104.8 185.801 104 185.801 104 186.301Z" fill="#E49273"/>
<path d="M103.001 180.801C102.801 181.101 102.701 181.401 102.801 181.801C102.901 182.301 103.601 182.101 103.601 181.601C103.601 181.401 103.601 181.301 103.701 181.201C103.901 180.701 103.301 180.401 103.001 180.801Z" fill="#E49273"/>
<path d="M107.199 183C107.199 183.2 107.199 183.5 107.199 183.7C107.199 184.2 107.999 184.2 107.999 183.7C107.999 183.5 107.999 183.2 107.999 183C107.999 182.5 107.199 182.5 107.199 183Z" fill="#E49273"/>
<path d="M99.9997 181.801C100.2 181.901 100.3 182.001 100.5 182.101C100.9 182.401 101.3 181.701 100.9 181.401C100.7 181.301 100.6 181.201 100.4 181.101C99.9997 180.901 99.5997 181.501 99.9997 181.801Z" fill="#E49273"/>
<path d="M101.3 175.4C101.5 175.6 101.5 175.8 101.5 176C101.5 176.5 102.3 176.5 102.3 176C102.3 175.6 102.1 175.2 101.8 174.9C101.5 174.4 101 175 101.3 175.4Z" fill="#E49273"/>
<path d="M103.301 173C103.301 173.3 103.301 173.7 103.301 174C103.301 174.5 104.101 174.5 104.101 174C104.101 173.7 104.101 173.3 104.101 173C104.101 172.5 103.301 172.5 103.301 173Z" fill="#E49273"/>
<path d="M108.1 177.6C108.2 177.7 108.3 177.8 108.4 178C108.7 178.4 109.3 177.8 108.9 177.4C108.8 177.3 108.7 177.2 108.6 177C108.3 176.7 107.7 177.2 108.1 177.6Z" fill="#E49273"/>
<path d="M108.9 172.901C109.2 172.901 109.6 172.901 109.9 173.001C110.4 173.001 110.4 172.301 109.9 172.201C109.6 172.201 109.2 172.201 108.9 172.101C108.4 172.101 108.4 172.901 108.9 172.901Z" fill="#E49273"/>
<path d="M110 166.7C110.2 166.9 110.5 167.2 110.7 167.4C111.1 167.8 111.6 167.2 111.2 166.8C111 166.6 110.7 166.3 110.5 166.1C110.2 165.8 109.6 166.4 110 166.7Z" fill="#E49273"/>
<path d="M113 164.7C113 165.1 113 165.5 113 165.9C113 166.4 113.8 166.4 113.8 165.9C113.8 165.5 113.8 165.1 113.8 164.7C113.7 164.2 113 164.2 113 164.7Z" fill="#E49273"/>
<path d="M114.4 172C114.5 171.8 114.6 171.7 114.7 171.5C115 171.1 114.3 170.7 114 171.1C113.9 171.3 113.8 171.4 113.7 171.6C113.4 172 114.1 172.4 114.4 172Z" fill="#E49273"/>
<path d="M111.699 179.6C111.999 179.5 112.299 179.4 112.599 179.3C113.099 179.1 112.899 178.4 112.399 178.5C112.099 178.6 111.799 178.7 111.499 178.8C111.099 179 111.299 179.8 111.699 179.6Z" fill="#E49273"/>
<path d="M115.201 178.5C115.501 178.4 115.801 178.4 116.101 178.3C116.601 178.2 116.401 177.4 115.901 177.5C115.601 177.6 115.301 177.6 115.001 177.7C114.501 177.9 114.701 178.6 115.201 178.5Z" fill="#E49273"/>
<path d="M113 182.2C113 182.3 113 182.3 113 182.4C113 182.9 113.8 182.9 113.8 182.4C113.8 182.3 113.8 182.3 113.8 182.2C113.7 181.7 113 181.7 113 182.2Z" fill="#E49273"/>
<path d="M106.3 194.101C106.5 194.001 106.6 193.901 106.8 193.801C107.2 193.501 106.8 192.801 106.4 193.101C106.2 193.201 106.1 193.301 105.9 193.401C105.5 193.701 105.9 194.301 106.3 194.101Z" fill="#E49273"/>
<path d="M105.799 196.9C106.099 196.6 106.399 196.4 106.899 196.3C107.399 196.2 107.199 195.4 106.699 195.5C106.199 195.6 105.699 195.9 105.299 196.3C104.899 196.7 105.499 197.3 105.799 196.9Z" fill="#E49273"/>
<path d="M102.6 197.401C102.7 197.501 102.7 197.601 102.8 197.701C103 198.101 103.7 197.801 103.5 197.301C103.4 197.201 103.4 197.101 103.3 197.001C103.1 196.601 102.4 197.001 102.6 197.401Z" fill="#E49273"/>
<path d="M99.7005 198.2C100.1 198.4 100.6 198.5 101 198.4C101.5 198.3 101.3 197.6 100.8 197.6C100.5 197.7 100.3 197.6 100.1 197.5C99.6005 197.3 99.2005 198 99.7005 198.2Z" fill="#E49273"/>
<path d="M106.1 190.9C106.6 190.8 107.1 190.8 107.7 190.7C108.2 190.6 108.2 189.9 107.7 189.9C107.2 190 106.7 190 106.1 190.1C105.6 190.1 105.6 190.9 106.1 190.9Z" fill="#E49273"/>
<path d="M139.1 77.0004C141.1 77.0004 141.1 73.9004 139.1 73.9004C137.1 73.9004 137.1 77.0004 139.1 77.0004Z" fill="#1D1B1B"/>
<path d="M345.6 155.9C345.8 155.9 346.1 155.9 346.3 155.9C347.1 155.9 347.9 155.2 347.9 154.3C347.9 153.5 347.2 152.7 346.3 152.7C346.1 152.7 345.8 152.7 345.6 152.7C344.8 152.7 344 153.4 344 154.3C344.1 155.2 344.8 155.9 345.6 155.9Z" fill="#1D1B1B"/>
<path d="M198 169.3C192.8 169.3 187.7 169.3 182.5 169.3C182.2 169.3 181.9 169.3 181.6 169.2C181 169.1 180.7 168.7 180.6 168.1C180.6 167.4 180.9 167 181.5 166.8C181.8 166.7 182.2 166.7 182.5 166.7C192.8 166.7 203.2 166.7 213.5 166.7C213.8 166.7 214.1 166.7 214.4 166.8C215.1 167 215.4 167.4 215.4 168.1C215.4 168.8 215 169.2 214.3 169.3C214 169.4 213.7 169.3 213.4 169.3C208.3 169.3 203.2 169.3 198 169.3Z" fill="#1D1B1B"/>
<path d="M210.6 173.2C206.3 173.2 202 173.2 197.7 173.2C197.4 173.2 197.1 173.2 196.8 173.2C196.1 173.1 195.7 172.6 195.8 172C195.9 171.5 196.3 171.1 196.6 170.8C196.8 170.6 197.3 170.7 197.7 170.7C206.3 170.7 214.9 170.7 223.5 170.7C223.8 170.7 224.2 170.7 224.5 170.8C225.1 171 225.4 171.5 225.4 172.1C225.4 172.8 225 173.2 224.3 173.3C224 173.3 223.7 173.3 223.4 173.3C219.2 173.2 214.9 173.2 210.6 173.2Z" fill="#1D1B1B"/>
<path d="M186.9 173.2C185.3 173.2 183.7 173.2 182.2 173.2C181.1 173.2 180.6 172.8 180.6 171.9C180.6 171.1 181.1 170.6 182.2 170.6C185.4 170.6 188.7 170.6 191.9 170.6C192.9 170.6 193.5 171.1 193.5 171.9C193.5 172.7 192.9 173.2 191.9 173.2C190.2 173.2 188.6 173.2 186.9 173.2Z" fill="#1D1B1B"/>
<path d="M221.699 169.2C220.999 169.2 220.199 169.2 219.499 169.2C218.599 169.2 218.199 168.7 218.199 167.9C218.199 167.2 218.699 166.6 219.499 166.6C220.999 166.6 222.599 166.6 224.099 166.6C224.999 166.6 225.399 167.1 225.399 167.9C225.399 168.7 224.899 169.2 223.999 169.2C223.299 169.3 222.499 169.3 221.699 169.2Z" fill="#1D1B1B"/>
<path d="M215.3 139.1C213 139.1 210.7 139.1 208.4 139.1C208.4 139.6 208.5 140.2 208.5 140.7C208.5 141.5 208.6 142.4 208.6 143.2C208.6 143.9 208.1 144.5 207.4 144.5C206.7 144.5 206.2 144 206.2 143.2C206.2 141.9 206.1 140.7 206 139.4C206 139.3 206 139.2 206 139.1C202.9 139.1 199.8 139.1 196.7 139.1C196.4 141.5 196.4 143.9 196.7 146.3C196.8 146.3 197 146.3 197.1 146.3C198.7 146.3 200.2 146.3 201.8 146.3C202.6 146.3 203.1 146.8 203.1 147.5C203.1 148.2 202.5 148.7 201.7 148.7C200.2 148.7 198.8 148.7 197.3 148.7C197.2 148.7 197.1 148.7 196.8 148.7C197 149.7 197.2 150.7 197.5 151.6C197.9 153 198.4 154.4 199.2 155.6C199.5 156 199.8 156.4 200.2 156.7C200.5 156.9 200.8 157 201.2 157.1C201.9 157.2 202.5 157.6 202.5 158.3C202.5 159 202 159.5 201.2 159.5C198 159.5 195 158.7 192.3 157C188.2 154.4 185.6 150.8 184.7 146.1C183.5 139.8 185.3 134.4 190.1 130C192.5 127.8 195.5 126.4 198.8 126C204.8 125.2 209.8 127.1 213.9 131.5C216.1 133.9 217.5 136.8 217.9 140.1C218 141.1 218.1 142.1 218.1 143.2C218.1 143.9 217.6 144.5 216.9 144.5C216.2 144.5 215.7 143.9 215.7 143.2C215.7 142.5 215.7 141.8 215.6 141.1C215.6 140.4 215.4 139.8 215.3 139.1ZM194.1 139.1C191.9 139.1 189.6 139.1 187.3 139.1C186.7 141.5 186.7 143.9 187.3 146.3C189.6 146.3 191.9 146.3 194.1 146.3C194.1 143.9 194.1 141.5 194.1 139.1ZM205.6 136.6C205.6 136.5 205.6 136.5 205.6 136.5C205.6 136.3 205.5 136.2 205.5 136C205.1 134.1 204.6 132.2 203.7 130.4C203.3 129.8 202.9 129.2 202.4 128.7C201.7 128 201 128 200.3 128.7C199.9 129.1 199.5 129.6 199.2 130.1C198.4 131.4 197.9 132.8 197.5 134.3C197.3 135.1 197.2 135.9 197 136.7C199.9 136.6 202.7 136.6 205.6 136.6ZM205.6 128.9C207 131.4 207.7 134 208.1 136.7C210.2 136.7 212.3 136.7 214.5 136.7C212.6 132.8 209.7 130.2 205.6 128.9ZM197 128.9C192.9 130.3 190 132.9 188.1 136.7C190.3 136.7 192.3 136.7 194.5 136.7C195 134 195.6 131.3 197 128.9ZM188.2 148.7C189.1 151.7 194.4 156.4 196.9 156.4C195.5 154 194.9 151.4 194.4 148.7C192.4 148.7 190.3 148.7 188.2 148.7Z" fill="#1D1B1B"/>
<path d="M213.5 153.2C213.7 153.4 213.9 153.5 214 153.6C215.3 154.9 216.5 156.1 217.8 157.4C218.4 158.1 218.3 159 217.5 159.4C217 159.6 216.6 159.6 216.1 159.1C214.8 157.8 213.5 156.5 212.2 155.2C212.1 155.1 212 155 211.8 154.9C211.6 155.1 211.4 155.4 211.2 155.6C210 156.8 208.8 158 207.6 159.2C207.2 159.6 206.7 159.7 206.2 159.5C205.7 159.3 205.4 158.8 205.6 158.3C205.7 158 205.8 157.7 206.1 157.5C207.4 156.2 208.6 154.9 209.9 153.7C210 153.6 210.1 153.5 210.2 153.4C210.1 153.2 210 153.1 209.9 153.1C208.6 151.8 207.3 150.5 206 149.2C205.6 148.8 205.5 148.3 205.7 147.8C205.9 147.3 206.4 147 206.9 147.1C207.2 147.2 207.5 147.3 207.7 147.5C209 148.8 210.3 150 211.5 151.3C211.6 151.4 211.7 151.5 211.8 151.6C211.9 151.5 212 151.4 212.1 151.3C213.4 150 214.7 148.7 216 147.4C216.7 146.7 217.8 147 218.1 148C218.2 148.5 218 148.9 217.7 149.2C216.4 150.5 215.1 151.8 213.9 153C213.8 153 213.7 153.1 213.5 153.2Z" fill="#1D1B1B"/>
</svg>
