<svg width="32" height="33" viewBox="0 0 32 33" fill="none" xmlns="http://www.w3.org/2000/svg">
<path d="M19.9637 9.34473H6.52952C5.46959 9.34473 4.61035 10.204 4.61035 11.2639V24.6981C4.61035 25.758 5.46959 26.6172 6.52952 26.6172H19.9637C21.0236 26.6172 21.8828 25.758 21.8828 24.6981V11.2639C21.8828 10.204 21.0236 9.34473 19.9637 9.34473Z" stroke="white" stroke-width="1.316" stroke-linecap="round" stroke-linejoin="round"/>
<path d="M17.0847 7.42554V11.2639" stroke="white" stroke-width="1.316" stroke-linecap="round" stroke-linejoin="round"/>
<path d="M9.40845 7.42554V11.2639" stroke="white" stroke-width="1.316" stroke-linecap="round" stroke-linejoin="round"/>
<path d="M4.61035 15.1023H21.8828" stroke="white" stroke-width="1.316" stroke-linecap="round" stroke-linejoin="round"/>
<path d="M18.0446 18.9404H12.2871" stroke="white" stroke-width="1.316" stroke-linecap="round" stroke-linejoin="round"/>
<path d="M14.206 22.7788H8.44849" stroke="white" stroke-width="1.316" stroke-linecap="round" stroke-linejoin="round"/>
<path d="M8.44849 18.9404H8.45808" stroke="white" stroke-width="1.316" stroke-linecap="round" stroke-linejoin="round"/>
<path d="M18.0447 22.7788H18.0543" stroke="white" stroke-width="1.316" stroke-linecap="round" stroke-linejoin="round"/>
<rect x="24.104" y="9.45435" width="6.58" height="1.316" fill="white"/>
<rect x="24.104" y="12.0864" width="4.606" height="1.316" fill="white"/>
</svg>
