<svg width="15" height="14" viewBox="0 0 15 14" fill="none" xmlns="http://www.w3.org/2000/svg">
<g id="wrapper">
<path id="Union" fill-rule="evenodd" clip-rule="evenodd" d="M8.091 3.34067C8.32531 3.10636 8.32531 2.72646 8.091 2.49214C7.85668 2.25783 7.47678 2.25783 7.24247 2.49214L3.15913 6.57548C3.10161 6.633 3.05821 6.6993 3.02893 6.77007C2.99959 6.84081 2.9834 6.91839 2.9834 6.99974C2.9834 7.08109 2.99959 7.15867 3.02893 7.22941C3.05821 7.30018 3.10161 7.36648 3.15913 7.424L7.24247 11.5073C7.47678 11.7417 7.85668 11.7417 8.091 11.5073C8.32531 11.273 8.32531 10.8931 8.091 10.6588L5.03193 7.59974H11.7501C12.0814 7.59974 12.3501 7.33111 12.3501 6.99974C12.3501 6.66837 12.0814 6.39974 11.7501 6.39974H5.03193L8.091 3.34067Z" fill="white" fill-opacity="0.85"/>
</g>
</svg>
