<svg width="16" height="16" viewBox="0 0 16 16" fill="none" xmlns="http://www.w3.org/2000/svg">
<g id="lock-keyhole">
<path id="Vector" d="M8.00271 11.3335C8.37096 11.3335 8.66949 11.035 8.66949 10.6668C8.66949 10.2985 8.37096 10 8.00271 10C7.63446 10 7.33594 10.2985 7.33594 10.6668C7.33594 11.035 7.63446 11.3335 8.00271 11.3335Z" stroke="#88898A" stroke-width="1.3" stroke-linecap="round" stroke-linejoin="round"/>
<path id="Vector_2" d="M12.6667 6.66602L3.33333 6.66602C2.59695 6.66602 2 7.26297 2 7.99935L2 13.3327C2 14.0691 2.59695 14.666 3.33333 14.666H12.6667C13.403 14.666 14 14.0691 14 13.3327V7.99935C14 7.26297 13.403 6.66602 12.6667 6.66602Z" stroke="#88898A" stroke-width="1.3" stroke-linecap="round" stroke-linejoin="round"/>
<path id="Vector_3" d="M4.66797 6.66818L4.66797 4.66786C4.66797 3.78366 5.01922 2.93568 5.64444 2.31045C6.26966 1.68523 7.11764 1.33398 8.00184 1.33398C8.88604 1.33398 9.73403 1.68523 10.3592 2.31045C10.9845 2.93568 11.3357 3.78366 11.3357 4.66786V6.66818" stroke="#88898A" stroke-width="1.3" stroke-linecap="round" stroke-linejoin="round"/>
</g>
</svg>
