<svg width="273" height="187" viewBox="0 0 273 187" fill="none" xmlns="http://www.w3.org/2000/svg">
<mask id="path-1-inside-1_7437_30372" fill="white">
<path d="M90.2136 185.864H35.6182V156.31H88.5809"/>
</mask>
<path d="M35.6182 185.864H34.6182V186.864H35.6182V185.864ZM35.6182 156.31V155.31H34.6182V156.31H35.6182ZM90.2136 184.864H35.6182V186.864H90.2136V184.864ZM36.6182 185.864V156.31H34.6182V185.864H36.6182ZM35.6182 157.31H88.5809V155.31H35.6182V157.31Z" fill="black" mask="url(#path-1-inside-1_7437_30372)"/>
<path d="M51.8379 157.296L51.8516 174.24L56.5878 166.556L61.324 174.24L65.5609 167.369L69.4306 173.649V157.198" stroke="#1D1B1B" stroke-width="1.19654" stroke-linecap="round" stroke-linejoin="round"/>
<path d="M59.5835 60.3173L57.9668 54.3369" stroke="#1D1B1B" stroke-width="1.19654" stroke-linecap="round" stroke-linejoin="round"/>
<path d="M91.0472 109.35C91.4463 105.08 92.689 97.1621 82.398 92.247C72.1069 87.3318 65.8292 82.4462 63.0859 71.5098" stroke="#1D1B1B" stroke-width="1.19654" stroke-linecap="round" stroke-linejoin="round"/>
<path d="M61.9401 60.5591L64.5051 70.054C64.6987 70.7706 64.2726 71.5109 63.5491 71.7048L62.2301 72.0583C61.5066 72.2522 60.7651 71.8249 60.5715 71.1082L58.0066 61.6133C57.813 60.8966 58.239 60.1564 58.9626 59.9625L60.2816 59.609C61.0051 59.4151 61.7465 59.8424 61.9401 60.5591Z" stroke="black"/>
<path d="M41.5003 89.4284L35.2842 89.4238" stroke="#1D1B1B" stroke-width="1.19654" stroke-linecap="round" stroke-linejoin="round"/>
<path d="M42.3461 87.2354H52.2176C52.9672 87.2354 53.5715 87.8401 53.5715 88.5819V89.9425C53.5715 90.6843 52.9672 91.2891 52.2176 91.2891H42.3461C41.5965 91.2891 40.9922 90.6843 40.9922 89.9425V88.5819C40.9922 87.8401 41.5965 87.2354 42.3461 87.2354Z" stroke="black"/>
<path d="M52.6279 89.0247C52.6279 89.0247 75.4744 87.7437 86.1486 106.857" stroke="#1D1B1B" stroke-width="1.19654" stroke-linecap="round" stroke-linejoin="round"/>
<path d="M187.733 131.88C193.865 131.88 198.223 133.306 198.515 147.05C198.807 160.794 198.196 173.218 210.236 173.059C221.361 172.911 218.889 168.428 224.032 168.625" stroke="#1D1B1B" stroke-width="1.19654" stroke-linecap="round" stroke-linejoin="round"/>
<path d="M222.947 163.609H235.804C236.349 163.609 236.788 164.049 236.788 164.588V172.565C236.788 173.104 236.349 173.544 235.804 173.544H222.947C222.402 173.544 221.963 173.104 221.963 172.565V164.588C221.963 164.049 222.402 163.609 222.947 163.609Z" stroke="black"/>
<path d="M231.847 163.093L231.831 174.061" stroke="#1D1B1B" stroke-width="1.19654" stroke-linejoin="round"/>
<path d="M234.682 166.032H243.155" stroke="#1D1B1B" stroke-width="1.19654" stroke-linecap="round" stroke-linejoin="round"/>
<path d="M234.682 170.12H243.155" stroke="#1D1B1B" stroke-width="1.19654" stroke-linecap="round" stroke-linejoin="round"/>
<path d="M192.579 8.07812V13.6747" stroke="#1D1B1B" stroke-width="1.19654" stroke-linecap="round" stroke-linejoin="round"/>
<path d="M195.388 10.877H189.771" stroke="#1D1B1B" stroke-width="1.19654" stroke-linecap="round" stroke-linejoin="round"/>
<path d="M152.623 28.5693V34.1636" stroke="#1D1B1B" stroke-width="1.19654" stroke-linecap="round" stroke-linejoin="round"/>
<path d="M155.43 31.3682H149.813" stroke="#1D1B1B" stroke-width="1.19654" stroke-linecap="round" stroke-linejoin="round"/>
<path d="M120.379 1.37988V6.97417" stroke="#1D1B1B" stroke-width="1.19654" stroke-linecap="round" stroke-linejoin="round"/>
<path d="M123.186 4.17773H117.569" stroke="#1D1B1B" stroke-width="1.19654" stroke-linecap="round" stroke-linejoin="round"/>
<path d="M86.5527 46.8955V52.4898" stroke="#1D1B1B" stroke-width="1.19654" stroke-linecap="round" stroke-linejoin="round"/>
<path d="M89.3619 49.6914H83.7432" stroke="#1D1B1B" stroke-width="1.19654" stroke-linecap="round" stroke-linejoin="round"/>
<path d="M47.7832 25.2188V30.8153" stroke="#1D1B1B" stroke-width="1.19654" stroke-linecap="round" stroke-linejoin="round"/>
<path d="M50.5901 28.0176H44.9736" stroke="#1D1B1B" stroke-width="1.19654" stroke-linecap="round" stroke-linejoin="round"/>
<path d="M41.6504 108.17V113.764" stroke="#1D1B1B" stroke-width="1.19654" stroke-linecap="round" stroke-linejoin="round"/>
<path d="M44.4572 110.969H38.8408" stroke="#1D1B1B" stroke-width="1.19654" stroke-linecap="round" stroke-linejoin="round"/>
<path d="M30.375 61.8672V67.4637" stroke="#1D1B1B" stroke-width="1.19654" stroke-linecap="round" stroke-linejoin="round"/>
<path d="M33.1841 64.665H27.5654" stroke="#1D1B1B" stroke-width="1.19654" stroke-linecap="round" stroke-linejoin="round"/>
<path d="M217.998 77.9258V83.5223" stroke="#1D1B1B" stroke-width="1.19654" stroke-linecap="round" stroke-linejoin="round"/>
<path d="M220.807 80.7246H215.19" stroke="#1D1B1B" stroke-width="1.19654" stroke-linecap="round" stroke-linejoin="round"/>
<path d="M228.384 31.5244V37.121" stroke="#1D1B1B" stroke-width="1.19654" stroke-linecap="round" stroke-linejoin="round"/>
<path d="M231.191 34.3232H225.574" stroke="#1D1B1B" stroke-width="1.19654" stroke-linecap="round" stroke-linejoin="round"/>
<path d="M249.153 113.688V119.283" stroke="#1D1B1B" stroke-width="1.19654" stroke-linecap="round" stroke-linejoin="round"/>
<path d="M251.962 116.484H246.344" stroke="#1D1B1B" stroke-width="1.19654" stroke-linecap="round" stroke-linejoin="round"/>
<path d="M194.849 120.568V186.121H87.2529V121.034L132.357 121.034L132.36 121.034C132.603 121.033 132.84 120.956 133.039 120.816C133.203 120.699 133.334 120.544 133.42 120.363L154.708 98.8659V184.486C154.708 184.8 154.833 185.1 155.056 185.322C155.278 185.543 155.579 185.667 155.892 185.667C156.206 185.667 156.507 185.543 156.729 185.322C156.951 185.1 157.076 184.8 157.076 184.486V100.065L169.552 119.943C169.658 120.113 169.806 120.253 169.982 120.35C170.123 120.428 170.279 120.477 170.439 120.492C170.568 120.541 170.704 120.567 170.842 120.568H170.849H194.849ZM168.762 151.44H173.404V174.387V174.887H173.904H180.232H180.732V174.387V151.836H185.774H186.47L186.247 151.176L177.94 126.545L177.481 125.185L176.996 126.536L168.292 150.771L168.051 151.44H168.762ZM144.619 160.1C145.355 159.367 145.768 158.373 145.768 157.336V137.551C145.768 136.514 145.355 135.52 144.619 134.787C143.884 134.055 142.887 133.644 141.848 133.644H99.1077C98.0686 133.644 97.0716 134.055 96.3362 134.787C95.6008 135.52 95.1872 136.514 95.1872 137.551V157.336C95.1872 158.373 95.6008 159.367 96.3362 160.1C97.0716 160.832 98.0686 161.243 99.1077 161.243H141.848C142.887 161.243 143.884 160.832 144.619 160.1Z" fill="#DEDEDE" stroke="black"/>
<path d="M131.664 119.179V115.161H61.5118L61.4297 119.204L131.664 119.179Z" fill="#1D1B1B"/>
<path d="M220.317 114.688H171.532V118.706L220.315 118.727L220.313 114.698" fill="#1D1B1B"/>
<mask id="path-38-inside-2_7437_30372" fill="white">
<path d="M220.304 113.129L194.94 90.3154H187.007C187.007 90.3154 187.568 98.0856 180.579 99.1736C179.094 99.4689 175.403 97.0386 173.622 92.1121C173.535 91.4443 175.04 101.865 168.974 102.39C160.929 102.456 150.116 90.806 150.116 90.806H86.7506L61.5713 113.81H131.921L152.64 92.8798C152.769 92.7583 152.94 92.6915 153.118 92.6933C153.295 92.6951 153.465 92.7654 153.591 92.8894C153.717 93.0134 153.79 93.1815 153.795 93.358C153.799 93.5346 153.734 93.706 153.614 93.836L133.03 114.619V118.105L155.197 95.7098C155.287 95.6209 155.399 95.558 155.523 95.5281L155.587 95.4782C155.74 95.3826 155.926 95.3516 156.102 95.3921C156.279 95.4325 156.432 95.5411 156.528 95.6939L170.162 117.421V114.264L161.018 99.9345C160.921 99.7818 160.888 99.5968 160.928 99.4203C160.968 99.2437 161.076 99.09 161.229 98.993C161.383 98.8961 161.568 98.8637 161.745 98.9031C161.923 98.9425 162.077 99.0504 162.174 99.2031L171.193 113.338H220.3"/>
</mask>
<path d="M220.304 113.129L194.94 90.3154H187.007C187.007 90.3154 187.568 98.0856 180.579 99.1736C179.094 99.4689 175.403 97.0386 173.622 92.1121C173.535 91.4443 175.04 101.865 168.974 102.39C160.929 102.456 150.116 90.806 150.116 90.806H86.7506L61.5713 113.81H131.921L152.64 92.8798C152.769 92.7583 152.94 92.6915 153.118 92.6933C153.295 92.6951 153.465 92.7654 153.591 92.8894C153.717 93.0134 153.79 93.1815 153.795 93.358C153.799 93.5346 153.734 93.706 153.614 93.836L133.03 114.619V118.105L155.197 95.7098C155.287 95.6209 155.399 95.558 155.523 95.5281L155.587 95.4782C155.74 95.3826 155.926 95.3516 156.102 95.3921C156.279 95.4325 156.432 95.5411 156.528 95.6939L170.162 117.421V114.264L161.018 99.9345C160.921 99.7818 160.888 99.5968 160.928 99.4203C160.968 99.2437 161.076 99.09 161.229 98.993C161.383 98.8961 161.568 98.8637 161.745 98.9031C161.923 98.9425 162.077 99.0504 162.174 99.2031L171.193 113.338H220.3" fill="#DEDEDE"/>
<path d="M194.94 90.3154L195.609 89.5719L195.324 89.3154H194.94V90.3154ZM187.007 90.3154V89.3154H185.932L186.01 90.3874L187.007 90.3154ZM180.579 99.1736L180.425 98.1855L180.404 98.1887L180.384 98.1928L180.579 99.1736ZM173.622 92.1121L172.63 92.2407L172.644 92.3492L172.681 92.452L173.622 92.1121ZM168.974 102.39L168.983 103.39L169.022 103.389L169.061 103.386L168.974 102.39ZM150.116 90.806L150.849 90.1257L150.552 89.806H150.116V90.806ZM86.7506 90.806V89.806H86.3625L86.0761 90.0678L86.7506 90.806ZM61.5713 113.81L60.8968 113.072L58.9941 114.81H61.5713V113.81ZM131.921 113.81V114.81H132.339L132.632 114.514L131.921 113.81ZM152.64 92.8798L151.954 92.1521L151.942 92.164L151.93 92.1763L152.64 92.8798ZM153.614 93.836L154.325 94.5397L154.337 94.5273L154.349 94.5145L153.614 93.836ZM133.03 114.619L132.319 113.915L132.03 114.207V114.619H133.03ZM133.03 118.105H132.03V120.537L133.74 118.809L133.03 118.105ZM155.197 95.7098L154.494 94.9983L154.486 95.0064L155.197 95.7098ZM155.523 95.5281L155.759 96.4999L155.969 96.4489L156.139 96.3156L155.523 95.5281ZM155.587 95.4782L155.058 94.629L155.013 94.6575L154.97 94.6907L155.587 95.4782ZM156.528 95.6939L157.375 95.1624L157.374 95.1609L156.528 95.6939ZM170.162 117.421L169.315 117.953L171.162 120.896V117.421H170.162ZM170.162 114.264H171.162V113.972L171.005 113.726L170.162 114.264ZM161.018 99.9345L160.175 100.472L160.175 100.472L161.018 99.9345ZM162.174 99.2031L161.331 99.7408L161.331 99.741L162.174 99.2031ZM171.193 113.338L170.35 113.876L170.645 114.338H171.193V113.338ZM220.973 112.385L195.609 89.5719L194.272 91.0589L219.636 113.872L220.973 112.385ZM194.94 89.3154H187.007V91.3154H194.94V89.3154ZM187.007 90.3154C186.01 90.3874 186.01 90.387 186.01 90.3866C186.01 90.3866 186.01 90.3862 186.01 90.386C186.01 90.3857 186.01 90.3854 186.01 90.3853C186.01 90.385 186.01 90.3853 186.01 90.3859C186.01 90.3872 186.01 90.3903 186.01 90.3952C186.011 90.405 186.012 90.4217 186.013 90.4449C186.015 90.4915 186.017 90.5641 186.018 90.6593C186.019 90.85 186.014 91.1296 185.988 91.4708C185.936 92.1575 185.8 93.0709 185.471 94.0038C184.824 95.8364 183.461 97.7129 180.425 98.1855L180.733 100.162C184.686 99.5464 186.537 96.9938 187.357 94.6693C187.761 93.5236 187.922 92.4265 187.983 91.6223C188.013 91.218 188.019 90.8821 188.018 90.6436C188.017 90.5242 188.014 90.4288 188.011 90.361C188.009 90.3271 188.008 90.3 188.007 90.2803C188.006 90.2704 188.006 90.2624 188.005 90.2562C188.005 90.2531 188.005 90.2505 188.005 90.2484C188.005 90.2473 188.005 90.2464 188.005 90.2455C188.005 90.2451 188.005 90.2446 188.005 90.2444C188.005 90.2439 188.004 90.2434 187.007 90.3154ZM180.384 98.1928C180.311 98.2073 180.031 98.2038 179.528 97.9763C179.054 97.7624 178.482 97.3937 177.877 96.8545C176.67 95.7786 175.396 94.0791 174.562 91.7721L172.681 92.452C173.628 95.0715 175.091 97.0505 176.546 98.3475C177.272 98.9947 178.012 99.4862 178.704 99.7989C179.366 100.098 180.105 100.288 180.774 100.154L180.384 98.1928ZM174.613 91.9834C174.612 91.9749 174.612 91.9705 174.612 91.9697C174.611 91.9687 174.612 91.9717 174.612 91.9767C174.612 91.9778 174.613 91.9866 174.614 91.9982C174.615 92.0059 174.617 92.0302 174.617 92.0466C174.618 92.1064 173.912 93.037 172.842 92.7118C172.725 92.5308 172.642 92.3018 172.637 92.2745C172.635 92.2639 172.632 92.2475 172.631 92.2419C172.629 92.2326 172.628 92.2256 172.628 92.2243C172.628 92.2199 172.627 92.2174 172.627 92.2183C172.627 92.2192 172.628 92.2233 172.629 92.231C172.633 92.2619 172.641 92.3314 172.65 92.4346C172.67 92.6407 172.696 92.9762 172.713 93.4007C172.745 94.2547 172.735 95.4435 172.551 96.6537C172.366 97.8768 172.015 99.0393 171.422 99.9032C170.856 100.729 170.069 101.291 168.888 101.394L169.061 103.386C170.912 103.226 172.212 102.289 173.072 101.034C173.906 99.8174 174.322 98.3181 174.529 96.9539C174.738 95.5767 174.747 94.2527 174.711 93.3242C174.693 92.8574 174.664 92.4843 174.641 92.2462C174.63 92.1274 174.62 92.041 174.615 91.9923C174.613 91.9802 174.612 91.9692 174.611 91.9599C174.61 91.9557 174.609 91.9493 174.608 91.9423C174.608 91.9397 174.607 91.9317 174.605 91.9218C174.604 91.9158 174.601 91.8991 174.599 91.8884C174.593 91.8609 174.511 91.6318 174.394 91.4508C173.324 91.1255 172.618 92.0562 172.618 92.1162C172.619 92.1327 172.621 92.1572 172.621 92.1652C172.622 92.1774 172.623 92.1872 172.624 92.1895C172.625 92.197 172.625 92.2038 172.626 92.2079C172.627 92.2172 172.628 92.2284 172.63 92.2407L174.613 91.9834ZM168.966 101.39C167.181 101.404 165.163 100.764 163.084 99.7149C161.018 98.6719 158.969 97.2639 157.145 95.8353C155.324 94.4091 153.746 92.9784 152.623 91.903C152.062 91.3659 151.616 90.9189 151.311 90.6073C151.159 90.4516 151.042 90.3297 150.964 90.2476C150.925 90.2065 150.895 90.1753 150.876 90.1548C150.867 90.1445 150.859 90.1369 150.855 90.132C150.853 90.1296 150.851 90.1278 150.85 90.1268C150.849 90.1263 150.849 90.1259 150.849 90.1257C150.849 90.1256 150.849 90.1256 150.849 90.1256C150.849 90.1256 150.849 90.1257 150.116 90.806C149.383 91.4863 149.383 91.4865 149.384 91.4867C149.384 91.4869 149.384 91.4871 149.384 91.4874C149.385 91.4879 149.385 91.4887 149.386 91.4895C149.388 91.4913 149.39 91.4938 149.393 91.497C149.399 91.5033 149.407 91.5124 149.419 91.5241C149.441 91.5477 149.473 91.5819 149.515 91.6261C149.599 91.7146 149.722 91.843 149.881 92.0057C150.2 92.3309 150.661 92.7935 151.24 93.3475C152.396 94.4544 154.024 95.9319 155.912 97.41C157.796 98.8855 159.959 100.378 162.183 101.5C164.395 102.617 166.745 103.408 168.983 103.39L168.966 101.39ZM150.116 89.806H86.7506V91.806H150.116V89.806ZM86.0761 90.0678L60.8968 113.072L62.2458 114.548L87.4251 91.5443L86.0761 90.0678ZM61.5713 114.81H131.921V112.81H61.5713V114.81ZM132.632 114.514L153.351 93.5833L151.93 92.1763L131.211 113.107L132.632 114.514ZM153.326 93.6074C153.267 93.6637 153.188 93.6941 153.107 93.6932L153.128 91.6933C152.692 91.6889 152.272 91.853 151.954 92.1521L153.326 93.6074ZM153.107 93.6932C153.027 93.6924 152.949 93.6605 152.89 93.6029L154.292 92.1759C153.98 91.8704 153.563 91.6978 153.128 91.6933L153.107 93.6932ZM152.89 93.6029C152.832 93.5453 152.797 93.4663 152.795 93.3825L154.794 93.3336C154.784 92.8966 154.603 92.4816 154.292 92.1759L152.89 93.6029ZM152.795 93.3825C152.793 93.2987 152.824 93.2181 152.88 93.1575L154.349 94.5145C154.645 94.1939 154.805 93.7706 154.794 93.3336L152.795 93.3825ZM152.904 93.1323L132.319 113.915L133.74 115.322L154.325 94.5397L152.904 93.1323ZM132.03 114.619V118.105H134.03V114.619H132.03ZM133.74 118.809L155.907 96.4133L154.486 95.0064L132.319 117.402L133.74 118.809ZM155.899 96.4214C155.86 96.4601 155.811 96.4871 155.759 96.4999L155.287 94.5563C154.988 94.629 154.713 94.7816 154.494 94.9983L155.899 96.4214ZM156.139 96.3156L156.203 96.2656L154.97 94.6907L154.906 94.7407L156.139 96.3156ZM156.115 96.3273C156.044 96.3713 155.959 96.3853 155.879 96.3668L156.326 94.4173C155.892 94.318 155.436 94.3939 155.058 94.629L156.115 96.3273ZM155.879 96.3668C155.798 96.3484 155.727 96.2986 155.682 96.227L157.374 95.1609C157.137 94.7836 156.759 94.5167 156.326 94.4173L155.879 96.3668ZM155.681 96.2255L169.315 117.953L171.009 116.89L157.375 95.1624L155.681 96.2255ZM171.162 117.421V114.264H169.162V117.421H171.162ZM171.005 113.726L161.861 99.3966L160.175 100.472L169.319 114.802L171.005 113.726ZM161.861 99.3969C161.907 99.4683 161.922 99.5555 161.904 99.6389L159.952 99.2016C159.854 99.6381 159.935 100.095 160.175 100.472L161.861 99.3969ZM161.904 99.6389C161.885 99.7222 161.834 99.7936 161.764 99.8381L160.695 98.1479C160.318 98.3865 160.05 98.7652 159.952 99.2016L161.904 99.6389ZM161.764 99.8381C161.694 99.8826 161.609 99.8972 161.529 99.8793L161.962 97.9269C161.527 97.8302 161.072 97.9095 160.695 98.1479L161.764 99.8381ZM161.529 99.8793C161.448 99.8614 161.377 99.8121 161.331 99.7408L163.018 98.6655C162.777 98.2888 162.398 98.0236 161.962 97.9269L161.529 99.8793ZM161.331 99.741L170.35 113.876L172.036 112.8L163.017 98.6652L161.331 99.741ZM171.193 114.338H220.3V112.338H171.193V114.338Z" fill="black" mask="url(#path-38-inside-2_7437_30372)"/>
<path d="M155.292 95.8832C155.35 95.7797 155.435 95.6931 155.537 95.6321C155.639 95.571 155.755 95.5375 155.875 95.5349C155.76 95.5053 155.64 95.5053 155.525 95.5349C155.413 95.6238 155.331 95.7457 155.292 95.8832Z" fill="#1D1B1B"/>
<path d="M182.194 51.4396C177.633 50.1927 174.347 50.9626 174.347 50.9626C171.447 44.528 162.262 38.5498 162.262 38.5498C155.802 41.9 158.768 55.5621 158.768 55.5621L155.076 56.9408C150.461 51.3579 143.999 45.2503 142.136 45.1185C137.833 44.8142 137.684 64.0341 137.684 64.0341C127.215 70.2371 116.507 76.7195 108.175 82.3047C108.483 78.314 110.391 73.1581 115.043 66.8597C123.549 55.3327 125.428 40.0875 117.581 30.8682C106.569 17.9216 96.4813 22.328 90.4818 28.0449C84.4138 33.8232 83.4903 44.0033 92.9901 37.2393C102.547 30.4253 107.233 33.9549 111.716 42.3634C116.199 50.7719 102.353 63.7139 95.893 74.2165C92.2695 80.1083 90.484 85.9297 90.5616 90.7972H134.389C134.3 90.8971 134.214 90.9948 134.136 91.0925L136.309 90.7972H150.263C155.833 96.1371 168.893 106.088 171.809 100.353C173.28 97.4658 173.923 94.2996 173.312 91.2946C174.605 93.7545 178.65 100.705 182.167 98.7582C185.213 97.0729 187.639 92.3531 187.049 87.4016C189.315 85.3188 191.06 83.1019 192.152 80.7761C201.052 64.8223 186.241 52.5503 182.194 51.4396Z" stroke="#1D1B1B" stroke-width="1.19654" stroke-linecap="round" stroke-linejoin="round"/>
<path d="M186.743 60.9471C192.184 52.6704 205.043 51.4893 205.043 51.4893" stroke="#1D1B1B" stroke-width="1.19654" stroke-linecap="round" stroke-linejoin="round"/>
<path d="M189.019 67.645C190.305 65.083 199.8 59.7635 206.921 61.8327" stroke="#1D1B1B" stroke-width="1.19654" stroke-linecap="round" stroke-linejoin="round"/>
<path d="M157.868 74.6402C153.975 73.3722 146.193 72.5019 140.236 78.2011" stroke="#1D1B1B" stroke-width="1.19654" stroke-linecap="round" stroke-linejoin="round"/>
<path d="M157.535 71.2268C153.777 67.975 143.787 67.0865 136.864 72.3108" stroke="#1D1B1B" stroke-width="1.19654" stroke-linecap="round" stroke-linejoin="round"/>
<path d="M144.216 46.7607C144.216 46.7607 139.27 58.4831 144.711 62.4329" stroke="#1D1B1B" stroke-width="1.19654" stroke-linecap="round" stroke-linejoin="round"/>
<path d="M163.304 40.1602C163.304 40.1602 160.732 49.0183 163.106 55.0351" stroke="#1D1B1B" stroke-width="1.19654" stroke-linecap="round" stroke-linejoin="round"/>
<path d="M164.291 69.5474C165.22 69.2293 165.565 67.7876 165.061 66.3273C164.557 64.867 163.395 63.941 162.466 64.2591C161.537 64.5771 161.193 66.0188 161.697 67.4791C162.201 68.9394 163.362 69.8654 164.291 69.5474Z" fill="#1D1B1B"/>
<path d="M177.642 65.312C178.571 64.9939 178.915 63.5523 178.411 62.0919C177.907 60.6316 176.746 59.7056 175.817 60.0237C174.888 60.3418 174.543 61.7834 175.047 63.2438C175.551 64.7041 176.713 65.6301 177.642 65.312Z" fill="#1D1B1B"/>
<path d="M176.442 68.0523L174.8 70.7474C174.68 70.9349 174.49 71.0681 174.273 71.1186C174.055 71.1691 173.826 71.1329 173.635 71.0178L171.092 69.5066C170.957 69.4303 170.847 69.3152 170.778 69.1761C170.709 69.0371 170.683 68.8805 170.704 68.7268C170.726 68.573 170.793 68.4291 170.897 68.3137C171.001 68.1983 171.137 68.1167 171.289 68.0796L175.473 66.8956C176.196 66.6889 176.812 67.4319 176.442 68.0523Z" fill="#1D1B1B"/>
<path d="M172.06 73.5797C174.68 76.8906 174.595 72.7662 174.18 70.5938C175.024 72.4821 177.256 75.2204 177.601 72.1844" stroke="#1D1B1B" stroke-width="1.19654" stroke-linecap="round" stroke-linejoin="round"/>
<path d="M168.792 101.981C168.528 101.258 164.391 93.0633 160.303 89.9766" stroke="#1D1B1B" stroke-width="1.19654" stroke-linecap="round" stroke-linejoin="round"/>
<path d="M166.172 87.5459C166.368 87.6118 171.189 95.4956 171.38 100.879" stroke="#1D1B1B" stroke-width="1.19654" stroke-linecap="round" stroke-linejoin="round"/>
<path d="M134.127 91.0982C137.885 86.467 155.106 77.5021 164.683 81.838C174.261 86.174 175.068 93.9556 171.805 100.358" stroke="#1D1B1B" stroke-width="1.19654" stroke-linecap="round" stroke-linejoin="round"/>
<path d="M176.211 86.5557C176.211 86.5557 180.662 94.9777 180.76 99.0661" stroke="#1D1B1B" stroke-width="1.19654" stroke-linecap="round" stroke-linejoin="round"/>
<path d="M181.749 84.6904C181.749 84.6904 185.012 94.4912 183.085 98.2843" stroke="#1D1B1B" stroke-width="1.19654" stroke-linecap="round" stroke-linejoin="round"/>
<path d="M168.342 83.2776C169.544 81.3538 180.106 75.0667 184.785 81.6081C185.636 82.796 186.564 85.1105 186.942 86.3643" stroke="#1D1B1B" stroke-width="1.19654" stroke-linecap="round" stroke-linejoin="round"/>
<path d="M1 186.048H272" stroke="#1D1B1B" stroke-width="1.19654" stroke-linecap="round" stroke-linejoin="round"/>
</svg>
