<svg width="23" height="27" viewBox="0 0 23 27" fill="none" xmlns="http://www.w3.org/2000/svg">
<g clip-path="url(#clip0_5014_22488)">
<path d="M11.8812 20.1927H20.4527C20.9765 20.1927 21.405 19.7615 21.405 19.2344V17.1931C21.405 16.7427 21.0812 16.3881 20.6527 16.2635C18.4527 15.631 18.0241 12.9956 17.5955 7.73438C17.3574 4.86896 15.6908 1.98438 11.8812 1.98438C8.07171 1.98438 6.40504 4.86896 6.16695 7.73438C5.73837 12.9956 5.30028 15.631 3.1098 16.2635C2.68123 16.3881 2.35742 16.7427 2.35742 17.1931V19.2344C2.35742 19.7615 2.78599 20.1927 3.3098 20.1927H11.8812Z" stroke="#373737" stroke-width="2" stroke-linecap="round" stroke-linejoin="round"/>
<path d="M11.8813 24.0247C10.8337 24.0247 9.97656 23.1622 9.97656 22.1081V20.1914H13.7861V22.1081C13.7861 23.1622 12.9289 24.0247 11.8813 24.0247Z" stroke="#373737" stroke-width="2" stroke-linecap="round" stroke-linejoin="round"/>
</g>
<defs>
<clipPath id="clip0_5014_22488">
<rect width="22" height="26" fill="white" transform="translate(0.880859 0.503906)"/>
</clipPath>
</defs>
</svg>
