<svg width="54" height="54" viewBox="0 0 54 54" fill="none" xmlns="http://www.w3.org/2000/svg">
<g id="noun-video-call-5301268 1" clip-path="url(#clip0_957_12395)">
<g id="Group">
<path id="Vector" d="M50.3376 44.3163L42.0785 43.215C41.6617 43.1593 41.3473 42.8001 41.3473 42.3791V40.6578C43.8824 38.9997 45.5642 36.1409 45.5642 32.892V26.145C45.5642 21.9602 42.1595 18.5547 37.9738 18.5547H34.6004C30.4147 18.5547 27.01 21.9602 27.01 26.145V32.892C27.01 36.1405 28.6918 38.9997 31.2269 40.6578V42.3791C31.2269 42.8001 30.9121 43.1593 30.4957 43.215L22.2366 44.3163C20.1493 44.5945 18.5762 46.3919 18.5762 48.4958V53.1328C18.5762 53.5982 18.9531 53.9762 19.4195 53.9762H53.1545C53.621 53.9762 53.9979 53.5982 53.9979 53.1328V48.4958C53.9979 46.3916 52.4248 44.5944 50.3374 44.3163H50.3376ZM28.6971 32.8917V26.1447C28.6971 22.8895 31.3462 20.2411 34.6007 20.2411H37.9742C41.2288 20.2411 43.8778 22.8895 43.8778 26.1447V32.8917C43.8778 37.0766 40.4731 40.4821 36.2875 40.4821C32.1018 40.4821 28.6971 37.0766 28.6971 32.8917ZM52.3116 52.2893H20.2634V48.4956C20.2634 47.2332 21.2073 46.1553 22.4595 45.9874L30.7186 44.8861C31.9701 44.7189 32.9148 43.6414 32.9148 42.3779V41.5236C33.9622 41.9343 35.0974 42.1678 36.2882 42.1678C37.4791 42.1678 38.6143 41.9343 39.6617 41.5236V42.3779C39.6617 43.6414 40.6056 44.719 41.8579 44.8861L50.117 45.9874C51.3684 46.1546 52.3131 47.2329 52.3131 48.4956V52.2893H52.3116Z" fill="#FFFFFF"/>
<path id="Vector_2" d="M31.4615 12.5437L30.8569 14.9235C30.7835 15.2119 30.8678 15.5173 31.0779 15.7274C31.288 15.9382 31.5948 16.0218 31.8817 15.9484L34.0678 15.3927C35.4755 16.3591 37.1088 16.8678 38.8185 16.8678C43.4687 16.8678 47.2522 13.0843 47.2522 8.43411C47.2522 3.78351 43.4687 0 38.8185 0C34.1683 0 30.3848 3.78351 30.3848 8.43372C30.3848 9.87083 30.756 11.2834 31.4615 12.5437ZM38.8185 1.68682C42.5387 1.68682 45.5654 4.71352 45.5654 8.4338C45.5654 12.1541 42.5387 15.1808 38.8185 15.1808C37.3433 15.1808 35.9367 14.706 34.7519 13.8069C34.6035 13.6947 34.4239 13.6356 34.2424 13.6356C34.1732 13.6356 34.1031 13.6439 34.035 13.6616L32.8426 13.965L33.1826 12.6232C33.2391 12.4014 33.2029 12.1668 33.0832 11.9729C32.422 10.9026 32.0727 9.67886 32.0727 8.43491C32.0727 4.71463 35.0994 1.68793 38.8197 1.68793L38.8185 1.68682Z" fill="#FFFFFF"/>
<path id="Vector_3" d="M39.6614 8.4337C39.6614 8.89944 39.2837 9.27708 38.818 9.27708C38.3522 9.27708 37.9746 8.89944 37.9746 8.4337C37.9746 7.96797 38.3522 7.59033 38.818 7.59033C39.2837 7.59033 39.6614 7.96797 39.6614 8.4337Z" fill="#FFF"/>
<path id="Vector_4" d="M36.2883 8.4337C36.2883 8.89944 35.9107 9.27708 35.4449 9.27708C34.9792 9.27708 34.6016 8.89944 34.6016 8.4337C34.6016 7.96797 34.9792 7.59033 35.4449 7.59033C35.9107 7.59033 36.2883 7.96797 36.2883 8.4337Z" fill="#FFF"/>
<path id="Vector_5" d="M43.0364 8.4337C43.0364 8.89944 42.6587 9.27708 42.193 9.27708C41.7272 9.27708 41.3496 8.89944 41.3496 8.4337C41.3496 7.96797 41.7272 7.59033 42.193 7.59033C42.6587 7.59033 43.0364 7.96797 43.0364 8.4337Z" fill="#FFF"/>
<path id="Vector_6" d="M25.8219 36.2654C25.8219 35.8 25.445 35.422 24.9785 35.422H2.55348C2.08812 35.422 1.71011 35.0433 1.71011 34.5787V32.0485H24.4812C24.9477 32.0485 25.3246 31.6705 25.3246 31.2052C25.3246 30.7398 24.9477 30.3618 24.4812 30.3618H10.9872V25.8415C10.9872 25.4409 11.2722 25.0926 11.6653 25.0143L17.3874 23.8709C18.5497 23.639 19.3931 22.6201 19.4164 21.4394C20.2109 21.7606 21.067 21.9285 21.9481 21.9285C22.0181 21.9285 22.0882 21.9277 22.1582 21.9251C25.7636 21.817 28.6978 18.6808 28.6978 14.9334V10.9635C28.6978 7.70824 26.0487 5.05986 22.7941 5.05986H21.1074C17.8528 5.05986 15.2038 7.70824 15.2038 10.9635V15.1803C15.2038 17.0215 15.9308 18.7402 17.2524 20.0229C17.4075 20.1732 17.5686 20.3147 17.7339 20.448V21.3885C17.7339 21.7891 17.4489 22.1374 17.0558 22.2157L11.3337 23.3591C10.1556 23.5944 9.30016 24.6384 9.30016 25.8403V30.3605L5.92705 30.3609V3.37398C5.92705 2.44364 6.68346 1.68723 7.6138 1.68723H31.2283C31.6947 1.68723 32.0716 1.30922 32.0716 0.843861C32.0716 0.378502 31.6947 0.000488281 31.2283 0.000488281H7.6138C5.75346 0.000488281 4.2403 1.51364 4.2403 3.37398V30.3619H0.866811C0.400324 30.3619 0.0234375 30.7399 0.0234375 31.2053V34.5788C0.0234375 35.9737 1.15857 37.1089 2.55356 37.1089H24.9786C25.4451 37.1089 25.822 36.7309 25.822 36.2655L25.8219 36.2654ZM16.8904 15.1811V10.9642C16.8904 8.63894 18.782 6.74737 21.1073 6.74737H22.7941C25.1194 6.74737 27.0109 8.63894 27.0109 10.9642V14.9342C27.0109 17.7791 24.8114 20.1582 22.1077 20.2399C20.7312 20.2821 19.4184 19.7753 18.4281 18.8137C17.4371 17.8521 16.8916 16.5626 16.8916 15.1823L16.8904 15.1811Z" fill="#FFF"/>
</g>
</g>
<defs>
<clipPath id="clip0_957_12395">
<rect width="54" height="54" fill="white"/>
</clipPath>
</defs>
</svg>
