<svg width="20" height="20" viewBox="0 0 20 20" fill="none" xmlns="http://www.w3.org/2000/svg">
<path d="M11.6666 15.8335C11.6666 14.5074 11.1398 13.2356 10.2022 12.298C9.26448 11.3603 7.99271 10.8335 6.66663 10.8335C5.34054 10.8335 4.06877 11.3603 3.13109 12.298C2.19341 13.2356 1.66663 14.5074 1.66663 15.8335" stroke="#3B89D1" stroke-width="2" stroke-linecap="round" stroke-linejoin="round"/>
<path d="M6.66671 10.8332C8.50766 10.8332 10 9.34079 10 7.49984C10 5.65889 8.50766 4.1665 6.66671 4.1665C4.82576 4.1665 3.33337 5.65889 3.33337 7.49984C3.33337 9.34079 4.82576 10.8332 6.66671 10.8332Z" stroke="#3B89D1" stroke-width="2" stroke-linecap="round" stroke-linejoin="round"/>
<path d="M18.3334 15.8332C18.3334 14.5071 17.8066 13.2353 16.8689 12.2976C15.9312 11.36 14.6595 10.8332 13.3334 10.8332C14.2174 10.8332 15.0653 10.482 15.6904 9.85686C16.3155 9.23174 16.6667 8.38389 16.6667 7.49984C16.6667 6.61578 16.3155 5.76794 15.6904 5.14281C15.0653 4.51769 14.2174 4.1665 13.3334 4.1665" stroke="#3B89D1" stroke-width="2" stroke-linecap="round" stroke-linejoin="round"/>
</svg>
