<svg width="29" height="31" viewBox="0 0 29 31" fill="none" xmlns="http://www.w3.org/2000/svg">
<g clip-path="url(#clip0_5971_26271)">
<path d="M28.6809 23.3777C26.687 25.6164 24.7266 27.8208 22.742 30.05C20.7815 27.8436 18.8136 25.6278 16.8086 23.372C17.0297 23.3625 17.2081 23.3473 17.3884 23.3473C17.9923 23.3435 18.5962 23.3473 19.2002 23.3454C19.3228 23.3454 19.4176 23.3454 19.4176 23.1572C19.4027 21.0116 19.3971 18.868 19.3897 16.7224C19.3897 16.6198 19.3897 16.5172 19.3953 16.4145C19.4101 16.0097 19.6238 15.7703 20.0234 15.7437C20.4173 15.7171 20.8131 15.7076 21.2071 15.7057C22.5301 15.7019 23.8551 15.7057 25.1781 15.7095C25.3249 15.7095 25.4754 15.7152 25.6167 15.7475C25.9047 15.8159 26.0868 16.0763 26.0868 16.3955C26.0868 18.6038 26.0868 20.8121 26.0831 23.0223C26.0831 23.353 26.0831 23.3511 26.4027 23.3492C27.0847 23.3454 27.7648 23.3492 28.4468 23.3492C28.5137 23.3492 28.5806 23.3644 28.6846 23.3777H28.6809Z" fill="#D60000"/>
<path d="M23.8606 14.9149V11.0779C23.751 11.0779 23.6618 11.0779 23.5726 11.0779C22.0637 11.0779 20.553 11.0969 19.0441 11.0722C17.394 11.0456 16.0951 10.3273 15.2031 8.89245C14.7664 8.18929 14.6252 7.39872 14.6233 6.57964C14.6177 5.0441 14.6233 3.50857 14.6233 1.97303C14.6233 1.88751 14.6233 1.80009 14.6233 1.68796C14.4802 1.67846 14.352 1.66326 14.2238 1.66326C11.8322 1.66326 9.44068 1.66896 7.04913 1.66706C6.45635 1.66706 5.93604 1.8305 5.53094 2.298C5.24291 2.63057 5.0924 3.02206 5.0924 3.46676C5.0924 4.24213 5.0924 5.0175 5.09983 5.79477C5.10169 5.97531 5.05709 6.04562 4.86197 6.03612C4.49962 6.01712 4.1354 6.03232 3.77118 6.03042C3.66712 6.03042 3.56864 6.02662 3.57049 5.87078C3.58164 4.95288 3.5259 4.02928 3.60952 3.11898C3.73402 1.75828 4.51262 0.857482 5.73349 0.338668C6.3114 0.0897135 6.92648 0.065008 7.53413 0.0631076C10.3587 0.0460039 13.1832 0.0593068 16.0096 0.0498047C16.4333 0.0498047 16.7361 0.180934 17.0353 0.509706C18.167 1.75638 19.3358 2.96885 20.4917 4.19082C22.0897 5.88029 23.6915 7.56596 25.2859 9.25923C25.3528 9.32955 25.403 9.45117 25.403 9.54809C25.4086 11.2585 25.403 12.9669 25.403 14.6773C25.403 14.8579 25.3212 14.9149 25.1651 14.9149C24.7415 14.9149 24.3178 14.9149 23.8569 14.9149H23.8606ZM23.2419 9.39036C23.2474 9.36755 23.253 9.34475 23.2604 9.32194C20.9469 6.88561 18.6316 4.45117 16.2809 1.97493C16.2586 2.08135 16.2474 2.10986 16.2474 2.13836C16.2511 3.69671 16.2419 5.25695 16.2642 6.81529C16.2716 7.35881 16.4314 7.87763 16.7752 8.31282C17.3233 9.00267 18.0276 9.37136 18.9084 9.37136C20.185 9.37325 21.4617 9.38276 22.7383 9.38846C22.9055 9.38846 23.0728 9.38846 23.2419 9.38846V9.39036Z" fill="black"/>
<path d="M7.23743 14.9755C5.35688 14.9755 3.47634 14.9793 1.5958 14.9698C1.41369 14.9698 1.20929 14.9108 1.05319 14.8177C0.787466 14.66 0.685262 14.3863 0.685262 14.0709C0.683404 12.2179 0.679688 10.365 0.679688 8.51403C0.679688 8.18906 0.679688 7.86409 0.694553 7.54102C0.709419 7.19514 0.969573 6.88348 1.30777 6.84357C1.65155 6.80366 2.00276 6.80176 2.34839 6.80176C5.83074 6.80176 9.31308 6.80556 12.7973 6.80556C13.0537 6.80556 13.286 6.85877 13.483 7.03931C13.6391 7.18374 13.7431 7.34908 13.7469 7.57143C13.7524 7.84889 13.7673 8.12445 13.7673 8.40191C13.7673 10.2852 13.7506 12.1704 13.771 14.0538C13.7766 14.5384 13.3733 14.9945 12.8549 14.9869C10.9818 14.9622 9.10868 14.9774 7.23557 14.9774L7.23743 14.9755ZM5.59288 13.4817C6.26557 13.4475 6.9271 13.4361 7.58492 13.3772C8.20743 13.3221 8.59952 12.9306 8.85596 12.3681C9.20345 11.6022 9.20902 10.804 9.05665 9.99826C8.89498 9.14687 8.43599 8.56345 7.56448 8.39431C7.41396 8.3658 7.25787 8.3506 7.10363 8.3487C6.60377 8.343 6.1039 8.3468 5.59288 8.3468V13.4817ZM1.73889 10.882C1.73889 10.882 1.72402 10.882 1.71845 10.882C1.71845 11.6497 1.72216 12.4175 1.71659 13.1853C1.71659 13.3582 1.73145 13.4779 1.94887 13.4627C2.18858 13.4475 2.42829 13.4494 2.66801 13.457C2.82224 13.4608 2.88728 13.4171 2.88171 13.2404C2.86498 12.7425 2.87613 12.2427 2.86498 11.7447C2.86126 11.6003 2.904 11.5433 3.04709 11.549C3.26264 11.5566 3.48192 11.5623 3.69747 11.549C4.05611 11.5243 4.3906 11.4502 4.66748 11.1708C5.0224 10.8135 5.0893 10.3745 5.08186 9.90704C5.07257 9.21339 4.72137 8.3791 3.70119 8.3601C3.12142 8.3487 2.54165 8.3392 1.96187 8.32019C1.78534 8.31449 1.73703 8.38481 1.73889 8.55584C1.74632 9.33121 1.7426 10.1066 1.7426 10.882H1.73889ZM11.0004 10.5114C11.0004 10.1218 10.9929 9.75121 11.0078 9.38063C11.0097 9.33121 11.1212 9.2438 11.1825 9.2438C11.6396 9.23429 12.0949 9.2419 12.552 9.2438C12.8846 9.2438 12.8828 9.2438 12.8679 8.91502C12.8642 8.82 12.8568 8.72308 12.8679 8.62996C12.8976 8.39621 12.7917 8.32019 12.578 8.32019C11.7269 8.32399 10.8759 8.32399 10.0248 8.31829C9.88171 8.31829 9.83153 8.3677 9.83153 8.51023C9.83153 10.1009 9.83153 11.6915 9.82596 13.2822C9.82596 13.4152 9.87427 13.4665 10.0043 13.4608C10.2515 13.4513 10.4986 13.4456 10.7476 13.4494C10.9335 13.4513 11.0078 13.3753 11.0041 13.1796C10.9948 12.6893 11.0134 12.197 10.9967 11.7067C10.9892 11.4844 11.0412 11.3913 11.2735 11.4103C11.5969 11.4388 11.9221 11.4331 12.2454 11.4521C12.394 11.4616 12.4368 11.3989 12.4294 11.2582C12.4201 11.0701 12.4108 10.8801 12.4238 10.69C12.4331 10.5342 12.3736 10.5038 12.2361 10.5076C11.8366 10.5171 11.4352 10.5114 11.0004 10.5114Z" fill="#D60000"/>
<path d="M19.5378 27.6685C19.2702 27.6685 19.0491 27.6685 18.828 27.6685C14.8718 27.6685 10.9174 27.6704 6.96123 27.6704C5.35942 27.6704 3.96016 26.5264 3.63683 24.9357C3.58294 24.6754 3.57365 24.4017 3.57365 24.1338C3.56807 21.4105 3.56993 18.6872 3.5625 15.9639C3.5625 15.7947 3.62011 15.7415 3.77806 15.7453C4.13484 15.7548 4.48976 15.7605 4.84655 15.7491C5.04352 15.7434 5.09183 15.8137 5.09183 16.0095C5.08626 18.6301 5.08812 21.2508 5.08998 23.8696C5.08998 24.0976 5.08626 24.3314 5.12528 24.5556C5.29067 25.5002 5.97078 26.0855 6.90919 26.0874C9.17625 26.0931 11.4452 26.0874 13.7122 26.0874C15.0892 26.0874 16.468 26.0912 17.845 26.0836C18.0456 26.0836 18.1924 26.133 18.3281 26.2926C18.7072 26.7411 19.103 27.1744 19.536 27.6647L19.5378 27.6685Z" fill="black"/>
<path d="M6.73054 10.8998C6.73054 10.4418 6.73983 9.98378 6.72682 9.52577C6.72125 9.31103 6.80487 9.24831 6.99813 9.25211C7.42738 9.26162 7.70798 9.45356 7.82133 9.90586C7.983 10.5577 7.98114 11.2171 7.8046 11.8709C7.69125 12.289 7.41251 12.4904 6.99998 12.5341C6.81416 12.5531 6.73054 12.5094 6.73611 12.2966C6.74912 11.831 6.73983 11.3654 6.73983 10.8998C6.73611 10.8998 6.7324 10.8998 6.73054 10.8998Z" fill="#D60000"/>
<path d="M2.87891 9.17773C3.21525 9.22905 3.58504 9.06941 3.77458 9.4647C3.92881 9.78587 3.94925 10.1279 3.74485 10.4339C3.52743 10.7589 3.18923 10.603 2.87891 10.6449V9.17773Z" fill="#D60000"/>
</g>
<defs>
<clipPath id="clip0_5971_26271">
<rect width="28" height="30" fill="white" transform="translate(0.679688 0.0498047)"/>
</clipPath>
</defs>
</svg>
