<svg width="12" height="12" viewBox="0 0 12 12" fill="none" xmlns="http://www.w3.org/2000/svg">
<g id="Layer 143">
<path id="Vector" d="M10.0232 0H1.88628C1.66703 8.62016e-05 1.44995 0.0412761 1.24745 0.121214C1.04495 0.201153 0.861009 0.318271 0.706137 0.465873C0.551266 0.613474 0.428506 0.788664 0.344876 0.981422C0.261247 1.17418 0.218389 1.38073 0.218752 1.58925V10.4075C0.218749 10.8287 0.394212 11.2328 0.706737 11.5312C1.01926 11.8297 1.44339 11.9983 1.88628 12H8.10663C8.16366 11.9995 8.21973 11.986 8.27025 11.9609C8.32077 11.9357 8.36429 11.8995 8.39723 11.8552L11.587 8.8215L11.6077 8.80175C11.6325 8.77742 11.6514 8.74822 11.6631 8.7162C11.6822 8.67706 11.6916 8.6343 11.6908 8.59117V1.58925C11.6911 1.38073 11.6483 1.17418 11.5646 0.981422C11.481 0.788664 11.3583 0.613474 11.2034 0.465873C11.0485 0.318271 10.8646 0.201153 10.6621 0.121214C10.4596 0.0412761 10.2425 8.62016e-05 10.0232 0ZM3.38082 6.32739H2.79961V7.17631C2.79818 7.26315 2.76128 7.34606 2.6967 7.40747C2.63213 7.46889 2.54496 7.50399 2.45365 7.50535C2.3619 7.50535 2.2739 7.47068 2.20902 7.40897C2.14414 7.34727 2.10769 7.26358 2.10769 7.17631V4.82698C2.10769 4.73971 2.14414 4.65602 2.20902 4.59432C2.2739 4.53261 2.3619 4.49794 2.45365 4.49794H3.38082C3.6359 4.49794 3.88053 4.59432 4.06089 4.76586C4.24126 4.9374 4.34259 5.17007 4.34259 5.41267C4.34259 5.65527 4.24126 5.88793 4.06089 6.05948C3.88053 6.23102 3.6359 6.32739 3.38082 6.32739ZM7.07567 6.59062C7.07594 6.71082 7.05125 6.82988 7.00302 6.94098C6.95478 7.05208 6.88395 7.15302 6.79458 7.23801C6.70522 7.323 6.59909 7.39037 6.48228 7.43625C6.36547 7.48212 6.24028 7.50561 6.1139 7.50535H5.17981C5.08806 7.50535 5.00006 7.47068 4.93518 7.40897C4.8703 7.34727 4.83385 7.26358 4.83385 7.17631V4.8204C4.83385 4.73313 4.8703 4.64944 4.93518 4.58774C5.00006 4.52603 5.08806 4.49136 5.17981 4.49136H6.1139C6.36961 4.4931 6.61423 4.59093 6.7944 4.76352C6.97457 4.93611 7.07568 5.16946 7.07567 5.41267V6.59062ZM7.57385 7.17631V4.8204C7.57385 4.73313 7.6103 4.64944 7.67518 4.58774C7.74006 4.52603 7.82806 4.49136 7.91981 4.49136H9.47663C9.56838 4.49136 9.65638 4.52603 9.72126 4.58774C9.78614 4.64944 9.82259 4.73313 9.82259 4.8204C9.82259 4.90767 9.78614 4.99136 9.72126 5.05306C9.65638 5.11477 9.56838 5.14944 9.47663 5.14944H8.26577V5.66932H9.0684C9.15971 5.67067 9.24687 5.70578 9.31145 5.76719C9.37602 5.82861 9.41293 5.91151 9.41436 5.99835C9.41436 6.08562 9.37791 6.16931 9.31303 6.23102C9.24815 6.29273 9.16015 6.32739 9.0684 6.32739H8.26577V7.17631C8.26577 7.26358 8.22932 7.34727 8.16444 7.40897C8.09956 7.47068 8.01157 7.50535 7.91981 7.50535C7.82806 7.50535 7.74006 7.47068 7.67518 7.40897C7.6103 7.34727 7.57385 7.26358 7.57385 7.17631ZM8.45259 10.8747V9.84809C8.45387 9.60124 8.55802 9.36494 8.7422 9.191C8.92638 9.01706 9.17556 8.91968 9.43511 8.92021H10.5076L8.45259 10.8747ZM6.38375 5.41267V6.59062C6.38375 6.65869 6.35532 6.72397 6.30471 6.7721C6.25411 6.82023 6.18547 6.84727 6.1139 6.84727H5.52577V5.14944H6.1139C6.1855 5.15114 6.25363 5.17917 6.30395 5.22764C6.35427 5.27612 6.38288 5.34126 6.38375 5.40938V5.41267ZM3.65759 5.41267C3.65732 5.44686 3.64993 5.48065 3.63584 5.51211C3.62175 5.54356 3.60124 5.57204 3.5755 5.59591C3.54977 5.61978 3.51931 5.63855 3.48589 5.65115C3.45247 5.66375 3.41676 5.66993 3.38082 5.66932H2.79961V5.15602H3.38082C3.41677 5.15431 3.4527 5.15962 3.4864 5.17162C3.52011 5.18362 3.55087 5.20205 3.5768 5.22579C3.60273 5.24952 3.62327 5.27806 3.63717 5.30963C3.65106 5.34121 3.65801 5.37515 3.65759 5.40938V5.41267Z" fill="black"/>
</g>
</svg>
