<svg width="18" height="18"  viewBox="0 0 18 18" fill="none" xmlns="http://www.w3.org/2000/svg">
<path d="M13.8333 15L12.3333 8.16667L15.25 5.25C16.5 4 16.9167 2.33333 16.5 1.5C15.6667 1.08333 14 1.5 12.75 2.75L9.83333 5.66667L3 4.16667C2.58333 4.08333 2.25 4.25 2.08333 4.58333L1.83333 5C1.66667 5.41667 1.75 5.83333 2.08333 6.08333L6.5 9L4.83333 11.5H2.33333L1.5 12.3333L4 14L5.66667 16.5L6.5 15.6667V13.1667L9 11.5L11.9167 15.9167C12.1667 16.25 12.5833 16.3333 13 16.1667L13.4167 16C13.75 15.75 13.9167 15.4167 13.8333 15Z" stroke="currentColor" stroke-width="1.2" stroke-linecap="round" stroke-linejoin="round"/>
</svg>
