<svg width="14" height="14" viewBox="0 0 14 14" fill="none" xmlns="http://www.w3.org/2000/svg">
<g id="wrapper">
<path id="Union" fill-rule="evenodd" clip-rule="evenodd" d="M8.00033 2.91699C8.00033 2.36471 7.55261 1.91699 7.00033 1.91699C6.44804 1.91699 6.00033 2.36471 6.00033 2.91699V6.00033H2.91699C2.36471 6.00033 1.91699 6.44804 1.91699 7.00033C1.91699 7.55261 2.36471 8.00033 2.91699 8.00033H6.00033V11.0837C6.00033 11.6359 6.44804 12.0837 7.00033 12.0837C7.55261 12.0837 8.00033 11.6359 8.00033 11.0837V8.00033H11.0837C11.6359 8.00033 12.0837 7.55261 12.0837 7.00033C12.0837 6.44804 11.6359 6.00033 11.0837 6.00033H8.00033V2.91699Z" fill="black" fill-opacity="0.85"/>
</g>
</svg>
