<svg width="20" height="20" viewBox="0 0 20 20" fill="none" xmlns="http://www.w3.org/2000/svg">
<path d="M10.1341 9.68268C10.1091 9.68268 10.0924 9.68268 10.0674 9.68268C10.0258 9.67435 9.96745 9.67435 9.91745 9.68268C7.50078 9.60768 5.67578 7.70768 5.67578 5.36602C5.67578 2.98268 7.61745 1.04102 10.0008 1.04102C12.3841 1.04102 14.3258 2.98268 14.3258 5.36602C14.3174 7.70768 12.4841 9.60768 10.1591 9.68268C10.1508 9.68268 10.1424 9.68268 10.1341 9.68268ZM10.0008 2.29102C8.30911 2.29102 6.92578 3.67435 6.92578 5.36602C6.92578 7.03268 8.22578 8.37435 9.88411 8.43268C9.92578 8.42435 10.0424 8.42435 10.1508 8.43268C11.7841 8.35768 13.0674 7.01602 13.0758 5.36602C13.0758 3.67435 11.6924 2.29102 10.0008 2.29102Z" fill="#262626"/>
<path d="M10.1404 18.7923C8.50703 18.7923 6.86536 18.3757 5.6237 17.5423C4.46536 16.7757 3.83203 15.7257 3.83203 14.584C3.83203 13.4423 4.46536 12.384 5.6237 11.609C8.1237 9.95065 12.1737 9.95065 14.657 11.609C15.807 12.3757 16.4487 13.4257 16.4487 14.5673C16.4487 15.709 15.8154 16.7673 14.657 17.5423C13.407 18.3757 11.7737 18.7923 10.1404 18.7923ZM6.31536 12.659C5.51536 13.1923 5.08203 13.8757 5.08203 14.5923C5.08203 15.3007 5.5237 15.984 6.31536 16.509C8.39036 17.9007 11.8904 17.9007 13.9654 16.509C14.7654 15.9757 15.1987 15.2923 15.1987 14.5757C15.1987 13.8673 14.757 13.184 13.9654 12.659C11.8904 11.2757 8.39036 11.2757 6.31536 12.659Z" fill="#262626"/>
</svg>
