<svg width="20" height="20" viewBox="0 0 20 20" fill="none" xmlns="http://www.w3.org/2000/svg">
<g id="projector">
<path id="Vector" d="M4.16667 5.83317L2.5 4.1665" stroke="#8F8F8F" stroke-width="1.5" stroke-linecap="round" stroke-linejoin="round"/>
<path id="Vector_2" d="M7.5 5V2.5" stroke="#8F8F8F" stroke-width="1.5" stroke-linecap="round" stroke-linejoin="round"/>
<path id="Vector_3" d="M10.833 5.83317L12.4997 4.1665" stroke="#8F8F8F" stroke-width="1.5" stroke-linecap="round" stroke-linejoin="round"/>
<path id="Vector_4" d="M7.5 13.3335C8.88071 13.3335 10 12.2142 10 10.8335C10 9.45278 8.88071 8.3335 7.5 8.3335C6.11929 8.3335 5 9.45278 5 10.8335C5 12.2142 6.11929 13.3335 7.5 13.3335Z" stroke="#8F8F8F" stroke-width="1.5" stroke-linecap="round" stroke-linejoin="round"/>
<path id="Vector_5" d="M9.85866 10H16.667C17.109 10 17.5329 10.1756 17.8455 10.4882C18.1581 10.8007 18.3337 11.2246 18.3337 11.6667V15C18.3337 15.442 18.1581 15.866 17.8455 16.1785C17.5329 16.4911 17.109 16.6667 16.667 16.6667H3.33366C2.89163 16.6667 2.46771 16.4911 2.15515 16.1785C1.84259 15.866 1.66699 15.442 1.66699 15V11.6667C1.66699 11.2246 1.84259 10.8007 2.15515 10.4882C2.46771 10.1756 2.89163 10 3.33366 10H5.14199" stroke="#8F8F8F" stroke-width="1.5" stroke-linecap="round" stroke-linejoin="round"/>
<path id="Vector_6" d="M13.333 13.3335H14.9997" stroke="#8F8F8F" stroke-width="1.5" stroke-linecap="round" stroke-linejoin="round"/>
</g>
</svg>
