<svg width="189" height="256" viewBox="0 0 189 256" fill="none" xmlns="http://www.w3.org/2000/svg">
<g id="Object 10" filter="url(#filter0_d_4862_9642)">
<path d="M110.152 142.547H75.3093C75.3093 135.425 75.7949 129.152 76.7661 123.73C77.8183 118.226 79.5988 113.289 82.1078 108.919C84.6168 104.548 88.016 100.502 92.3055 96.7785C96.1095 93.6221 99.3873 90.587 102.139 87.6734C104.891 84.7598 106.995 81.8057 108.452 78.8111C109.909 75.8165 110.637 72.6196 110.637 69.2203C110.637 65.0117 110.03 61.572 108.816 58.9012C107.683 56.2304 105.943 54.2475 103.596 52.9525C101.33 51.5766 98.4566 50.8887 94.9764 50.8887C92.1437 50.8887 89.4728 51.5766 86.9639 52.9525C84.5358 54.3284 82.5529 56.4732 81.0152 59.3868C79.4774 62.2195 78.6276 65.983 78.4657 70.6772H37.3105C37.5534 58.6179 40.2242 48.8248 45.3231 41.2979C50.5029 33.6901 57.3823 28.1461 65.9614 24.6659C74.6213 21.1048 84.293 19.3242 94.9764 19.3242C106.793 19.3242 116.95 21.1452 125.448 24.7873C133.946 28.4293 140.462 33.852 144.994 41.0551C149.526 48.1774 151.792 56.9588 151.792 67.3993C151.792 74.3597 150.457 80.4298 147.786 85.6096C145.196 90.7084 141.676 95.4836 137.224 99.935C132.854 104.305 127.957 109 122.535 114.018C117.84 118.145 114.643 122.354 112.944 126.643C111.244 130.852 110.313 136.153 110.152 142.547ZM70.3318 179.453C70.3318 173.626 72.4361 168.77 76.6447 164.885C80.8533 160.919 86.3164 158.936 93.0339 158.936C99.7515 158.936 105.215 160.919 109.423 164.885C113.632 168.77 115.736 173.626 115.736 179.453C115.736 185.28 113.632 190.177 109.423 194.143C105.215 198.028 99.7515 199.97 93.0339 199.97C86.3164 199.97 80.8533 198.028 76.6447 194.143C72.4361 190.177 70.3318 185.28 70.3318 179.453Z" fill="#FFB184"/>
</g>
<defs>
<filter id="filter0_d_4862_9642" x="0.141502" y="0.739697" width="188.82" height="254.985" filterUnits="userSpaceOnUse" color-interpolation-filters="sRGB">
<feFlood flood-opacity="0" result="BackgroundImageFix"/>
<feColorMatrix in="SourceAlpha" type="matrix" values="0 0 0 0 0 0 0 0 0 0 0 0 0 0 0 0 0 0 127 0" result="hardAlpha"/>
<feOffset dy="18.5845"/>
<feGaussianBlur stdDeviation="18.5845"/>
<feComposite in2="hardAlpha" operator="out"/>
<feColorMatrix type="matrix" values="0 0 0 0 0.945098 0 0 0 0 0.486275 0 0 0 0 0.113725 0 0 0 0.4 0"/>
<feBlend mode="normal" in2="BackgroundImageFix" result="effect1_dropShadow_4862_9642"/>
<feBlend mode="normal" in="SourceGraphic" in2="effect1_dropShadow_4862_9642" result="shape"/>
</filter>
</defs>
</svg>
