<svg width="15" height="14" viewBox="0 0 15 14" fill="none" xmlns="http://www.w3.org/2000/svg">
<g id="wrapper">
<path id="Union" fill-rule="evenodd" clip-rule="evenodd" d="M7.46418 10.6593C7.22987 10.8936 7.22987 11.2735 7.46418 11.5079C7.69849 11.7422 8.07839 11.7422 8.31271 11.5079L12.396 7.42452C12.4536 7.367 12.497 7.3007 12.5262 7.22993C12.5556 7.15919 12.5718 7.08161 12.5718 7.00026C12.5718 6.91891 12.5556 6.84133 12.5262 6.77059C12.497 6.69982 12.4536 6.63352 12.396 6.576L8.31271 2.49266C8.07839 2.25835 7.69849 2.25835 7.46418 2.49266C7.22986 2.72698 7.22986 3.10688 7.46418 3.34119L10.5232 6.40026L3.80511 6.40026C3.47374 6.40026 3.20511 6.66889 3.20511 7.00026C3.20511 7.33163 3.47374 7.60026 3.80511 7.60026L10.5232 7.60026L7.46418 10.6593Z" fill="white" fill-opacity="0.85"/>
</g>
</svg>
