<svg width="32" height="32" viewBox="0 0 32 32" fill="none" xmlns="http://www.w3.org/2000/svg">
<g id="Icon - Right">
<path id="Vector" fill-rule="evenodd" clip-rule="evenodd" d="M16.9435 5.72256C16.4228 5.20186 15.5785 5.20186 15.0578 5.72256C14.5371 6.24325 14.5371 7.08747 15.0578 7.60817L22.115 14.6654H6.66732C5.93094 14.6654 5.33398 15.2623 5.33398 15.9987C5.33398 16.7351 5.93094 17.332 6.66732 17.332H22.115L15.0578 24.3892C14.5371 24.9099 14.5371 25.7541 15.0578 26.2748C15.5785 26.7955 16.4228 26.7955 16.9435 26.2748L26.2758 16.9425C26.2791 16.9392 26.2823 16.936 26.2855 16.9328C26.5208 16.6931 26.6662 16.3649 26.6673 16.0027C26.6673 16.0014 26.6673 16 26.6673 15.9987C26.6673 15.9974 26.6673 15.996 26.6673 15.9947C26.6668 15.8154 26.6309 15.6444 26.5661 15.4883C26.5026 15.3346 26.409 15.1904 26.2855 15.0646C26.2823 15.0614 26.2791 15.0582 26.276 15.0551M26.276 15.0551L16.9435 5.72256L26.276 15.0551Z" fill="white"/>
</g>
</svg>
