<svg width="22" height="21" viewBox="0 0 22 21" fill="none" xmlns="http://www.w3.org/2000/svg">
<g id="Group">
<path id="Vector" d="M14.0136 6.49428L14.2463 6.96597L14.7667 7.04159L20.6368 7.8944C20.6377 7.89453 20.6385 7.89466 20.6394 7.8948C20.8089 7.92162 20.9348 8.0367 20.9794 8.17237C21.0298 8.33522 20.9859 8.5025 20.8702 8.61562C20.8702 8.61568 20.8701 8.61574 20.8701 8.61579L16.6198 12.7571L16.2435 13.1238L16.3319 13.6417L17.3311 19.4915L17.3311 19.4916L17.3333 19.5035C17.3616 19.6583 17.3004 19.8149 17.1645 19.914L17.1645 19.914L17.1537 19.9221C17.028 20.0163 16.8686 20.0269 16.7349 19.9538L16.7277 19.9498L16.7204 19.946L11.47 17.1846L11.0042 16.9396L10.5385 17.1849L5.28255 19.9536C5.28211 19.9538 5.28168 19.954 5.28124 19.9542C5.21585 19.9881 5.14796 20.0036 5.08201 20.0036C4.99275 20.0036 4.90448 19.9742 4.84154 19.9276L4.84156 19.9276L4.83549 19.9231C4.71156 19.8328 4.64065 19.6684 4.66896 19.5C4.669 19.4998 4.66903 19.4996 4.66907 19.4994L5.66805 13.6508L5.75652 13.1328L5.38019 12.7662L1.12993 8.62488C1.12987 8.62482 1.12981 8.62476 1.12975 8.62471C1.01527 8.51277 0.971124 8.34777 1.01908 8.18654C1.07388 8.03112 1.20704 7.92054 1.36973 7.89479L7.24235 7.04159L7.76282 6.96597L7.99544 6.49429L10.6198 1.17282C10.6199 1.17268 10.62 1.17254 10.6201 1.1724C10.6523 1.10791 10.7656 1 11.0045 1C11.2435 1 11.3568 1.10794 11.389 1.17242C11.3891 1.17255 11.3892 1.17269 11.3892 1.17282L14.0136 6.49428Z" stroke="black" stroke-width="2"/>
</g>
</svg>
