<svg width="41" height="36" viewBox="0 0 41 36" fill="none" xmlns="http://www.w3.org/2000/svg">
<rect x="0.386792" y="0.386792" width="40.2264" height="35.2264" rx="3.48113" stroke="#E0E0E0" stroke-width="0.773585"/>
<path d="M29.3332 22.1014V24.6014C29.3341 24.8335 29.2866 25.0632 29.1936 25.2758C29.1006 25.4885 28.9643 25.6794 28.7933 25.8363C28.6222 25.9932 28.4203 26.1126 28.2005 26.187C27.9806 26.2613 27.7477 26.2889 27.5165 26.268C24.9522 25.9894 22.489 25.1132 20.3249 23.7097C18.3114 22.4303 16.6043 20.7232 15.3249 18.7097C13.9165 16.5357 13.0401 14.0605 12.7665 11.4847C12.7457 11.2543 12.7731 11.022 12.8469 10.8027C12.9208 10.5835 13.0395 10.382 13.1955 10.2111C13.3515 10.0402 13.5414 9.90364 13.753 9.81015C13.9647 9.71666 14.1935 9.66827 14.4249 9.66805H16.9249C17.3293 9.66407 17.7214 9.80728 18.028 10.071C18.3346 10.3347 18.5349 10.7009 18.5915 11.1014C18.697 11.9014 18.8927 12.687 19.1749 13.443C19.287 13.7413 19.3112 14.0655 19.2448 14.3771C19.1783 14.6888 19.0239 14.9748 18.7999 15.2014L17.7415 16.2597C18.9278 18.346 20.6552 20.0734 22.7415 21.2597L23.7999 20.2014C24.0264 19.9773 24.3125 19.8229 24.6241 19.7565C24.9358 19.69 25.2599 19.7143 25.5582 19.8264C26.3143 20.1085 27.0998 20.3042 27.8999 20.4097C28.3047 20.4668 28.6744 20.6707 28.9386 20.9826C29.2029 21.2945 29.3433 21.6927 29.3332 22.1014Z" stroke="#88898A" stroke-width="1.5" stroke-linecap="round" stroke-linejoin="round"/>
<path d="M22.708 9.66797C24.4066 9.84694 25.9932 10.6003 27.2054 11.8035C28.4176 13.0066 29.1829 14.5875 29.3747 16.2846" stroke="#88898A" stroke-width="1.5" stroke-linecap="round" stroke-linejoin="round"/>
<path d="M22.708 13C23.5276 13.1616 24.2797 13.5659 24.8667 14.1603C25.4536 14.7547 25.8484 15.5118 25.9997 16.3333" stroke="#88898A" stroke-width="1.5" stroke-linecap="round" stroke-linejoin="round"/>
</svg>
