<svg width="17" height="16" viewBox="0 0 17 16" fill="none" xmlns="http://www.w3.org/2000/svg">
<g clip-path="url(#clip0_957_60002)">
<path d="M5.229 6.71973V14.6311" stroke="currentColor" stroke-width="1.58228" stroke-linecap="round" stroke-linejoin="round"/>
<path d="M10.5033 4.00333L9.84401 6.71957H13.6876C13.8923 6.71957 14.0942 6.76723 14.2773 6.85878C14.4604 6.95032 14.6197 7.08324 14.7425 7.247C14.8653 7.41076 14.9483 7.60087 14.9849 7.80227C15.0215 8.00367 15.0108 8.21083 14.9535 8.40734L13.4173 13.6816C13.3374 13.9555 13.1709 14.1961 12.9426 14.3673C12.7144 14.5384 12.4368 14.631 12.1515 14.631H3.25118C2.90148 14.631 2.56609 14.492 2.31882 14.2448C2.07154 13.9975 1.93262 13.6621 1.93262 13.3124V8.03814C1.93262 7.68843 2.07154 7.35305 2.31882 7.10577C2.56609 6.85849 2.90148 6.71957 3.25118 6.71957H5.0708C5.31611 6.71944 5.55652 6.65088 5.765 6.5216C5.97348 6.39233 6.14176 6.20745 6.25092 5.98777L8.52544 1.44531C8.83635 1.44916 9.14236 1.52322 9.42062 1.66195C9.69888 1.80068 9.9422 2.0005 10.1324 2.24647C10.3226 2.49245 10.4547 2.77822 10.5189 3.08244C10.5832 3.38667 10.5778 3.70147 10.5033 4.00333Z" stroke="currentColor" stroke-width="1.58228" stroke-linecap="round" stroke-linejoin="round"/>
</g>
<defs>
<clipPath id="clip0_957_60002">
<rect width="15.8228" height="15.8228" fill="white" transform="translate(0.61377 0.126953)"/>
</clipPath>
</defs>
</svg>
