<svg width="20" height="20" viewBox="0 0 20 20" fill="none" xmlns="http://www.w3.org/2000/svg">
<path d="M12.4993 1.66699H7.49935C7.03911 1.66699 6.66602 2.04009 6.66602 2.50033V4.16699C6.66602 4.62723 7.03911 5.00033 7.49935 5.00033H12.4993C12.9596 5.00033 13.3327 4.62723 13.3327 4.16699V2.50033C13.3327 2.04009 12.9596 1.66699 12.4993 1.66699Z" stroke="#373737" stroke-width="1.2" stroke-linecap="round" stroke-linejoin="round"/>
<path d="M8.68398 10.5087C8.8465 10.3462 9.03942 10.2173 9.25175 10.1293C9.46409 10.0414 9.69166 9.99609 9.92148 9.99609C10.1513 9.99609 10.3789 10.0414 10.5912 10.1293C10.8035 10.2173 10.9965 10.3462 11.159 10.5087C11.3215 10.6712 11.4504 10.8641 11.5384 11.0765C11.6263 11.2888 11.6716 11.5164 11.6716 11.7462C11.6716 11.976 11.6263 12.2036 11.5384 12.4159C11.4504 12.6282 11.3215 12.8212 11.159 12.9837L6.62565 17.5003L3.33398 18.3337L4.15898 15.042L8.68398 10.5087Z" stroke="#373737" stroke-width="1.2" stroke-linecap="round" stroke-linejoin="round"/>
<path d="M13.3327 3.33301H14.9993C15.4414 3.33301 15.8653 3.5086 16.1779 3.82116C16.4904 4.13372 16.666 4.55765 16.666 4.99967V16.6663C16.666 17.1084 16.4904 17.5323 16.1779 17.8449C15.8653 18.1574 15.4414 18.333 14.9993 18.333H10.416" stroke="#373737" stroke-width="1.2" stroke-linecap="round" stroke-linejoin="round"/>
<path d="M3.33398 11.2497V4.99967C3.33398 4.55765 3.50958 4.13372 3.82214 3.82116C4.1347 3.5086 4.55862 3.33301 5.00065 3.33301H6.66732" stroke="#373737" stroke-width="1.2" stroke-linecap="round" stroke-linejoin="round"/>
</svg>
