<svg width="20" height="20" viewBox="0 0 20 20" fill="none" xmlns="http://www.w3.org/2000/svg">
<path d="M6.66602 2.58203V5.83203C6.66602 6.71609 7.0172 7.56393 7.64233 8.18905C8.26745 8.81418 9.11529 9.16536 9.99935 9.16536C10.8834 9.16536 11.7313 8.81418 12.3564 8.18905C12.9815 7.56393 13.3327 6.71609 13.3327 5.83203V2.58203" stroke="currentColor" stroke-width="1.2" stroke-linecap="round" stroke-linejoin="round"/>
<path d="M7.49935 12.5013L6.66602 11.668" stroke="currentColor" stroke-width="1.2" stroke-linecap="round" stroke-linejoin="round"/>
<path d="M12.5 12.5013L13.3333 11.668" stroke="currentColor" stroke-width="1.2" stroke-linecap="round" stroke-linejoin="round"/>
<path d="M7.50065 15.8346C5.16732 15.8346 3.33398 14.0013 3.33398 11.668V8.33464C3.33398 6.56653 4.03636 4.87083 5.28661 3.62059C6.53685 2.37035 8.23254 1.66797 10.0007 1.66797C11.7688 1.66797 13.4645 2.37035 14.7147 3.62059C15.9649 4.87083 16.6673 6.56653 16.6673 8.33464V11.668C16.6673 14.0013 14.834 15.8346 12.5007 15.8346H7.50065Z" stroke="currentColor" stroke-width="1.2" stroke-linecap="round" stroke-linejoin="round"/>
<path d="M6.66667 15.832L5 18.332" stroke="currentColor" stroke-width="1.2" stroke-linecap="round" stroke-linejoin="round"/>
<path d="M13.334 15.832L15.0007 18.332" stroke="currentColor" stroke-width="1.2" stroke-linecap="round" stroke-linejoin="round"/>
</svg>
