<svg width="18" height="18" viewBox="0 0 18 18" fill="none" xmlns="http://www.w3.org/2000/svg">
<g clip-path="url(#clip0_2_1164)">
<path fill-rule="evenodd" clip-rule="evenodd" d="M8.68164 1.3669C4.4813 1.3669 1.07662 4.77196 1.07662 8.97192C1.07662 13.1719 4.48168 16.5769 8.68164 16.5769C12.8816 16.5769 16.2867 13.1719 16.2867 8.97192C16.2867 4.77196 12.8816 1.3669 8.68164 1.3669ZM0.181641 8.97192C0.181641 4.27769 3.98741 0.471924 8.68164 0.471924C13.3759 0.471924 17.1816 4.27769 17.1816 8.97192C17.1816 13.6662 13.3759 17.4719 8.68164 17.4719C3.98741 17.4719 0.181641 13.6662 0.181641 8.97192Z" fill="#CFCFCF"/>
<path fill-rule="evenodd" clip-rule="evenodd" d="M8.68146 4.94562C7.44636 4.94562 6.44478 5.9472 6.44478 7.1823C6.44478 8.4174 7.44636 9.41937 8.68146 9.41937C9.91657 9.41937 10.9181 8.41779 10.9181 7.1823C10.9181 5.94682 9.91657 4.94562 8.68146 4.94562ZM5.5498 7.1823C5.5498 5.45293 6.95209 4.05103 8.68146 4.05103C10.4108 4.05103 11.8131 5.45293 11.8131 7.1823C11.8131 8.91167 10.4108 10.314 8.68146 10.314C6.95209 10.314 5.5498 8.91206 5.5498 7.1823Z" fill="#CFCFCF"/>
<path fill-rule="evenodd" clip-rule="evenodd" d="M8.68152 12.5507C6.52958 12.5507 4.6499 13.7195 3.64372 15.4588L2.86914 15.011C4.0287 13.0063 6.19713 11.6561 8.68152 11.6561C11.1659 11.6561 13.3343 13.0063 14.4939 15.011L13.7193 15.4588C12.7131 13.7195 10.8335 12.5507 8.68114 12.5507H8.68152Z" fill="#CFCFCF"/>
</g>
<defs>
<clipPath id="clip0_2_1164">
<rect width="17" height="17" fill="white" transform="translate(0.181641 0.471924)"/>
</clipPath>
</defs>
</svg>
