<svg width="47" height="47" viewBox="0 0 47 47" fill="none" xmlns="http://www.w3.org/2000/svg">
<rect width="47" height="47" rx="23.5" fill="#FAEDE8"/>
<g clip-path="url(#clip0_10712_18755)">
<mask id="path-2-inside-1_10712_18755" fill="white">
<path d="M20.047 14.5C18.1178 14.5 16.544 16.0772 16.544 18.0083C16.544 18.9385 16.9129 19.831 17.5697 20.4889C17.7171 20.6363 17.8768 20.77 18.046 20.888C15.9714 21.6887 14.5 23.6975 14.5 26.0512V28.1921C14.5 28.3247 14.5527 28.4519 14.6465 28.5457C14.7402 28.6394 14.8674 28.6921 15 28.6921H20.5831C20.6488 28.6921 20.7138 28.6792 20.7745 28.6541C20.8352 28.6289 20.8903 28.5921 20.9367 28.5457C20.9832 28.4992 21.02 28.4441 21.0451 28.3835C21.0703 28.3228 21.0832 28.2578 21.0832 28.1921C21.0832 28.1264 21.0703 28.0614 21.0451 28.0007C21.02 27.9401 20.9832 27.8849 20.9367 27.8385C20.8903 27.7921 20.8352 27.7552 20.7745 27.7301C20.7138 27.705 20.6488 27.6921 20.5831 27.6921H15.5001V26.0512C15.5001 23.5334 17.5155 21.5203 20.0406 21.5169C20.8562 21.5178 21.6159 21.7293 22.2743 22.0997C22.3899 22.1647 22.5265 22.1812 22.6542 22.1454C22.7819 22.1097 22.8901 22.0247 22.9552 21.9092C23.0202 21.7936 23.0367 21.657 23.0009 21.5293C22.9652 21.4016 22.8802 21.2934 22.7647 21.2283C22.5324 21.0979 22.2892 20.9836 22.0375 20.8868C22.2057 20.7697 22.365 20.6364 22.5122 20.4889C23.1691 19.831 23.538 18.9385 23.538 18.0083C23.538 17.0784 23.1691 16.1859 22.5122 15.5278C21.8555 14.87 20.9641 14.5 20.0349 14.5H20.047ZM20.047 15.5001C20.7109 15.5001 21.347 15.7639 21.8166 16.2344C22.2862 16.7048 22.5502 17.3428 22.5502 18.0083C22.5502 18.6741 22.2862 19.3119 21.8166 19.7825C21.3483 20.2517 20.7145 20.5153 20.0527 20.5168C19.3913 20.5151 18.7576 20.2515 18.2895 19.7825C17.8199 19.3119 17.5561 18.6741 17.5561 18.0083C17.5561 16.6167 18.6713 15.5001 20.0591 15.5001H20.047ZM25.7452 21.5169C25.6126 21.5169 25.4854 21.5696 25.3917 21.6633C25.2979 21.7571 25.2452 21.8843 25.2452 22.0169V22.448C24.9984 22.5254 24.759 22.6237 24.5301 22.7441L24.2253 22.4391C24.1315 22.3453 24.0043 22.2926 23.8717 22.2926C23.7391 22.2926 23.6119 22.3453 23.5181 22.4391L22.4391 23.5181C22.3453 23.6119 22.2926 23.7391 22.2926 23.8717C22.2926 24.0043 22.3453 24.1315 22.4391 24.2253L22.7439 24.5301C22.623 24.759 22.5245 24.9984 22.4476 25.2452H22.0169C21.8843 25.2452 21.7571 25.2979 21.6633 25.3917C21.5696 25.4854 21.5169 25.6126 21.5169 25.7452V27.2716C21.5169 27.4042 21.5696 27.5314 21.6633 27.6252C21.7571 27.7189 21.8843 27.7716 22.0169 27.7716H22.4476C22.5251 28.0186 22.6233 28.2579 22.7439 28.4869L22.4391 28.7915C22.3453 28.8853 22.2926 29.0125 22.2926 29.1451C22.2926 29.2777 22.3453 29.4049 22.4391 29.4987L23.5181 30.5777C23.6119 30.6715 23.7391 30.7242 23.8717 30.7242C24.0043 30.7242 24.1315 30.6715 24.2253 30.5777L24.5301 30.2729C24.759 30.3939 24.9984 30.4921 25.2452 30.5689V31.0001C25.2453 31.1327 25.298 31.2598 25.3917 31.3535C25.4855 31.4473 25.6126 31.4999 25.7452 31.4999H27.271C27.4036 31.4999 27.5308 31.4473 27.6245 31.3535C27.7183 31.2598 27.771 31.1327 27.7711 31.0001V30.5689C28.018 30.4914 28.2573 30.3931 28.4861 30.2729L28.791 30.5777C28.8847 30.6715 29.0119 30.7242 29.1445 30.7242C29.2772 30.7242 29.4043 30.6715 29.4981 30.5777L30.5772 29.4987C30.6709 29.4049 30.7236 29.2777 30.7236 29.1451C30.7236 29.0125 30.6709 28.8853 30.5772 28.7915L30.2723 28.4869C30.3933 28.2579 30.4919 28.0186 30.5687 27.7716H30.9999C31.1325 27.7716 31.2597 27.7189 31.3535 27.6252C31.4472 27.5314 31.4999 27.4042 31.4999 27.2716V25.7452C31.4999 25.6126 31.4472 25.4854 31.3535 25.3917C31.2597 25.2979 31.1325 25.2452 30.9999 25.2452H30.5707C30.4933 24.9978 30.395 24.758 30.2737 24.5288L30.5772 24.2253C30.6709 24.1315 30.7236 24.0043 30.7236 23.8717C30.7236 23.7391 30.6709 23.6119 30.5772 23.5181L29.4981 22.4391C29.4043 22.3453 29.2772 22.2926 29.1445 22.2926C29.0119 22.2926 28.8847 22.3453 28.791 22.4391L28.4875 22.7428C28.2582 22.6218 28.0184 22.5228 27.7711 22.4459V22.0169C27.7711 21.8843 27.7184 21.7571 27.6246 21.6633C27.5308 21.5696 27.4036 21.5169 27.271 21.5169H25.7452ZM26.2453 22.5169H26.7712V22.8322C26.7712 22.9471 26.8107 23.0585 26.8833 23.1477C26.9558 23.2369 27.0568 23.2984 27.1694 23.3218C27.57 23.4049 27.9513 23.5629 28.2934 23.7874C28.3895 23.8506 28.5044 23.8786 28.6188 23.8669C28.7332 23.8552 28.84 23.8045 28.9214 23.7232L29.1445 23.5L29.5164 23.8719L29.2933 24.0951C29.2119 24.1764 29.1611 24.2833 29.1494 24.3977C29.1377 24.5122 29.1658 24.6271 29.229 24.7232C29.4537 25.0653 29.6119 25.4466 29.6952 25.8473C29.7186 25.9598 29.7801 26.0608 29.8692 26.1333C29.9584 26.2058 30.0697 26.2454 30.1847 26.2454H30.5001V26.7717H30.1826C30.0676 26.7717 29.9561 26.8114 29.867 26.8839C29.7778 26.9565 29.7163 27.0575 29.6929 27.1701C29.6098 27.5704 29.452 27.9513 29.2277 28.2932C29.1646 28.3893 29.1366 28.5042 29.1483 28.6185C29.16 28.7328 29.2107 28.8397 29.2919 28.921L29.5163 29.1453L29.1443 29.5172L28.92 29.2929C28.8387 29.2117 28.7319 29.161 28.6176 29.1493C28.5034 29.1376 28.3885 29.1656 28.2924 29.2286C27.9506 29.4528 27.5696 29.6106 27.1694 29.6935C27.0568 29.7169 26.9557 29.7783 26.8832 29.8675C26.8106 29.9567 26.771 30.0682 26.771 30.1831V30.5006H26.2451V30.1831C26.2451 30.0682 26.2054 29.9567 26.1328 29.8675C26.0602 29.7783 25.9591 29.7169 25.8465 29.6935C25.4465 29.6104 25.0655 29.4528 24.7236 29.2286C24.6275 29.1656 24.5127 29.1375 24.3983 29.1492C24.284 29.1609 24.1772 29.2117 24.0958 29.2929L23.8715 29.5172L23.4996 29.1453L23.7239 28.921C23.8052 28.8397 23.8559 28.7328 23.8676 28.6185C23.8793 28.5042 23.8513 28.3893 23.7882 28.2932C23.5641 27.9513 23.4061 27.5704 23.3229 27.1701C23.2996 27.0576 23.2381 26.9565 23.149 26.884C23.0598 26.8114 22.9484 26.7718 22.8335 26.7717H22.5166V26.2454H22.8335C22.9484 26.2454 23.0598 26.2058 23.149 26.1332C23.2381 26.0607 23.2996 25.9596 23.3229 25.8471C23.4061 25.4468 23.5641 25.0659 23.7882 24.724C23.8513 24.6279 23.8793 24.513 23.8676 24.3987C23.8559 24.2844 23.8052 24.1775 23.7239 24.0962L23.4996 23.8719L23.8715 23.5L24.0958 23.7243C24.1772 23.8055 24.284 23.8563 24.3983 23.868C24.5127 23.8797 24.6275 23.8516 24.7236 23.7886C25.0655 23.5644 25.4465 23.4068 25.8465 23.3237C25.9591 23.3004 26.0602 23.2389 26.1328 23.1498C26.2054 23.0606 26.245 22.9492 26.2451 22.8342L26.2453 22.5169ZM26.5085 24.0254C25.143 24.0254 24.0254 25.143 24.0254 26.5085C24.0254 27.8739 25.143 28.9917 26.5085 28.9917C27.8739 28.9917 28.9917 27.8739 28.9917 26.5085C28.9917 25.143 27.8739 24.0254 26.5085 24.0254ZM26.5085 25.0252C27.3336 25.0252 27.9916 25.6834 27.9916 26.5085C27.9916 27.3334 27.3336 27.9916 26.5085 27.9916C25.6834 27.9916 25.0252 27.3334 25.0252 26.5085C25.0252 25.6834 25.6834 25.0252 26.5085 25.0252Z"/>
</mask>
<path d="M20.047 14.5C18.1178 14.5 16.544 16.0772 16.544 18.0083C16.544 18.9385 16.9129 19.831 17.5697 20.4889C17.7171 20.6363 17.8768 20.77 18.046 20.888C15.9714 21.6887 14.5 23.6975 14.5 26.0512V28.1921C14.5 28.3247 14.5527 28.4519 14.6465 28.5457C14.7402 28.6394 14.8674 28.6921 15 28.6921H20.5831C20.6488 28.6921 20.7138 28.6792 20.7745 28.6541C20.8352 28.6289 20.8903 28.5921 20.9367 28.5457C20.9832 28.4992 21.02 28.4441 21.0451 28.3835C21.0703 28.3228 21.0832 28.2578 21.0832 28.1921C21.0832 28.1264 21.0703 28.0614 21.0451 28.0007C21.02 27.9401 20.9832 27.8849 20.9367 27.8385C20.8903 27.7921 20.8352 27.7552 20.7745 27.7301C20.7138 27.705 20.6488 27.6921 20.5831 27.6921H15.5001V26.0512C15.5001 23.5334 17.5155 21.5203 20.0406 21.5169C20.8562 21.5178 21.6159 21.7293 22.2743 22.0997C22.3899 22.1647 22.5265 22.1812 22.6542 22.1454C22.7819 22.1097 22.8901 22.0247 22.9552 21.9092C23.0202 21.7936 23.0367 21.657 23.0009 21.5293C22.9652 21.4016 22.8802 21.2934 22.7647 21.2283C22.5324 21.0979 22.2892 20.9836 22.0375 20.8868C22.2057 20.7697 22.365 20.6364 22.5122 20.4889C23.1691 19.831 23.538 18.9385 23.538 18.0083C23.538 17.0784 23.1691 16.1859 22.5122 15.5278C21.8555 14.87 20.9641 14.5 20.0349 14.5H20.047ZM20.047 15.5001C20.7109 15.5001 21.347 15.7639 21.8166 16.2344C22.2862 16.7048 22.5502 17.3428 22.5502 18.0083C22.5502 18.6741 22.2862 19.3119 21.8166 19.7825C21.3483 20.2517 20.7145 20.5153 20.0527 20.5168C19.3913 20.5151 18.7576 20.2515 18.2895 19.7825C17.8199 19.3119 17.5561 18.6741 17.5561 18.0083C17.5561 16.6167 18.6713 15.5001 20.0591 15.5001H20.047ZM25.7452 21.5169C25.6126 21.5169 25.4854 21.5696 25.3917 21.6633C25.2979 21.7571 25.2452 21.8843 25.2452 22.0169V22.448C24.9984 22.5254 24.759 22.6237 24.5301 22.7441L24.2253 22.4391C24.1315 22.3453 24.0043 22.2926 23.8717 22.2926C23.7391 22.2926 23.6119 22.3453 23.5181 22.4391L22.4391 23.5181C22.3453 23.6119 22.2926 23.7391 22.2926 23.8717C22.2926 24.0043 22.3453 24.1315 22.4391 24.2253L22.7439 24.5301C22.623 24.759 22.5245 24.9984 22.4476 25.2452H22.0169C21.8843 25.2452 21.7571 25.2979 21.6633 25.3917C21.5696 25.4854 21.5169 25.6126 21.5169 25.7452V27.2716C21.5169 27.4042 21.5696 27.5314 21.6633 27.6252C21.7571 27.7189 21.8843 27.7716 22.0169 27.7716H22.4476C22.5251 28.0186 22.6233 28.2579 22.7439 28.4869L22.4391 28.7915C22.3453 28.8853 22.2926 29.0125 22.2926 29.1451C22.2926 29.2777 22.3453 29.4049 22.4391 29.4987L23.5181 30.5777C23.6119 30.6715 23.7391 30.7242 23.8717 30.7242C24.0043 30.7242 24.1315 30.6715 24.2253 30.5777L24.5301 30.2729C24.759 30.3939 24.9984 30.4921 25.2452 30.5689V31.0001C25.2453 31.1327 25.298 31.2598 25.3917 31.3535C25.4855 31.4473 25.6126 31.4999 25.7452 31.4999H27.271C27.4036 31.4999 27.5308 31.4473 27.6245 31.3535C27.7183 31.2598 27.771 31.1327 27.7711 31.0001V30.5689C28.018 30.4914 28.2573 30.3931 28.4861 30.2729L28.791 30.5777C28.8847 30.6715 29.0119 30.7242 29.1445 30.7242C29.2772 30.7242 29.4043 30.6715 29.4981 30.5777L30.5772 29.4987C30.6709 29.4049 30.7236 29.2777 30.7236 29.1451C30.7236 29.0125 30.6709 28.8853 30.5772 28.7915L30.2723 28.4869C30.3933 28.2579 30.4919 28.0186 30.5687 27.7716H30.9999C31.1325 27.7716 31.2597 27.7189 31.3535 27.6252C31.4472 27.5314 31.4999 27.4042 31.4999 27.2716V25.7452C31.4999 25.6126 31.4472 25.4854 31.3535 25.3917C31.2597 25.2979 31.1325 25.2452 30.9999 25.2452H30.5707C30.4933 24.9978 30.395 24.758 30.2737 24.5288L30.5772 24.2253C30.6709 24.1315 30.7236 24.0043 30.7236 23.8717C30.7236 23.7391 30.6709 23.6119 30.5772 23.5181L29.4981 22.4391C29.4043 22.3453 29.2772 22.2926 29.1445 22.2926C29.0119 22.2926 28.8847 22.3453 28.791 22.4391L28.4875 22.7428C28.2582 22.6218 28.0184 22.5228 27.7711 22.4459V22.0169C27.7711 21.8843 27.7184 21.7571 27.6246 21.6633C27.5308 21.5696 27.4036 21.5169 27.271 21.5169H25.7452ZM26.2453 22.5169H26.7712V22.8322C26.7712 22.9471 26.8107 23.0585 26.8833 23.1477C26.9558 23.2369 27.0568 23.2984 27.1694 23.3218C27.57 23.4049 27.9513 23.5629 28.2934 23.7874C28.3895 23.8506 28.5044 23.8786 28.6188 23.8669C28.7332 23.8552 28.84 23.8045 28.9214 23.7232L29.1445 23.5L29.5164 23.8719L29.2933 24.0951C29.2119 24.1764 29.1611 24.2833 29.1494 24.3977C29.1377 24.5122 29.1658 24.6271 29.229 24.7232C29.4537 25.0653 29.6119 25.4466 29.6952 25.8473C29.7186 25.9598 29.7801 26.0608 29.8692 26.1333C29.9584 26.2058 30.0697 26.2454 30.1847 26.2454H30.5001V26.7717H30.1826C30.0676 26.7717 29.9561 26.8114 29.867 26.8839C29.7778 26.9565 29.7163 27.0575 29.6929 27.1701C29.6098 27.5704 29.452 27.9513 29.2277 28.2932C29.1646 28.3893 29.1366 28.5042 29.1483 28.6185C29.16 28.7328 29.2107 28.8397 29.2919 28.921L29.5163 29.1453L29.1443 29.5172L28.92 29.2929C28.8387 29.2117 28.7319 29.161 28.6176 29.1493C28.5034 29.1376 28.3885 29.1656 28.2924 29.2286C27.9506 29.4528 27.5696 29.6106 27.1694 29.6935C27.0568 29.7169 26.9557 29.7783 26.8832 29.8675C26.8106 29.9567 26.771 30.0682 26.771 30.1831V30.5006H26.2451V30.1831C26.2451 30.0682 26.2054 29.9567 26.1328 29.8675C26.0602 29.7783 25.9591 29.7169 25.8465 29.6935C25.4465 29.6104 25.0655 29.4528 24.7236 29.2286C24.6275 29.1656 24.5127 29.1375 24.3983 29.1492C24.284 29.1609 24.1772 29.2117 24.0958 29.2929L23.8715 29.5172L23.4996 29.1453L23.7239 28.921C23.8052 28.8397 23.8559 28.7328 23.8676 28.6185C23.8793 28.5042 23.8513 28.3893 23.7882 28.2932C23.5641 27.9513 23.4061 27.5704 23.3229 27.1701C23.2996 27.0576 23.2381 26.9565 23.149 26.884C23.0598 26.8114 22.9484 26.7718 22.8335 26.7717H22.5166V26.2454H22.8335C22.9484 26.2454 23.0598 26.2058 23.149 26.1332C23.2381 26.0607 23.2996 25.9596 23.3229 25.8471C23.4061 25.4468 23.5641 25.0659 23.7882 24.724C23.8513 24.6279 23.8793 24.513 23.8676 24.3987C23.8559 24.2844 23.8052 24.1775 23.7239 24.0962L23.4996 23.8719L23.8715 23.5L24.0958 23.7243C24.1772 23.8055 24.284 23.8563 24.3983 23.868C24.5127 23.8797 24.6275 23.8516 24.7236 23.7886C25.0655 23.5644 25.4465 23.4068 25.8465 23.3237C25.9591 23.3004 26.0602 23.2389 26.1328 23.1498C26.2054 23.0606 26.245 22.9492 26.2451 22.8342L26.2453 22.5169ZM26.5085 24.0254C25.143 24.0254 24.0254 25.143 24.0254 26.5085C24.0254 27.8739 25.143 28.9917 26.5085 28.9917C27.8739 28.9917 28.9917 27.8739 28.9917 26.5085C28.9917 25.143 27.8739 24.0254 26.5085 24.0254ZM26.5085 25.0252C27.3336 25.0252 27.9916 25.6834 27.9916 26.5085C27.9916 27.3334 27.3336 27.9916 26.5085 27.9916C25.6834 27.9916 25.0252 27.3334 25.0252 26.5085C25.0252 25.6834 25.6834 25.0252 26.5085 25.0252Z" fill="#88898A" stroke="#E49273" stroke-width="2" mask="url(#path-2-inside-1_10712_18755)"/>
</g>
<defs>
<clipPath id="clip0_10712_18755">
<rect width="20" height="20" fill="white" transform="translate(13 13)"/>
</clipPath>
</defs>
</svg>
