<svg width="64" height="64" viewBox="0 0 64 64" fill="none" xmlns="http://www.w3.org/2000/svg">
<g clip-path="url(#clip0_6530_15716)">
<path d="M37.3335 50.6667C37.3335 46.4233 35.6478 42.3536 32.6472 39.353C29.6466 36.3525 25.577 34.6667 21.3335 34.6667C17.09 34.6667 13.0204 36.3525 10.0198 39.353C7.01921 42.3536 5.3335 46.4233 5.3335 50.6667" fill="#E49273"/>
<path d="M37.3335 50.6667C37.3335 46.4233 35.6478 42.3536 32.6472 39.353C29.6466 36.3525 25.577 34.6667 21.3335 34.6667C17.09 34.6667 13.0204 36.3525 10.0198 39.353C7.01921 42.3536 5.3335 46.4233 5.3335 50.6667" stroke="#E49273" stroke-width="4" stroke-linecap="round" stroke-linejoin="round"/>
<path d="M21.3332 34.6666C27.2242 34.6666 31.9998 29.891 31.9998 23.9999C31.9998 18.1089 27.2242 13.3333 21.3332 13.3333C15.4421 13.3333 10.6665 18.1089 10.6665 23.9999C10.6665 29.891 15.4421 34.6666 21.3332 34.6666Z" fill="#E49273" stroke="#E49273" stroke-width="4" stroke-linecap="round" stroke-linejoin="round"/>
<path d="M58.6665 50.6666C58.6665 46.4231 56.9808 42.3535 53.9802 39.3529C50.9796 36.3523 46.91 34.6666 42.6665 34.6666C45.4955 34.6666 48.2086 33.5428 50.209 31.5424C52.2094 29.542 53.3332 26.8289 53.3332 23.9999C53.3332 21.1709 52.2094 18.4578 50.209 16.4574C48.2086 14.4571 45.4955 13.3333 42.6665 13.3333" stroke="#E49273" stroke-width="4" stroke-linecap="round" stroke-linejoin="round"/>
</g>
<defs>
<clipPath id="clip0_6530_15716">
<rect width="64" height="64" fill="white"/>
</clipPath>
</defs>
</svg>
