<svg width="47" height="47" viewBox="0 0 47 47" fill="none" xmlns="http://www.w3.org/2000/svg">
<rect width="47" height="47" rx="23.5" fill="#FAEDE8"/>
<mask id="path-2-inside-1_10712_18749" fill="white">
<path d="M29.9558 18.4128H29.3246C29.0521 18.4128 28.8272 18.261 28.7229 18.0066C28.6187 17.7524 28.6715 17.4841 28.8642 17.2895L29.3105 16.8385C29.5521 16.5944 29.5521 16.1971 29.3105 15.953L28.3642 14.9971C28.2474 14.8792 28.0917 14.814 27.9258 14.814C27.7599 14.814 27.6044 14.879 27.4874 14.9969L27.0411 15.4478C26.8484 15.6425 26.5831 15.6959 26.3313 15.5905C26.0795 15.4851 25.9293 15.2579 25.9293 14.9827V14.3449C25.9293 13.9996 25.6513 13.7188 25.3095 13.7188H23.9713C23.6295 13.7188 23.3515 13.9996 23.3515 14.3449V14.9827C23.3515 15.2579 23.2013 15.4851 22.9495 15.5905C22.6978 15.6959 22.4323 15.6425 22.2397 15.4478L21.7936 14.9971C21.6768 14.8792 21.5211 14.814 21.3552 14.814C21.1893 14.814 21.0338 14.879 20.9168 14.9969L19.9705 15.953C19.7289 16.1971 19.7289 16.5944 19.9705 16.8385L20.4168 17.2895C20.6095 17.4841 20.6623 17.7522 20.558 18.0066C20.4538 18.261 20.2289 18.4128 19.9564 18.4128H19.3252C18.9833 18.4128 18.7054 18.6936 18.7054 19.039V20.3909C18.7054 20.7363 18.9833 21.0171 19.3252 21.0171H19.9564C20.2289 21.0171 20.4538 21.1689 20.558 21.4233C20.6623 21.6775 20.6095 21.9456 20.4168 22.1404L19.9703 22.5913C19.7287 22.8355 19.7287 23.2328 19.9703 23.4769L20.9166 24.433C21.1582 24.6771 21.5515 24.6771 21.7931 24.433L22.2395 23.982C22.4321 23.7874 22.6974 23.734 22.9493 23.8394C23.2009 23.9447 23.3513 24.1719 23.3513 24.4472V25.0849C23.3513 25.4303 23.6293 25.7111 23.9711 25.7111H25.3093C25.6511 25.7111 25.9291 25.4303 25.9291 25.0849V24.447C25.9291 24.1717 26.0795 23.9445 26.3311 23.8392C26.5827 23.734 26.848 23.7872 27.0409 23.9818L27.4872 24.433C27.7289 24.6771 28.1221 24.6771 28.3638 24.433L29.3101 23.4769C29.5517 23.2328 29.5517 22.8355 29.3101 22.5913L28.8638 22.1404C28.6711 21.9458 28.6182 21.6777 28.7225 21.4233C28.8268 21.1691 29.0517 21.0171 29.3242 21.0171H29.9556C30.2974 21.0171 30.5754 20.7363 30.5754 20.3909V19.039C30.5756 18.6938 30.2976 18.4128 29.9558 18.4128ZM30.0293 20.3911C30.0293 20.4313 29.9956 20.4653 29.9558 20.4653H29.3244C28.8309 20.4653 28.4068 20.7515 28.218 21.2124C28.0291 21.673 28.1287 22.1783 28.4776 22.5309L28.924 22.9818C28.9521 23.0103 28.9521 23.0583 28.924 23.0868L27.9776 24.0429C27.9495 24.0713 27.9019 24.0713 27.8738 24.0429L27.4274 23.5917C27.0784 23.2392 26.5782 23.1388 26.1223 23.3295C25.6664 23.5204 25.3831 23.9486 25.3831 24.4472V25.0851C25.3831 25.1253 25.3495 25.1594 25.3097 25.1594H23.9715C23.9317 25.1594 23.898 25.1253 23.898 25.0851V24.4474C23.898 23.9486 23.6148 23.5204 23.1589 23.3297C23.006 23.2658 22.8482 23.2344 22.6929 23.2344C22.3846 23.2344 22.0858 23.3575 21.8538 23.5917L21.4074 24.0427C21.3793 24.0711 21.3317 24.0711 21.3036 24.0427L20.3572 23.0866C20.3291 23.0581 20.3291 23.0101 20.3572 22.9816L20.8038 22.5307C21.1527 22.1781 21.2521 21.6728 21.0633 21.2122C20.8746 20.7513 20.4505 20.4651 19.9568 20.4651H19.3256C19.2858 20.4651 19.2521 20.4311 19.2521 20.3909V19.039C19.2521 18.9988 19.2858 18.9647 19.3256 18.9647H19.9568C20.4503 18.9647 20.8744 18.6785 21.0633 18.2177C21.2521 17.7571 21.1527 17.2517 20.8038 16.8992L20.3574 16.4482C20.3293 16.4198 20.3293 16.3717 20.3574 16.3433L21.3038 15.3872C21.3221 15.3686 21.3442 15.366 21.3556 15.366C21.367 15.366 21.3893 15.3686 21.4076 15.3874L21.854 15.8383C22.2029 16.1909 22.7029 16.2915 23.1591 16.1006C23.615 15.9099 23.8982 15.4814 23.8982 14.9829V14.3449C23.8982 14.3047 23.9319 14.2707 23.9717 14.2707H25.3099C25.3497 14.2707 25.3833 14.3047 25.3833 14.3449V14.9827C25.3833 15.4814 25.6666 15.9097 26.1225 16.1004C26.5787 16.2913 27.0787 16.1907 27.4276 15.8381L27.874 15.3872C27.8923 15.3686 27.9144 15.3658 27.926 15.3658C27.9374 15.3658 27.9597 15.3684 27.9778 15.3872L28.9242 16.3433C28.9523 16.3717 28.9523 16.4198 28.9242 16.4482L28.4778 16.8992C28.1289 17.2517 28.0295 17.7571 28.2182 18.2177C28.407 18.6783 28.8311 18.9647 29.3246 18.9647H29.9558C29.9956 18.9647 30.0293 18.9988 30.0293 19.039V20.3911ZM24.6405 16.655C22.9705 16.655 21.6117 18.0278 21.6117 19.715C21.6117 21.4023 22.9705 22.775 24.6405 22.775C26.3105 22.775 27.6693 21.4023 27.6693 19.715C27.6693 18.0278 26.3107 16.655 24.6405 16.655ZM23.0876 21.6697C23.2121 21.1806 23.6252 20.8095 24.126 20.7474C24.2854 20.8109 24.4589 20.8462 24.6405 20.8462C24.8221 20.8462 24.9956 20.8109 25.155 20.7474C25.6558 20.8095 26.0689 21.1806 26.1933 21.6697C25.7678 22.0155 25.2278 22.2231 24.6405 22.2231C24.0531 22.2231 23.5133 22.0155 23.0876 21.6697ZM24.6407 20.2942C24.1721 20.2942 23.7909 19.9152 23.7909 19.4495C23.7909 18.9837 24.1721 18.6047 24.6407 18.6047C25.1093 18.6047 25.4905 18.9837 25.4905 19.4495C25.4905 19.9152 25.1093 20.2942 24.6407 20.2942ZM26.6164 21.2311C26.4346 20.8332 26.1127 20.5142 25.7172 20.3377C25.9168 20.0961 26.0368 19.7866 26.0368 19.4495C26.0368 18.6794 25.4105 18.0528 24.6407 18.0528C23.8709 18.0528 23.2446 18.6794 23.2446 19.4495C23.2446 19.7866 23.3646 20.0961 23.5642 20.3377C23.1687 20.5142 22.8468 20.833 22.665 21.2311C22.3474 20.8097 22.1584 20.2843 22.1584 19.715C22.1584 18.3322 23.2721 17.207 24.6409 17.207C26.0097 17.207 27.1233 18.3322 27.1233 19.715C27.1229 20.2843 26.934 20.8097 26.6164 21.2311ZM29.4489 26.1004C29.1393 26.0165 28.8166 26.059 28.5405 26.2202L25.8729 27.7761C25.8752 27.6507 25.8609 27.5233 25.8272 27.3963C25.6333 26.6658 24.8874 26.2309 24.1646 26.4266L23.0572 26.7264C22.6387 26.8396 22.2531 26.7884 21.8778 26.5695L20.4017 25.7084C19.8048 25.3602 19.2093 25.586 18.5197 25.8474C18.1348 25.9934 17.705 26.1563 17.1995 26.255L17.1738 26.1577C17.1409 26.034 17.0623 25.9305 16.9521 25.8662C16.8419 25.802 16.714 25.7847 16.5915 25.8179L15.7772 26.0383C15.524 26.107 15.3731 26.3709 15.4411 26.6266L16.9005 32.1293C16.9574 32.3435 17.1499 32.4853 17.3599 32.4853C17.4005 32.4853 17.4417 32.48 17.4827 32.4689L18.297 32.2484C18.4195 32.2152 18.5219 32.1359 18.5856 32.0245C18.6472 31.9167 18.6646 31.7917 18.6356 31.6715C19.8215 31.4086 20.5682 31.6235 21.5752 31.9136C21.7582 31.9664 21.9476 32.021 22.1499 32.0757C22.3258 32.1233 22.4993 32.147 22.6699 32.147C23.0011 32.147 23.3217 32.0575 23.6276 31.879L29.7376 28.3148C30.0138 28.1538 30.2115 27.893 30.2944 27.58C30.3772 27.2672 30.3352 26.9412 30.1758 26.6623C30.0168 26.3841 29.7587 26.1843 29.4489 26.1004ZM17.4099 31.9177L15.9872 26.5534L16.6646 26.3701L18.0872 31.7344L17.4099 31.9177ZM29.767 27.4377C29.7219 27.608 29.6146 27.7501 29.4648 27.8373L23.355 31.4014C23.0166 31.5988 22.6689 31.6449 22.2917 31.5429C22.0936 31.4893 21.9064 31.4352 21.7254 31.3831C20.6731 31.08 19.8284 30.8367 18.495 31.1379L17.3417 26.7893C17.8729 26.682 18.3154 26.5146 18.7121 26.3641C19.3978 26.1041 19.7721 25.9781 20.1291 26.1862L21.6052 27.0472C22.1052 27.339 22.6413 27.4101 23.1991 27.2592L24.3064 26.9594C24.738 26.8425 25.1842 27.1025 25.2999 27.539C25.3613 27.7703 25.3176 28.0056 25.1989 28.193C25.1917 28.2023 25.1854 28.2119 25.1795 28.2221C25.074 28.374 24.9172 28.4909 24.7262 28.5427L23.107 28.981C22.834 29.0548 22.5672 29.0575 22.3142 28.9886C22.1689 28.9491 22.0187 29.0361 21.9793 29.1833C21.9399 29.3305 22.0262 29.4818 22.1719 29.5216C22.3411 29.5678 22.5138 29.5907 22.6889 29.5907C22.8731 29.5907 23.0601 29.5651 23.2484 29.5142L24.8676 29.0759C25.174 28.993 25.4276 28.8097 25.6038 28.5705L28.814 26.6979C28.9636 26.6105 29.1391 26.5876 29.3076 26.6334C29.4762 26.6792 29.6168 26.7876 29.7031 26.9388C29.7895 27.0903 29.8123 27.2674 29.767 27.4377Z"/>
</mask>
<path d="M29.9558 18.4128H29.3246C29.0521 18.4128 28.8272 18.261 28.7229 18.0066C28.6187 17.7524 28.6715 17.4841 28.8642 17.2895L29.3105 16.8385C29.5521 16.5944 29.5521 16.1971 29.3105 15.953L28.3642 14.9971C28.2474 14.8792 28.0917 14.814 27.9258 14.814C27.7599 14.814 27.6044 14.879 27.4874 14.9969L27.0411 15.4478C26.8484 15.6425 26.5831 15.6959 26.3313 15.5905C26.0795 15.4851 25.9293 15.2579 25.9293 14.9827V14.3449C25.9293 13.9996 25.6513 13.7188 25.3095 13.7188H23.9713C23.6295 13.7188 23.3515 13.9996 23.3515 14.3449V14.9827C23.3515 15.2579 23.2013 15.4851 22.9495 15.5905C22.6978 15.6959 22.4323 15.6425 22.2397 15.4478L21.7936 14.9971C21.6768 14.8792 21.5211 14.814 21.3552 14.814C21.1893 14.814 21.0338 14.879 20.9168 14.9969L19.9705 15.953C19.7289 16.1971 19.7289 16.5944 19.9705 16.8385L20.4168 17.2895C20.6095 17.4841 20.6623 17.7522 20.558 18.0066C20.4538 18.261 20.2289 18.4128 19.9564 18.4128H19.3252C18.9833 18.4128 18.7054 18.6936 18.7054 19.039V20.3909C18.7054 20.7363 18.9833 21.0171 19.3252 21.0171H19.9564C20.2289 21.0171 20.4538 21.1689 20.558 21.4233C20.6623 21.6775 20.6095 21.9456 20.4168 22.1404L19.9703 22.5913C19.7287 22.8355 19.7287 23.2328 19.9703 23.4769L20.9166 24.433C21.1582 24.6771 21.5515 24.6771 21.7931 24.433L22.2395 23.982C22.4321 23.7874 22.6974 23.734 22.9493 23.8394C23.2009 23.9447 23.3513 24.1719 23.3513 24.4472V25.0849C23.3513 25.4303 23.6293 25.7111 23.9711 25.7111H25.3093C25.6511 25.7111 25.9291 25.4303 25.9291 25.0849V24.447C25.9291 24.1717 26.0795 23.9445 26.3311 23.8392C26.5827 23.734 26.848 23.7872 27.0409 23.9818L27.4872 24.433C27.7289 24.6771 28.1221 24.6771 28.3638 24.433L29.3101 23.4769C29.5517 23.2328 29.5517 22.8355 29.3101 22.5913L28.8638 22.1404C28.6711 21.9458 28.6182 21.6777 28.7225 21.4233C28.8268 21.1691 29.0517 21.0171 29.3242 21.0171H29.9556C30.2974 21.0171 30.5754 20.7363 30.5754 20.3909V19.039C30.5756 18.6938 30.2976 18.4128 29.9558 18.4128ZM30.0293 20.3911C30.0293 20.4313 29.9956 20.4653 29.9558 20.4653H29.3244C28.8309 20.4653 28.4068 20.7515 28.218 21.2124C28.0291 21.673 28.1287 22.1783 28.4776 22.5309L28.924 22.9818C28.9521 23.0103 28.9521 23.0583 28.924 23.0868L27.9776 24.0429C27.9495 24.0713 27.9019 24.0713 27.8738 24.0429L27.4274 23.5917C27.0784 23.2392 26.5782 23.1388 26.1223 23.3295C25.6664 23.5204 25.3831 23.9486 25.3831 24.4472V25.0851C25.3831 25.1253 25.3495 25.1594 25.3097 25.1594H23.9715C23.9317 25.1594 23.898 25.1253 23.898 25.0851V24.4474C23.898 23.9486 23.6148 23.5204 23.1589 23.3297C23.006 23.2658 22.8482 23.2344 22.6929 23.2344C22.3846 23.2344 22.0858 23.3575 21.8538 23.5917L21.4074 24.0427C21.3793 24.0711 21.3317 24.0711 21.3036 24.0427L20.3572 23.0866C20.3291 23.0581 20.3291 23.0101 20.3572 22.9816L20.8038 22.5307C21.1527 22.1781 21.2521 21.6728 21.0633 21.2122C20.8746 20.7513 20.4505 20.4651 19.9568 20.4651H19.3256C19.2858 20.4651 19.2521 20.4311 19.2521 20.3909V19.039C19.2521 18.9988 19.2858 18.9647 19.3256 18.9647H19.9568C20.4503 18.9647 20.8744 18.6785 21.0633 18.2177C21.2521 17.7571 21.1527 17.2517 20.8038 16.8992L20.3574 16.4482C20.3293 16.4198 20.3293 16.3717 20.3574 16.3433L21.3038 15.3872C21.3221 15.3686 21.3442 15.366 21.3556 15.366C21.367 15.366 21.3893 15.3686 21.4076 15.3874L21.854 15.8383C22.2029 16.1909 22.7029 16.2915 23.1591 16.1006C23.615 15.9099 23.8982 15.4814 23.8982 14.9829V14.3449C23.8982 14.3047 23.9319 14.2707 23.9717 14.2707H25.3099C25.3497 14.2707 25.3833 14.3047 25.3833 14.3449V14.9827C25.3833 15.4814 25.6666 15.9097 26.1225 16.1004C26.5787 16.2913 27.0787 16.1907 27.4276 15.8381L27.874 15.3872C27.8923 15.3686 27.9144 15.3658 27.926 15.3658C27.9374 15.3658 27.9597 15.3684 27.9778 15.3872L28.9242 16.3433C28.9523 16.3717 28.9523 16.4198 28.9242 16.4482L28.4778 16.8992C28.1289 17.2517 28.0295 17.7571 28.2182 18.2177C28.407 18.6783 28.8311 18.9647 29.3246 18.9647H29.9558C29.9956 18.9647 30.0293 18.9988 30.0293 19.039V20.3911ZM24.6405 16.655C22.9705 16.655 21.6117 18.0278 21.6117 19.715C21.6117 21.4023 22.9705 22.775 24.6405 22.775C26.3105 22.775 27.6693 21.4023 27.6693 19.715C27.6693 18.0278 26.3107 16.655 24.6405 16.655ZM23.0876 21.6697C23.2121 21.1806 23.6252 20.8095 24.126 20.7474C24.2854 20.8109 24.4589 20.8462 24.6405 20.8462C24.8221 20.8462 24.9956 20.8109 25.155 20.7474C25.6558 20.8095 26.0689 21.1806 26.1933 21.6697C25.7678 22.0155 25.2278 22.2231 24.6405 22.2231C24.0531 22.2231 23.5133 22.0155 23.0876 21.6697ZM24.6407 20.2942C24.1721 20.2942 23.7909 19.9152 23.7909 19.4495C23.7909 18.9837 24.1721 18.6047 24.6407 18.6047C25.1093 18.6047 25.4905 18.9837 25.4905 19.4495C25.4905 19.9152 25.1093 20.2942 24.6407 20.2942ZM26.6164 21.2311C26.4346 20.8332 26.1127 20.5142 25.7172 20.3377C25.9168 20.0961 26.0368 19.7866 26.0368 19.4495C26.0368 18.6794 25.4105 18.0528 24.6407 18.0528C23.8709 18.0528 23.2446 18.6794 23.2446 19.4495C23.2446 19.7866 23.3646 20.0961 23.5642 20.3377C23.1687 20.5142 22.8468 20.833 22.665 21.2311C22.3474 20.8097 22.1584 20.2843 22.1584 19.715C22.1584 18.3322 23.2721 17.207 24.6409 17.207C26.0097 17.207 27.1233 18.3322 27.1233 19.715C27.1229 20.2843 26.934 20.8097 26.6164 21.2311ZM29.4489 26.1004C29.1393 26.0165 28.8166 26.059 28.5405 26.2202L25.8729 27.7761C25.8752 27.6507 25.8609 27.5233 25.8272 27.3963C25.6333 26.6658 24.8874 26.2309 24.1646 26.4266L23.0572 26.7264C22.6387 26.8396 22.2531 26.7884 21.8778 26.5695L20.4017 25.7084C19.8048 25.3602 19.2093 25.586 18.5197 25.8474C18.1348 25.9934 17.705 26.1563 17.1995 26.255L17.1738 26.1577C17.1409 26.034 17.0623 25.9305 16.9521 25.8662C16.8419 25.802 16.714 25.7847 16.5915 25.8179L15.7772 26.0383C15.524 26.107 15.3731 26.3709 15.4411 26.6266L16.9005 32.1293C16.9574 32.3435 17.1499 32.4853 17.3599 32.4853C17.4005 32.4853 17.4417 32.48 17.4827 32.4689L18.297 32.2484C18.4195 32.2152 18.5219 32.1359 18.5856 32.0245C18.6472 31.9167 18.6646 31.7917 18.6356 31.6715C19.8215 31.4086 20.5682 31.6235 21.5752 31.9136C21.7582 31.9664 21.9476 32.021 22.1499 32.0757C22.3258 32.1233 22.4993 32.147 22.6699 32.147C23.0011 32.147 23.3217 32.0575 23.6276 31.879L29.7376 28.3148C30.0138 28.1538 30.2115 27.893 30.2944 27.58C30.3772 27.2672 30.3352 26.9412 30.1758 26.6623C30.0168 26.3841 29.7587 26.1843 29.4489 26.1004ZM17.4099 31.9177L15.9872 26.5534L16.6646 26.3701L18.0872 31.7344L17.4099 31.9177ZM29.767 27.4377C29.7219 27.608 29.6146 27.7501 29.4648 27.8373L23.355 31.4014C23.0166 31.5988 22.6689 31.6449 22.2917 31.5429C22.0936 31.4893 21.9064 31.4352 21.7254 31.3831C20.6731 31.08 19.8284 30.8367 18.495 31.1379L17.3417 26.7893C17.8729 26.682 18.3154 26.5146 18.7121 26.3641C19.3978 26.1041 19.7721 25.9781 20.1291 26.1862L21.6052 27.0472C22.1052 27.339 22.6413 27.4101 23.1991 27.2592L24.3064 26.9594C24.738 26.8425 25.1842 27.1025 25.2999 27.539C25.3613 27.7703 25.3176 28.0056 25.1989 28.193C25.1917 28.2023 25.1854 28.2119 25.1795 28.2221C25.074 28.374 24.9172 28.4909 24.7262 28.5427L23.107 28.981C22.834 29.0548 22.5672 29.0575 22.3142 28.9886C22.1689 28.9491 22.0187 29.0361 21.9793 29.1833C21.9399 29.3305 22.0262 29.4818 22.1719 29.5216C22.3411 29.5678 22.5138 29.5907 22.6889 29.5907C22.8731 29.5907 23.0601 29.5651 23.2484 29.5142L24.8676 29.0759C25.174 28.993 25.4276 28.8097 25.6038 28.5705L28.814 26.6979C28.9636 26.6105 29.1391 26.5876 29.3076 26.6334C29.4762 26.6792 29.6168 26.7876 29.7031 26.9388C29.7895 27.0903 29.8123 27.2674 29.767 27.4377Z" fill="#88898A" stroke="#E49273" stroke-width="0.701031" mask="url(#path-2-inside-1_10712_18749)"/>
</svg>
