<svg width="47" height="47" viewBox="0 0 47 47" fill="none" xmlns="http://www.w3.org/2000/svg">
<rect width="47" height="47" rx="23.5" fill="#FAEDE8"/>
<g clip-path="url(#clip0_10712_18752)">
<mask id="path-2-inside-1_10712_18752" fill="white">
<path fill-rule="evenodd" clip-rule="evenodd" d="M21.2248 13.9416C21.0972 13.9416 20.9749 13.9923 20.8846 14.0825C20.7944 14.1727 20.7438 14.295 20.7437 14.4226V15.0546C20.6277 15.0982 20.5134 15.1459 20.4007 15.1973L19.9536 14.7502C19.8633 14.6599 19.741 14.6093 19.6134 14.6093C19.4858 14.6093 19.3634 14.6599 19.2732 14.7502L17.2981 16.7253C17.2079 16.8155 17.1572 16.9379 17.1572 17.0654C17.1572 17.193 17.2079 17.3154 17.2981 17.4056L17.7453 17.8528C17.6938 17.9655 17.6462 18.0798 17.6025 18.1958H16.9706C16.843 18.1958 16.7206 18.2465 16.6304 18.3367C16.5402 18.4269 16.4895 18.5493 16.4895 18.6769V19.7356H16.1677C15.5098 19.7356 14.9651 20.2803 14.9651 20.9382V27.497H14.4781C14.3505 27.4971 14.2282 27.5477 14.138 27.638C14.0478 27.7282 13.9971 27.8505 13.9971 27.9781V30.8205C13.9971 30.9481 14.0478 31.0704 14.138 31.1606C14.2282 31.2508 14.3505 31.3015 14.4781 31.3015H30.765C30.8925 31.3015 31.0149 31.2508 31.1051 31.1606C31.1953 31.0704 31.246 30.9481 31.246 30.8205V27.9781C31.246 27.8505 31.1953 27.7282 31.1051 27.638C31.0149 27.5477 30.8925 27.4971 30.765 27.497H30.278V20.9382C30.278 20.2803 29.7333 19.7356 29.0753 19.7356H28.7536V18.6769C28.7536 18.5493 28.7029 18.4269 28.6127 18.3367C28.5225 18.2465 28.4001 18.1958 28.2725 18.1958H27.6422C27.5986 18.0793 27.5509 17.9644 27.4993 17.8512L27.9449 17.4056C28.0351 17.3154 28.0857 17.193 28.0857 17.0654C28.0857 16.9379 28.0351 16.8155 27.9449 16.7253L25.9697 14.7502C25.8795 14.6599 25.7571 14.6093 25.6296 14.6093C25.502 14.6093 25.3796 14.6599 25.2894 14.7502L24.8439 15.1957C24.7306 15.1441 24.6157 15.0964 24.4992 15.0528V14.4225C24.4992 14.2949 24.4485 14.1725 24.3583 14.0823C24.2681 13.9921 24.1457 13.9414 24.0181 13.9414L21.2248 13.9416ZM21.7059 14.9037H23.5371V15.3969C23.5371 15.5004 23.5705 15.6012 23.6324 15.6843C23.6943 15.7673 23.7812 15.8282 23.8805 15.8578C24.1687 15.944 24.4474 16.0594 24.7121 16.2024C24.8033 16.2516 24.9078 16.2701 25.0103 16.2552C25.1128 16.2402 25.2077 16.1926 25.2809 16.1193L25.6296 15.7707L26.9244 17.0655L26.5758 17.4142C26.5025 17.4874 26.4549 17.5823 26.4399 17.6848C26.425 17.7873 26.4435 17.8918 26.4927 17.983C26.6356 18.2477 26.7511 18.5264 26.8373 18.8146C26.8669 18.9139 26.9278 19.0008 27.0108 19.0627C27.0939 19.1246 27.1947 19.158 27.2982 19.158H27.7914V19.7356H25.1148C24.9484 18.51 23.8909 17.5574 22.6215 17.5574C21.3521 17.5574 20.2946 18.51 20.1282 19.7356H17.4516V19.158H17.9458C18.0492 19.158 18.1498 19.1246 18.2328 19.063C18.3158 19.0013 18.3767 18.9145 18.4065 18.8155C18.493 18.5278 18.6088 18.2497 18.752 17.9856C18.8014 17.8945 18.82 17.7898 18.8051 17.6872C18.7902 17.5845 18.7426 17.4895 18.6692 17.4162L18.3186 17.0655L19.6134 15.7707L19.964 16.1213C20.0374 16.1947 20.1324 16.2423 20.235 16.2572C20.3377 16.2721 20.4423 16.2535 20.5335 16.2041C20.7976 16.0608 21.0757 15.9451 21.3634 15.8585C21.4624 15.8287 21.5492 15.7679 21.6108 15.6849C21.6725 15.6019 21.7059 15.5013 21.7059 15.3979V14.9037ZM22.6215 18.5195C23.3693 18.5195 23.9867 19.0364 24.1393 19.7356H21.1037C21.2563 19.0364 21.8737 18.5195 22.6215 18.5195ZM16.1677 20.6977H29.0753C29.2169 20.6977 29.3158 20.7966 29.3158 20.9383V27.4971H26.6823C26.5813 27.4971 26.4828 27.5289 26.4009 27.588C26.319 27.6471 26.2577 27.7304 26.2258 27.8263L26.0312 28.4113H19.2118L19.0172 27.8263C18.9853 27.7304 18.924 27.6471 18.8421 27.588C18.7602 27.5289 18.6617 27.4971 18.5607 27.4971H15.9272V20.9383C15.9272 20.7966 16.0261 20.6977 16.1677 20.6977ZM14.9591 28.4592H15.4433C15.4445 28.4594 15.4457 28.4595 15.4469 28.4596C15.4482 28.4595 15.4494 28.4594 15.4506 28.4592H18.2155L18.4101 29.0442C18.442 29.1401 18.5033 29.2234 18.5852 29.2825C18.6671 29.3416 18.7656 29.3734 18.8666 29.3734H26.3798C26.4808 29.3734 26.5792 29.3416 26.6612 29.2825C26.7431 29.2235 26.8043 29.1401 26.8362 29.0442L27.0309 28.4592H29.7958C29.797 28.4594 29.7982 28.4595 29.7994 28.4596C29.8006 28.4595 29.8018 28.4594 29.8031 28.4592H30.2872V30.3395H14.9625L14.9591 28.4592Z"/>
</mask>
<path fill-rule="evenodd" clip-rule="evenodd" d="M21.2248 13.9416C21.0972 13.9416 20.9749 13.9923 20.8846 14.0825C20.7944 14.1727 20.7438 14.295 20.7437 14.4226V15.0546C20.6277 15.0982 20.5134 15.1459 20.4007 15.1973L19.9536 14.7502C19.8633 14.6599 19.741 14.6093 19.6134 14.6093C19.4858 14.6093 19.3634 14.6599 19.2732 14.7502L17.2981 16.7253C17.2079 16.8155 17.1572 16.9379 17.1572 17.0654C17.1572 17.193 17.2079 17.3154 17.2981 17.4056L17.7453 17.8528C17.6938 17.9655 17.6462 18.0798 17.6025 18.1958H16.9706C16.843 18.1958 16.7206 18.2465 16.6304 18.3367C16.5402 18.4269 16.4895 18.5493 16.4895 18.6769V19.7356H16.1677C15.5098 19.7356 14.9651 20.2803 14.9651 20.9382V27.497H14.4781C14.3505 27.4971 14.2282 27.5477 14.138 27.638C14.0478 27.7282 13.9971 27.8505 13.9971 27.9781V30.8205C13.9971 30.9481 14.0478 31.0704 14.138 31.1606C14.2282 31.2508 14.3505 31.3015 14.4781 31.3015H30.765C30.8925 31.3015 31.0149 31.2508 31.1051 31.1606C31.1953 31.0704 31.246 30.9481 31.246 30.8205V27.9781C31.246 27.8505 31.1953 27.7282 31.1051 27.638C31.0149 27.5477 30.8925 27.4971 30.765 27.497H30.278V20.9382C30.278 20.2803 29.7333 19.7356 29.0753 19.7356H28.7536V18.6769C28.7536 18.5493 28.7029 18.4269 28.6127 18.3367C28.5225 18.2465 28.4001 18.1958 28.2725 18.1958H27.6422C27.5986 18.0793 27.5509 17.9644 27.4993 17.8512L27.9449 17.4056C28.0351 17.3154 28.0857 17.193 28.0857 17.0654C28.0857 16.9379 28.0351 16.8155 27.9449 16.7253L25.9697 14.7502C25.8795 14.6599 25.7571 14.6093 25.6296 14.6093C25.502 14.6093 25.3796 14.6599 25.2894 14.7502L24.8439 15.1957C24.7306 15.1441 24.6157 15.0964 24.4992 15.0528V14.4225C24.4992 14.2949 24.4485 14.1725 24.3583 14.0823C24.2681 13.9921 24.1457 13.9414 24.0181 13.9414L21.2248 13.9416ZM21.7059 14.9037H23.5371V15.3969C23.5371 15.5004 23.5705 15.6012 23.6324 15.6843C23.6943 15.7673 23.7812 15.8282 23.8805 15.8578C24.1687 15.944 24.4474 16.0594 24.7121 16.2024C24.8033 16.2516 24.9078 16.2701 25.0103 16.2552C25.1128 16.2402 25.2077 16.1926 25.2809 16.1193L25.6296 15.7707L26.9244 17.0655L26.5758 17.4142C26.5025 17.4874 26.4549 17.5823 26.4399 17.6848C26.425 17.7873 26.4435 17.8918 26.4927 17.983C26.6356 18.2477 26.7511 18.5264 26.8373 18.8146C26.8669 18.9139 26.9278 19.0008 27.0108 19.0627C27.0939 19.1246 27.1947 19.158 27.2982 19.158H27.7914V19.7356H25.1148C24.9484 18.51 23.8909 17.5574 22.6215 17.5574C21.3521 17.5574 20.2946 18.51 20.1282 19.7356H17.4516V19.158H17.9458C18.0492 19.158 18.1498 19.1246 18.2328 19.063C18.3158 19.0013 18.3767 18.9145 18.4065 18.8155C18.493 18.5278 18.6088 18.2497 18.752 17.9856C18.8014 17.8945 18.82 17.7898 18.8051 17.6872C18.7902 17.5845 18.7426 17.4895 18.6692 17.4162L18.3186 17.0655L19.6134 15.7707L19.964 16.1213C20.0374 16.1947 20.1324 16.2423 20.235 16.2572C20.3377 16.2721 20.4423 16.2535 20.5335 16.2041C20.7976 16.0608 21.0757 15.9451 21.3634 15.8585C21.4624 15.8287 21.5492 15.7679 21.6108 15.6849C21.6725 15.6019 21.7059 15.5013 21.7059 15.3979V14.9037ZM22.6215 18.5195C23.3693 18.5195 23.9867 19.0364 24.1393 19.7356H21.1037C21.2563 19.0364 21.8737 18.5195 22.6215 18.5195ZM16.1677 20.6977H29.0753C29.2169 20.6977 29.3158 20.7966 29.3158 20.9383V27.4971H26.6823C26.5813 27.4971 26.4828 27.5289 26.4009 27.588C26.319 27.6471 26.2577 27.7304 26.2258 27.8263L26.0312 28.4113H19.2118L19.0172 27.8263C18.9853 27.7304 18.924 27.6471 18.8421 27.588C18.7602 27.5289 18.6617 27.4971 18.5607 27.4971H15.9272V20.9383C15.9272 20.7966 16.0261 20.6977 16.1677 20.6977ZM14.9591 28.4592H15.4433C15.4445 28.4594 15.4457 28.4595 15.4469 28.4596C15.4482 28.4595 15.4494 28.4594 15.4506 28.4592H18.2155L18.4101 29.0442C18.442 29.1401 18.5033 29.2234 18.5852 29.2825C18.6671 29.3416 18.7656 29.3734 18.8666 29.3734H26.3798C26.4808 29.3734 26.5792 29.3416 26.6612 29.2825C26.7431 29.2235 26.8043 29.1401 26.8362 29.0442L27.0309 28.4592H29.7958C29.797 28.4594 29.7982 28.4595 29.7994 28.4596C29.8006 28.4595 29.8018 28.4594 29.8031 28.4592H30.2872V30.3395H14.9625L14.9591 28.4592Z" fill="#88898A" stroke="#E49273" stroke-width="2" mask="url(#path-2-inside-1_10712_18752)"/>
</g>
<defs>
<clipPath id="clip0_10712_18752">
<rect width="20" height="20" fill="white" transform="translate(13 13)"/>
</clipPath>
</defs>
</svg>
