<svg width="64" height="64" viewBox="0 0 64 64" fill="none" xmlns="http://www.w3.org/2000/svg">
<g clip-path="url(#clip0_5720_28373)">
<path d="M17.0098 21.5167L23.6915 12L27.4891 12.9791L23.1226 19.6561L26.3765 20.8723L31.0138 13.8983L35.1829 14.9732L30.6839 22.4639L33.8197 23.6385L38.7135 15.873L43.8752 17.2034L36.0053 29.1795L17.0098 21.5167Z" fill="#333232"/>
<path d="M30.2217 38.0747L34.8233 30.9769L38.5067 36.2925L39.6996 34.4687L36.0046 29.1792L43.8745 17.2031L50.9211 31.0862L44.4667 41.2957L42.3245 38.3669L41.0561 40.1472L43.2389 43.2375L38.7118 50.3982L30.2207 38.0747H30.2217Z" fill="#F17C1D"/>
<path d="M38.7114 50.3977L36.6274 47.3722L36.6254 47.3751L34.5481 44.3748C34.2124 43.8881 33.7461 42.8538 33.2033 42.6187L16.5956 35.4396C15.9454 35.159 15.3368 35.9098 15.7461 36.4875L18.8383 40.8549C19.3743 41.6115 20.1058 43.026 20.9553 43.3995L38.7105 50.3977H38.7114ZM32.6653 46.2092L23.5086 42.1504C23.0055 41.9269 22.5885 41.6473 22.304 41.3416L21.0298 39.9725C20.8072 39.7335 21.2417 39.5671 21.6354 39.7403L31.067 43.8784C31.3891 44.0197 31.6542 44.1987 31.8323 44.3941L33.2758 45.9809C33.4926 46.2199 33.0562 46.3834 32.6653 46.2092Z" fill="#231F20"/>
<path d="M13.6019 33.4399L11.0176 29.8639L23.8026 29.9297L13.8273 26.0499L15.8794 23.127L34.8228 30.9765L32.6681 34.3203L20.4849 33.9111L30.2221 38.0744L32.937 42.0422L13.6019 33.4399Z" fill="white"/>
<path d="M17.0098 21.5167L23.6915 12L27.4891 12.9791L23.1226 19.6561L26.3764 20.8723L31.0138 13.8983L35.1829 14.9732L30.6839 22.4639L33.8197 23.6385L38.7135 15.873L43.8752 17.2034L36.0053 29.1795L17.0098 21.5167Z" fill="white"/>
<path d="M30.2217 38.0747L34.8233 30.9769L38.5067 36.2925L39.6996 34.4687L36.0046 29.1792L43.8745 17.2031L50.9211 31.0862L44.4667 41.2957L42.3245 38.3669L41.0561 40.1472L43.2389 43.2375L38.7118 50.3982L30.2207 38.0747H30.2217Z" fill="#F17C1D"/>
<path d="M38.7114 50.3977L36.6274 47.3722L36.6254 47.3751L34.5481 44.3748C34.2124 43.8881 33.7461 42.8538 33.2033 42.6187L16.5956 35.4396C15.9454 35.159 15.3368 35.9098 15.7461 36.4875L18.8383 40.8549C19.3743 41.6115 20.1058 43.026 20.9553 43.3995L38.7105 50.3977H38.7114ZM32.6653 46.2092L23.5086 42.1504C23.0055 41.9269 22.5885 41.6473 22.304 41.3416L21.0298 39.9725C20.8072 39.7335 21.2417 39.5671 21.6354 39.7403L31.067 43.8784C31.3891 44.0197 31.6542 44.1987 31.8323 44.3941L33.2758 45.9809C33.4926 46.2199 33.0562 46.3834 32.6653 46.2092Z" fill="#88898A"/>
<path d="M32.9361 42.0416L30.2212 38.0738L11.0176 29.8633L13.6019 33.4393L32.9361 42.0416Z" fill="#88898A"/>
</g>
<circle cx="31.7396" cy="31.7396" r="31.0396" stroke="#E49273" stroke-width="1.4"/>
<defs>
<clipPath id="clip0_5720_28373">
<rect width="39.9367" height="38.4044" fill="white" transform="translate(11 12)"/>
</clipPath>
</defs>
</svg>
