<svg width="64" height="64" viewBox="0 0 64 64" fill="none" xmlns="http://www.w3.org/2000/svg">
<path d="M37.3335 23.9999C37.3335 25.4144 36.7716 26.771 35.7714 27.7712C34.7712 28.7713 33.4147 29.3333 32.0002 29.3333H16.0002L5.3335 39.9999V10.6666C5.3335 7.73325 7.7335 5.33325 10.6668 5.33325H32.0002C33.4147 5.33325 34.7712 5.89515 35.7714 6.89535C36.7716 7.89554 37.3335 9.2521 37.3335 10.6666V23.9999Z" fill="#E49273" stroke="#E49273" stroke-width="2" stroke-linecap="round" stroke-linejoin="round"/>
<path d="M47.9998 24H53.3332C54.7477 24 56.1042 24.5619 57.1044 25.5621C58.1046 26.5623 58.6665 27.9188 58.6665 29.3333V58.6667L47.9998 48H31.9998C30.5853 48 29.2288 47.4381 28.2286 46.4379C27.2284 45.4377 26.6665 44.0812 26.6665 42.6667V40" fill="#E49273"/>
<path d="M47.9998 24H53.3332C54.7477 24 56.1042 24.5619 57.1044 25.5621C58.1046 26.5623 58.6665 27.9188 58.6665 29.3333V58.6667L47.9998 48H31.9998C30.5853 48 29.2288 47.4381 28.2286 46.4379C27.2284 45.4377 26.6665 44.0812 26.6665 42.6667V40" stroke="#E49273" stroke-width="2" stroke-linecap="round" stroke-linejoin="round"/>
</svg>
