<svg width="512" height="512" viewBox="0 0 512 512" fill="none" xmlns="http://www.w3.org/2000/svg">
<path d="M275.247 422.743C265.944 422.743 257.866 421.793 251.529 420.654C237.351 418.109 228.572 414.095 228.484 414.054C228.266 413.952 228.171 413.694 228.272 413.473C228.373 413.255 228.632 413.16 228.85 413.261C228.936 413.3 237.639 417.276 251.716 419.801C264.7 422.13 285.05 423.666 308.243 417.753C308.477 417.695 308.714 417.835 308.775 418.068C308.835 418.302 308.693 418.54 308.459 418.6C296.421 421.668 285.142 422.743 275.247 422.743Z" fill="#F4F4F4"/>
<path d="M266.94 429.647C263.554 429.647 259.434 429.486 254.847 428.976C243.295 427.693 226.327 423.882 211.094 413.008C210.897 412.868 210.853 412.596 210.993 412.401C211.133 412.204 211.404 412.16 211.6 412.298C240.459 432.895 276.023 428.339 276.377 428.29C276.616 428.257 276.836 428.427 276.869 428.664C276.903 428.904 276.735 429.124 276.496 429.157C276.439 429.165 272.787 429.647 266.94 429.647Z" fill="#F4F4F4"/>
<path d="M311.907 107.525C311.819 107.525 311.728 107.5 311.653 107.445C311.552 107.375 301.539 100.355 282.955 96.2691C265.799 92.4944 237.625 90.5205 200.814 102.54C200.585 102.618 200.339 102.49 200.264 102.261C200.189 102.033 200.314 101.787 200.543 101.711C237.568 89.6214 265.925 91.6205 283.196 95.4278C301.936 99.5566 312.057 106.664 312.158 106.734C312.356 106.875 312.399 107.146 312.261 107.342C312.175 107.463 312.042 107.525 311.907 107.525Z" fill="#F4F4F4"/>
<path d="M323.95 104.656C323.847 104.656 323.747 104.62 323.663 104.548C323.573 104.471 314.521 96.7489 296.679 91.1335C280.205 85.9492 252.656 81.5503 214.962 90.0402C214.726 90.0941 214.493 89.9452 214.44 89.7116C214.388 89.4755 214.536 89.242 214.769 89.1881C252.683 80.6494 280.41 85.0894 296.994 90.3173C314.991 95.9918 324.145 103.812 324.235 103.889C324.417 104.048 324.435 104.323 324.279 104.505C324.194 104.605 324.073 104.656 323.95 104.656Z" fill="#F4F4F4"/>
<path d="M340.048 106.373C339.46 106.373 338.95 106.235 338.513 105.961C337.472 105.305 337.306 104.144 337.146 103.023C336.995 101.965 336.852 100.968 336.037 100.33C335.065 99.5682 333.771 99.8622 332.404 100.174C330.904 100.516 329.351 100.87 328.046 99.8723C326.891 98.9878 326.74 97.6258 326.604 96.4272C326.476 95.2763 326.365 94.2837 325.498 93.766C324.76 93.3238 323.903 93.4821 322.996 93.648C321.933 93.8414 320.732 94.0626 319.714 93.1931C319.181 92.7383 318.978 92.2257 318.799 91.7733C318.621 91.3286 318.483 90.9768 318.055 90.7129C317.367 90.2857 316.357 90.3335 315.042 90.8486C314.816 90.9366 314.565 90.826 314.475 90.6024C314.387 90.3787 314.497 90.1249 314.721 90.037C316.304 89.4138 317.583 89.3912 318.515 89.9691C319.186 90.3863 319.412 90.9542 319.608 91.4517C319.772 91.8613 319.912 92.2156 320.282 92.5297C320.98 93.1278 321.842 92.972 322.84 92.7885C323.817 92.6101 324.926 92.4066 325.946 93.0147C327.185 93.756 327.33 95.0652 327.474 96.3292C327.597 97.4574 327.717 98.5204 328.577 99.1787C329.559 99.9276 330.846 99.6336 332.21 99.322C333.718 98.9802 335.276 98.6234 336.578 99.6436C337.666 100.495 337.849 101.772 338.01 102.9C338.153 103.91 338.279 104.78 338.977 105.222C339.962 105.843 341.754 105.391 344.154 103.915C344.36 103.79 344.629 103.853 344.757 104.059C344.883 104.262 344.82 104.531 344.611 104.659C342.749 105.803 341.239 106.373 340.048 106.373Z" fill="#F4F4F4"/>
<path d="M90.7875 300.984C90.6951 300.984 90.602 300.955 90.5229 300.895C90.3314 300.749 90.295 300.474 90.4414 300.283L92.4986 297.595C92.6456 297.404 92.9191 297.367 93.1103 297.513C93.3019 297.659 93.3383 297.933 93.1919 298.124L91.1347 300.813C91.0486 300.926 90.9188 300.984 90.7875 300.984Z" fill="#F4F4F4"/>
<path d="M85.9958 307.247C85.9031 307.247 85.81 307.218 85.731 307.158C85.5394 307.011 85.503 306.737 85.6492 306.546L87.7062 303.857C87.8534 303.667 88.1276 303.63 88.3182 303.776C88.5096 303.922 88.5462 304.196 88.3997 304.387L86.3427 307.076C86.2567 307.189 86.127 307.247 85.9958 307.247Z" fill="#F4F4F4"/>
<path d="M87.6338 301.403C87.5411 301.403 87.4478 301.374 87.369 301.314L84.6802 299.256C84.4886 299.11 84.4522 298.835 84.5986 298.644C84.7458 298.452 85.0195 298.417 85.2103 298.563L87.8991 300.621C88.0907 300.767 88.1271 301.039 87.9807 301.232C87.8947 301.343 87.7648 301.403 87.6338 301.403Z" fill="#F4F4F4"/>
<path d="M93.8974 306.194C93.8048 306.194 93.7117 306.165 93.6327 306.105L90.9438 304.047C90.7523 303.901 90.7159 303.628 90.8623 303.435C91.0093 303.245 91.2836 303.208 91.474 303.354L94.1628 305.412C94.3544 305.558 94.3908 305.832 94.2444 306.023C94.1583 306.136 94.0285 306.194 93.8974 306.194Z" fill="#F4F4F4"/>
<path d="M354.057 116.963C352.251 117.774 351.428 119.94 352.225 121.788C352.615 122.692 353.326 123.383 354.226 123.733C355.106 124.074 356.068 124.051 356.929 123.663C358.737 122.849 359.56 120.685 358.761 118.835C358.372 117.932 357.662 117.243 356.762 116.892C355.88 116.549 354.92 116.575 354.057 116.963ZM355.496 124.846C354.96 124.846 354.426 124.747 353.909 124.547C352.789 124.11 351.905 123.254 351.425 122.134C350.44 119.851 351.461 117.174 353.7 116.165C354.777 115.681 355.976 115.65 357.077 116.078C358.198 116.513 359.08 117.37 359.562 118.489C360.548 120.775 359.527 123.451 357.288 124.458C356.712 124.716 356.105 124.846 355.496 124.846Z" fill="#F4F4F4"/>
<path d="M417.474 131.884H416.132L391.566 395.9H394.47C400.656 395.9 406.108 390.885 406.648 384.699L427.699 143.087C428.239 136.901 423.663 131.884 417.474 131.884Z" fill="#1D1B1B"/>
<path d="M392.049 395.465H394.472C400.429 395.465 405.697 390.618 406.214 384.663L427.267 143.048C427.516 140.172 426.632 137.471 424.775 135.446C422.93 133.43 420.337 132.322 417.476 132.322H416.53L392.049 395.465ZM394.472 396.337H391.57C391.445 396.337 391.331 396.286 391.246 396.195C391.165 396.103 391.124 395.983 391.134 395.86L415.7 131.846C415.72 131.622 415.909 131.448 416.133 131.448H417.476C420.584 131.448 423.404 132.658 425.417 134.857C427.442 137.064 428.408 140.001 428.135 143.125L407.083 384.739C406.525 391.134 400.869 396.337 394.472 396.337Z" fill="#F4F4F4"/>
<path d="M412.017 131.885H135.464C129.278 131.885 123.826 136.898 123.287 143.084L102.235 384.699C101.695 390.885 106.273 395.9 112.459 395.9H389.013C395.198 395.9 400.65 390.885 401.19 384.699L422.241 143.084C422.781 136.898 418.202 131.885 412.017 131.885Z" fill="#1D1B1B"/>
<path d="M135.462 132.322C129.506 132.322 124.239 137.167 123.72 143.123L102.667 384.738C102.417 387.614 103.302 390.315 105.159 392.34C107.006 394.355 109.598 395.464 112.457 395.464H389.008C394.964 395.464 400.231 390.619 400.752 384.663L421.803 143.048C422.052 140.172 421.17 137.471 419.312 135.445C417.464 133.431 414.872 132.322 412.013 132.322H135.462ZM389.008 396.337H112.457C109.35 396.337 106.529 395.128 104.515 392.93C102.491 390.722 101.526 387.785 101.798 384.663L122.851 143.048C123.408 136.652 129.065 131.45 135.462 131.45H412.013C415.121 131.45 417.942 132.659 419.955 134.856C421.979 137.064 422.945 140.001 422.673 143.123L401.619 384.738C401.063 391.134 395.404 396.337 389.008 396.337Z" fill="#F4F4F4"/>
<path d="M404.331 177.133H135.331C135.09 177.133 134.895 176.938 134.895 176.698C134.895 176.455 135.09 176.261 135.331 176.261H404.331C404.574 176.261 404.769 176.455 404.769 176.698C404.769 176.938 404.574 177.133 404.331 177.133Z" fill="#F4F4F4"/>
<path d="M220.978 380.806C220.966 380.806 220.953 380.806 220.941 380.806C220.699 380.784 220.522 380.572 220.544 380.333L240.595 150.2C240.615 149.96 240.825 149.78 241.067 149.803C241.309 149.825 241.487 150.037 241.465 150.277L221.412 380.409C221.393 380.634 221.202 380.806 220.978 380.806Z" fill="#F4F4F4"/>
<path d="M279.328 378.98C279.317 378.98 279.305 378.979 279.292 378.979C279.05 378.957 278.874 378.745 278.895 378.505L298.947 148.373C298.967 148.134 299.182 147.953 299.419 147.977C299.658 147.996 299.837 148.21 299.815 148.449L279.763 378.581C279.744 378.809 279.552 378.98 279.328 378.98Z" fill="#F4F4F4"/>
<path d="M165.825 380.806C165.813 380.806 165.8 380.806 165.787 380.806C165.547 380.784 165.369 380.572 165.39 380.333L185.442 150.2C185.463 149.96 185.672 149.78 185.915 149.803C186.155 149.825 186.332 150.037 186.311 150.277L166.26 380.409C166.24 380.634 166.049 380.806 165.825 380.806Z" fill="#F4F4F4"/>
<path d="M339.772 379.439C339.757 379.439 339.746 379.439 339.733 379.438C339.492 379.416 339.316 379.206 339.335 378.965L359.387 148.833C359.408 148.595 359.628 148.414 359.86 148.438C360.101 148.459 360.277 148.67 360.258 148.911L340.206 379.04C340.187 379.268 339.996 379.439 339.772 379.439Z" fill="#F4F4F4"/>
<path d="M193.427 169.464H231.386L232.533 152.288H194.575L193.427 169.464ZM231.793 170.336H192.961C192.84 170.336 192.725 170.287 192.642 170.199C192.56 170.11 192.517 169.993 192.525 169.871L193.732 151.823C193.746 151.595 193.937 151.416 194.167 151.416H233C233.122 151.416 233.237 151.465 233.318 151.554C233.401 151.642 233.442 151.761 233.435 151.881L232.231 169.929C232.214 170.159 232.024 170.336 231.793 170.336Z" fill="#F4F4F4"/>
<path d="M249.051 169.464H287.008L288.158 152.288H250.198L249.051 169.464ZM287.418 170.336H248.584C248.464 170.336 248.349 170.287 248.266 170.199C248.183 170.11 248.14 169.993 248.149 169.871L249.355 151.823C249.368 151.595 249.56 151.416 249.79 151.416H288.622C288.746 151.416 288.859 151.465 288.942 151.554C289.025 151.642 289.066 151.761 289.06 151.881L287.853 169.929C287.838 170.159 287.648 170.336 287.418 170.336Z" fill="#F4F4F4"/>
<path d="M139.632 169.464H177.591L178.739 152.288H140.78L139.632 169.464ZM177.999 170.336H139.166C139.045 170.336 138.93 170.287 138.847 170.199C138.765 170.11 138.723 169.993 138.73 169.871L139.936 151.823C139.952 151.595 140.142 151.416 140.372 151.416H179.205C179.326 151.416 179.441 151.465 179.524 151.554C179.606 151.642 179.649 151.761 179.641 151.881L178.435 169.929C178.419 170.159 178.229 170.336 177.999 170.336Z" fill="#F4F4F4"/>
<path d="M367.682 169.463H405.641L406.789 152.288H368.83L367.682 169.463ZM406.048 170.334H367.215C367.094 170.334 366.98 170.286 366.898 170.196C366.813 170.109 366.772 169.99 366.782 169.869L367.985 151.82C368.002 151.593 368.193 151.414 368.423 151.414H407.256C407.377 151.414 407.491 151.465 407.575 151.552C407.655 151.641 407.699 151.76 407.692 151.879L406.484 169.927C406.469 170.157 406.278 170.334 406.048 170.334Z" fill="#F4F4F4"/>
<path d="M309.387 169.158H347.344L348.492 151.982H310.535L309.387 169.158ZM347.754 170.031H308.92C308.8 170.031 308.685 169.98 308.602 169.893C308.519 169.803 308.476 169.686 308.484 169.564L309.69 151.517C309.707 151.287 309.895 151.109 310.126 151.109H348.96C349.081 151.109 349.197 151.158 349.278 151.248C349.361 151.336 349.401 151.455 349.395 151.575L348.189 169.624C348.174 169.852 347.982 170.031 347.754 170.031Z" fill="#F4F4F4"/>
<path d="M334.65 378.786H284.015L289.882 311.457H340.517L334.65 378.786Z" fill="#1D1B1B"/>
<path d="M230.685 325.469H279.625L285.322 259.014H236.382L230.685 325.469ZM280.026 326.343H230.208C230.087 326.343 229.971 326.29 229.887 326.201C229.805 326.111 229.764 325.99 229.774 325.87L235.545 258.538C235.564 258.315 235.753 258.139 235.981 258.139H285.799C285.92 258.139 286.036 258.192 286.12 258.281C286.202 258.371 286.243 258.492 286.233 258.614L280.46 325.944C280.443 326.169 280.254 326.343 280.026 326.343Z" fill="#F4F4F4"/>
<path d="M172.282 227.312H126.562L129.99 185.056H175.709L172.282 227.312Z" fill="#1D1B1B"/>
<path d="M358.494 228.415C358.482 228.415 358.472 228.415 358.46 228.413C358.218 228.393 358.039 228.182 358.058 227.943L361.484 185.686C361.504 185.461 361.693 185.287 361.92 185.287H407.642C407.763 185.287 407.879 185.338 407.961 185.427C408.044 185.517 408.085 185.636 408.075 185.757L406.253 208.24C406.234 208.478 406.021 208.66 405.781 208.638C405.543 208.618 405.364 208.408 405.383 208.168L407.169 186.159H362.323L358.928 228.013C358.911 228.241 358.72 228.415 358.494 228.415Z" fill="#F4F4F4"/>
<path d="M348.968 342.055H393.812L397.171 300.673H352.324L348.968 342.055ZM394.214 342.929H348.495C348.375 342.929 348.257 342.876 348.174 342.787C348.092 342.697 348.051 342.578 348.061 342.456L351.488 300.202C351.504 299.974 351.696 299.801 351.922 299.801H397.641C397.764 299.801 397.882 299.851 397.962 299.941C398.047 300.03 398.087 300.149 398.078 300.272L394.651 342.528C394.632 342.753 394.443 342.929 394.214 342.929Z" fill="#F4F4F4"/>
<path d="M298.314 227.803C298.301 227.803 298.289 227.803 298.277 227.801C298.037 227.782 297.858 227.572 297.879 227.33L301.401 185.075C301.419 184.85 301.607 184.675 301.836 184.675H348.831C348.951 184.675 349.068 184.726 349.153 184.817C349.233 184.906 349.274 185.025 349.264 185.147L348.948 188.931C348.93 189.17 348.722 189.35 348.478 189.329C348.239 189.311 348.06 189.098 348.08 188.859L348.355 185.549H302.236L298.747 227.405C298.73 227.632 298.539 227.803 298.314 227.803Z" fill="#F4F4F4"/>
<path d="M286.943 227.387H239.523L243.077 185.131H290.496L286.943 227.387Z" fill="#1D1B1B"/>
<path d="M165.038 319.33H117.619C117.497 319.33 117.38 319.279 117.298 319.188C117.215 319.098 117.174 318.978 117.184 318.857L120.739 276.601C120.758 276.375 120.947 276.202 121.174 276.202H142.203C142.444 276.202 142.64 276.397 142.64 276.638C142.64 276.88 142.444 277.074 142.203 277.074H121.575L118.094 318.458H164.637L167.551 283.815C167.571 283.575 167.778 283.394 168.022 283.416C168.263 283.437 168.441 283.647 168.421 283.887L165.473 318.929C165.454 319.157 165.265 319.33 165.038 319.33Z" fill="#F4F4F4"/>
<path d="M226.718 268.851H179.298L182.852 226.595H230.271L226.718 268.851Z" fill="#1D1B1B"/>
<path d="M334.65 379.221H322.363C322.122 379.221 321.927 379.026 321.927 378.784C321.927 378.543 322.122 378.348 322.363 378.348H334.25L340.04 311.892H290.281L289.545 320.322C289.525 320.563 289.31 320.745 289.075 320.719C288.833 320.698 288.656 320.488 288.676 320.246L289.447 311.417C289.465 311.193 289.654 311.019 289.879 311.019H340.515C340.638 311.019 340.754 311.07 340.839 311.159C340.921 311.251 340.961 311.372 340.951 311.492L335.082 378.821C335.064 379.047 334.875 379.221 334.65 379.221Z" fill="#F4F4F4"/>
<path d="M173.128 217.33C173.116 217.33 173.104 217.33 173.092 217.328C172.852 217.309 172.673 217.098 172.692 216.859L175.236 185.493H153.545C153.304 185.493 153.108 185.298 153.108 185.057C153.108 184.815 153.304 184.62 153.545 184.62H175.709C175.831 184.62 175.947 184.671 176.03 184.761C176.113 184.85 176.154 184.971 176.144 185.092L173.562 216.929C173.544 217.157 173.353 217.33 173.128 217.33Z" fill="#F4F4F4"/>
<path d="M148.285 227.749H126.563C126.441 227.749 126.325 227.698 126.242 227.609C126.16 227.519 126.118 227.399 126.128 227.278L129.556 185.022C129.574 184.796 129.763 184.621 129.99 184.621H138.83C139.071 184.621 139.266 184.816 139.266 185.057C139.266 185.299 139.071 185.493 138.83 185.493H130.393L127.037 226.877H148.285C148.526 226.877 148.721 227.071 148.721 227.313C148.721 227.554 148.526 227.749 148.285 227.749Z" fill="#F4F4F4"/>
<path d="M251.188 227.823H239.523C239.401 227.823 239.284 227.773 239.202 227.683C239.118 227.593 239.078 227.473 239.087 227.35L242.643 185.096C242.662 184.87 242.851 184.695 243.077 184.695H272.585C272.827 184.695 273.022 184.892 273.022 185.133C273.022 185.373 272.827 185.569 272.585 185.569H243.478L239.999 226.951H251.188C251.427 226.951 251.624 227.148 251.624 227.387C251.624 227.629 251.427 227.823 251.188 227.823Z" fill="#F4F4F4"/>
<path d="M181.387 244.45C181.375 244.45 181.363 244.45 181.35 244.448C181.11 244.429 180.932 244.219 180.952 243.977L182.417 226.559C182.436 226.333 182.625 226.16 182.852 226.16H195.552C195.792 226.16 195.988 226.355 195.988 226.596C195.988 226.838 195.792 227.032 195.552 227.032H183.253L181.822 244.051C181.802 244.279 181.612 244.45 181.387 244.45Z" fill="#F4F4F4"/>
<path d="M214.474 269.288H179.299C179.177 269.288 179.06 269.237 178.978 269.148C178.895 269.056 178.854 268.938 178.864 268.815L179.906 256.426C179.926 256.187 180.131 256.006 180.377 256.029C180.618 256.048 180.796 256.261 180.776 256.5L179.773 268.416H214.474C214.713 268.416 214.91 268.611 214.91 268.852C214.91 269.093 214.713 269.288 214.474 269.288Z" fill="#F4F4F4"/>
<path d="M228.937 242.894C228.926 242.894 228.912 242.894 228.9 242.892C228.661 242.872 228.482 242.662 228.501 242.42L229.796 227.031H217.851C217.61 227.031 217.415 226.837 217.415 226.595C217.415 226.354 217.61 226.159 217.851 226.159H230.271C230.394 226.159 230.511 226.21 230.592 226.299C230.674 226.391 230.717 226.51 230.705 226.632L229.372 242.494C229.352 242.722 229.161 242.894 228.937 242.894Z" fill="#F4F4F4"/>
<path d="M178.862 126.492C178.862 153.57 156.91 175.521 129.831 175.521C102.753 175.521 80.8008 153.57 80.8008 126.492C80.8008 99.4132 102.753 77.4602 129.831 77.4602C156.91 77.4602 178.862 99.4132 178.862 126.492Z" fill="#E49273"/>
<path d="M173.976 126.504C173.976 150.923 154.182 170.717 129.765 170.717C105.348 170.717 85.5537 150.923 85.5537 126.504C85.5537 102.088 105.348 82.2937 129.765 82.2937C154.182 82.2937 173.976 102.088 173.976 126.504Z" fill="#1D1B1B"/>
<path d="M164.948 150.604C164.864 150.604 164.779 150.58 164.704 150.529C164.504 150.394 164.452 150.124 164.587 149.923C165.851 148.051 166.971 146.066 167.915 144.017C168.016 143.799 168.275 143.703 168.494 143.803C168.713 143.905 168.808 144.165 168.707 144.383C167.744 146.473 166.601 148.5 165.31 150.412C165.225 150.536 165.088 150.604 164.948 150.604Z" fill="#F4F4F4"/>
<path d="M171.722 133.199C171.7 133.199 171.679 133.197 171.657 133.194C171.419 133.159 171.254 132.937 171.289 132.697C171.592 130.657 171.746 128.568 171.746 126.49C171.746 110.532 162.463 95.719 148.096 88.7526C147.879 88.6467 147.788 88.3869 147.893 88.17C147.999 87.9531 148.26 87.8623 148.477 87.9682C155.603 91.4237 161.63 96.7834 165.906 103.47C170.298 110.338 172.619 118.298 172.619 126.49C172.619 128.611 172.462 130.743 172.153 132.826C172.121 133.043 171.934 133.199 171.722 133.199Z" fill="#F4F4F4"/>
<path d="M119.304 85.8906C119.11 85.8906 118.932 85.7606 118.882 85.5642C118.822 85.3295 118.963 85.0923 119.197 85.0311C125.702 83.3683 132.699 83.2688 139.253 84.7429C139.488 84.794 139.635 85.0286 139.583 85.2632C139.53 85.4979 139.297 85.6458 139.061 85.5948C132.641 84.1513 125.785 84.2482 119.413 85.8779C119.376 85.8881 119.34 85.8906 119.304 85.8906Z" fill="#F4F4F4"/>
<path d="M91.0574 109.861C90.9986 109.861 90.9388 109.849 90.8816 109.824C90.661 109.728 90.561 109.471 90.6583 109.249C92.721 104.569 95.5833 100.332 99.1657 96.65C99.3343 96.4772 99.6101 96.4747 99.7828 96.6426C99.9556 96.8106 99.9593 97.0871 99.7911 97.26C96.2816 100.865 93.4774 105.019 91.4569 109.602C91.3848 109.765 91.225 109.861 91.0574 109.861Z" fill="#F4F4F4"/>
<path d="M107.193 162.729C107.114 162.729 107.033 162.707 106.96 162.661C103.342 160.37 100.093 157.553 97.3039 154.293C97.1475 154.111 97.1687 153.835 97.3518 153.679C97.5351 153.522 97.8104 153.543 97.9671 153.727C100.7 156.919 103.883 159.679 107.427 161.923C107.631 162.052 107.691 162.322 107.562 162.525C107.479 162.656 107.338 162.729 107.193 162.729Z" fill="#F4F4F4"/>
<path d="M132.133 88.5532C132.133 89.8268 131.102 90.8574 129.829 90.8574C128.556 90.8574 127.524 89.8268 127.524 88.5532C127.524 87.2795 128.556 86.2489 129.829 86.2489C131.102 86.2489 132.133 87.2795 132.133 88.5532Z" fill="#1D1B1B"/>
<path d="M129.831 86.6841C128.801 86.6841 127.963 87.5231 127.963 88.5523C127.963 89.5839 128.801 90.4204 129.831 90.4204C130.861 90.4204 131.699 89.5839 131.699 88.5523C131.699 87.5231 130.861 86.6841 129.831 86.6841ZM129.831 91.2949C128.319 91.2949 127.09 90.0655 127.09 88.5523C127.09 87.0415 128.319 85.8122 129.831 85.8122C131.342 85.8122 132.572 87.0415 132.572 88.5523C132.572 90.0655 131.342 91.2949 129.831 91.2949Z" fill="#F4F4F4"/>
<path d="M132.133 164.426C132.133 165.699 131.102 166.73 129.829 166.73C128.556 166.73 127.524 165.699 127.524 164.426C127.524 163.153 128.556 162.122 129.829 162.122C131.102 162.122 132.133 163.153 132.133 164.426Z" fill="#1D1B1B"/>
<path d="M129.831 162.56C128.801 162.56 127.963 163.398 127.963 164.426C127.963 165.457 128.801 166.295 129.831 166.295C130.861 166.295 131.699 165.457 131.699 164.426C131.699 163.398 130.861 162.56 129.831 162.56ZM129.831 167.168C128.319 167.168 127.09 165.939 127.09 164.426C127.09 162.916 128.319 161.686 129.831 161.686C131.342 161.686 132.572 162.916 132.572 164.426C132.572 165.939 131.342 167.168 129.831 167.168Z" fill="#F4F4F4"/>
<path d="M91.8923 124.185C93.1648 124.185 94.1968 125.217 94.1968 126.489C94.1968 127.763 93.1648 128.793 91.8923 128.793C90.6196 128.793 89.5879 127.763 89.5879 126.489C89.5879 125.217 90.6196 124.185 91.8923 124.185Z" fill="#1D1B1B"/>
<path d="M91.8893 124.622C90.8593 124.622 90.0211 125.46 90.0211 126.491C90.0211 127.52 90.8593 128.358 91.8893 128.358C92.9194 128.358 93.7572 127.52 93.7572 126.491C93.7572 125.46 92.9194 124.622 91.8893 124.622ZM91.8893 129.23C90.378 129.23 89.1484 128.001 89.1484 126.491C89.1484 124.979 90.378 123.749 91.8893 123.749C93.4003 123.749 94.6301 124.979 94.6301 126.491C94.6301 128.001 93.4003 129.23 91.8893 129.23Z" fill="#F4F4F4"/>
<path d="M167.767 124.185C169.04 124.185 170.072 125.217 170.072 126.489C170.072 127.763 169.04 128.793 167.767 128.793C166.495 128.793 165.463 127.763 165.463 126.489C165.463 125.217 166.495 124.185 167.767 124.185Z" fill="#1D1B1B"/>
<path d="M167.767 124.622C166.737 124.622 165.899 125.46 165.899 126.491C165.899 127.52 166.737 128.358 167.767 128.358C168.797 128.358 169.635 127.52 169.635 126.491C169.635 125.46 168.797 124.622 167.767 124.622ZM167.767 129.23C166.256 129.23 165.026 128.001 165.026 126.491C165.026 124.979 166.256 123.749 167.767 123.749C169.278 123.749 170.508 124.979 170.508 126.491C170.508 128.001 169.278 129.23 167.767 129.23Z" fill="#F4F4F4"/>
<path d="M111.923 93.0222C112.262 93.6086 112.061 94.3572 111.475 94.6966C110.888 95.036 110.138 94.8339 109.799 94.2474C109.461 93.661 109.662 92.9099 110.248 92.573C110.835 92.2336 111.585 92.4357 111.923 93.0222Z" fill="#1D1B1B"/>
<path d="M110.86 92.8444C110.724 92.8444 110.588 92.8794 110.467 92.9493C110.089 93.1691 109.96 93.6511 110.178 94.0282C110.395 94.4053 110.879 94.5352 111.257 94.3179C111.44 94.213 111.57 94.0432 111.625 93.8384C111.68 93.6361 111.651 93.4213 111.546 93.239C111.44 93.0567 111.27 92.9269 111.066 92.8719C110.998 92.852 110.929 92.8444 110.86 92.8444ZM110.864 95.2969C110.29 95.2969 109.729 94.9997 109.422 94.4653C108.963 93.6711 109.236 92.6521 110.03 92.1951C110.415 91.9729 110.863 91.9129 111.292 92.0278C111.721 92.1427 112.08 92.4174 112.302 92.802H112.302C112.524 93.1866 112.583 93.6361 112.468 94.0657C112.353 94.4927 112.078 94.8523 111.693 95.0746C111.432 95.2244 111.147 95.2969 110.864 95.2969Z" fill="#F4F4F4"/>
<path d="M96.3607 144.398C96.9471 144.058 97.6971 144.258 98.0359 144.846C98.3745 145.432 98.1735 146.181 97.5869 146.521C97.0005 146.86 96.2501 146.658 95.9115 146.072C95.5729 145.486 95.7739 144.735 96.3607 144.398Z" fill="#1D1B1B"/>
<path d="M96.9725 144.668C96.8384 144.668 96.703 144.701 96.5789 144.773C96.3962 144.878 96.2654 145.048 96.2109 145.253C96.1563 145.455 96.1843 145.669 96.2898 145.852C96.5076 146.229 96.9917 146.358 97.3689 146.14C97.5517 146.035 97.6823 145.865 97.737 145.66C97.7917 145.458 97.7636 145.244 97.6581 145.063C97.512 144.808 97.2457 144.668 96.9725 144.668ZM96.9769 147.119C96.4016 147.119 95.8419 146.82 95.534 146.288C95.0755 145.495 95.3487 144.474 96.1426 144.016C96.9354 143.558 97.9553 143.831 98.4141 144.625C98.6362 145.011 98.6949 145.458 98.58 145.887C98.4649 146.317 98.1899 146.674 97.8053 146.897C97.5442 147.047 97.2586 147.119 96.9769 147.119Z" fill="#F4F4F4"/>
<path d="M162.071 106.46C162.658 106.123 163.408 106.323 163.747 106.911C164.085 107.497 163.884 108.246 163.298 108.586C162.711 108.924 161.961 108.723 161.622 108.138C161.284 107.55 161.485 106.8 162.071 106.46Z" fill="#1D1B1B"/>
<path d="M162.684 106.73C162.547 106.73 162.412 106.767 162.29 106.837C162.107 106.943 161.977 107.114 161.922 107.317C161.867 107.519 161.895 107.734 162.001 107.915C162.107 108.098 162.277 108.228 162.481 108.284C162.684 108.339 162.898 108.31 163.08 108.204C163.263 108.101 163.393 107.929 163.448 107.727C163.502 107.522 163.475 107.309 163.369 107.126C163.264 106.943 163.093 106.812 162.89 106.757C162.822 106.74 162.752 106.73 162.684 106.73ZM162.688 109.184C162.543 109.184 162.398 109.164 162.255 109.128C161.826 109.012 161.467 108.737 161.245 108.351C161.023 107.968 160.964 107.519 161.079 107.09C161.194 106.66 161.469 106.303 161.854 106.082C162.238 105.86 162.686 105.799 163.116 105.915C163.544 106.031 163.903 106.306 164.125 106.689C164.347 107.075 164.406 107.522 164.291 107.951C164.176 108.38 163.901 108.74 163.516 108.962C163.26 109.109 162.976 109.184 162.688 109.184Z" fill="#F4F4F4"/>
<path d="M97.5869 106.46C98.1735 106.8 98.3743 107.55 98.0359 108.138C97.697 108.723 96.947 108.924 96.3606 108.586C95.7739 108.246 95.5729 107.497 95.9116 106.911C96.2502 106.323 97.0005 106.123 97.5869 106.46Z" fill="#1D1B1B"/>
<path d="M96.9735 106.732C96.7003 106.732 96.4341 106.872 96.2876 107.125C96.1824 107.308 96.1544 107.521 96.209 107.724C96.2637 107.929 96.3943 108.1 96.5772 108.204C96.9539 108.421 97.4383 108.293 97.6564 107.914C97.7617 107.733 97.7899 107.518 97.7351 107.316C97.6806 107.113 97.5498 106.942 97.3671 106.835C97.243 106.766 97.1074 106.732 96.9735 106.732ZM96.9691 109.184C96.6873 109.184 96.402 109.111 96.1409 108.959C95.3467 108.503 95.0735 107.482 95.532 106.688C95.9908 105.894 97.0099 105.622 97.8034 106.08C98.1881 106.302 98.4632 106.662 98.5783 107.089C98.6932 107.518 98.6343 107.967 98.4123 108.351C98.1046 108.884 97.5445 109.184 96.9691 109.184Z" fill="#F4F4F4"/>
<path d="M163.3 144.398C163.886 144.735 164.087 145.486 163.749 146.072C163.41 146.658 162.66 146.86 162.073 146.521C161.487 146.181 161.286 145.432 161.624 144.846C161.963 144.258 162.713 144.058 163.3 144.398Z" fill="#1D1B1B"/>
<path d="M162.686 144.667C162.618 144.667 162.549 144.676 162.481 144.695C162.277 144.75 162.107 144.881 162.001 145.062C161.895 145.245 161.867 145.458 161.922 145.663C161.976 145.866 162.107 146.036 162.29 146.14C162.473 146.247 162.686 146.275 162.889 146.221C163.093 146.167 163.264 146.036 163.369 145.853C163.475 145.67 163.503 145.456 163.448 145.253C163.393 145.048 163.263 144.878 163.08 144.774C162.958 144.702 162.823 144.667 162.686 144.667ZM162.682 147.121C162.394 147.121 162.11 147.045 161.854 146.897C161.469 146.676 161.194 146.317 161.079 145.888C160.964 145.458 161.023 145.011 161.245 144.626C161.467 144.242 161.826 143.965 162.255 143.852C162.684 143.736 163.132 143.795 163.516 144.018C163.901 144.24 164.176 144.597 164.291 145.027C164.406 145.456 164.347 145.905 164.125 146.289C163.903 146.674 163.544 146.949 163.115 147.062C162.972 147.101 162.827 147.121 162.682 147.121Z" fill="#F4F4F4"/>
<path d="M109.799 158.732C110.138 158.146 110.888 157.945 111.474 158.284C112.061 158.623 112.262 159.372 111.923 159.96C111.585 160.546 110.835 160.746 110.248 160.407C109.662 160.069 109.461 159.32 109.799 158.732Z" fill="#1D1B1B"/>
<path d="M110.177 158.95C109.96 159.327 110.09 159.811 110.467 160.029C110.844 160.247 111.328 160.117 111.546 159.74C111.651 159.558 111.679 159.344 111.625 159.141C111.57 158.938 111.44 158.768 111.257 158.661C110.879 158.443 110.396 158.573 110.177 158.95ZM110.859 161.008C110.577 161.008 110.292 160.937 110.03 160.786C109.236 160.327 108.963 159.309 109.422 158.514H109.422C109.88 157.72 110.899 157.448 111.693 157.907C112.078 158.127 112.353 158.487 112.468 158.915C112.583 159.344 112.524 159.793 112.302 160.178C111.994 160.71 111.434 161.008 110.859 161.008Z" fill="#F4F4F4"/>
<path d="M147.736 93.0222C148.075 92.4357 148.824 92.2336 149.411 92.573C149.998 92.9099 150.198 93.661 149.86 94.2474C149.521 94.8339 148.771 95.036 148.185 94.6966C147.598 94.3572 147.397 93.6086 147.736 93.0222Z" fill="#1D1B1B"/>
<path d="M148.8 92.8444C148.731 92.8444 148.662 92.852 148.594 92.8719C148.39 92.9269 148.22 93.0567 148.114 93.239C148.009 93.4213 147.981 93.6361 148.035 93.8384C148.09 94.0432 148.221 94.213 148.403 94.3179C148.78 94.5377 149.265 94.4078 149.483 94.0282C149.7 93.6511 149.571 93.1691 149.193 92.9493C149.072 92.8794 148.936 92.8444 148.8 92.8444ZM148.796 95.2969C148.514 95.2969 148.228 95.2244 147.967 95.0746C147.582 94.8523 147.307 94.4927 147.192 94.0657C147.077 93.6361 147.136 93.1866 147.359 92.802C147.581 92.4174 147.939 92.1427 148.368 92.0278C148.796 91.9129 149.245 91.9729 149.63 92.1951C150.014 92.4174 150.289 92.7745 150.404 93.2041C150.519 93.6336 150.461 94.0807 150.238 94.4653C149.931 94.9997 149.371 95.2969 148.796 95.2969Z" fill="#F4F4F4"/>
<path d="M147.736 159.303C148.074 158.716 148.824 158.516 149.411 158.854C149.997 159.192 150.198 159.942 149.86 160.529C149.521 161.116 148.771 161.317 148.185 160.978C147.598 160.64 147.397 159.89 147.736 159.303Z" fill="#1D1B1B"/>
<path d="M148.8 159.128C148.731 159.128 148.662 159.136 148.594 159.155C148.39 159.209 148.22 159.339 148.114 159.523C148.009 159.705 147.981 159.918 148.035 160.121C148.09 160.326 148.221 160.495 148.403 160.602C148.586 160.706 148.799 160.735 149.003 160.681C149.207 160.625 149.377 160.495 149.483 160.311C149.588 160.129 149.616 159.916 149.561 159.713C149.507 159.508 149.376 159.339 149.193 159.232C149.072 159.163 148.936 159.128 148.8 159.128ZM148.796 161.58C148.514 161.58 148.228 161.507 147.967 161.356C147.582 161.135 147.307 160.777 147.192 160.349C147.077 159.918 147.136 159.471 147.359 159.086C147.581 158.701 147.939 158.425 148.368 158.31C148.797 158.195 149.245 158.256 149.63 158.477C150.014 158.699 150.289 159.059 150.404 159.487C150.519 159.916 150.461 160.363 150.238 160.748C149.931 161.281 149.371 161.58 148.796 161.58Z" fill="#F4F4F4"/>
<path d="M144.344 124.301C133.261 128.141 129.776 128.048 129.28 126.619C128.784 125.187 131.465 122.957 142.547 119.118C150.469 116.372 160.794 114.277 166.038 113.306C166.839 113.157 167.114 113.95 166.393 114.329C161.672 116.812 152.266 121.556 144.344 124.301Z" fill="#1D1B1B"/>
<path d="M166.229 113.721C166.198 113.721 166.161 113.724 166.119 113.731C160.738 114.728 150.54 116.806 142.691 119.527C130.725 123.673 129.412 125.659 129.694 126.472C129.976 127.287 132.236 128.033 144.202 123.887C152.053 121.164 161.349 116.487 166.191 113.942C166.34 113.863 166.378 113.778 166.375 113.759C166.368 113.747 166.321 113.721 166.229 113.721ZM131.45 127.955C129.668 127.955 129.09 127.393 128.869 126.758C128.384 125.36 129.485 123.18 142.405 118.702C150.308 115.963 160.555 113.875 165.96 112.873C166.628 112.75 167.065 113.086 167.2 113.475C167.334 113.863 167.2 114.397 166.597 114.714C161.733 117.271 152.393 121.97 144.488 124.709C137.447 127.149 133.585 127.955 131.45 127.955Z" fill="#F4F4F4"/>
<path d="M133.679 114.605C133.938 122.06 132.454 124.188 130.534 124.254C128.614 124.321 126.985 122.3 126.726 114.846C126.541 109.517 128.086 102.818 128.983 99.4329C129.12 98.915 130.185 98.8782 130.357 99.3839C131.486 102.7 133.494 109.276 133.679 114.605Z" fill="#1D1B1B"/>
<path d="M129.697 99.4621C129.689 99.4621 129.682 99.4621 129.674 99.4621C129.518 99.467 129.42 99.526 129.405 99.5506C128.491 103.004 126.982 109.59 127.164 114.833C127.282 118.233 127.7 120.704 128.403 122.185C128.941 123.315 129.634 123.848 130.521 123.819C131.407 123.789 132.061 123.207 132.52 122.043C133.119 120.517 133.363 118.021 133.245 114.622C133.063 109.379 131.1 102.914 129.946 99.526C129.933 99.5088 129.84 99.4621 129.697 99.4621ZM130.443 124.693C129.24 124.693 128.289 123.976 127.615 122.561C126.849 120.95 126.416 118.432 126.292 114.862C126.106 109.509 127.635 102.828 128.563 99.3221C128.676 98.8971 129.1 98.6097 129.643 98.59C130.192 98.5704 130.63 98.8283 130.772 99.2459C131.941 102.678 133.931 109.239 134.117 114.592C134.241 118.159 133.984 120.701 133.332 122.362C132.741 123.863 131.805 124.649 130.551 124.691C130.515 124.693 130.479 124.693 130.443 124.693Z" fill="#F4F4F4"/>
<path d="M135.131 126.193C135.131 128.893 132.944 131.08 130.246 131.08C127.547 131.08 125.36 128.893 125.36 126.193C125.36 123.496 127.547 121.309 130.246 121.309C132.944 121.309 135.131 123.496 135.131 126.193Z" fill="#1D1B1B"/>
<path d="M130.247 121.743C127.794 121.743 125.798 123.74 125.798 126.192C125.798 128.647 127.794 130.641 130.247 130.641C132.7 130.641 134.695 128.647 134.695 126.192C134.695 123.74 132.7 121.743 130.247 121.743ZM130.247 131.514C127.312 131.514 124.925 129.127 124.925 126.192C124.925 123.258 127.312 120.871 130.247 120.871C133.181 120.871 135.568 123.258 135.568 126.192C135.568 129.127 133.181 131.514 130.247 131.514Z" fill="#F4F4F4"/>
<path d="M87.1717 399.723C69.07 383.037 78.44 372.274 78.44 372.274C78.44 372.274 86.5263 359.175 114.903 376.3C143.28 393.426 170.747 387.06 176.959 384.493C183.171 381.925 204.875 365.789 217.106 364.881C223.911 364.377 232.057 369.496 224.911 383.327C210.134 411.931 170 415.194 170 415.194C170 415.194 150.545 418.848 130.559 415.309C130.559 415.309 105.274 416.409 87.1717 399.723Z" fill="#1D1B1B"/>
<path d="M130.559 414.87C130.585 414.87 130.61 414.874 130.635 414.878C150.308 418.363 169.725 414.8 169.919 414.765C169.934 414.761 169.949 414.759 169.964 414.759C170.064 414.749 180.092 413.892 191.784 409.568C202.544 405.589 216.958 397.769 224.524 383.126C228.408 375.609 227.429 371.317 225.924 369.039C223.893 365.965 220.055 365.103 217.139 365.317C208.71 365.942 195.802 373.843 186.378 379.612C182.275 382.123 179.035 384.105 177.125 384.896C173.881 386.235 165.404 388.445 154.234 388.217C140.204 387.931 126.896 384.047 114.678 376.674C100.199 367.935 91.2004 367.285 86.2015 368.276C80.8435 369.339 78.8301 372.472 78.8105 372.505C78.7986 372.523 78.784 372.542 78.7694 372.56C78.7468 372.587 76.5097 375.229 76.4528 379.81C76.4003 384.066 78.2682 390.922 87.4672 399.401C105.222 415.767 130.29 414.882 130.54 414.872C130.546 414.872 130.553 414.87 130.559 414.87ZM149.234 417.278C143.474 417.278 137.018 416.891 130.528 415.744C129.249 415.785 104.52 416.307 86.8757 400.043C77.4063 391.315 75.507 384.181 75.5812 379.734C75.6592 375.052 77.8245 372.328 78.0877 372.014C78.3241 371.65 80.4759 368.551 85.9427 367.437C93.4439 365.909 103.263 368.765 115.128 375.926C127.214 383.219 140.377 387.061 154.252 387.345C165.282 387.567 173.61 385.404 176.792 384.088C178.638 383.325 182.014 381.259 185.922 378.866C195.423 373.05 208.434 365.087 217.073 364.446C220.237 364.211 224.413 365.169 226.652 368.559C228.285 371.031 229.378 375.634 225.299 383.527C217.6 398.426 202.977 406.361 192.065 410.396C180.538 414.656 170.605 415.579 170.058 415.625C169.546 415.719 160.798 417.276 149.234 417.278Z" fill="#F4F4F4"/>
<path d="M134.147 403.141L140.557 406.727L137.357 413.378L132.051 409.98L134.147 403.141Z" fill="#1D1B1B"/>
<path d="M132.563 409.791L137.175 412.743L139.984 406.907L134.404 403.784L132.563 409.791ZM137.355 413.813C137.272 413.813 137.19 413.79 137.119 413.743L131.813 410.348C131.649 410.241 131.574 410.038 131.631 409.851L133.728 403.012C133.766 402.887 133.86 402.784 133.983 402.735C134.105 402.686 134.243 402.694 134.358 402.758L140.768 406.345C140.969 406.458 141.048 406.707 140.948 406.915L137.748 413.566C137.694 413.679 137.594 413.763 137.474 413.796C137.435 413.808 137.395 413.813 137.355 413.813Z" fill="#F4F4F4"/>
<path d="M138.041 405.88C138.783 404.922 140.232 404.934 140.951 405.909L144.062 410.13L139.859 415.545L134.293 412.985C134.675 410.584 136.623 407.71 138.041 405.88Z" fill="#F4F4F4"/>
<path d="M137.396 410.373L139.095 408.653C139.706 408.034 140.663 407.918 141.407 408.367L142.615 409.101L142.875 408.539C143.156 407.929 143.848 407.629 144.484 407.842C148.36 409.136 161.238 413.574 165.545 416.765C170.64 420.538 167.022 428.935 158.136 428.079C151.094 427.401 141.47 419.549 137.78 416.319C137.054 415.684 137.237 414.512 138.12 414.125L138.129 414.121L137.189 412.768C136.672 412.024 136.759 411.017 137.396 410.373Z" fill="#1D1B1B"/>
<path d="M137.705 410.678C137.216 411.173 137.149 411.946 137.546 412.516L138.486 413.87C138.559 413.975 138.582 414.107 138.549 414.232C138.515 414.356 138.428 414.459 138.311 414.514C138.012 414.646 137.823 414.892 137.777 415.195C137.73 415.497 137.835 415.785 138.065 415.988C141.818 419.27 151.288 426.979 158.177 427.643C163.278 428.135 166.155 425.538 167.066 423.166C167.939 420.892 167.256 418.573 165.284 417.113C161.03 413.961 148.181 409.535 144.344 408.252C143.92 408.112 143.458 408.311 143.27 408.72L143.01 409.282C142.957 409.395 142.86 409.479 142.741 409.516C142.622 409.553 142.494 409.535 142.387 409.471L141.179 408.739C140.606 408.393 139.876 408.482 139.404 408.959L137.705 410.678ZM159.413 428.577C158.989 428.577 158.549 428.556 158.093 428.513C150.952 427.824 141.306 419.983 137.491 416.644C137.038 416.249 136.822 415.657 136.914 415.063C136.979 414.639 137.192 414.263 137.509 413.994L136.829 413.015C136.193 412.1 136.299 410.859 137.084 410.065L138.783 408.346C139.54 407.579 140.711 407.435 141.632 407.993L142.422 408.472L142.478 408.354C142.853 407.542 143.774 407.143 144.621 407.425C148.488 408.718 161.446 413.182 165.804 416.41C168.105 418.116 168.901 420.824 167.881 423.478C166.943 425.919 164.187 428.577 159.413 428.577Z" fill="#F4F4F4"/>
<path d="M148.446 419.982C148.383 419.982 148.319 419.969 148.259 419.94C148.041 419.836 147.949 419.577 148.052 419.359L150.93 413.306C151.034 413.088 151.295 412.997 151.512 413.1C151.73 413.203 151.822 413.464 151.719 413.682L148.841 419.733C148.766 419.891 148.609 419.982 148.446 419.982Z" fill="#F4F4F4"/>
<path d="M161.783 403.045C161.662 403.045 161.542 402.994 161.455 402.897L160.514 401.83C160.435 401.738 160.396 401.62 160.407 401.499C160.419 401.378 160.479 401.269 160.575 401.195L190.499 378.104C190.689 377.958 190.964 377.993 191.111 378.184C191.258 378.374 191.223 378.649 191.032 378.795L161.477 401.602L162.11 402.319C162.269 402.5 162.252 402.776 162.071 402.936C161.988 403.008 161.885 403.045 161.783 403.045Z" fill="#F4F4F4"/>
<path d="M162.815 404.474L149.788 409.151L151.85 416.238L167.576 411.949L162.815 404.474Z" fill="#1D1B1B"/>
<path d="M150.321 409.424L152.148 415.703L166.889 411.685L162.633 405.003L150.321 409.424ZM151.848 416.675C151.659 416.675 151.485 416.55 151.43 416.359L149.368 409.274C149.304 409.052 149.422 408.819 149.64 408.741L162.666 404.064C162.858 403.996 163.072 404.068 163.182 404.241L167.943 411.716C168.017 411.833 168.032 411.977 167.982 412.107C167.932 412.236 167.824 412.335 167.69 412.37L151.963 416.659C151.925 416.669 151.886 416.675 151.848 416.675Z" fill="#F4F4F4"/>
<path d="M152.408 408.727C151.834 407.662 150.403 407.434 149.533 408.279L145.77 411.93L149.024 417.962L154.936 416.354C154.954 413.922 153.506 410.768 152.408 408.727Z" fill="#F4F4F4"/>
<path d="M152.306 413.266L150.913 411.289C150.411 410.579 149.487 410.304 148.679 410.627L147.367 411.151L147.203 410.553C147.026 409.907 146.393 409.496 145.731 409.601C141.694 410.24 128.262 412.496 123.488 414.934C117.842 417.818 120.027 426.696 128.933 427.315C135.99 427.806 146.776 421.643 150.948 419.066C151.768 418.559 151.78 417.374 150.974 416.846L150.966 416.84L152.115 415.662C152.748 415.014 152.828 414.005 152.306 413.266Z" fill="#1D1B1B"/>
<path d="M145.938 410.024C145.893 410.024 145.847 410.026 145.801 410.033C141.805 410.666 128.402 412.917 123.688 415.325C121.502 416.441 120.446 418.616 120.933 421.001C121.442 423.491 123.85 426.526 128.964 426.881C129.225 426.9 129.493 426.908 129.763 426.908C136.662 426.91 146.639 421.219 150.72 418.698C150.981 418.536 151.132 418.267 151.136 417.962C151.14 417.654 150.994 417.381 150.736 417.214C150.627 417.142 150.551 417.023 150.537 416.893C150.523 416.764 150.563 416.632 150.654 416.538L151.804 415.358C152.29 414.862 152.351 414.087 151.95 413.518L150.557 411.544C150.171 410.995 149.465 410.785 148.843 411.034L147.53 411.558C147.415 411.605 147.285 411.599 147.174 411.542C147.063 411.488 146.981 411.388 146.948 411.268L146.784 410.67C146.678 410.283 146.327 410.024 145.938 410.024ZM129.747 427.78C129.461 427.78 129.18 427.772 128.904 427.753C123.301 427.364 120.648 423.966 120.078 421.176C119.509 418.39 120.741 415.849 123.291 414.547C128.12 412.082 141.637 409.809 145.664 409.171C146.544 409.033 147.389 409.578 147.626 410.44L147.66 410.567L148.519 410.224C149.519 409.825 150.651 410.16 151.271 411.04L152.664 413.016C153.307 413.927 153.208 415.17 152.429 415.968L151.597 416.823C151.866 417.14 152.014 417.545 152.009 417.973C152.001 418.575 151.691 419.124 151.179 419.439C147.032 422.002 136.883 427.78 129.747 427.78Z" fill="#F4F4F4"/>
<path d="M139.894 420.934C139.704 420.934 139.529 420.809 139.474 420.616L137.632 414.174C137.566 413.942 137.7 413.7 137.932 413.634C138.164 413.566 138.405 413.702 138.471 413.934L140.313 420.377C140.38 420.608 140.246 420.85 140.014 420.916C139.974 420.928 139.933 420.934 139.894 420.934Z" fill="#F4F4F4"/>
<path d="M129.441 425.896C129.362 425.896 129.282 425.874 129.21 425.829C122.041 421.341 124.888 415.526 124.918 415.467C125.027 415.251 125.29 415.166 125.504 415.275C125.719 415.384 125.805 415.646 125.696 415.861C125.59 416.073 123.199 421.036 129.673 425.089C129.877 425.218 129.939 425.487 129.811 425.691C129.728 425.823 129.586 425.896 129.441 425.896Z" fill="#F4F4F4"/>
<path d="M134.55 401.978C134.521 401.978 134.492 401.974 134.463 401.968C134.227 401.919 134.074 401.689 134.122 401.454L134.521 399.489C133.251 398.477 126.222 392.91 115.042 384.688C102.716 375.623 100.017 373.767 99.9907 373.75C99.792 373.614 99.7409 373.343 99.877 373.142C100.013 372.944 100.285 372.893 100.484 373.03C100.51 373.047 103.209 374.903 115.559 383.983C127.91 393.068 135.203 398.917 135.275 398.975C135.402 399.077 135.462 399.242 135.429 399.402L134.977 401.627C134.935 401.833 134.753 401.978 134.55 401.978Z" fill="#F4F4F4"/>
<path d="M198.604 358.5C197.674 354.335 191.733 338.977 187.254 327.665C183.679 318.635 175.036 312.124 164.747 310.816C157.089 309.84 148.786 309.644 140.803 310.273C127.491 311.322 116.058 319.47 111.654 331.15C107.689 341.672 103.366 354.588 103.268 361.13C103.164 368.1 107.375 374.761 111.972 379.934C117.769 386.459 126.04 390.526 134.972 391.354C147.733 392.535 167.644 393.719 176.688 390.766C190.558 386.233 200.856 368.579 198.604 358.5Z" fill="#F4F4F4"/>
<path d="M180.648 338.128H120.356C117.619 338.128 115.401 340.346 115.401 343.081V382.946C115.401 385.682 117.619 387.899 120.356 387.899H180.648C183.383 387.899 185.601 385.682 185.601 382.946V343.081C185.601 340.346 183.383 338.128 180.648 338.128Z" fill="#1D1B1B"/>
<path d="M120.354 338.564C117.863 338.564 115.837 340.591 115.837 343.081V382.946C115.837 385.436 117.863 387.463 120.354 387.463H180.646C183.137 387.463 185.164 385.436 185.164 382.946V343.081C185.164 340.591 183.137 338.564 180.646 338.564H120.354ZM180.646 388.337H120.354C117.382 388.337 114.964 385.919 114.964 382.946V343.081C114.964 340.11 117.382 337.692 120.354 337.692H180.646C183.618 337.692 186.036 340.11 186.036 343.081V382.946C186.036 385.919 183.618 388.337 180.646 388.337Z" fill="#F4F4F4"/>
<path d="M184.641 388.141H115.332C113.61 388.141 112.214 389.537 112.214 391.258C112.214 392.981 113.61 394.377 115.332 394.377H184.641C186.363 394.377 187.76 392.981 187.76 391.258C187.76 389.537 186.363 388.141 184.641 388.141Z" fill="#1D1B1B"/>
<path d="M115.333 388.576C113.854 388.576 112.65 389.78 112.65 391.257C112.65 392.737 113.854 393.94 115.333 393.94H184.641C186.12 393.94 187.324 392.737 187.324 391.257C187.324 389.78 186.12 388.576 184.641 388.576H115.333ZM184.641 394.812H115.333C113.372 394.812 111.777 393.218 111.777 391.257C111.777 389.297 113.372 387.702 115.333 387.702H184.641C186.601 387.702 188.196 389.297 188.196 391.257C188.196 393.218 186.601 394.812 184.641 394.812Z" fill="#F4F4F4"/>
<path d="M155.833 310.577L156.482 301.373C156.922 301.342 157.226 301.325 157.315 301.323C159.883 301.294 160.717 300.462 160.938 298.354C161.076 297.034 161.125 295.075 160.482 292.624C160.414 292.363 160.429 292.084 160.535 291.835L160.974 290.807C161.065 290.47 160.948 290.106 160.678 289.886L160.444 289.693C159.607 289.006 158.91 288.163 158.352 287.227C157.838 286.364 156.965 284.748 156.366 284.462C154.679 283.656 147.834 280.075 144.008 286.331C141.025 291.21 145.9 297.925 147.671 300.125C148.099 300.657 144.779 311.085 144.779 311.085L140.486 312.123C140.486 312.123 143.799 318.005 153.86 315.573C161.025 313.84 159.886 311.175 159.886 311.175L155.833 310.577Z" fill="#1D1B1B"/>
<path d="M141.208 312.396C142.247 313.714 145.783 317.075 153.757 315.147C157.589 314.22 158.904 313.066 159.332 312.26C159.488 311.966 159.52 311.722 159.516 311.559L155.769 311.008C155.544 310.975 155.382 310.772 155.398 310.544L156.047 301.341C156.062 301.125 156.235 300.952 156.452 300.938C156.905 300.905 157.218 300.887 157.31 300.885C159.815 300.856 160.32 300.066 160.504 298.306C160.7 296.44 160.554 294.618 160.06 292.733C159.966 292.375 159.992 291.995 160.133 291.662L160.558 290.668C160.592 290.504 160.531 290.329 160.401 290.222L160.167 290.029C159.322 289.336 158.585 288.467 157.977 287.447L157.744 287.052C157.335 286.349 156.573 285.043 156.178 284.854L155.994 284.766C153.987 283.795 147.876 280.843 144.38 286.557C141.625 291.063 146.002 297.355 148.011 299.852C148.183 300.064 148.586 300.566 145.195 311.216C145.149 311.362 145.03 311.473 144.882 311.508L141.208 312.396ZM149.22 316.604C142.6 316.605 140.223 312.544 140.106 312.336C140.039 312.217 140.031 312.073 140.086 311.948C140.141 311.822 140.251 311.73 140.384 311.697L144.438 310.718C145.887 306.146 147.305 301.146 147.275 300.329C145.126 297.642 140.618 291.037 143.636 286.104C146.228 281.863 150.514 281.149 156.374 283.98L156.554 284.065C157.145 284.348 157.758 285.342 158.498 286.612L158.727 287.001C159.283 287.934 159.954 288.726 160.72 289.355L160.954 289.546C161.358 289.877 161.531 290.416 161.395 290.921C161.389 290.94 161.383 290.96 161.375 290.977L160.936 292.005C160.87 292.161 160.859 292.34 160.904 292.513C161.426 294.501 161.579 296.425 161.372 298.397C161.119 300.817 160.02 301.726 157.32 301.758C157.263 301.76 157.112 301.767 156.891 301.783L156.297 310.204L159.95 310.741C160.1 310.763 160.228 310.862 160.288 311.002C160.318 311.074 160.575 311.73 160.133 312.612C159.416 314.039 157.34 315.178 153.962 315.996C152.183 316.426 150.608 316.604 149.22 316.604Z" fill="#F4F4F4"/>
<path d="M146.116 278.374C147.971 277.975 150.103 278.259 151.003 277.928C152.455 277.395 152.495 275.656 154.504 275.167C156.936 274.575 157.951 275.613 158.902 277.062C159.06 277.303 159.199 277.572 159.314 277.877C160.842 281.978 158.912 283.977 158.053 284.628C158.053 284.628 152.582 287.455 151.645 288.263C150.769 289.018 149.758 290.806 150.394 293.377C150.476 293.708 150.331 294.053 150.051 294.222C149.722 294.421 149.296 294.326 149.071 293.999C148.359 292.967 146.805 290.973 145.699 291.446C144.31 292.038 144.743 296.203 147.808 296.683C148.748 296.83 149.514 297.793 149.421 298.778C149.36 299.421 148.754 300.202 147.853 300.408C147.303 300.535 146.76 300.313 146.276 300.003C144.276 298.728 138.635 293.311 137.934 288.457C137.09 282.611 143.647 278.905 146.116 278.374Z" fill="#F4F4F4"/>
<path d="M157.173 301.717C157.168 301.717 157.162 301.717 157.157 301.717C157.064 301.713 154.855 301.616 153.262 300.264C153.078 300.109 153.056 299.832 153.212 299.649C153.368 299.466 153.643 299.443 153.827 299.598C155.185 300.751 157.17 300.843 157.19 300.845C157.43 300.852 157.618 301.057 157.609 301.296C157.6 301.532 157.406 301.717 157.173 301.717Z" fill="#F4F4F4"/>
<path d="M372.327 216.264C372.661 214.178 372.114 213.641 372.606 211.802C373.043 210.168 373.883 208.22 375.5 206.582C375.801 206.275 378.072 204.007 381.41 203.465C389.383 202.167 396.889 207.111 399.313 209.874C401.481 212.344 401.921 217.037 403.567 218.575C408.574 223.26 412.225 221.981 416.358 226.026C419.337 228.942 420.371 232.476 420.858 234.137C421.265 235.535 422.191 239.262 420.941 245.425C419.129 254.354 415.626 254.245 414.275 261.012C412.571 269.567 417.631 272.445 415.269 279.038C413.415 284.217 408.175 288.366 402.435 288.677C391.222 289.287 384.07 274.967 383.786 274.046C382.599 270.165 380.363 268.314 384.634 257.961C387.307 251.488 385.146 242.572 382.888 240.346C381.056 238.539 371.82 245.225 367.948 235.51C367.21 233.66 366.257 232.28 366.096 230.784C365.87 228.681 366.954 227.893 370.287 221.411C371.66 218.746 372.091 217.727 372.327 216.264Z" fill="#F4F4F4"/>
<path d="M411.308 390.938C411.308 390.938 416.675 398.059 416.292 402.741L416.398 404.554L427.602 394.359L426.038 393.726C423.559 392.031 420.94 391.024 419.498 388.388L411.308 390.938Z" fill="#1D1B1B"/>
<path d="M416.723 402.745L416.777 403.616L426.791 394.504L425.869 394.13C425.839 394.116 425.813 394.103 425.788 394.085C425.182 393.672 424.561 393.295 423.96 392.929C422.15 391.832 420.437 390.793 419.292 388.906L412.014 391.172C413.236 392.893 417.039 398.628 416.723 402.745ZM416.395 404.988C416.341 404.988 416.283 404.979 416.232 404.957C416.077 404.893 415.97 404.747 415.959 404.579L415.853 402.767C415.85 402.745 415.85 402.726 415.853 402.704C416.217 398.238 411.008 391.27 410.955 391.2C410.868 391.087 410.843 390.939 410.889 390.802C410.932 390.668 411.039 390.563 411.174 390.52L419.365 387.97C419.561 387.907 419.778 387.995 419.877 388.176C420.906 390.057 422.609 391.089 424.411 392.183C425.012 392.547 425.63 392.921 426.241 393.337L427.761 393.955C427.901 394.011 428 394.134 428.028 394.282C428.054 394.43 428.003 394.58 427.893 394.681L416.69 404.876C416.606 404.949 416.502 404.988 416.395 404.988Z" fill="#F4F4F4"/>
<path d="M414.364 400.408L414.538 402.614C414.884 406.985 414.158 411.375 412.429 415.403L411.099 418.499C410.972 418.795 410.998 419.132 411.172 419.403L411.261 419.541C412.236 421.069 416.539 422.387 421.981 418.698C425.349 416.416 432.175 410.076 436.845 399.004C437.141 398.305 436.949 397.495 436.366 397.006C434.246 395.227 429.015 391.167 424.931 390.714C424.478 390.663 424.075 391.004 424.072 391.459L424.033 395.854C424.015 397.826 422.397 399.409 420.425 399.382L415.389 399.315C414.793 399.308 414.317 399.812 414.364 400.408Z" fill="#1D1B1B"/>
<path d="M414.803 400.371L414.975 402.579C415.323 407.003 414.581 411.496 412.831 415.573L411.5 418.671C411.43 418.833 411.446 419.018 411.542 419.166L411.628 419.304C411.896 419.723 412.612 420.258 413.818 420.507C415.167 420.786 417.993 420.873 421.738 418.334C423.253 417.306 431.09 411.535 436.444 398.833C436.668 398.305 436.522 397.706 436.087 397.34C434.043 395.624 428.858 391.588 424.884 391.144C424.787 391.134 424.688 391.164 424.615 391.228C424.548 391.288 424.511 391.372 424.511 391.462L424.47 395.856C424.459 396.927 424.032 397.93 423.269 398.677C422.503 399.427 421.506 399.822 420.423 399.816L415.383 399.75C415.217 399.752 415.068 399.812 414.956 399.931C414.844 400.052 414.79 400.208 414.803 400.371ZM415.211 421.516C414.576 421.516 414.05 421.446 413.641 421.362C412.373 421.101 411.37 420.521 410.894 419.775L410.805 419.637C410.555 419.243 410.516 418.755 410.698 418.326L412.029 415.231C413.724 411.282 414.443 406.931 414.105 402.647L413.933 400.439C413.899 400.034 414.042 399.631 414.321 399.335C414.597 399.039 414.993 398.878 415.396 398.876L420.433 398.944C421.248 398.952 422.058 398.638 422.657 398.054C423.256 397.468 423.589 396.685 423.597 395.85L423.636 391.454C423.639 391.119 423.785 390.798 424.037 390.576C424.295 390.348 424.639 390.239 424.98 390.278C429.191 390.747 434.543 394.904 436.647 396.67C437.379 397.283 437.621 398.29 437.249 399.172C431.798 412.102 423.777 418.005 422.227 419.057C419.316 421.031 416.889 421.516 415.211 421.516Z" fill="#F4F4F4"/>
<path d="M411.662 417.811C411.492 417.811 411.335 417.711 411.263 417.548C411.167 417.326 411.268 417.069 411.487 416.973L412.183 416.672C415.731 415.132 418.53 412.166 419.866 408.535L420.33 407.271C420.505 406.791 420.933 406.473 421.441 406.444C421.947 406.409 422.413 406.678 422.645 407.135L423.249 408.315C423.326 408.469 423.468 408.572 423.638 408.597C423.808 408.624 423.973 408.568 424.094 408.446C427.363 405.122 429.859 401.228 431.514 396.869L432.466 394.363C432.553 394.137 432.803 394.026 433.03 394.11C433.254 394.195 433.368 394.448 433.283 394.672L432.329 397.18C430.632 401.65 428.07 405.647 424.716 409.059C424.396 409.384 423.955 409.532 423.501 409.46C423.053 409.39 422.676 409.117 422.467 408.71L421.867 407.53C421.761 407.318 421.557 407.31 421.495 407.314C421.434 407.318 421.23 407.347 421.147 407.571L420.686 408.837C419.268 412.69 416.298 415.838 412.531 417.474L411.835 417.773C411.781 417.799 411.722 417.811 411.662 417.811Z" fill="#F4F4F4"/>
<path d="M370.487 410.935C370.487 410.935 371.101 417.944 368.197 421.269L367.292 422.698L380.919 421.974L380.26 420.483C379.089 417.829 378.188 413.559 378.416 410.769L370.487 410.935Z" fill="#1D1B1B"/>
<path d="M368.55 421.529L368.114 422.217L380.266 421.572L379.864 420.659C378.807 418.262 377.844 414.183 377.955 411.214L370.954 411.36C371.037 413.011 371.112 418.564 368.55 421.529ZM367.294 423.134C367.138 423.134 366.996 423.052 366.917 422.918C366.833 422.775 366.835 422.602 366.923 422.464L367.831 421.035C367.843 421.015 367.854 420.998 367.87 420.981C370.617 417.836 370.059 411.039 370.055 410.971C370.043 410.85 370.084 410.731 370.163 410.642C370.244 410.552 370.357 410.5 370.479 410.498L378.411 410.332C378.533 410.336 378.651 410.381 378.737 410.471C378.82 410.56 378.863 410.681 378.854 410.805C378.644 413.362 379.439 417.536 380.662 420.307L381.319 421.798C381.378 421.929 381.369 422.08 381.292 422.203C381.215 422.324 381.086 422.402 380.944 422.409L367.316 423.134C367.31 423.134 367.301 423.134 367.294 423.134Z" fill="#F4F4F4"/>
<path d="M368.619 416.735L367.25 418.145C364.539 420.935 361.194 423.024 357.496 424.231L354.656 425.16C354.385 425.248 354.176 425.466 354.096 425.738L354.056 425.876C353.61 427.422 355.252 431.061 360.898 432.523C364.296 433.403 372.162 434.217 381.892 431.156C383.043 430.794 383.796 429.691 383.741 428.483C383.616 425.691 383.125 420.721 381.246 418.067C381.014 417.74 380.566 417.697 380.266 417.958C379.598 418.534 378.404 419.564 377.315 420.508C375.991 421.651 373.988 421.499 372.851 420.172L369.947 416.778C369.601 416.377 368.987 416.357 368.619 416.735Z" fill="#1D1B1B"/>
<path d="M368.932 417.042L367.564 418.449C364.813 421.279 361.38 423.422 357.632 424.647L354.791 425.575C354.657 425.618 354.554 425.725 354.515 425.86L354.474 426C354.354 426.413 354.42 427.187 354.95 428.122C355.551 429.179 357.14 431.099 361.006 432.102C362.511 432.491 370.583 434.259 381.762 430.741C382.716 430.439 383.351 429.52 383.305 428.504C383.185 425.805 382.709 420.891 380.89 418.319C380.842 418.253 380.78 418.231 380.739 418.227C380.671 418.22 380.605 418.241 380.55 418.29L377.597 420.838C376.869 421.467 375.94 421.773 374.979 421.703C374.018 421.631 373.146 421.187 372.52 420.457L369.613 417.063C369.528 416.962 369.408 416.905 369.278 416.902C369.146 416.898 369.023 416.946 368.932 417.042ZM368.306 433.761C364.283 433.761 361.601 433.157 360.788 432.947C356.61 431.864 354.864 429.73 354.192 428.556C353.616 427.546 353.413 426.526 353.637 425.756L353.677 425.616C353.796 425.206 354.11 424.88 354.518 424.746L357.359 423.817C360.975 422.635 364.287 420.57 366.935 417.842L368.306 416.432C368.565 416.164 368.93 416.014 369.305 416.029C369.679 416.041 370.034 416.21 370.278 416.495L373.183 419.888C373.656 420.443 374.319 420.778 375.045 420.832C375.771 420.887 376.477 420.655 377.028 420.178L379.979 417.628C380.22 417.421 380.534 417.324 380.846 417.361C381.151 417.398 381.422 417.56 381.602 417.815C383.549 420.568 384.052 425.669 384.177 428.465C384.241 429.876 383.355 431.154 382.021 431.574C376.623 433.274 371.921 433.761 368.306 433.761Z" fill="#F4F4F4"/>
<path d="M370.637 428.801C370.064 428.801 369.491 428.783 368.916 428.752C368.495 428.729 368.124 428.513 367.899 428.158C367.671 427.802 367.63 427.376 367.787 426.984L368.222 425.892C368.288 425.728 368.199 425.611 368.158 425.571C368.115 425.53 368.001 425.438 367.835 425.502L366.723 425.933C363.313 427.253 359.463 427.119 356.153 425.561L355.543 425.275C355.327 425.172 355.234 424.913 355.336 424.695C355.439 424.476 355.698 424.383 355.917 424.486L356.526 424.772C359.617 426.227 363.22 426.353 366.407 425.119L367.521 424.689C367.963 424.517 368.442 424.621 368.777 424.957C369.109 425.294 369.209 425.775 369.032 426.215L368.597 427.307C368.547 427.434 368.561 427.572 368.634 427.687C368.706 427.802 368.827 427.874 368.963 427.88C373.083 428.11 377.136 427.492 381.002 426.044L383.229 425.21C383.454 425.125 383.707 425.24 383.789 425.465C383.875 425.691 383.761 425.943 383.534 426.026L381.307 426.862C377.866 428.15 374.286 428.801 370.637 428.801Z" fill="#F4F4F4"/>
<path d="M394.966 296.237C394.966 296.237 400.467 314.435 391.088 327.35C378.455 344.752 385.674 384.905 379.351 411.904C379.23 412.42 378.759 412.78 378.229 412.774L370.568 412.693C370.059 412.687 369.617 412.344 369.484 411.851C367.681 405.119 355.588 359.551 355.975 350.468C356.063 348.397 356.327 345.98 356.69 343.44C358.458 331.133 362.175 319.186 367.574 307.985L375.998 290.508L394.966 296.237Z" fill="#F4F4F4"/>
<path d="M400.9 294.178C400.9 294.178 407.817 307.036 404.756 320.564C401.693 334.09 406.299 345.31 409.543 350.593C412.751 355.813 418.625 368.976 420.693 388.543C420.741 389.018 420.568 389.492 420.226 389.822C419.145 390.854 416.47 392.951 412.431 393.125C411.961 393.144 411.508 392.951 411.196 392.599C408.012 388.981 389.687 367.744 383.175 350.849C376.033 332.322 374.695 301.532 374.695 301.532C374.695 301.532 392.475 303.411 400.9 294.178Z" fill="#F4F4F4"/>
<path d="M384.061 356.324C384.052 356.324 384.04 356.322 384.03 356.322C383.788 356.305 383.607 356.096 383.625 355.855C384.417 344.913 385.827 333.854 390.735 327.094C394.228 322.283 396.044 316.189 396.129 308.979C396.133 308.74 396.326 308.547 396.564 308.547C396.567 308.547 396.569 308.547 396.571 308.547C396.812 308.551 397.005 308.747 397.002 308.989C396.913 316.383 395.043 322.647 391.442 327.606C386.661 334.189 385.279 345.104 384.494 355.919C384.48 356.149 384.29 356.324 384.061 356.324Z" fill="#1D1B1B"/>
<path d="M326.812 229.993C326.812 229.993 325.118 227.759 325.234 225.733C325.342 223.858 325.488 219.504 323.284 217.117C320.423 214.023 315.815 213.034 315.348 213.982C314.929 214.835 320.618 219.284 320.309 222.773C320.242 223.511 319.59 224.072 318.848 224.048C317.953 224.023 316.559 223.716 314.828 222.466C314.388 222.148 313.755 222.413 313.697 222.952C313.613 223.692 313.753 224.804 314.66 226.26C315.817 228.116 317.715 229.471 319.016 229.932C320.433 230.437 322.203 233.252 322.203 233.252L326.812 229.993Z" fill="#1D1B1B"/>
<path d="M314.407 222.766C314.35 222.766 314.305 222.783 314.286 222.791C314.233 222.814 314.144 222.873 314.128 222.999C314.06 223.613 314.161 224.637 315.03 226.029C316.141 227.816 317.95 229.092 319.161 229.522C320.395 229.962 321.753 231.802 322.319 232.635L326.205 229.886C325.713 229.138 324.7 227.386 324.798 225.708C325.025 221.771 324.406 218.979 322.962 217.415C320.859 215.137 317.763 214.074 316.334 214.074H316.332C316.032 214.074 315.863 214.119 315.783 214.154C315.915 214.479 316.579 215.266 317.123 215.907C318.739 217.82 320.952 220.439 320.742 222.813C320.656 223.78 319.811 224.514 318.836 224.487C317.903 224.458 316.408 224.146 314.572 222.82C314.516 222.779 314.457 222.766 314.407 222.766ZM322.202 233.69C322.173 233.69 322.146 233.687 322.117 233.681C322 233.657 321.897 233.587 321.832 233.486C321.361 232.738 319.913 230.715 318.869 230.345C317.52 229.865 315.512 228.455 314.29 226.49C313.289 224.886 313.178 223.654 313.262 222.904C313.306 222.499 313.558 222.16 313.931 221.993C314.315 221.823 314.745 221.868 315.082 222.114C316.739 223.309 318.051 223.589 318.861 223.615C319.373 223.624 319.829 223.235 319.872 222.735C320.051 220.723 317.888 218.165 316.457 216.471C315.269 215.067 314.673 214.363 314.956 213.79C315.059 213.582 315.304 213.315 315.892 213.229C317.475 213 321.131 214.146 323.602 216.822C326.034 219.454 325.759 224.199 325.67 225.758C325.563 227.596 327.144 229.709 327.159 229.728C327.231 229.824 327.261 229.942 327.243 230.059C327.226 230.176 327.159 230.281 327.064 230.349L322.453 233.609C322.379 233.661 322.292 233.69 322.202 233.69Z" fill="#F4F4F4"/>
<path d="M403.952 276.133C403.771 262.741 400.844 253.891 396.065 248.134C392.421 243.743 387.188 240.959 381.545 240.124C378.575 239.687 374.464 239.188 370.808 239.135C370.335 238.761 369.802 238.447 369.204 238.216C368.468 238.609 367.744 238.964 367.025 239.282C365.602 239.439 364.395 239.728 363.57 240.204C363.182 240.426 362.904 240.628 362.697 240.824C354.083 243.142 346.65 240.669 340.28 237.649C335.935 235.588 333.064 233.875 328.957 229.622C328.301 228.946 327.254 228.835 326.467 229.354L321.608 232.584C320.756 233.149 320.484 234.271 320.978 235.164C324.325 241.205 337.766 262.151 362.463 260.457C363.273 262.111 364.313 263.654 365.541 265.047C368.68 268.602 367.65 277.517 362.627 296.405C362.627 296.405 384.462 307.672 406.398 300.737C406.398 300.737 404.14 290.107 403.952 276.133Z" fill="#1D1B1B"/>
<path d="M363.138 296.171C365.872 297.485 385.919 306.56 405.892 300.437C405.491 298.389 403.682 288.512 403.512 276.138C403.346 263.59 400.8 254.521 395.729 248.412C392.219 244.187 387.159 241.397 381.48 240.557C378.644 240.136 374.486 239.627 370.802 239.571C370.703 239.569 370.614 239.537 370.537 239.477C370.136 239.158 369.696 238.897 369.227 238.697C368.561 239.047 367.882 239.378 367.201 239.68C367.162 239.699 367.119 239.711 367.073 239.716C365.614 239.875 364.507 240.168 363.787 240.583C363.447 240.774 363.188 240.958 362.995 241.141C362.942 241.189 362.879 241.226 362.809 241.245C353.835 243.661 346.291 240.984 340.093 238.044C335.583 235.906 332.718 234.145 328.643 229.925C328.13 229.401 327.319 229.312 326.708 229.718L321.847 232.947C321.181 233.389 320.973 234.252 321.359 234.952C324.848 241.255 338.119 261.688 362.43 260.021C362.604 260.011 362.775 260.107 362.853 260.264C363.643 261.875 364.657 263.385 365.867 264.758C369.041 268.352 368.329 276.588 363.138 296.171ZM391.306 303.408C375.484 303.408 362.594 296.88 362.425 296.792C362.244 296.699 362.152 296.491 362.203 296.292C367.324 277.04 368.14 268.65 365.215 265.337C364.019 263.979 363.005 262.492 362.2 260.911C361.331 260.965 360.473 260.991 359.633 260.991C336.631 260.993 324.009 241.54 320.596 235.375C319.995 234.29 320.333 232.906 321.367 232.22L326.225 228.991C327.186 228.35 328.469 228.491 329.268 229.321C333.252 233.443 336.054 235.162 340.465 237.254C346.496 240.114 353.823 242.723 362.481 240.429C362.713 240.226 362.998 240.028 363.353 239.825C364.167 239.358 365.365 239.03 366.911 238.856C367.609 238.542 368.312 238.196 368.996 237.834C369.109 237.774 369.24 237.764 369.36 237.81C369.93 238.032 370.469 238.329 370.959 238.701C374.655 238.767 378.781 239.276 381.608 239.694C387.499 240.564 392.753 243.465 396.398 247.857C401.604 254.123 404.215 263.37 404.387 276.127C404.573 289.898 406.8 300.542 406.824 300.647C406.87 300.867 406.742 301.085 406.527 301.153C401.367 302.785 396.196 303.408 391.306 303.408Z" fill="#F4F4F4"/>
<path d="M385.843 222.292C385.503 222.373 385.171 222.138 385.139 221.788C384.987 220.129 383.878 217.307 382.034 216.241C379.673 214.877 376.51 214.762 375.279 216.495C374.202 218.007 374.43 219.19 371.902 220.799C371.658 220.953 371.709 221.335 371.879 221.57L372.745 222.902C372.934 223.162 372.952 223.851 372.89 224.166C372.69 225.142 372.259 227.156 372.439 227.556C372.966 228.721 376.425 229.644 376.425 229.644L376.075 238.632C375.965 239.845 375.428 240.059 375.428 240.059L373.382 241.916C373.382 241.916 373.306 244.119 381.277 245.387C387.261 246.338 386.888 245.283 386.888 245.283C386.888 245.283 381.809 239.955 383.968 228.355C384.016 228.102 384.2 227.892 384.442 227.805C385.381 227.471 387.952 226.433 388.115 224.626C388.288 222.707 387.015 222.014 385.843 222.292Z" fill="#1D1B1B"/>
<path d="M373.871 242.065C374.092 242.512 375.264 243.987 381.349 244.957C384.635 245.478 385.86 245.362 386.293 245.254C385.22 243.906 381.637 238.494 383.543 228.276C383.619 227.871 383.909 227.532 384.301 227.394C385.27 227.051 387.547 226.085 387.683 224.588C387.75 223.855 387.586 223.297 387.208 222.973C386.89 222.694 386.427 222.604 385.948 222.717C385.66 222.786 385.36 222.728 385.121 222.556C384.886 222.385 384.734 222.122 384.706 221.83C384.565 220.263 383.48 217.579 381.819 216.621C379.734 215.416 376.753 215.181 375.635 216.747C375.324 217.187 375.131 217.588 374.926 218.017C374.47 218.98 373.995 219.977 372.175 221.146C372.175 221.182 372.193 221.256 372.235 221.311L373.115 222.666C373.403 223.062 373.391 223.896 373.318 224.254L373.276 224.463C373.131 225.166 372.751 227.037 372.848 227.394C373.143 228.05 375.186 228.861 376.539 229.225C376.737 229.276 376.873 229.458 376.863 229.663L376.513 238.651C376.405 239.867 375.907 240.289 375.681 240.42L373.871 242.065ZM385.213 246.222C384.333 246.222 383.063 246.113 381.211 245.816C373.262 244.554 372.935 242.333 372.949 241.904C372.954 241.784 373.004 241.674 373.092 241.593L375.138 239.736C375.177 239.702 375.221 239.674 375.267 239.655C375.262 239.655 375.566 239.45 375.642 238.593L375.979 229.972C374.97 229.679 372.553 228.864 372.046 227.735C371.852 227.311 372.02 226.242 372.421 224.288L372.463 224.081C372.525 223.788 372.472 223.274 372.394 223.159L371.516 221.807C371.345 221.572 371.267 221.242 371.32 220.961C371.362 220.738 371.486 220.549 371.67 220.431C373.306 219.388 373.693 218.579 374.14 217.641C374.35 217.199 374.569 216.74 374.926 216.243C376.361 214.222 379.849 214.473 382.255 215.865C384.282 217.035 385.418 220.012 385.577 221.749C385.581 221.8 385.609 221.83 385.632 221.848C385.651 221.862 385.69 221.883 385.747 221.869C386.503 221.687 387.245 221.848 387.782 222.314C388.196 222.673 388.669 223.373 388.551 224.664C388.378 226.594 385.996 227.719 384.591 228.216C384.492 228.251 384.42 228.336 384.402 228.435C382.303 239.685 387.157 244.931 387.206 244.982C387.25 245.026 387.282 245.079 387.303 245.137C387.356 245.286 387.351 245.524 387.176 245.733C386.98 245.968 386.549 246.222 385.213 246.222Z" fill="#F4F4F4"/>
<path d="M339.924 245.232L258.407 244.989C256.522 244.982 254.898 243.669 255.023 242.248L259.498 191.943C259.598 190.848 260.725 190.055 262.181 190.059L343.698 190.303C345.585 190.309 347.211 191.623 347.084 193.043L342.607 243.349C342.511 244.443 341.382 245.234 339.924 245.232Z" fill="#1D1B1B"/>
<path d="M339.926 244.794C339.93 244.794 339.934 244.794 339.936 244.794C341.155 244.794 342.095 244.17 342.171 243.308L346.646 193.003C346.695 192.466 346.41 192.027 346.16 191.754C345.591 191.132 344.647 190.742 343.695 190.74L262.177 190.496C260.952 190.471 260.009 191.118 259.933 191.981L255.458 242.287C255.408 242.826 255.694 243.265 255.944 243.536C256.512 244.16 257.456 244.548 258.408 244.552L339.926 244.794ZM339.936 245.668C339.932 245.668 339.928 245.668 339.924 245.668L258.406 245.424C257.2 245.42 256.038 244.935 255.3 244.125C254.781 243.557 254.528 242.877 254.588 242.209L259.063 191.903C259.182 190.58 260.487 189.624 262.169 189.624C262.173 189.624 262.175 189.624 262.182 189.624L343.699 189.866C344.904 189.87 346.067 190.356 346.804 191.165C347.325 191.733 347.575 192.414 347.518 193.081L343.041 243.384C342.924 244.71 341.617 245.668 339.936 245.668Z" fill="#F4F4F4"/>
<path d="M266.138 210.663H336.88L337.295 205.742H266.553L266.138 210.663ZM337.281 211.534H265.663C265.54 211.534 265.424 211.484 265.342 211.395C265.258 211.305 265.217 211.185 265.229 211.062L265.715 205.27C265.735 205.042 265.925 204.869 266.152 204.869H337.769C337.893 204.869 338.009 204.921 338.092 205.01C338.174 205.1 338.214 205.22 338.204 205.342L337.715 211.135C337.695 211.363 337.508 211.534 337.281 211.534Z" fill="#F4F4F4"/>
<path d="M278.801 202.541H325.775L326.189 197.619H279.216L278.801 202.541ZM326.176 203.413H278.326C278.204 203.413 278.087 203.362 278.005 203.271C277.923 203.181 277.882 203.061 277.892 202.94L278.379 197.146C278.398 196.92 278.587 196.747 278.815 196.747H326.664C326.787 196.747 326.902 196.797 326.986 196.887C327.067 196.978 327.108 197.097 327.099 197.22L326.61 203.014C326.592 203.24 326.403 203.413 326.176 203.413Z" fill="#F4F4F4"/>
<path d="M265.404 219.357H336.147L336.561 214.434H265.82L265.404 219.357ZM336.547 220.229H264.93C264.807 220.229 264.69 220.177 264.608 220.087C264.525 219.996 264.485 219.876 264.495 219.755L264.984 213.96C265.002 213.735 265.191 213.562 265.418 213.562H337.037C337.158 213.562 337.274 213.612 337.357 213.702C337.439 213.793 337.481 213.913 337.471 214.034L336.983 219.829C336.965 220.055 336.774 220.229 336.547 220.229Z" fill="#F4F4F4"/>
<path d="M264.672 228.041H335.415L335.83 223.122H265.085L264.672 228.041ZM335.816 228.915H264.198C264.074 228.915 263.959 228.863 263.876 228.774C263.793 228.685 263.753 228.564 263.765 228.441L264.251 222.649C264.269 222.423 264.46 222.248 264.684 222.248H336.305C336.426 222.248 336.543 222.3 336.626 222.389C336.708 222.48 336.749 222.599 336.739 222.72L336.251 228.516C336.233 228.74 336.043 228.915 335.816 228.915Z" fill="#F4F4F4"/>
<path d="M263.943 236.736H334.686L335.1 231.815H264.359L263.943 236.736ZM335.086 237.609H263.467C263.344 237.609 263.227 237.558 263.146 237.467C263.063 237.378 263.021 237.257 263.033 237.136L263.521 231.342C263.54 231.116 263.729 230.942 263.956 230.942H335.575C335.698 230.942 335.813 230.993 335.896 231.082C335.977 231.173 336.019 231.292 336.009 231.415L335.52 237.209C335.502 237.435 335.312 237.609 335.086 237.609Z" fill="#F4F4F4"/>
<path d="M324.87 243.466L323.764 239.789C323.433 238.151 326.765 234.613 324.586 233.626C323.001 232.908 323.165 235.406 320.914 235.813C319.74 236.027 318.447 233.751 318.245 232.686C317.544 228.996 315.951 227.639 314.541 228.138C313.132 228.636 311.284 234.368 313.801 238.402C316.317 242.436 321.383 245.826 321.383 245.826L324.87 243.466Z" fill="#1D1B1B"/>
<path d="M315.106 228.475C314.968 228.475 314.828 228.5 314.687 228.549C314.405 228.648 313.928 229.26 313.541 230.363C312.838 232.373 312.583 235.624 314.171 238.171C316.302 241.586 320.359 244.575 321.385 245.297L324.36 243.286L323.346 239.914C323.178 239.094 323.632 238.114 324.113 237.077C324.557 236.117 325.061 235.028 324.841 234.442C324.8 234.328 324.709 234.16 324.407 234.024C323.953 233.819 323.817 233.932 323.32 234.598C322.873 235.196 322.261 236.014 320.992 236.243C319.483 236.518 318.044 233.963 317.816 232.768C317.419 230.677 316.675 229.182 315.774 228.666C315.554 228.539 315.33 228.475 315.106 228.475ZM321.383 246.263C321.298 246.263 321.214 246.237 321.14 246.189C320.93 246.049 315.967 242.7 313.43 238.632C311.677 235.823 311.952 232.268 312.717 230.075C312.927 229.474 313.513 228.039 314.395 227.727C315.001 227.513 315.628 227.575 316.21 227.908C317.363 228.57 318.215 230.196 318.673 232.604C318.875 233.671 320.088 235.523 320.836 235.385C321.769 235.215 322.203 234.635 322.621 234.074C323.075 233.471 323.636 232.717 324.767 233.229C325.209 233.43 325.511 233.736 325.661 234.139C326.005 235.065 325.447 236.275 324.905 237.443C324.504 238.307 324.091 239.201 324.193 239.701L325.289 243.342C325.343 243.523 325.273 243.722 325.116 243.829L321.627 246.187C321.555 246.237 321.469 246.263 321.383 246.263Z" fill="#F4F4F4"/>
<path d="M324.581 241.292L319.545 244.329C318.852 244.746 318.504 245.562 318.696 246.349C320.164 252.435 333.113 272.171 375.137 271.895C382.859 271.846 385.951 261.697 382.982 254.569C381.349 250.651 377.205 248.43 373.028 249.178C363.186 250.946 339.471 256.742 326.983 241.715C326.39 241.001 325.375 240.814 324.581 241.292Z" fill="#1D1B1B"/>
<path d="M374.296 272.334C356.758 272.334 341.963 268.723 331.467 261.874C322.586 256.079 318.993 249.451 318.268 246.449C318.032 245.475 318.455 244.474 319.315 243.956L324.354 240.921C325.33 240.33 326.577 240.545 327.313 241.435C334.478 250.053 346.381 252.984 363.705 250.389C363.95 250.356 364.168 250.52 364.201 250.758C364.236 250.996 364.074 251.219 363.834 251.254C346.183 253.896 334.018 250.865 326.642 241.993C326.184 241.437 325.408 241.301 324.805 241.666L319.766 244.703C319.233 245.024 318.97 245.644 319.115 246.244C320.705 252.824 334.249 271.462 374.281 271.462C374.563 271.462 374.845 271.46 375.132 271.458C375.134 271.458 375.134 271.458 375.134 271.458C375.377 271.458 375.57 271.654 375.572 271.894C375.572 272.134 375.379 272.332 375.139 272.332C374.859 272.334 374.576 272.334 374.296 272.334Z" fill="#F4F4F4"/>
<path d="M254.412 379.991H288.805C288.805 379.991 293.521 408.671 272.994 410.96C252.467 413.25 254.412 379.991 254.412 379.991Z" fill="#1D1B1B"/>
<path d="M254.83 380.427C254.733 383.26 254.509 399.94 262.174 407.21C265.001 409.893 268.623 411.006 272.945 410.526C277.709 409.994 281.471 407.95 284.125 404.447C290.254 396.355 288.751 382.82 288.428 380.427H254.83ZM271.025 411.509C267.314 411.509 264.143 410.28 261.573 407.841C252.93 399.642 253.929 380.764 253.976 379.965C253.989 379.734 254.18 379.555 254.412 379.555H288.805C289.018 379.555 289.201 379.708 289.236 379.919C289.341 380.565 291.753 395.824 284.82 404.973C282.016 408.674 278.054 410.835 273.042 411.394C272.353 411.47 271.682 411.509 271.025 411.509Z" fill="#F4F4F4"/>
<path d="M264.724 372.978C262.265 373.05 257.028 373.13 252.098 369.771C250.274 368.527 245.264 365.116 245.733 360.628C246.135 356.779 250.447 353.235 256.298 352.598C249.355 353.422 243.769 348.218 243.761 342.842C243.753 338.724 247.02 334.633 251.849 333.28C244.365 327.626 240.436 318.512 241.678 309.468C242.887 300.672 248.979 292.014 258.173 289.34C259.329 289.004 269.321 286.266 276.517 292.397C282.557 297.543 282.623 305.528 282.67 310.97C282.75 320.654 278.866 328.012 276.517 331.705C277.008 331.67 281.973 330.039 286.615 334.16C291.344 338.364 291.578 348.021 289.272 351.843C286.86 355.844 281.046 354.997 280.01 355.289C284.36 359.129 284.208 362.33 284.159 362.933C283.667 369.179 272.341 372.756 264.724 372.978Z" fill="#1D1B1B"/>
<path d="M256.215 353.048C250.866 353.674 246.558 356.936 246.168 360.672C245.726 364.901 250.535 368.176 252.344 369.41C257.256 372.757 262.482 372.605 264.711 372.541C272.19 372.323 283.264 368.764 283.726 362.897C283.79 362.076 283.693 359.12 279.723 355.616C279.602 355.51 279.55 355.347 279.587 355.191C279.622 355.035 279.738 354.911 279.892 354.868C280.157 354.794 280.581 354.782 281.169 354.765C283.243 354.704 287.104 354.591 288.899 351.616C291.148 347.888 290.883 338.535 286.325 334.487C283.675 332.133 280.502 331.321 276.9 332.076C276.728 332.111 276.61 332.135 276.547 332.139C276.38 332.148 276.226 332.069 276.142 331.926C276.059 331.786 276.061 331.609 276.148 331.469C278.965 327.041 282.308 319.892 282.233 310.973C282.19 305.706 282.124 297.747 276.234 292.728C269.415 286.92 260.095 289.235 258.296 289.758C249.905 292.198 243.4 300.144 242.111 309.528C240.894 318.383 244.726 327.351 252.112 332.931C252.245 333.032 252.309 333.198 252.278 333.361C252.247 333.525 252.126 333.655 251.966 333.7C247.459 334.964 244.19 338.807 244.198 342.839C244.202 345.234 245.374 347.647 247.416 349.457C249.755 351.533 252.919 352.522 256.117 352.179C256.162 352.173 256.207 352.169 256.252 352.164C256.491 352.14 256.705 352.31 256.733 352.549C256.76 352.789 256.589 353.003 256.351 353.032C256.306 353.038 256.26 353.042 256.215 353.048ZM263.401 373.437C260.695 373.437 256.176 373.076 251.853 370.131C249.926 368.818 244.803 365.327 245.3 360.58C245.648 357.236 248.594 354.325 252.728 352.933C250.541 352.549 248.497 351.583 246.836 350.111C244.609 348.133 243.33 345.485 243.324 342.841C243.318 338.671 246.47 334.697 250.927 333.114C243.723 327.316 240.024 318.309 241.246 309.409C242.582 299.688 249.334 291.454 258.051 288.919C259.926 288.374 269.641 285.964 276.8 292.064C282.994 297.34 283.062 305.541 283.107 310.967C283.179 319.551 280.163 326.529 277.408 331.095C281.012 330.519 284.207 331.438 286.905 333.835C291.755 338.143 292.04 348.098 289.647 352.068C287.606 355.45 283.276 355.577 281.195 355.637C281.14 355.639 281.086 355.641 281.033 355.641C284.483 359.015 284.682 361.856 284.596 362.966C284.086 369.42 272.737 373.181 264.739 373.413C264.367 373.423 263.917 373.437 263.401 373.437Z" fill="#F4F4F4"/>
<path d="M267.212 377.229C267.192 377.229 267.173 377.228 267.153 377.224C266.914 377.193 266.746 376.972 266.777 376.733C271.166 344.333 260.915 307.774 260.812 307.41C260.746 307.178 260.88 306.937 261.112 306.871C261.341 306.805 261.585 306.939 261.651 307.171C261.756 307.537 272.056 344.265 267.644 376.852C267.613 377.07 267.426 377.229 267.212 377.229Z" fill="#F4F4F4"/>
<path d="M272.162 374.471C271.381 372.561 268 363.736 272.386 356.3C273.288 354.772 276.305 349.657 280.686 350.019C283.953 350.288 286.013 353.44 286.467 354.172C285.151 349.375 287.514 344.519 291.455 342.84C296.114 340.856 302.304 343.6 304.019 349.345C305.17 349.018 308.279 348.311 311.422 349.795C315.557 351.746 318.045 356.689 317.479 362.133C315.758 367.972 310.423 371.547 305.364 370.883C299.87 370.161 297.247 364.769 297.064 364.376C297.921 365.723 299.181 368.225 298.41 370.659C297.115 374.744 290.686 376.773 286.072 375.593C281.786 374.501 280.546 371.019 277.098 371.331C274.826 371.537 273.14 373.247 272.162 374.471Z" fill="#1D1B1B"/>
<path d="M277.527 370.875C279.294 370.875 280.527 371.817 281.827 372.81C283.037 373.733 284.285 374.687 286.179 375.17C290.513 376.278 296.749 374.453 297.993 370.526C298.517 368.873 298.034 367.15 297.341 365.75C296.921 365.092 296.699 364.627 296.669 364.561C296.572 364.352 296.652 364.105 296.854 363.994C297.055 363.883 297.308 363.947 297.433 364.142C297.664 364.506 297.898 364.909 298.114 365.343C299.185 367.012 301.58 369.944 305.421 370.448C310.437 371.108 315.423 367.499 317.049 362.047C317.576 356.843 315.242 352.08 311.235 350.188C308.429 348.864 305.585 349.354 304.138 349.765C303.906 349.83 303.669 349.699 303.601 349.469C302.816 346.839 300.951 344.666 298.484 343.508C296.224 342.445 293.724 342.347 291.627 343.241C287.756 344.888 285.675 349.639 286.888 354.056C286.946 354.265 286.841 354.485 286.642 354.57C286.444 354.658 286.212 354.586 286.097 354.401C285.408 353.293 283.5 350.688 280.651 350.453C277.926 350.229 275.272 352.269 272.762 356.521C269.045 362.822 270.994 370.162 272.301 373.63C273.782 371.967 275.381 371.048 277.059 370.896C277.219 370.882 277.375 370.875 277.527 370.875ZM288.802 376.354C287.814 376.354 286.851 376.243 285.963 376.017C283.897 375.489 282.517 374.434 281.298 373.503C279.916 372.448 278.819 371.613 277.137 371.764C275.523 371.91 273.964 372.913 272.503 374.743C272.406 374.864 272.254 374.926 272.1 374.903C271.946 374.882 271.816 374.78 271.758 374.636C270.441 371.416 267.83 363.163 272.011 356.077C274.705 351.514 277.636 349.327 280.722 349.584C282.935 349.765 284.621 351.159 285.712 352.413C285.344 348.175 287.569 344.02 291.284 342.439C293.611 341.448 296.37 341.549 298.856 342.717C301.42 343.92 303.387 346.13 304.308 348.817C305.962 348.41 308.793 348.069 311.607 349.399C315.96 351.453 318.493 356.59 317.913 362.177C317.909 362.205 317.905 362.23 317.898 362.255C316.165 368.135 310.752 372.027 305.308 371.315C302.495 370.945 300.402 369.393 298.979 367.868C299.148 368.813 299.138 369.806 298.827 370.789C297.705 374.327 293.032 376.354 288.802 376.354Z" fill="#F4F4F4"/>
<path d="M271.819 376.857C271.794 376.857 271.768 376.855 271.743 376.85C271.506 376.809 271.346 376.581 271.389 376.345C271.486 375.792 273.918 362.777 286.077 358.153C294.809 354.831 302.648 358.151 304.844 359.247C305.058 359.354 305.146 359.617 305.039 359.833C304.932 360.047 304.669 360.135 304.453 360.028C302.338 358.972 294.788 355.773 286.388 358.968C274.685 363.417 272.343 375.964 272.247 376.497C272.21 376.708 272.027 376.857 271.819 376.857Z" fill="#F4F4F4"/>
</svg>
