<svg width="512" height="512" viewBox="0 0 512 512" fill="none" xmlns="http://www.w3.org/2000/svg">
<path d="M416.63 333.895H150.73C143.284 333.895 137.248 327.858 137.248 320.412V113.471C137.248 106.025 143.284 99.9909 150.73 99.9909H416.63C424.076 99.9909 430.112 106.025 430.112 113.471V320.412C430.112 327.858 424.076 333.895 416.63 333.895Z" fill="#1D1B1B"/>
<path d="M150.73 100.421C143.533 100.421 137.678 106.275 137.678 113.471V320.412C137.678 327.608 143.533 333.463 150.73 333.463H416.63C423.828 333.463 429.682 327.608 429.682 320.412V113.471C429.682 106.275 423.828 100.421 416.63 100.421H150.73ZM416.63 334.324H150.73C143.058 334.324 136.817 328.083 136.817 320.412V113.471C136.817 105.801 143.058 99.5591 150.73 99.5591H416.63C424.302 99.5591 430.544 105.801 430.544 113.471V320.412C430.544 328.083 424.302 334.324 416.63 334.324Z" fill="#F4F4F4"/>
<path d="M137.746 128.381H429.751V113.506C429.751 106.291 423.881 100.421 416.665 100.421H150.832C143.616 100.421 137.746 106.291 137.746 113.506V128.381ZM430.18 129.24H137.316C137.078 129.24 136.886 129.049 136.886 128.81V113.506C136.886 105.817 143.142 99.5594 150.832 99.5594H416.665C424.355 99.5594 430.61 105.817 430.61 113.506V128.81C430.61 129.049 430.419 129.24 430.18 129.24Z" fill="#F4F4F4"/>
<path d="M170.52 149.717C164.599 149.717 159.782 154.534 159.782 160.455V301.037C159.782 306.957 164.599 311.774 170.52 311.774H396.843C402.763 311.774 407.58 306.957 407.58 301.037V160.455C407.58 154.534 402.763 149.717 396.843 149.717H170.52ZM396.843 312.636H170.52C164.124 312.636 158.921 307.432 158.921 301.037V160.455C158.921 154.06 164.124 148.856 170.52 148.856H396.843C403.237 148.856 408.441 154.06 408.441 160.455V301.037C408.441 307.432 403.237 312.636 396.843 312.636Z" fill="#F4F4F4"/>
<path d="M387.921 114.913C387.921 117.629 385.72 119.832 383.001 119.832C380.285 119.832 378.082 117.629 378.082 114.913C378.082 112.195 380.285 109.993 383.001 109.993C385.72 109.993 387.921 112.195 387.921 114.913Z" fill="#F4F4F4"/>
<path d="M404.008 114.913C404.008 117.629 401.805 119.832 399.088 119.832C396.37 119.832 394.169 117.629 394.169 114.913C394.169 112.195 396.37 109.993 399.088 109.993C401.805 109.993 404.008 112.195 404.008 114.913Z" fill="#F4F4F4"/>
<path d="M420.092 114.913C420.092 117.629 417.89 119.832 415.172 119.832C412.456 119.832 410.253 117.629 410.253 114.913C410.253 112.195 412.456 109.993 415.172 109.993C417.89 109.993 420.092 112.195 420.092 114.913Z" fill="#F4F4F4"/>
<path d="M250.364 211.525H90.8562C85.8658 211.525 81.8203 207.479 81.8203 202.49V88.3222C81.8203 83.3312 85.8658 79.285 90.8562 79.285H250.364C255.355 79.285 259.402 83.3312 259.402 88.3222V202.49C259.402 207.479 255.355 211.525 250.364 211.525Z" fill="#1D1B1B"/>
<path d="M90.8563 79.7166C86.1112 79.7166 82.2504 83.577 82.2504 88.3221V202.49C82.2504 207.235 86.1112 211.095 90.8563 211.095H250.364C255.109 211.095 258.97 207.235 258.97 202.49V88.3221C258.97 83.577 255.109 79.7166 250.364 79.7166H90.8563ZM250.364 211.955H90.8563C85.6363 211.955 81.3896 207.709 81.3896 202.49V88.3221C81.3896 83.1007 85.6363 78.8551 90.8563 78.8551H250.364C255.584 78.8551 259.831 83.1007 259.831 88.3221V202.49C259.831 207.709 255.584 211.955 250.364 211.955Z" fill="#F4F4F4"/>
<path d="M242.225 95.9766H211.981C210.73 95.9766 209.716 94.9621 209.716 93.7134C209.716 92.4627 210.73 91.4502 211.981 91.4502H242.225C243.476 91.4502 244.49 92.4627 244.49 93.7134C244.49 94.9621 243.476 95.9766 242.225 95.9766Z" fill="#E49273"/>
<path d="M248.722 105.668H205.407C204.157 105.668 203.144 104.655 203.144 103.405C203.144 102.154 204.157 101.142 205.407 101.142H248.722C249.973 101.142 250.986 102.154 250.986 103.405C250.986 104.655 249.973 105.668 248.722 105.668Z" fill="#F4F4F4"/>
<path d="M248.833 123.885H205.55C204.301 123.885 203.287 122.872 203.287 121.622C203.287 120.371 204.301 119.358 205.55 119.358H248.833C250.084 119.358 251.096 120.371 251.096 121.622C251.096 122.872 250.084 123.885 248.833 123.885Z" fill="#F4F4F4"/>
<path d="M248.689 132.635H206.348C205.098 132.635 204.085 131.622 204.085 130.372C204.085 129.123 205.098 128.108 206.348 128.108H248.689C249.94 128.108 250.952 129.123 250.952 130.372C250.952 131.622 249.94 132.635 248.689 132.635Z" fill="#F4F4F4"/>
<path d="M248.977 141.531H206.635C205.385 141.531 204.372 140.519 204.372 139.268C204.372 138.017 205.385 137.005 206.635 137.005H248.977C250.227 137.005 251.24 138.017 251.24 139.268C251.24 140.519 250.227 141.531 248.977 141.531Z" fill="#F4F4F4"/>
<path d="M248.833 150.283H205.55C204.301 150.283 203.287 149.271 203.287 148.02C203.287 146.769 204.301 145.757 205.55 145.757H248.833C250.082 145.757 251.096 146.769 251.096 148.02C251.096 149.271 250.082 150.283 248.833 150.283Z" fill="#F4F4F4"/>
<path d="M248.688 159.322H205.407C204.157 159.322 203.144 158.31 203.144 157.059C203.144 155.808 204.157 154.796 205.407 154.796H248.688C249.938 154.796 250.953 155.808 250.953 157.059C250.953 158.31 249.938 159.322 248.688 159.322Z" fill="#F4F4F4"/>
<path d="M221.25 115.166H205.487C204.237 115.166 203.224 114.153 203.224 112.903C203.224 111.652 204.237 110.64 205.487 110.64H221.25C222.501 110.64 223.514 111.652 223.514 112.903C223.514 114.153 222.501 115.166 221.25 115.166Z" fill="#F4F4F4"/>
<path d="M248.939 115.166H232.305C231.055 115.166 230.042 114.153 230.042 112.903C230.042 111.652 231.055 110.64 232.305 110.64H248.939C250.19 110.64 251.202 111.652 251.202 112.903C251.202 114.153 250.19 115.166 248.939 115.166Z" fill="#E49273"/>
<path d="M136.28 166.531H93.619C92.369 166.531 91.3555 165.517 91.3555 164.266C91.3555 163.017 92.369 162.003 93.619 162.003H136.28C137.53 162.003 138.544 163.017 138.544 164.266C138.544 165.517 137.53 166.531 136.28 166.531Z" fill="#F4F4F4"/>
<path d="M176.778 166.386H144.117C142.867 166.386 141.854 165.373 141.854 164.123C141.854 162.872 142.867 161.859 144.117 161.859H176.778C178.028 161.859 179.041 162.872 179.041 164.123C179.041 165.373 178.028 166.386 176.778 166.386Z" fill="#F4F4F4"/>
<path d="M123.543 157.092H93.4743C92.2244 157.092 91.2109 156.079 91.2109 154.829C91.2109 153.58 92.2244 152.565 93.4743 152.565H123.543C124.793 152.565 125.806 153.578 125.806 154.829C125.806 156.079 124.793 157.092 123.543 157.092Z" fill="#E49273"/>
<path d="M94.2536 173.063C92.7505 173.063 91.5277 174.285 91.5277 175.789V201.898C91.5277 203.402 92.7505 204.624 94.2536 204.624H176.89C178.393 204.624 179.616 203.402 179.616 201.898V175.789C179.616 174.285 178.393 173.063 176.89 173.063H94.2536ZM176.89 205.485H94.2536C92.2758 205.485 90.667 203.877 90.667 201.898V175.789C90.667 173.81 92.2758 172.202 94.2536 172.202H176.89C178.867 172.202 180.476 173.81 180.476 175.789V201.898C180.476 203.877 178.867 205.485 176.89 205.485Z" fill="#F4F4F4"/>
<path d="M190.375 173.061C188.872 173.061 187.649 174.285 187.649 175.787V201.898C187.649 203.4 188.872 204.624 190.375 204.624H249.484C250.986 204.624 252.21 203.4 252.21 201.898V175.787C252.21 174.285 250.986 173.061 249.484 173.061H190.375ZM249.484 205.483H190.375C188.397 205.483 186.788 203.875 186.788 201.898V175.787C186.788 173.81 188.397 172.202 190.375 172.202H249.484C251.46 172.202 253.069 173.81 253.069 175.787V201.898C253.069 203.875 251.46 205.483 249.484 205.483Z" fill="#F4F4F4"/>
<path d="M193.962 141.363H94.544C92.6422 141.363 91.1006 139.822 91.1006 137.919V94.7328C91.1006 92.8297 92.6422 91.2886 94.544 91.2886H193.962C195.863 91.2886 197.405 92.8297 197.405 94.7328V137.919C197.405 139.822 195.863 141.363 193.962 141.363Z" fill="#F4F4F4"/>
<path d="M397.814 312.12C397.402 309.967 397.011 308.37 396.655 306.856C394.029 295.654 391.21 286.524 389.153 280.368L383.569 260.026L314.698 272.548C314.698 272.548 312.468 287.587 307.918 312.12H397.814Z" fill="#F4F4F4"/>
<path d="M323.6 309.552C331.16 309.552 336.079 301.316 332.697 294.315C331.922 292.71 331.133 291.092 330.356 289.524C324.546 277.797 307.918 280.357 305.845 293.361C305.81 293.589 305.345 293.82 305.314 294.05C304.242 302.28 310.572 309.552 318.593 309.552H323.6Z" fill="#F4F4F4"/>
<path d="M418.223 217.341C418.223 188.429 412.607 175.08 373.277 164.268C363.287 161.523 348.562 160.369 334.29 161.974C294.548 162.465 279.362 180.197 265.448 179.758C250.128 179.274 237.405 159.385 237.405 159.385C232.334 153.881 226.956 156.665 224.079 158.303C220.631 160.264 219.16 164.851 218.538 168.07C218.136 170.149 218.49 172.306 219.512 174.14C224.592 183.235 242.436 213.119 258.948 215.578C272.049 217.529 298.307 210.236 310.27 207.927C318.705 237.377 305.31 294.044 305.31 294.044C315.313 286.881 348.812 296.117 370.282 304.275C381.017 308.357 390.653 306.08 397.69 302.053C404.727 298.026 392.263 256.433 392.263 256.433C392.263 256.433 418.223 242.548 418.223 217.341Z" fill="#1D1B1B"/>
<path d="M316.76 291.063C332.099 291.063 355.869 298.338 370.435 303.875C381.962 308.254 391.503 305.099 397.475 301.68C403.005 298.516 395.292 268.036 391.851 256.557C391.793 256.362 391.88 256.151 392.06 256.054C392.318 255.917 417.792 241.995 417.792 217.342C417.792 189.887 413.389 175.741 373.163 164.683C362.577 161.773 347.699 160.9 334.339 162.402C309.862 162.706 294.61 169.61 283.476 174.651C276.429 177.84 270.873 180.36 265.434 180.188C250.229 179.708 237.833 160.845 237.062 159.649C232.66 154.896 228.137 156.489 224.292 158.677C221.04 160.526 219.598 164.851 218.961 168.152C218.579 170.123 218.91 172.175 219.89 173.929C224.945 182.986 242.712 212.724 259.013 215.152C269.165 216.666 287.303 212.577 300.548 209.592C304.311 208.744 307.562 208.012 310.189 207.503C310.404 207.462 310.623 207.594 310.684 207.807C318.432 234.861 307.703 285.332 305.961 293.125C308.561 291.676 312.307 291.063 316.76 291.063ZM381.732 306.88C378.16 306.88 374.27 306.253 370.129 304.679C350.977 297.401 315.827 287.044 305.562 294.395C305.417 294.499 305.219 294.501 305.072 294.402C304.923 294.302 304.851 294.12 304.892 293.945C305.026 293.382 318.051 237.538 309.964 208.425C307.42 208.926 304.309 209.627 300.735 210.432C287.425 213.431 269.196 217.541 258.885 216.004C242.197 213.518 224.242 183.493 219.137 174.349C218.059 172.417 217.696 170.16 218.115 167.989C218.786 164.51 220.331 159.939 223.867 157.93C226.376 156.501 232.253 153.158 237.721 159.093C237.738 159.111 237.753 159.132 237.767 159.153C237.893 159.349 250.547 178.856 265.461 179.328C270.693 179.495 276.175 177.011 283.12 173.867C294.325 168.795 309.67 161.848 334.286 161.544C347.705 160.032 362.705 160.915 373.392 163.854C392.895 169.215 404.445 175.354 410.842 183.756C417.325 192.274 418.653 203.343 418.653 217.342C418.653 230.509 411.529 240.543 405.55 246.641C399.886 252.422 394.145 255.859 392.775 256.643C393.323 258.507 396.045 267.931 398.037 277.646C401.047 292.317 401.003 300.654 397.905 302.427C393.913 304.71 388.374 306.88 381.732 306.88Z" fill="#F4F4F4"/>
<path d="M229.144 178.087C224.714 178.087 221.841 173.183 221.719 172.972C221.601 172.767 221.673 172.503 221.878 172.385C222.083 172.267 222.346 172.337 222.466 172.542C222.493 172.591 225.27 177.293 229.223 177.225C232.268 177.179 235.283 174.418 238.183 169.017C238.295 168.808 238.556 168.73 238.766 168.843C238.975 168.955 239.054 169.216 238.942 169.425C235.881 175.123 232.615 178.037 229.233 178.087C229.202 178.087 229.173 178.087 229.144 178.087Z" fill="#F4F4F4"/>
<path d="M356.543 243.929C356.38 243.929 356.223 243.836 356.152 243.679C356.051 243.462 356.146 243.207 356.361 243.108C370.952 236.357 378.025 226.452 381.387 219.33C385.037 211.607 385.234 205.397 385.236 205.335C385.242 205.1 385.434 204.914 385.666 204.914C385.67 204.914 385.674 204.914 385.678 204.916C385.914 204.922 386.102 205.12 386.096 205.356C386.09 205.615 385.898 211.778 382.185 219.659C378.764 226.921 371.568 237.021 356.723 243.888C356.665 243.915 356.603 243.929 356.543 243.929Z" fill="#F4F4F4"/>
<path d="M362.991 264.208C362.757 264.208 362.564 264.018 362.562 263.782C362.558 263.544 362.749 263.348 362.988 263.346C380.88 263.134 392.68 256.483 392.798 256.416C393.003 256.298 393.267 256.369 393.385 256.576C393.503 256.782 393.433 257.045 393.226 257.163C393.108 257.231 381.11 263.991 362.997 264.208C362.995 264.208 362.993 264.208 362.991 264.208Z" fill="#F4F4F4"/>
<path d="M346.427 262.639C346.427 262.639 350.092 263.032 357.346 261.216C362.829 259.841 361.21 242.045 354.541 246.866C348.973 250.889 345.717 251.414 345.717 251.414L340.346 248.738C338.24 247.689 335.979 246.998 333.653 246.725C324.399 245.635 324.957 247.772 324.957 247.772C324.558 249.933 325.332 250.26 327.032 250.974L334.271 254.016C335.276 254.438 335.504 255.806 334.695 256.554C333.439 257.715 331.988 258.631 330.413 259.252C327.559 260.379 322.585 262.191 317.459 263.351C315.048 263.895 314.284 266.882 316.506 267.988L332.488 269.165C336.536 269.463 340.532 268.057 343.568 265.268L346.427 262.639Z" fill="#1D1B1B"/>
<path d="M316.626 267.565L332.519 268.736C336.426 269.025 340.346 267.645 343.277 264.95L346.135 262.321C346.226 262.237 346.35 262.197 346.472 262.21C346.508 262.214 350.167 262.568 357.242 260.797C358.634 260.448 359.66 258.756 360.057 256.156C360.593 252.633 359.793 248.021 357.743 246.769C356.903 246.256 355.912 246.405 354.795 247.214C349.207 251.252 345.922 251.816 345.784 251.837C345.695 251.853 345.604 251.837 345.523 251.798L340.154 249.123C338.064 248.081 335.858 247.417 333.603 247.152C327.052 246.38 325.708 247.276 325.452 247.568C325.449 247.572 325.373 247.663 325.373 247.663C325.389 247.723 325.391 247.787 325.379 247.849C325.044 249.671 325.501 249.862 327.199 250.577L334.437 253.618C335.04 253.872 335.469 254.416 335.586 255.074C335.704 255.744 335.479 256.414 334.987 256.869C333.682 258.075 332.198 259.012 330.571 259.653C327.394 260.905 322.558 262.638 317.554 263.769C316.357 264.04 315.726 264.961 315.631 265.753C315.538 266.518 315.9 267.174 316.626 267.565ZM333.539 269.635C333.177 269.635 332.817 269.621 332.455 269.594L316.475 268.417C316.419 268.413 316.365 268.398 316.315 268.372C315.211 267.825 314.636 266.806 314.775 265.65C314.934 264.338 315.974 263.244 317.364 262.93C322.576 261.751 327.679 259.87 330.256 258.851C331.781 258.249 333.177 257.37 334.401 256.238C334.679 255.982 334.803 255.603 334.738 255.223C334.672 254.85 334.441 254.553 334.104 254.412L326.864 251.369C325.197 250.67 324.091 250.203 324.521 247.758C324.51 247.595 324.541 247.307 324.804 247.003C325.725 245.948 328.719 245.71 333.706 246.296C336.06 246.575 338.358 247.266 340.538 248.352L345.775 250.962C346.421 250.815 349.496 249.98 354.289 246.515C356.065 245.233 357.391 245.545 358.192 246.035C360.61 247.51 361.483 252.505 360.906 256.286C360.455 259.246 359.195 261.194 357.451 261.631C351.056 263.232 347.443 263.138 346.58 263.081L343.86 265.583C341.026 268.189 337.314 269.635 333.539 269.635Z" fill="#F4F4F4"/>
<path d="M193.077 132.015C193.427 130.958 194.478 130.336 195.528 130.566C198.463 131.213 213.573 134.541 216.39 135.182C219.209 135.823 219.321 138.961 220.926 141.832C222.322 144.331 227.125 153.487 232.36 159.864C233.938 161.786 234.156 164.543 232.931 166.725C232.226 167.978 231.33 169.209 230.269 169.935C227.537 171.799 225.485 174.026 220 160.904C219.666 160.102 219.104 159.415 218.378 158.937C217.358 158.265 215.751 157.045 214.183 155.185C214.183 155.185 204.994 166.404 202.646 143.623C202.437 141.598 203.339 139.627 205.043 138.63C205.179 138.551 205.322 138.471 205.472 138.392L194.464 134.862C193.313 134.493 192.684 133.203 193.077 132.015Z" fill="#1D1B1B"/>
<path d="M214.183 154.754C214.309 154.754 214.429 154.808 214.512 154.905C216.03 156.706 217.581 157.896 218.614 158.578C219.41 159.101 220.026 159.848 220.397 160.736C223.075 167.141 225.119 170.356 226.833 170.856C227.791 171.135 228.656 170.531 229.659 169.832L230.025 169.578C230.894 168.984 231.746 167.954 232.555 166.513C233.7 164.479 233.487 161.915 232.027 160.136C227.34 154.425 222.984 146.478 221.123 143.084C220.895 142.666 220.701 142.313 220.55 142.042C220.051 141.148 219.7 140.252 219.362 139.386C218.622 137.493 218.037 135.996 216.295 135.601C213.707 135.013 200.36 132.07 195.436 130.986C194.604 130.804 193.766 131.303 193.486 132.149C193.327 132.628 193.365 133.137 193.593 133.584C193.806 134.004 194.162 134.314 194.596 134.451L205.603 137.983C205.768 138.035 205.886 138.182 205.901 138.354C205.916 138.527 205.826 138.691 205.673 138.773C205.529 138.848 205.392 138.924 205.261 139.001C203.737 139.892 202.879 141.688 203.074 143.58C204.145 153.97 206.614 156.826 208.495 157.391C211.134 158.183 213.823 154.944 213.85 154.911C213.931 154.812 214.051 154.754 214.179 154.754C214.181 154.754 214.181 154.754 214.183 154.754ZM227.321 171.787C227.084 171.787 226.842 171.754 226.593 171.683C224.554 171.088 222.465 167.915 219.604 161.067C219.298 160.338 218.792 159.726 218.142 159.296C217.133 158.632 215.656 157.507 214.177 155.834C213.296 156.764 210.845 158.996 208.249 158.216C205.146 157.285 203.117 152.388 202.217 143.667C202.005 141.607 202.867 139.634 204.436 138.511L194.333 135.272C193.679 135.061 193.144 134.6 192.825 133.975C192.498 133.33 192.441 132.568 192.669 131.878C193.088 130.612 194.359 129.869 195.621 130.146C200.546 131.23 213.896 134.173 216.485 134.761C218.674 135.259 219.397 137.111 220.163 139.073C220.492 139.911 220.831 140.78 221.302 141.622C221.454 141.895 221.648 142.25 221.878 142.67C223.727 146.042 228.056 153.941 232.693 159.59C234.375 161.642 234.621 164.593 233.305 166.936C232.432 168.492 231.491 169.621 230.511 170.289L230.151 170.538C229.268 171.154 228.36 171.787 227.321 171.787Z" fill="#F4F4F4"/>
<path d="M216.287 150.473C216.213 150.473 216.138 150.455 216.07 150.415C215.34 149.989 213.999 149.036 213.455 148.647C210.481 146.515 208.822 144.396 208.096 143.321C207.59 142.57 207.334 141.73 207.356 140.888C207.397 139.302 208.404 138.95 208.888 138.781C210.657 138.164 213.493 139.867 213.811 140.065C214.014 140.189 214.076 140.454 213.952 140.655C213.826 140.858 213.561 140.92 213.36 140.797C212.591 140.324 210.343 139.186 209.172 139.594C208.715 139.753 208.243 139.918 208.216 140.911C208.198 141.571 208.404 142.239 208.81 142.841C209.503 143.867 211.093 145.894 213.956 147.946C214.372 148.246 215.786 149.253 216.504 149.671C216.709 149.791 216.779 150.054 216.659 150.26C216.579 150.397 216.434 150.473 216.287 150.473Z" fill="#F4F4F4"/>
<path d="M214.306 155.746C214.19 155.746 214.076 155.7 213.993 155.611C211.557 153.022 211.7 150.269 211.708 150.153C211.724 149.917 211.929 149.737 212.165 149.75C212.401 149.766 212.581 149.969 212.568 150.207C212.566 150.248 212.459 152.724 214.618 155.02C214.782 155.194 214.773 155.465 214.6 155.628C214.517 155.707 214.411 155.746 214.306 155.746Z" fill="#F4F4F4"/>
<path d="M358.989 163.592L357.994 136.649L339.093 146.575L339.3 163.604C339.437 167.399 342.554 169.517 342.554 169.517C346.419 172.454 351.83 171.921 355.768 169.093L356.679 168.436C358.203 167.341 359.076 165.511 358.989 163.592Z" fill="#1D1B1B"/>
<path d="M339.527 146.832L339.73 163.598C339.858 167.11 342.767 169.141 342.798 169.162C346.332 171.847 351.435 171.675 355.516 168.742L356.428 168.088C357.843 167.069 358.641 165.397 358.559 163.612C358.559 163.61 358.559 163.608 358.559 163.608L357.588 137.346L339.527 146.832ZM348.595 171.927C346.312 171.927 344.111 171.241 342.295 169.859C342.179 169.782 339.014 167.586 338.87 163.619L338.661 146.579C338.659 146.418 338.748 146.269 338.892 146.193L357.793 136.268C357.924 136.198 358.081 136.202 358.209 136.275C358.337 136.351 358.418 136.484 358.424 136.632L359.421 163.573C359.514 165.65 358.583 167.598 356.929 168.787L356.017 169.441C353.717 171.094 351.108 171.927 348.595 171.927Z" fill="#F4F4F4"/>
<path d="M330.515 105.791C335.56 105.489 329.218 110.832 347.875 105.225C355.306 102.991 351.548 111.914 353.476 111.339C360.601 109.221 360.355 109.285 363.834 110.224C366.136 110.846 367.634 115.213 367.202 118.475C366.629 122.781 363.176 123.894 360.117 132.993C357.97 139.384 358.496 143.268 356.006 144.201C353.49 145.144 351.631 141.669 348.806 142.486C345.149 143.541 345.872 150.052 342.313 152.754C340.069 154.456 334.85 155.248 326.481 151.06C325.123 150.383 324.428 148.797 324.829 147.295C325.342 145.37 326.004 142.943 326.825 140.677C330.734 129.882 334.47 127.441 333.115 124.645C331.042 120.361 323.162 122.82 321.857 119.3C320.504 115.645 323.608 106.201 330.515 105.791Z" fill="#F4F4F4"/>
<path d="M348.123 124.375L346.68 127.147C345.999 128.454 345.408 129.805 344.909 131.195C343.974 133.803 342.197 138.215 341.225 140.707C338.104 148.72 328.526 139.917 328.526 139.917L327.859 137.712L326.571 137.172C326.321 137.067 326.091 136.91 325.926 136.691C325.512 136.144 325.51 135.418 325.863 134.883C327.787 131.958 331.802 125.391 333.243 119.496C333.243 119.496 341.465 117.31 348.123 124.375Z" fill="#1D1B1B"/>
<path d="M328.902 139.677C329.599 140.291 334.369 144.349 337.854 143.54C339.172 143.234 340.171 142.227 340.823 140.551C341.093 139.863 341.422 139.029 341.778 138.127C342.69 135.813 343.828 132.932 344.504 131.051C345.007 129.649 345.611 128.269 346.297 126.95L347.598 124.451C341.859 118.563 334.965 119.584 333.596 119.859C332.119 125.624 328.356 131.877 326.222 135.12C325.959 135.519 325.978 136.047 326.269 136.433C326.375 136.574 326.538 136.692 326.737 136.775L328.025 137.316C328.143 137.366 328.234 137.465 328.27 137.589L328.902 139.677ZM336.891 144.506C332.93 144.506 328.441 140.425 328.234 140.235C328.178 140.183 328.135 140.117 328.114 140.043L327.506 138.032L326.404 137.569C326.063 137.428 325.781 137.213 325.581 136.95C325.072 136.276 325.041 135.351 325.502 134.646C327.221 132.034 331.376 125.318 332.824 119.394C332.863 119.241 332.981 119.121 333.132 119.08C333.217 119.059 341.679 116.914 348.436 124.081C348.562 124.215 348.589 124.412 348.504 124.575L347.061 127.347C346.391 128.633 345.805 129.976 345.313 131.341C344.634 133.236 343.493 136.123 342.577 138.444C342.223 139.344 341.894 140.177 341.627 140.864C340.864 142.822 339.658 144.004 338.045 144.378C337.67 144.465 337.284 144.506 336.891 144.506Z" fill="#F4F4F4"/>
<path d="M346.084 134.053C346.084 134.053 349.548 127.382 352.148 129.654C354.75 131.925 350.759 139.17 346.084 134.053Z" fill="#1D1B1B"/>
<path d="M333.008 126.803C332.747 126.803 332.474 126.863 332.207 126.981C331.572 127.262 331.223 128.123 331.138 129.612C331.02 131.718 331.329 133.192 332.03 133.867C332.404 134.229 332.894 134.376 333.519 134.318C333.664 134.305 333.943 134.099 334.206 133.677C334.898 132.576 335.333 130.309 334.294 127.544C334.199 127.291 333.951 127.06 333.633 126.927C333.438 126.845 333.227 126.803 333.008 126.803ZM333.264 135.191C332.532 135.191 331.918 134.955 331.432 134.487C330.534 133.619 330.145 131.962 330.28 129.563C330.383 127.72 330.9 126.619 331.858 126.195C332.565 125.881 333.314 125.86 333.966 126.133C334.506 126.359 334.919 126.764 335.099 127.24C336.249 130.295 335.769 132.804 334.936 134.134C334.541 134.764 334.067 135.133 333.598 135.176C333.484 135.186 333.372 135.191 333.264 135.191Z" fill="#F4F4F4"/>
<path d="M349.211 128.865C349.194 128.865 349.174 128.865 349.155 128.861L333.38 126.801C333.146 126.77 332.98 126.556 333.011 126.319C333.042 126.083 333.254 125.917 333.493 125.95L349.267 128.01C349.501 128.039 349.668 128.255 349.637 128.492C349.61 128.708 349.424 128.865 349.211 128.865Z" fill="#F4F4F4"/>
<path d="M326.371 133.504C326.308 133.504 326.242 133.49 326.18 133.459C325.727 133.243 325.403 132.398 325.252 131.916C324.772 130.391 324.61 128.139 325.595 126.391C325.926 125.804 326.399 125.45 327.001 125.336C328.493 125.053 330.24 126.457 330.313 126.517C330.497 126.666 330.526 126.937 330.375 127.121C330.226 127.307 329.955 127.334 329.771 127.185C329.355 126.846 328.067 126.01 327.159 126.182C326.815 126.248 326.548 126.455 326.344 126.815C325.024 129.156 326.158 132.381 326.571 132.695C326.786 132.797 326.867 133.049 326.764 133.264C326.691 133.417 326.534 133.504 326.371 133.504Z" fill="#F4F4F4"/>
<path d="M239.356 291.908C239.356 298.502 234.009 303.85 227.415 303.85C220.821 303.85 215.476 298.502 215.476 291.908C215.476 285.314 220.821 279.969 227.415 279.969C234.009 279.969 239.356 285.314 239.356 291.908Z" fill="#1D1B1B"/>
<path d="M278.394 291.908C278.394 298.502 273.049 303.85 266.455 303.85C259.861 303.85 254.514 298.502 254.514 291.908C254.514 285.314 259.861 279.969 266.455 279.969C273.049 279.969 278.394 285.314 278.394 291.908Z" fill="#1D1B1B"/>
<path d="M266.454 280.399C260.108 280.399 254.945 285.562 254.945 291.908C254.945 298.254 260.108 303.418 266.454 303.418C272.8 303.418 277.964 298.254 277.964 291.908C277.964 285.562 272.8 280.399 266.454 280.399ZM266.454 304.279C259.634 304.279 254.083 298.729 254.083 291.908C254.083 285.088 259.634 279.537 266.454 279.537C273.275 279.537 278.825 285.088 278.825 291.908C278.825 298.729 273.275 304.279 266.454 304.279Z" fill="#E49273"/>
<path d="M262.487 296.53V287.288C262.487 286.815 262.983 286.507 263.405 286.716L272.647 291.282C273.118 291.514 273.122 292.182 272.653 292.42L263.411 297.099C262.987 297.312 262.487 297.004 262.487 296.53Z" fill="#E49273"/>
<path d="M317.433 291.908C317.433 298.502 312.088 303.85 305.492 303.85C298.898 303.85 293.553 298.502 293.553 291.908C293.553 285.314 298.898 279.969 305.492 279.969C312.088 279.969 317.433 285.314 317.433 291.908Z" fill="#1D1B1B"/>
<path d="M305.494 280.399C299.146 280.399 293.983 285.562 293.983 291.908C293.983 298.254 299.146 303.418 305.494 303.418C311.84 303.418 317.002 298.254 317.002 291.908C317.002 285.562 311.84 280.399 305.494 280.399ZM305.494 304.279C298.672 304.279 293.123 298.729 293.123 291.908C293.123 285.088 298.672 279.537 305.494 279.537C312.315 279.537 317.863 285.088 317.863 291.908C317.863 298.729 312.315 304.279 305.494 304.279Z" fill="#F4F4F4"/>
<path d="M309.408 296.243C309.298 296.243 309.187 296.201 309.104 296.115L301.138 288.151C300.971 287.982 300.971 287.709 301.138 287.541C301.306 287.372 301.579 287.372 301.747 287.541L309.712 295.507C309.881 295.676 309.881 295.949 309.712 296.115C309.629 296.201 309.519 296.243 309.408 296.243Z" fill="#F4F4F4"/>
<path d="M301.443 296.243C301.333 296.243 301.223 296.201 301.138 296.115C300.971 295.949 300.971 295.676 301.138 295.507L309.104 287.541C309.273 287.372 309.546 287.372 309.712 287.541C309.881 287.709 309.881 287.982 309.712 288.151L301.747 296.115C301.662 296.201 301.552 296.243 301.443 296.243Z" fill="#F4F4F4"/>
<path d="M248.395 244.536C248.254 244.536 248.114 244.466 248.033 244.339C247.905 244.137 247.962 243.872 248.163 243.742L269.294 230.159C269.496 230.032 269.761 230.09 269.889 230.289C270.018 230.489 269.96 230.756 269.759 230.883L248.627 244.466C248.556 244.513 248.475 244.536 248.395 244.536Z" fill="#F4F4F4"/>
<path d="M220.323 262.582C220.182 262.582 220.043 262.512 219.959 262.383C219.832 262.183 219.89 261.918 220.089 261.788L239.223 249.491C239.422 249.361 239.689 249.419 239.817 249.621C239.945 249.82 239.887 250.085 239.687 250.215L220.556 262.512C220.484 262.559 220.403 262.582 220.323 262.582Z" fill="#F4F4F4"/>
<path d="M238.616 265.676C238.475 265.676 238.338 265.604 238.254 265.476C238.127 265.277 238.185 265.012 238.384 264.882L287.587 233.254C287.789 233.126 288.056 233.184 288.184 233.383C288.312 233.583 288.253 233.85 288.054 233.978L238.849 265.606C238.777 265.653 238.698 265.676 238.616 265.676Z" fill="#F4F4F4"/>
<path d="M180.548 354.834L120.245 354.234C109.34 354.234 100.013 347.115 98.1027 336.277L87.7791 277.706C86.5492 270.728 91.8651 264.324 98.8864 264.324H138.233L180.548 354.834Z" fill="#1D1B1B"/>
<path d="M98.8866 264.754C95.691 264.754 92.6738 266.165 90.6082 268.628C88.5116 271.125 87.6349 274.409 88.2032 277.632L98.5269 336.204C100.353 346.565 109.284 353.804 120.245 353.804L179.869 354.396L137.96 264.754H98.8866ZM180.548 355.264C180.547 355.264 180.545 355.264 180.544 355.264L120.241 354.664C108.859 354.664 99.5795 347.134 97.6791 336.353L87.3554 277.781C86.7428 274.306 87.6882 270.769 89.9486 268.074C92.1781 265.418 95.436 263.894 98.8866 263.894H138.234C138.401 263.894 138.553 263.991 138.624 264.142L180.938 354.652C181.001 354.785 180.99 354.942 180.91 355.066C180.831 355.19 180.695 355.264 180.548 355.264Z" fill="#F4F4F4"/>
<path d="M144.571 426.449H134.65V354.13L144.571 354.507V426.449Z" fill="#F4F4F4"/>
<path d="M163.039 414.351H118.411C111.449 414.351 105.805 419.994 105.805 426.956H175.645C175.645 419.994 170.001 414.351 163.039 414.351Z" fill="#F4F4F4"/>
<path d="M104.092 309.978C103.887 309.978 103.705 309.83 103.669 309.623L98.6648 281.189C98.6236 280.955 98.78 280.732 99.0141 280.692C99.2499 280.649 99.4713 280.806 99.5126 281.04L104.516 309.474C104.558 309.706 104.401 309.931 104.167 309.972C104.142 309.976 104.117 309.978 104.092 309.978Z" fill="#F4F4F4"/>
<path d="M160.822 217.112C164.784 216.761 167.554 220.374 169.771 225.845C171.581 230.311 170.87 234.03 168.425 236.479C160.516 244.403 151.936 267.262 140.204 274.216C130.845 279.762 111.249 278.736 102.199 267.235C93.5946 256.298 92.2856 240.46 102.023 233.333C110.777 226.925 118.928 237.906 128.219 231.949C137.378 226.075 137.233 221.204 142.651 218.341C148.467 215.265 149.592 218.107 160.822 217.112Z" fill="#F4F4F4"/>
<path d="M217.293 391.165C217.21 391.51 221.247 409.983 221.247 409.983L211.967 408.429L209.172 392.811L217.293 391.165Z" fill="#1D1B1B"/>
<path d="M212.337 408.055L220.689 409.453C217.932 396.82 217.152 392.919 216.941 391.676L209.669 393.15L212.337 408.055ZM221.247 410.413C221.223 410.413 221.198 410.411 221.175 410.407L211.896 408.853C211.718 408.824 211.576 408.684 211.543 408.504L208.748 392.886C208.707 392.656 208.858 392.435 209.087 392.389L217.206 390.743C217.351 390.714 217.5 390.761 217.603 390.867C217.686 390.954 217.729 391.071 217.723 391.187C217.785 391.953 220.11 402.764 221.667 409.89C221.698 410.03 221.657 410.175 221.558 410.28C221.477 410.365 221.363 410.413 221.247 410.413Z" fill="#F4F4F4"/>
<path d="M216.32 403.924C216.887 403.446 217.698 402.981 218.732 402.936C220.287 402.869 221.704 403.843 222.349 405.273C223.957 408.849 228.199 418.812 229.4 426.954C229.823 429.831 227.651 432.172 224.267 430.286C218.722 427.196 211.031 420.101 207.004 409.625C206.542 408.423 206.707 407.062 207.466 406.024C208.086 405.176 208.926 404.15 209.904 403.275C210.837 402.439 212.241 402.427 213.209 403.223L214.08 403.939C214.734 404.478 215.671 404.468 216.32 403.924Z" fill="#1D1B1B"/>
<path d="M211.579 403.064C211.081 403.064 210.586 403.24 210.191 403.596C209.393 404.311 208.594 405.213 207.813 406.278C207.143 407.196 206.991 408.388 207.406 409.47C211.347 419.721 218.808 426.751 224.479 429.911C225.816 430.656 227.032 430.737 227.898 430.139C228.757 429.545 229.169 428.348 228.974 427.016C227.793 419.003 223.673 409.265 221.956 405.449C221.369 404.146 220.084 403.308 218.75 403.366C217.981 403.399 217.257 403.697 216.597 404.253C215.792 404.93 214.618 404.938 213.807 404.272L212.936 403.554C212.535 403.227 212.055 403.064 211.579 403.064ZM226.554 431.397C225.874 431.397 225.042 431.21 224.058 430.662C218.258 427.429 210.625 420.246 206.603 409.778C206.082 408.423 206.275 406.924 207.119 405.771C207.933 404.657 208.774 403.709 209.616 402.954C210.71 401.974 212.336 401.947 213.482 402.89L214.353 403.606C214.843 404.009 215.556 404.005 216.043 403.595C216.841 402.923 217.764 402.547 218.713 402.507C220.403 402.433 222.01 403.475 222.74 405.097C224.473 408.944 228.629 418.771 229.824 426.89C230.07 428.55 229.518 430.065 228.387 430.848C228.018 431.103 227.404 431.397 226.554 431.397Z" fill="#F4F4F4"/>
<path d="M227.287 428.154C226.557 428.154 218.734 427.697 209.247 408.947C209.139 408.734 209.224 408.475 209.437 408.368C209.65 408.262 209.907 408.347 210.016 408.558C219.524 427.351 227.223 427.291 227.302 427.293C227.546 427.283 227.738 427.471 227.748 427.707C227.755 427.945 227.57 428.145 227.331 428.152C227.324 428.154 227.308 428.154 227.287 428.154Z" fill="#F4F4F4"/>
<path d="M221.35 417.832C221.178 417.832 221.017 417.729 220.949 417.559C220.862 417.338 220.97 417.089 221.191 417.001L225.59 415.267C225.812 415.18 226.062 415.288 226.149 415.509C226.236 415.73 226.128 415.979 225.907 416.066L221.509 417.803C221.456 417.822 221.402 417.832 221.35 417.832Z" fill="#F4F4F4"/>
<path d="M219.809 414.463C219.636 414.463 219.474 414.358 219.408 414.188C219.321 413.967 219.431 413.718 219.652 413.63L224.811 411.623C225.032 411.538 225.282 411.646 225.369 411.869C225.454 412.089 225.345 412.339 225.123 412.426L219.965 414.434C219.913 414.453 219.861 414.463 219.809 414.463Z" fill="#F4F4F4"/>
<path d="M177.699 391.114C177.632 391.256 177.116 393.424 176.714 397.077C176.045 403.166 182.859 408.804 182.859 408.804L166.718 406.628L167.335 392.537L177.699 391.114Z" fill="#1D1B1B"/>
<path d="M167.166 406.255L181.556 408.195C179.633 406.309 175.756 401.856 176.287 397.032C176.568 394.478 176.911 392.593 177.125 391.628L167.75 392.916L167.166 406.255ZM182.86 409.234C182.84 409.234 182.821 409.234 182.802 409.23L166.661 407.054C166.44 407.025 166.279 406.832 166.288 406.609L166.906 392.521C166.915 392.312 167.071 392.141 167.277 392.112L177.641 390.689C177.799 390.668 177.954 390.734 178.047 390.862C178.136 390.986 178.155 391.144 178.096 391.284C178 391.561 177.513 393.756 177.143 397.127C176.506 402.915 183.067 408.417 183.134 408.474C183.282 408.595 183.331 408.801 183.254 408.977C183.185 409.136 183.029 409.234 182.86 409.234Z" fill="#F4F4F4"/>
<path d="M170.443 402.539C171.39 402.228 171.174 400.764 171.948 400.075C173.115 399.035 174.577 399.055 175.969 399.757C179.45 401.513 188.959 406.559 194.969 412.123C197.093 414.09 196.866 417.286 193.061 417.971C186.826 419.094 176.425 418.471 166.762 412.889C165.652 412.248 164.932 411.087 164.875 409.797C164.828 408.746 164.877 405.256 165.09 403.955C165.294 402.712 166.377 401.811 167.625 401.813L168.749 401.817C169.593 401.819 169.641 402.805 170.443 402.539Z" fill="#1D1B1B"/>
<path d="M167.617 402.245C166.567 402.245 165.683 402.992 165.514 404.024C165.306 405.292 165.259 408.757 165.305 409.78C165.355 410.918 165.98 411.94 166.977 412.515C176.43 417.977 186.609 418.695 192.985 417.547C194.495 417.276 195.491 416.563 195.79 415.541C196.084 414.534 195.657 413.346 194.677 412.438C188.764 406.963 179.488 402.014 175.775 400.142C174.826 399.662 173.442 399.319 172.234 400.396C171.976 400.626 171.852 401.013 171.721 401.422C171.528 402.024 171.309 402.707 170.578 402.948C169.903 403.172 169.522 402.795 169.27 402.545C169.072 402.349 168.958 402.249 168.748 402.247L167.623 402.245C167.621 402.245 167.619 402.245 167.617 402.245ZM187.411 418.873C181.308 418.873 173.718 417.404 166.546 413.261C165.294 412.538 164.509 411.251 164.445 409.816C164.397 408.74 164.445 405.228 164.665 403.885C164.903 402.434 166.144 401.383 167.617 401.383C167.62 401.383 167.623 401.383 167.625 401.383L168.75 401.387C169.323 401.387 169.642 401.703 169.875 401.933C170.111 402.167 170.147 402.183 170.308 402.131C170.608 402.032 170.729 401.697 170.901 401.161C171.054 400.682 171.228 400.14 171.662 399.753C172.886 398.661 174.484 398.526 176.163 399.374C179.909 401.263 189.268 406.258 195.261 411.807C196.483 412.937 197.002 414.461 196.616 415.783C196.387 416.565 195.631 417.946 193.137 418.395C191.459 418.697 189.524 418.873 187.411 418.873Z" fill="#F4F4F4"/>
<path d="M187.259 416.055C183.193 416.055 177.04 414.947 168.084 410.936C167.867 410.837 167.77 410.584 167.867 410.367C167.964 410.15 168.219 410.053 168.435 410.15C187.54 418.707 193.49 413.77 193.548 413.72C193.727 413.563 193.999 413.58 194.156 413.759C194.313 413.937 194.295 414.21 194.117 414.367C193.979 414.487 192.093 416.055 187.259 416.055Z" fill="#F4F4F4"/>
<path d="M182.758 410.246C182.687 410.246 182.614 410.229 182.547 410.19C182.34 410.074 182.267 409.81 182.384 409.603L184.719 405.46C184.835 405.253 185.098 405.18 185.305 405.298C185.512 405.414 185.585 405.675 185.469 405.882L183.133 410.027C183.055 410.167 182.908 410.246 182.758 410.246Z" fill="#F4F4F4"/>
<path d="M179.458 408.606C179.382 408.606 179.305 408.587 179.235 408.544C179.032 408.421 178.968 408.155 179.091 407.952L181.72 403.637C181.844 403.433 182.109 403.37 182.312 403.493C182.515 403.617 182.579 403.883 182.455 404.086L179.826 408.401C179.745 408.533 179.604 408.606 179.458 408.606Z" fill="#F4F4F4"/>
<path d="M133.965 320.089C133.965 320.089 190.467 317.636 196.644 323.373C205.023 331.153 219.417 395.926 219.417 395.926L205.519 399.821C205.519 399.821 184.578 346.665 179.39 346.665C174.201 346.665 125.281 344.918 125.281 344.918L133.965 320.089Z" fill="#F4F4F4"/>
<path d="M122.85 318.304C122.85 318.304 115.399 340.181 121.329 344.171C127.258 348.161 170.003 347.82 168.52 347.323C167.038 346.823 164.698 383.143 164.698 397.109L178.156 397.628C178.156 397.628 199.603 341.461 197.291 335.188C193.155 323.969 161.972 320.182 151.784 318.682C149.686 318.374 122.85 318.304 122.85 318.304Z" fill="#F4F4F4"/>
<path d="M190.184 366.09C190.14 366.09 190.096 366.084 190.052 366.07C189.826 365.997 189.701 365.755 189.774 365.528C190.258 364.018 190.739 362.531 191.21 361.076C194.976 349.438 198.229 339.387 196.882 335.323C194.023 326.694 172.641 323.387 165.615 322.299C165.38 322.263 165.219 322.044 165.255 321.808C165.292 321.573 165.514 321.413 165.746 321.45C178.165 323.37 194.988 326.87 197.699 335.052C199.134 339.385 195.999 349.074 192.029 361.341C191.558 362.797 191.077 364.282 190.593 365.792C190.535 365.974 190.366 366.09 190.184 366.09Z" fill="#1D1B1B"/>
<path d="M129.547 251.972C129.547 251.972 129.747 248.366 127.519 285.963C127.519 285.963 129.052 315.057 129.243 318.337C129.434 321.618 157.885 320.191 157.885 320.191C161.251 305.437 160.883 288.507 158.535 270.421L163.411 269.985L163.75 258.617C162.867 255.269 159.141 252.863 156.639 251.969C149.975 248.974 138.159 249.938 129.547 251.972Z" fill="#1D1B1B"/>
<path d="M127.95 285.965C128.002 286.946 129.487 315.111 129.673 318.311C129.683 318.48 130.159 319.963 143.64 320.063C149.826 320.112 156.063 319.845 157.538 319.777C160.507 306.517 160.694 290.386 158.109 270.475C158.094 270.358 158.127 270.242 158.2 270.151C158.273 270.06 158.38 270.002 158.497 269.991L162.993 269.59L163.318 258.667C162.508 255.73 159.223 253.349 156.495 252.373C149.761 249.349 138.073 250.441 129.955 252.319C129.866 253.751 129.488 260.012 127.95 285.965ZM145.114 320.931C144.622 320.931 144.128 320.929 143.633 320.925C128.957 320.814 128.857 319.095 128.814 318.362C128.625 315.117 127.105 286.276 127.089 285.986C127.089 285.97 127.089 285.953 127.09 285.937C128.024 270.165 128.532 261.643 128.806 257.064C128.943 254.776 129.022 253.473 129.066 252.741C129.085 252.429 129.1 252.189 129.119 252.007C129.117 251.988 129.117 251.968 129.118 251.947L129.122 251.868H129.135C129.19 251.471 129.289 251.432 129.577 251.448C129.611 251.45 129.67 251.457 129.733 251.486C137.984 249.576 149.911 248.472 156.816 251.575C159.736 252.619 163.305 255.242 164.167 258.506C164.177 258.547 164.182 258.588 164.181 258.628L163.842 269.996C163.835 270.215 163.667 270.393 163.45 270.413L159.02 270.81C161.578 290.777 161.344 306.964 158.305 320.288C158.263 320.476 158.1 320.611 157.907 320.621C157.841 320.625 151.663 320.931 145.114 320.931Z" fill="#F4F4F4"/>
<path d="M146.548 283.415C146.393 283.415 146.244 283.332 146.167 283.187C146.056 282.976 146.137 282.716 146.347 282.604C153.116 279.038 153.566 269.002 153.569 268.901C153.578 268.663 153.772 268.477 154.015 268.487C154.253 268.494 154.438 268.696 154.429 268.932C154.413 269.365 153.953 279.568 146.748 283.367C146.684 283.4 146.616 283.415 146.548 283.415Z" fill="#F4F4F4"/>
<path d="M134.354 251.471C134.354 251.471 127.503 250.681 123.092 256.706C118.71 262.69 118.176 269.513 119.003 274.998C120.406 284.308 126.257 294.907 125.987 297.8C125.856 299.203 124.368 309.185 118.733 318.124C114.093 325.487 114.292 341.718 115.198 342.245C121.306 345.805 131.322 353.028 143.251 353.89C145.455 354.048 147.255 352.908 147.574 351.125C148.848 343.999 152.262 323.33 152.775 303.925C153.219 287.123 141.253 261.606 140.726 259.417C139.449 254.108 134.354 251.471 134.354 251.471Z" fill="#1D1B1B"/>
<path d="M115.472 341.906C116.342 342.415 117.295 343 118.303 343.617C124.581 347.462 133.178 352.73 143.282 353.46C145.277 353.603 146.871 352.614 147.15 351.05C148.543 343.253 151.839 323.055 152.345 303.916C152.706 290.267 144.646 270.392 141.613 262.911C140.863 261.064 140.411 259.949 140.308 259.517C139.173 254.803 134.835 252.232 134.227 251.893C133.467 251.835 127.394 251.559 123.439 256.96C118.834 263.25 118.716 270.206 119.428 274.934C120.203 280.074 122.344 285.607 124.065 290.052C125.504 293.771 126.545 296.458 126.416 297.841C126.163 300.553 124.274 310.142 119.097 318.354C114.562 325.549 114.85 340.676 115.472 341.906ZM143.668 354.335C143.521 354.335 143.371 354.329 143.22 354.319C132.907 353.574 124.207 348.242 117.854 344.351C116.828 343.722 115.858 343.127 114.982 342.616C114.789 342.504 114.664 342.281 114.563 341.871C113.908 339.197 114.016 324.801 118.369 317.896C124.334 308.432 125.549 297.862 125.559 297.759C125.669 296.58 124.554 293.699 123.262 290.362C121.526 285.878 119.366 280.297 118.577 275.062C117.841 270.173 117.966 262.977 122.744 256.453C127.251 250.296 134.332 251.036 134.403 251.045C134.455 251.051 134.506 251.067 134.552 251.09C134.767 251.2 139.836 253.878 141.144 259.316C141.233 259.684 141.727 260.902 142.41 262.588C145.75 270.824 153.571 290.108 153.205 303.937C152.698 323.136 149.394 343.387 147.998 351.201C147.66 353.09 145.91 354.335 143.668 354.335Z" fill="#F4F4F4"/>
<path d="M190.878 303.718C182.951 300.64 168.951 287.831 165.153 277.605L164.787 259.839C164.368 257.035 163.379 255.903 161.037 254.338C160.119 253.725 158.538 253.034 157.253 252.778C157.253 252.778 156.589 252.402 156.443 256.038C156.372 257.808 158.625 277.493 159.028 294.365C159.311 306.173 157.549 316.488 157.667 318.757C157.675 318.925 165.447 320.48 165.97 319.959L166.022 319.802L165.574 298.069C169.945 301.879 178.294 308.448 184.925 308.21L190.878 303.718Z" fill="#1D1B1B"/>
<path d="M158.092 318.465C159.349 318.835 164.474 319.743 165.588 319.632L165.144 298.077C165.141 297.907 165.238 297.752 165.392 297.678C165.547 297.607 165.729 297.632 165.858 297.744C173.51 304.417 180.052 307.885 184.776 307.784L190.018 303.829C181.627 300.162 168.385 287.543 164.75 277.755C164.733 277.71 164.724 277.662 164.723 277.613L164.358 259.874C163.957 257.231 163.074 256.217 160.798 254.697C160.002 254.165 158.56 253.503 157.293 253.228C157.19 253.419 156.954 254.066 156.873 256.056C156.853 256.583 157.066 258.981 157.362 262.302C158.042 269.953 159.181 282.755 159.459 294.354C159.65 302.334 158.924 309.494 158.445 314.233C158.246 316.188 158.097 317.662 158.092 318.465ZM165.233 320.473C162.887 320.473 157.637 319.22 157.579 319.199C157.309 319.094 157.244 318.914 157.237 318.781C157.197 318.006 157.361 316.388 157.588 314.146C158.066 309.428 158.788 302.301 158.598 294.375C158.322 282.804 157.184 270.019 156.504 262.379C156.184 258.778 155.99 256.604 156.014 256.021C156.127 253.201 156.547 252.614 156.901 252.418C157.072 252.322 157.242 252.324 157.37 252.364C158.769 252.647 160.39 253.39 161.276 253.981C163.635 255.557 164.763 256.767 165.213 259.775C165.216 259.793 165.218 259.81 165.218 259.829L165.582 277.522C169.286 287.388 182.878 300.15 191.034 303.318C191.18 303.374 191.283 303.506 191.305 303.658C191.326 303.813 191.262 303.968 191.138 304.061L185.185 308.553C185.114 308.607 185.029 308.636 184.941 308.64C178.95 308.855 171.479 303.676 166.025 299.026L166.453 319.793C166.453 319.842 166.446 319.892 166.431 319.938L166.378 320.095C166.357 320.159 166.322 320.215 166.274 320.264C166.126 320.411 165.75 320.473 165.233 320.473Z" fill="#F4F4F4"/>
<path d="M180.766 305.044C180.99 304.605 181.367 304.256 181.832 304.09C182.164 303.972 182.492 303.813 182.803 303.646L187.126 301.354C187.936 300.957 189.094 301.881 189.934 302.157C192.471 302.99 197.722 304.953 197.29 306.796C196.823 308.786 192.309 307.844 190.707 307.443C190.341 307.352 187.025 308.552 185.976 308.631C184.527 308.742 184.193 308.374 183.485 308C183.162 307.832 182.802 307.754 182.412 307.753C181.815 307.749 181.247 307.499 180.873 307.032L180.864 307.021C180.453 306.506 180.381 305.797 180.681 305.211L180.766 305.044Z" fill="#1D1B1B"/>
<path d="M187.573 301.687C187.478 301.687 187.391 301.703 187.315 301.74L183.005 304.028C182.613 304.235 182.286 304.384 181.977 304.495C181.624 304.622 181.329 304.888 181.149 305.24C181.149 305.24 181.149 305.242 181.149 305.242L181.063 305.408C180.841 305.842 180.894 306.371 181.2 306.752C181.491 307.116 181.93 307.319 182.414 307.323C182.886 307.325 183.314 307.426 183.684 307.621C183.802 307.681 183.909 307.743 184.013 307.803C184.502 308.084 184.855 308.285 185.943 308.204C186.441 308.165 187.63 307.813 188.585 307.528C190.128 307.07 190.548 306.961 190.811 307.027C193.474 307.693 195.584 307.774 196.453 307.244C196.684 307.102 196.816 306.93 196.87 306.7C197.11 305.678 194.334 304.057 189.799 302.566C189.518 302.473 189.227 302.328 188.92 302.173C188.46 301.943 187.951 301.687 187.573 301.687ZM185.499 309.083C184.515 309.083 184.061 308.822 183.585 308.551C183.49 308.496 183.391 308.438 183.284 308.382C183.033 308.251 182.746 308.185 182.409 308.183C181.664 308.179 180.982 307.858 180.537 307.302C180.011 306.646 179.921 305.751 180.297 305.015L180.382 304.849C180.663 304.299 181.126 303.887 181.686 303.685C181.955 303.589 182.246 303.455 182.601 303.267L186.924 300.973C187.697 300.596 188.552 301.025 189.306 301.405C189.584 301.544 189.847 301.676 190.068 301.749C195.519 303.54 198.09 305.271 197.709 306.895C197.601 307.352 197.33 307.718 196.902 307.978C195.434 308.872 192.362 308.299 190.637 307.869C190.406 307.885 189.498 308.156 188.83 308.353C187.733 308.68 186.598 309.017 186.009 309.062C185.824 309.075 185.655 309.083 185.499 309.083Z" fill="#F4F4F4"/>
<path d="M140.609 296.407C146.189 309.172 156.169 312.205 172.537 314.385L170.79 319.215C146.333 322.269 141.73 317.429 131.843 304.479L140.609 296.407Z" fill="#1D1B1B"/>
<path d="M128.468 327.986C126.738 327.986 124.83 327.64 122.747 326.798C122.526 326.709 122.42 326.459 122.509 326.238C122.598 326.017 122.848 325.911 123.069 326C134.149 330.474 139.947 320.074 140.004 319.969C140.117 319.76 140.378 319.683 140.588 319.795C140.796 319.909 140.874 320.171 140.761 320.38C140.71 320.471 136.521 327.986 128.468 327.986Z" fill="#F4F4F4"/>
<path d="M165.584 297.293C165.353 297.293 165.162 297.111 165.154 296.879L164.568 280.512C164.559 280.274 164.745 280.074 164.983 280.066C165.23 280.053 165.419 280.243 165.428 280.481L166.014 296.848C166.023 297.086 165.837 297.285 165.599 297.293C165.594 297.293 165.589 297.293 165.584 297.293Z" fill="#F4F4F4"/>
<path d="M157.179 320.56C151.164 320.56 148.235 319.278 144.291 317.551C143.317 317.125 142.311 316.686 141.173 316.227C137.899 314.912 135.528 312.879 133.484 309.637C132.539 308.138 131.732 306.539 130.952 304.994C130.264 303.633 129.553 302.224 128.755 300.903C128.632 300.698 128.698 300.435 128.901 300.311C129.105 300.189 129.369 300.255 129.492 300.458C130.306 301.807 131.025 303.23 131.72 304.607C132.491 306.134 133.289 307.712 134.212 309.178C136.153 312.256 138.399 314.184 141.495 315.429C142.644 315.892 143.657 316.335 144.636 316.763C149.716 318.988 153.073 320.455 163.95 319.282C164.816 319.189 168.303 319.222 169.16 319.257C169.397 319.266 169.582 319.466 169.572 319.704C169.563 319.942 169.367 320.124 169.125 320.116C168.309 320.083 164.856 320.05 164.042 320.138C161.349 320.428 159.105 320.56 157.179 320.56Z" fill="#F4F4F4"/>
<path d="M172.174 314.616C172.161 314.616 172.149 314.616 172.136 314.614C171.984 314.601 156.923 313.199 148.335 307.205C145.776 305.418 144.5 301.463 143.149 297.277C142.881 296.445 142.61 295.605 142.325 294.772C142.248 294.546 142.368 294.302 142.593 294.224C142.818 294.147 143.063 294.269 143.139 294.493C143.426 295.33 143.698 296.176 143.968 297.012C145.274 301.058 146.506 304.878 148.827 306.499C157.229 312.363 172.063 313.743 172.212 313.757C172.449 313.778 172.624 313.987 172.602 314.223C172.583 314.448 172.395 314.616 172.174 314.616Z" fill="#F4F4F4"/>
<path d="M168.65 316.637C168.875 316.197 169.252 315.849 169.716 315.682C170.049 315.564 170.376 315.406 170.688 315.239L175.011 312.947C175.821 312.55 176.978 313.473 177.819 313.75C180.355 314.583 185.607 316.546 185.175 318.389C184.708 320.379 180.194 319.436 178.592 319.036C178.226 318.945 174.909 320.145 173.861 320.224C172.412 320.335 172.078 319.967 171.369 319.593C171.046 319.425 170.687 319.347 170.296 319.345C169.7 319.341 169.131 319.092 168.758 318.625L168.749 318.613C168.337 318.099 168.266 317.39 168.565 316.803L168.65 316.637Z" fill="#1D1B1B"/>
<path d="M169.034 316.833L168.949 316.999C168.727 317.435 168.78 317.963 169.086 318.345C169.377 318.709 169.816 318.912 170.3 318.916C170.772 318.918 171.2 319.019 171.57 319.214C171.687 319.274 171.795 319.336 171.898 319.396C172.388 319.675 172.741 319.878 173.829 319.797C174.327 319.758 175.515 319.406 176.471 319.121C178.015 318.662 178.436 318.554 178.697 318.618C181.359 319.286 183.469 319.367 184.339 318.837C184.569 318.695 184.702 318.523 184.756 318.291C184.996 317.27 182.22 315.65 177.685 314.159C177.403 314.066 177.113 313.921 176.805 313.766C176.229 313.478 175.576 313.149 175.201 313.333L170.891 315.621C170.498 315.828 170.172 315.977 169.863 316.087C169.509 316.215 169.215 316.48 169.034 316.833ZM173.385 320.676C172.4 320.676 171.947 320.414 171.471 320.143C171.376 320.089 171.277 320.031 171.17 319.975C170.918 319.843 170.632 319.777 170.294 319.776C169.55 319.772 168.868 319.45 168.423 318.895C167.897 318.236 167.806 317.344 168.183 316.608L168.268 316.442C168.268 316.442 168.268 316.442 168.268 316.442C168.549 315.892 169.012 315.48 169.572 315.278C169.841 315.181 170.132 315.048 170.487 314.86L174.81 312.566C175.581 312.188 176.437 312.618 177.192 312.998C177.47 313.137 177.733 313.269 177.954 313.342C183.405 315.133 185.976 316.864 185.594 318.488C185.487 318.945 185.215 319.311 184.787 319.57C183.32 320.465 180.248 319.892 178.523 319.462C178.291 319.477 177.384 319.748 176.716 319.946C175.618 320.273 174.483 320.61 173.894 320.654C173.71 320.668 173.541 320.676 173.385 320.676Z" fill="#F4F4F4"/>
<path d="M165.794 244.154C166.394 244.068 166.805 243.491 166.673 242.899C165.851 239.219 166.167 232.911 166.046 233.089C164.733 235.016 162 232.598 158.107 232.445C155.787 232.354 154.894 233.726 154.551 234.851C154.44 235.215 153.949 235.283 153.743 234.963C153.175 234.084 152.209 233.339 150.769 234.779C149.168 236.381 150.508 240.096 151.956 241.312C151.604 241.712 146.071 247.677 141.827 252.159C140.986 253.048 141.104 254.467 142.078 255.206L145.851 258.07C148.208 259.858 151.433 259.984 153.923 258.383L154.505 258.01C155.109 257.62 155.211 256.78 154.719 256.257L153.575 255.046C152.648 253.946 152.819 252.552 153.411 251.39L155.743 247.437C156.279 248.084 156.955 248.825 157.579 249.261C158.821 250.128 160.367 249.993 161.462 248.947C162.966 247.513 164.016 245.9 164.493 244.336L165.794 244.154Z" fill="#1D1B1B"/>
<path d="M152.299 234.4C151.94 234.4 151.528 234.628 151.073 235.083C150.535 235.623 150.452 236.432 150.477 237.017C150.546 238.612 151.442 240.318 152.234 240.982C152.322 241.058 152.377 241.164 152.386 241.28C152.394 241.394 152.356 241.509 152.28 241.596C151.936 241.989 146.491 247.861 142.14 252.455C141.823 252.79 141.663 253.243 141.701 253.702C141.739 254.16 141.971 254.584 142.338 254.863L146.112 257.726C148.317 259.399 151.362 259.519 153.69 258.021L154.273 257.647C154.452 257.531 154.57 257.343 154.596 257.13C154.622 256.919 154.553 256.708 154.406 256.551L153.262 255.341C152.327 254.232 152.247 252.728 153.028 251.194L155.373 247.218C155.445 247.096 155.57 247.018 155.71 247.007C155.847 246.995 155.986 247.053 156.076 247.162C156.755 247.983 157.344 248.571 157.826 248.908C158.898 249.655 160.209 249.549 161.166 248.635C162.612 247.255 163.621 245.723 164.082 244.209C164.131 244.051 164.268 243.932 164.434 243.909L165.734 243.725C165.906 243.702 166.061 243.607 166.16 243.464C166.256 243.325 166.289 243.156 166.253 242.994C165.649 240.287 165.65 236.204 165.65 234.243C165.65 234.171 165.65 234.098 165.65 234.028C164.714 234.522 163.478 234.138 162.096 233.708C160.926 233.346 159.599 232.934 158.09 232.874C156.463 232.81 155.408 233.519 154.963 234.977C154.863 235.308 154.587 235.542 154.243 235.59C153.899 235.637 153.569 235.488 153.382 235.197C153.065 234.707 152.73 234.44 152.385 234.404C152.356 234.4 152.328 234.4 152.299 234.4ZM150.114 259.928C148.514 259.928 146.918 259.42 145.591 258.412L141.818 255.548C141.256 255.123 140.901 254.474 140.843 253.771C140.786 253.07 141.03 252.375 141.515 251.864C145.303 247.863 150.131 242.666 151.356 241.332C150.42 240.326 149.682 238.547 149.617 237.054C149.57 235.968 149.863 235.077 150.465 234.475C151.149 233.79 151.825 233.478 152.475 233.548C153.092 233.614 153.64 234.011 154.105 234.731C154.463 233.668 155.415 231.91 158.124 232.014C159.746 232.078 161.19 232.528 162.351 232.888C164.148 233.445 165.112 233.695 165.691 232.847C165.797 232.69 165.999 232.619 166.179 232.675C166.511 232.775 166.511 232.804 166.511 234.243C166.51 236.173 166.51 240.192 167.093 242.806C167.181 243.201 167.099 243.619 166.867 243.954C166.632 244.293 166.263 244.521 165.854 244.579L164.82 244.724C164.285 246.292 163.231 247.853 161.76 249.258C160.514 250.447 158.735 250.59 157.334 249.613C156.889 249.303 156.377 248.819 155.808 248.174L153.782 251.609C153.433 252.296 152.966 253.655 153.904 254.768L155.032 255.961C155.355 256.304 155.508 256.768 155.451 257.235C155.394 257.701 155.134 258.116 154.738 258.371L154.156 258.745C152.926 259.537 151.519 259.928 150.114 259.928Z" fill="#F4F4F4"/>
<path d="M155.744 247.866C155.61 247.866 155.478 247.804 155.394 247.686L154.649 246.647C154.51 246.455 154.555 246.186 154.748 246.046C154.941 245.909 155.21 245.953 155.349 246.145L156.094 247.185C156.232 247.378 156.188 247.647 155.995 247.787C155.919 247.841 155.831 247.866 155.744 247.866Z" fill="#F4F4F4"/>
<path d="M192.149 318.523L205.245 279.927C206.031 278.717 207.398 277.983 208.868 277.983H243.778C245.36 277.983 246.38 279.522 245.863 280.881C245.658 281.421 245.437 281.955 245.257 282.503L233.421 318.592H233.415C233.378 320.703 231.661 322.402 229.545 322.402H165.125C162.985 322.402 161.25 320.666 161.25 318.523H192.149Z" fill="#F4F4F4"/>
<path d="M218.095 297.767C217.603 299.401 218.354 301.073 219.775 301.503C221.195 301.931 222.743 300.953 223.237 299.319C223.729 297.685 222.976 296.011 221.557 295.583C220.138 295.153 218.587 296.131 218.095 297.767Z" fill="#1D1B1B"/>
<path d="M294.054 321.758H139.069C136.181 321.758 133.937 324.472 134.264 327.568L144.967 429.014H152.694L145.995 333.804C145.877 332.127 147.106 330.696 148.665 330.696H281.706C284.037 330.696 285.876 332.837 285.7 335.347L279.068 429.61H286.794L297.68 326.141C297.926 323.804 296.232 321.758 294.054 321.758Z" fill="#1D1B1B"/>
<path d="M279.528 429.18H286.406L297.252 326.094C297.362 325.039 297.033 323.998 296.35 323.237C295.74 322.561 294.925 322.187 294.054 322.187H139.068C137.874 322.187 136.756 322.699 135.921 323.626C134.988 324.664 134.54 326.083 134.692 327.523L145.353 428.584H152.232L145.565 333.834C145.497 332.87 145.825 331.925 146.463 331.242C147.049 330.611 147.831 330.264 148.664 330.264H281.706C282.891 330.264 284.006 330.76 284.842 331.658C285.758 332.638 286.226 333.995 286.128 335.377L279.528 429.18ZM286.794 430.04H279.067C278.947 430.04 278.833 429.992 278.752 429.905C278.67 429.817 278.63 429.699 278.637 429.581L285.27 335.317C285.351 334.171 284.966 333.052 284.213 332.245C283.541 331.523 282.651 331.126 281.706 331.126H148.664C148.073 331.126 147.515 331.376 147.092 331.829C146.616 332.338 146.373 333.048 146.424 333.774L153.123 428.985C153.131 429.103 153.09 429.221 153.009 429.308C152.927 429.395 152.813 429.446 152.694 429.446H144.966C144.746 429.446 144.561 429.279 144.538 429.06L133.836 327.614C133.658 325.932 134.185 324.269 135.282 323.051C136.282 321.94 137.627 321.326 139.068 321.326H294.054C295.171 321.326 296.214 321.8 296.989 322.662C297.837 323.603 298.243 324.886 298.108 326.185L287.222 429.655C287.2 429.875 287.014 430.04 286.794 430.04Z" fill="#F4F4F4"/>
<path d="M205.497 244.922C205.399 244.922 205.301 244.889 205.22 244.821C205.038 244.668 205.014 244.397 205.167 244.215L207.316 241.66C207.468 241.476 207.741 241.453 207.923 241.606C208.103 241.758 208.128 242.031 207.975 242.213L205.826 244.769C205.741 244.87 205.619 244.922 205.497 244.922Z" fill="#F4F4F4"/>
<path d="M200.493 250.875C200.395 250.875 200.297 250.842 200.216 250.774C200.034 250.621 200.011 250.35 200.163 250.168L202.312 247.613C202.465 247.431 202.736 247.408 202.918 247.561C203.1 247.714 203.124 247.985 202.971 248.167L200.822 250.722C200.737 250.823 200.616 250.875 200.493 250.875Z" fill="#F4F4F4"/>
<path d="M202.37 245.192C202.272 245.192 202.174 245.159 202.093 245.092L199.537 242.943C199.355 242.79 199.332 242.519 199.485 242.337C199.637 242.155 199.909 242.132 200.091 242.285L202.647 244.432C202.829 244.586 202.853 244.857 202.7 245.039C202.614 245.14 202.493 245.192 202.37 245.192Z" fill="#F4F4F4"/>
<path d="M208.324 250.197C208.226 250.197 208.129 250.164 208.047 250.097L205.491 247.948C205.309 247.795 205.286 247.524 205.439 247.342C205.592 247.16 205.863 247.136 206.045 247.289L208.601 249.436C208.783 249.589 208.806 249.862 208.653 250.044C208.568 250.145 208.446 250.197 208.324 250.197Z" fill="#F4F4F4"/>
<path d="M192.472 228.907C191.254 229.586 190.809 231.155 191.48 232.401C191.808 233.011 192.348 233.451 193.001 233.642C193.639 233.828 194.311 233.753 194.892 233.429C196.11 232.75 196.555 231.182 195.883 229.933C195.556 229.325 195.016 228.884 194.363 228.694C193.725 228.506 193.053 228.582 192.472 228.907ZM193.697 234.603C193.384 234.603 193.069 234.558 192.76 234.469C191.884 234.211 191.16 233.623 190.723 232.81C189.829 231.151 190.426 229.062 192.053 228.154C192.837 227.718 193.744 227.616 194.605 227.867C195.48 228.123 196.204 228.711 196.641 229.524C197.535 231.186 196.938 233.273 195.311 234.18C194.808 234.461 194.255 234.603 193.697 234.603Z" fill="#F4F4F4"/>
<path d="M227.973 237.23C227.955 235.783 229.129 234.595 230.592 234.575C232.056 234.554 233.256 235.712 233.274 237.158C233.291 238.604 232.12 239.793 230.656 239.814C229.193 239.834 227.99 238.678 227.973 237.23Z" fill="#F4F4F4"/>
<path d="M362.949 82.8945C362.838 82.8945 362.728 82.8519 362.645 82.7687L360.767 80.8927C360.599 80.7243 360.599 80.4513 360.767 80.2829C360.935 80.1164 361.206 80.1164 361.375 80.2829L363.253 82.1589C363.421 82.3273 363.421 82.6003 363.253 82.7687C363.17 82.8519 363.059 82.8945 362.949 82.8945Z" fill="#F4F4F4"/>
<path d="M369.522 89.4609C369.411 89.4609 369.301 89.4183 369.216 89.3351L367.338 87.4591C367.171 87.2907 367.171 87.0177 367.338 86.8493C367.506 86.6808 367.779 86.6808 367.948 86.8493L369.826 88.7253C369.994 88.8937 369.994 89.1666 369.826 89.3331C369.74 89.4183 369.63 89.4609 369.522 89.4609Z" fill="#F4F4F4"/>
<path d="M361.071 89.4609C360.961 89.4609 360.85 89.4183 360.767 89.3331C360.599 89.1666 360.599 88.8937 360.767 88.7253L362.645 86.8493C362.811 86.6808 363.084 86.6808 363.253 86.8493C363.421 87.0177 363.421 87.2907 363.253 87.4591L361.375 89.3351C361.292 89.4183 361.181 89.4609 361.071 89.4609Z" fill="#F4F4F4"/>
<path d="M367.644 82.8945C367.533 82.8945 367.423 82.8519 367.338 82.7687C367.171 82.6003 367.171 82.3273 367.338 82.1589L369.216 80.2829C369.384 80.1164 369.657 80.1164 369.826 80.2829C369.994 80.4513 369.994 80.7243 369.826 80.8927L367.948 82.7687C367.862 82.8519 367.752 82.8945 367.644 82.8945Z" fill="#F4F4F4"/>
<path d="M365.993 398.964C365.864 398.964 365.734 398.906 365.649 398.794C365.506 398.604 365.542 398.335 365.732 398.191C383.406 384.746 398.17 368.238 409.617 349.123C409.739 348.92 410.003 348.854 410.208 348.976C410.411 349.098 410.477 349.362 410.355 349.567C398.851 368.774 384.014 385.365 366.253 398.875C366.175 398.935 366.084 398.964 365.993 398.964Z" fill="#F4F4F4"/>
<path d="M396.016 385.62C395.911 385.62 395.806 385.581 395.723 385.504C395.549 385.341 395.539 385.068 395.702 384.896C402.852 377.231 409.349 368.866 415.01 360.03C415.137 359.829 415.403 359.771 415.604 359.898C415.803 360.028 415.861 360.293 415.734 360.495C410.046 369.373 403.518 377.781 396.331 385.483C396.246 385.574 396.132 385.62 396.016 385.62Z" fill="#F4F4F4"/>
<path d="M254.179 406.266C256.283 401.891 256.484 397.483 254.179 393.028L255.834 391.024L310.474 392.527L308.915 407.048L255.722 407.558L254.179 406.266Z" fill="#1D1B1B"/>
<path d="M254.71 406.15L255.876 407.126L308.527 406.62L309.997 392.945L256.031 391.46L254.689 393.084C256.768 397.272 256.774 401.664 254.71 406.15ZM255.721 407.987C255.62 407.987 255.523 407.952 255.446 407.887L253.903 406.597C253.752 406.469 253.705 406.257 253.791 406.08C255.947 401.593 255.949 397.388 253.796 393.225C253.717 393.072 253.736 392.886 253.847 392.755L255.5 390.749C255.585 390.648 255.717 390.59 255.845 390.594L310.484 392.097C310.606 392.1 310.719 392.153 310.798 392.244C310.877 392.335 310.914 392.453 310.901 392.573L309.342 407.093C309.319 407.31 309.137 407.476 308.918 407.478L255.725 407.987C255.725 407.987 255.723 407.987 255.721 407.987Z" fill="#F4F4F4"/>
<path d="M346.08 389.425H252.717C251.735 389.425 250.939 390.228 250.939 391.221C250.939 392.213 251.735 393.016 252.717 393.016H300.722C303.548 393.016 305.841 395.332 305.841 398.187V401.095C305.841 403.951 303.548 406.266 300.722 406.266H252.717C251.735 406.266 250.939 407.07 250.939 408.063C250.939 409.054 251.735 409.857 252.717 409.857H346.08C351.292 409.857 355.516 405.589 355.516 400.323V398.96C355.516 393.694 351.292 389.425 346.08 389.425Z" fill="#E49273"/>
<path d="M258.869 431.358H344.109V411.956H258.869C261.107 418.296 261.169 425.186 258.869 431.358Z" fill="#1D1B1B"/>
<path d="M259.479 430.929H343.679V412.385H259.469C261.506 418.536 261.51 425.074 259.479 430.929ZM344.109 431.788H258.867C258.728 431.788 258.594 431.72 258.515 431.604C258.433 431.488 258.416 431.341 258.464 431.209C260.698 425.215 260.697 418.43 258.462 412.099C258.416 411.967 258.435 411.82 258.517 411.706C258.598 411.592 258.728 411.524 258.867 411.524H344.109C344.347 411.524 344.541 411.718 344.541 411.956V431.358C344.541 431.596 344.347 431.788 344.109 431.788Z" fill="#F4F4F4"/>
<path d="M330.995 419.187H266.468C266.23 419.187 266.038 418.993 266.038 418.755C266.038 418.519 266.23 418.325 266.468 418.325H330.995C331.233 418.325 331.425 418.519 331.425 418.755C331.425 418.993 331.233 419.187 330.995 419.187Z" fill="#F4F4F4"/>
<path d="M330.995 424.609H277.978C277.74 424.609 277.548 424.418 277.548 424.18C277.548 423.941 277.74 423.75 277.978 423.75H330.995C331.233 423.75 331.425 423.941 331.425 424.18C331.425 424.418 331.233 424.609 330.995 424.609Z" fill="#F4F4F4"/>
<path d="M334.358 412.881H257.725C256.916 412.881 256.26 412.219 256.26 411.402C256.26 410.585 256.916 409.923 257.725 409.923H354.37C357.923 409.923 360.802 412.833 360.802 416.424V426.642C360.802 430.234 357.923 433.144 354.368 433.144H257.725C256.916 433.144 256.26 432.481 256.26 431.664C256.26 430.847 256.916 430.185 257.725 430.185H334.358C336.869 430.185 338.904 428.129 338.904 425.593V417.474C338.904 414.937 336.869 412.881 334.358 412.881Z" fill="#F4F4F4"/>
<path d="M299.633 397.626H260.247C260.009 397.626 259.815 397.434 259.815 397.196C259.815 396.958 260.009 396.766 260.247 396.766H299.633C299.871 396.766 300.065 396.958 300.065 397.196C300.065 397.434 299.871 397.626 299.633 397.626Z" fill="#F4F4F4"/>
</svg>
