<svg width="512" height="512" viewBox="0 0 512 512" fill="none" xmlns="http://www.w3.org/2000/svg">
<path d="M204.581 70.3339L432.927 69.7214C438.037 69.7214 442.228 73.3534 441.99 77.5709L439.554 292.986C439.346 296.705 435.73 299.556 431.224 299.556H421.202L419.07 298.47L132.265 299.517C127.156 299.517 122.892 295.51 123.131 291.294L125.623 76.9044C125.833 73.186 129.283 69.9291 133.789 69.9291L204.581 70.3339Z" fill="#F4F4F4"/>
<path d="M195.013 70.4759H422.785C427.88 70.4759 432.063 74.1049 431.826 78.3203L429.462 292.917C429.252 296.636 425.647 299.484 421.152 299.484H122.929C117.833 299.484 113.65 295.855 113.888 291.641L116.252 77.0425C116.461 73.3247 120.067 70.4759 124.562 70.4759H195.013Z" fill="#1D1B1B"/>
<path d="M124.561 70.9251C120.276 70.9251 116.897 73.5668 116.699 77.0702L114.336 291.645C114.243 293.304 114.883 294.936 116.137 296.262C117.802 298.026 120.278 299.036 122.929 299.036H421.15C425.435 299.036 428.814 296.394 429.011 292.892L431.375 78.317C431.467 76.6582 430.828 75.0263 429.574 73.6987C427.909 71.9376 425.435 70.9251 422.782 70.9251H124.561ZM421.15 299.935H122.929C120.032 299.935 117.319 298.821 115.484 296.879C114.059 295.372 113.333 293.501 113.439 291.614L115.802 77.0406C116.028 73.0336 119.793 70.0283 124.561 70.0283H422.782C425.68 70.0283 428.391 71.1405 430.225 73.0821C431.653 74.5901 432.38 76.4589 432.272 78.3466L429.91 292.923C429.684 296.928 425.919 299.935 421.15 299.935Z" fill="#F4F4F4"/>
<path d="M114.941 210.759C114.94 210.759 114.939 210.759 114.937 210.759C114.69 210.757 114.49 210.553 114.492 210.307L115.091 137.507C115.093 137.261 115.294 137.062 115.54 137.062C115.541 137.062 115.542 137.062 115.544 137.062C115.791 137.065 115.991 137.268 115.989 137.514L115.39 210.314C115.388 210.56 115.187 210.759 114.941 210.759Z" fill="#F4F4F4"/>
<path d="M412.38 94.7773H372.239C370.535 94.7773 369.107 93.3312 369.117 91.617C369.125 90.0317 370.362 88.7944 371.937 88.7944H412.076C413.782 88.7944 415.208 90.2405 415.2 91.9547C415.189 93.5374 413.952 94.7773 412.38 94.7773Z" fill="#F4F4F4"/>
<path d="M411.683 131.785H394.331C392.627 131.785 391.198 130.341 391.206 128.625C391.216 127.042 392.455 125.803 394.028 125.803H411.38C413.084 125.803 414.512 127.249 414.502 128.964C414.495 130.549 413.256 131.785 411.683 131.785Z" fill="#E49273"/>
<path d="M412.155 106.914H359.48C357.777 106.914 356.346 105.469 356.356 103.753C356.364 102.171 357.602 100.933 359.176 100.933H411.851C413.557 100.933 414.985 102.378 414.975 104.092C414.967 105.676 413.729 106.914 412.155 106.914Z" fill="#F4F4F4"/>
<path d="M411.986 119.08H359.312C357.604 119.08 356.18 117.635 356.188 115.92C356.198 114.336 357.435 113.099 359.006 113.099H411.682C413.387 113.099 414.814 114.543 414.807 116.259C414.797 117.843 413.559 119.08 411.986 119.08Z" fill="#F4F4F4"/>
<path d="M149.44 254.65L150.038 201.194H130.969L130.374 254.65H149.44Z" fill="#1D1B1B"/>
<path opacity="0.6" d="M153.691 254.201H171.858L173.121 181.27H154.951L153.691 254.201ZM172.299 255.098H153.234C153.114 255.098 152.998 255.049 152.914 254.964C152.829 254.879 152.783 254.761 152.785 254.641L154.061 180.813C154.065 180.568 154.265 180.371 154.509 180.371H173.578C173.698 180.371 173.813 180.42 173.898 180.507C173.982 180.592 174.029 180.708 174.026 180.828L172.748 254.657C172.744 254.901 172.544 255.098 172.299 255.098Z" fill="white"/>
<path opacity="0.6" d="M176.548 254.201H194.716L195.765 186.904H177.594L176.548 254.201ZM195.158 255.098H176.092C175.972 255.098 175.857 255.049 175.773 254.964C175.688 254.879 175.642 254.763 175.644 254.641L176.703 186.447C176.707 186.204 176.907 186.007 177.152 186.007H196.22C196.341 186.007 196.456 186.054 196.54 186.141C196.625 186.226 196.671 186.342 196.669 186.462L195.607 254.655C195.603 254.901 195.403 255.098 195.158 255.098Z" fill="white"/>
<g opacity="0.6">
<path d="M199.409 254.202H217.578L219.188 161.766H201.018L199.409 254.202ZM218.018 255.099H198.953C198.833 255.099 198.717 255.05 198.633 254.966C198.548 254.881 198.502 254.763 198.504 254.642L200.128 161.309C200.132 161.065 200.332 160.869 200.576 160.869H219.645C219.765 160.869 219.88 160.918 219.966 161.003C220.049 161.089 220.096 161.204 220.094 161.326L218.467 254.659C218.462 254.902 218.264 255.099 218.018 255.099Z" fill="white"/>
</g>
<g opacity="0.6">
<path d="M222.27 254.201H240.439L242.283 137.493H224.112L222.27 254.201ZM240.88 255.099H221.814C221.694 255.099 221.578 255.051 221.495 254.964C221.41 254.879 221.363 254.765 221.365 254.642L223.222 137.036C223.226 136.792 223.425 136.595 223.67 136.595H242.739C242.858 136.595 242.975 136.643 243.057 136.73C243.144 136.815 243.189 136.931 243.187 137.052L241.33 254.655C241.325 254.902 241.124 255.099 240.88 255.099Z" fill="white"/>
</g>
<g opacity="0.6">
<path d="M245.132 254.201H263.297L265.552 144.861H247.385L245.132 254.201ZM263.738 255.099H244.673C244.552 255.099 244.435 255.049 244.353 254.964C244.267 254.877 244.22 254.761 244.225 254.64L246.496 144.402C246.5 144.158 246.697 143.963 246.943 143.963H266.011C266.132 143.963 266.248 144.012 266.331 144.097C266.416 144.185 266.463 144.301 266.461 144.42L264.186 254.657C264.181 254.904 263.982 255.099 263.738 255.099Z" fill="white"/>
</g>
<g opacity="0.6">
<path d="M268.422 254.202H286.588L289.341 126.657H271.17L268.422 254.202ZM287.03 255.098H267.964C267.842 255.098 267.726 255.051 267.642 254.964C267.559 254.877 267.512 254.761 267.515 254.639L270.284 126.199C270.287 125.954 270.489 125.759 270.731 125.759H289.8C289.919 125.759 290.037 125.808 290.122 125.893C290.204 125.98 290.251 126.098 290.249 126.217L287.477 254.66C287.474 254.905 287.272 255.098 287.03 255.098Z" fill="white"/>
</g>
<g opacity="0.6">
<path d="M291.706 254.147H309.874L313.187 120.248H295.016L291.706 254.147ZM310.312 255.046H291.247C291.125 255.046 291.01 254.998 290.924 254.91C290.84 254.824 290.795 254.709 290.795 254.587L294.129 119.787C294.137 119.543 294.335 119.349 294.579 119.349H313.646C313.766 119.349 313.883 119.397 313.966 119.485C314.05 119.571 314.098 119.689 314.093 119.808L310.761 254.608C310.754 254.852 310.555 255.046 310.312 255.046Z" fill="white"/>
</g>
<g opacity="0.6">
<path d="M314.999 254.148H333.165L335.405 156.347H317.235L314.999 254.148ZM333.605 255.046H314.541C314.417 255.046 314.302 254.998 314.218 254.911C314.135 254.825 314.088 254.708 314.09 254.586L316.345 155.887C316.352 155.644 316.552 155.449 316.797 155.449H335.863C335.984 155.449 336.101 155.499 336.184 155.584C336.268 155.671 336.316 155.788 336.312 155.909L334.054 254.608C334.047 254.851 333.848 255.046 333.605 255.046Z" fill="white"/>
</g>
<g opacity="0.6">
<path d="M338.302 254.202H356.47L358.924 177.998H340.754L338.302 254.202ZM356.905 255.099H337.837C337.717 255.099 337.6 255.05 337.517 254.963C337.432 254.875 337.386 254.757 337.39 254.636L339.87 177.533C339.879 177.292 340.078 177.099 340.32 177.099H359.387C359.508 177.099 359.626 177.15 359.709 177.235C359.795 177.323 359.839 177.441 359.837 177.562L357.354 254.664C357.345 254.906 357.146 255.099 356.905 255.099Z" fill="white"/>
</g>
<g opacity="0.6">
<path d="M361.589 254.201H379.758L381.378 188.205H363.209L361.589 254.201ZM380.197 255.099H361.13C361.008 255.099 360.894 255.05 360.808 254.961C360.722 254.877 360.677 254.758 360.68 254.639L362.321 187.745C362.328 187.501 362.526 187.307 362.77 187.307H381.84C381.959 187.307 382.075 187.356 382.159 187.442C382.243 187.529 382.29 187.645 382.287 187.766L380.644 254.66C380.637 254.903 380.439 255.099 380.197 255.099Z" fill="white"/>
</g>
<g opacity="0.6">
<path d="M384.878 254.203H403.047L404.799 185.607H386.63L384.878 254.203ZM403.485 255.099H384.418C384.296 255.099 384.18 255.049 384.096 254.963C384.012 254.878 383.967 254.76 383.97 254.638L385.741 185.144C385.749 184.901 385.947 184.708 386.189 184.708H405.259C405.38 184.708 405.497 184.755 405.581 184.842C405.665 184.931 405.712 185.047 405.707 185.169L403.933 254.663C403.925 254.903 403.727 255.099 403.485 255.099Z" fill="white"/>
</g>
<path d="M256.229 133.324C256.119 133.324 256.012 133.283 255.928 133.21L241.842 120.517C241.658 120.351 241.643 120.067 241.808 119.883C241.974 119.701 242.258 119.685 242.443 119.851L256.192 132.237L289.999 93.8342C290.077 93.7432 290.189 93.6886 290.308 93.6834C290.428 93.6756 290.547 93.7172 290.636 93.7978L308.575 109.961L330.206 85.3871C330.37 85.1999 330.654 85.1817 330.841 85.3454C331.025 85.5092 331.043 85.7926 330.882 85.9798L308.949 110.895C308.869 110.983 308.757 111.038 308.637 111.046C308.515 111.053 308.401 111.012 308.31 110.931L290.373 94.7675L256.565 133.173C256.486 133.262 256.375 133.316 256.255 133.324C256.247 133.324 256.237 133.324 256.229 133.324Z" fill="white"/>
<path d="M181.913 175.093C181.802 175.093 181.695 175.052 181.612 174.978L161.762 157.094C161.578 156.927 161.563 156.643 161.728 156.459C161.895 156.275 162.178 156.259 162.363 156.426L181.876 174.007L229.132 120.323C229.297 120.137 229.581 120.117 229.767 120.282C229.952 120.444 229.97 120.728 229.808 120.914L182.25 174.94C182.17 175.031 182.058 175.086 181.938 175.093C181.93 175.093 181.921 175.093 181.913 175.093Z" fill="white"/>
<path d="M158.851 156.761C158.646 154.98 159.918 153.534 161.691 153.534C163.465 153.534 165.068 154.98 165.273 156.761C165.478 158.543 164.206 159.988 162.432 159.988C160.659 159.988 159.055 158.543 158.851 156.761Z" fill="white"/>
<path d="M253.102 132.742C252.897 130.961 254.17 129.516 255.944 129.516C257.716 129.516 259.322 130.961 259.524 132.742C259.729 134.525 258.456 135.969 256.684 135.969C254.911 135.969 253.309 134.525 253.102 132.742Z" fill="white"/>
<path d="M287.41 93.7635C287.207 91.9819 288.478 90.5367 290.252 90.5367C292.025 90.5367 293.627 91.9819 293.833 93.7635C294.038 95.545 292.765 96.9902 290.991 96.9902C289.22 96.9902 287.615 95.545 287.41 93.7635Z" fill="white"/>
<path d="M305.83 110.353C305.626 108.571 306.898 107.126 308.67 107.126C310.443 107.126 312.045 108.571 312.25 110.353C312.454 112.135 311.182 113.58 309.41 113.58C307.637 113.58 306.032 112.135 305.83 110.353Z" fill="white"/>
<path d="M326.704 86.6364C326.497 84.8532 327.771 83.4095 329.544 83.4095C331.317 83.4095 332.922 84.8532 333.126 86.6364C333.332 88.4195 332.061 89.8633 330.286 89.8633C328.513 89.8633 326.907 88.4195 326.704 86.6364Z" fill="white"/>
<path d="M178.956 174.271C178.752 172.488 180.023 171.043 181.797 171.043C183.57 171.043 185.174 172.488 185.379 174.271C185.583 176.052 184.311 177.497 182.538 177.497C180.765 177.497 179.161 176.052 178.956 174.271Z" fill="white"/>
<path d="M232.103 114.261C231.898 112.479 233.17 111.033 234.943 111.033C236.716 111.033 238.319 112.479 238.524 114.261C238.729 116.043 237.457 117.488 235.684 117.488C233.91 117.488 232.308 116.043 232.103 114.261Z" fill="white"/>
<path d="M217.141 282.127H132.205C130.243 282.127 128.549 280.695 128.574 279.057L128.698 271.015C128.72 269.615 130.005 268.556 131.682 268.556H216.617C218.579 268.556 220.273 269.988 220.247 271.626L220.123 279.668C220.103 281.068 218.817 282.127 217.141 282.127Z" fill="#F4F4F4"/>
<path d="M138.049 147.102C141.969 146.899 146.089 150.673 145.148 156.424C144.38 161.119 139.329 162.123 136.83 164.451C128.747 171.98 126.076 196.625 114.259 203.06C104.83 208.195 88.1467 206.257 79.6357 194.59C71.5431 183.499 70.82 167.833 80.6776 161.155C89.5389 155.152 94.7031 163.492 104.078 157.951C113.32 152.487 111.45 146.258 117.111 144.13C124.852 141.222 126.94 147.679 138.049 147.102Z" fill="#F4F4F4"/>
<path d="M152.283 208.407C156.432 233.812 156.914 234.187 157.474 236.847C157.474 236.847 159.12 244.329 159.577 251.538C159.973 257.791 158.796 295.351 139.383 303.623C132.372 306.609 130.34 301.119 115.412 301.715C100.114 302.326 97.0124 307.77 90.3377 305.862C75.8921 301.734 71.174 270.739 71.9693 251.587C72.6173 235.989 80.3803 221.259 95.9067 191.8C98.2713 187.313 102.057 180.461 108.155 179.589C110.95 179.189 112.068 179.617 123.291 182.699C135.499 186.051 138.598 182.486 143.838 185.787C149.252 189.199 150.207 195.69 152.283 208.407Z" fill="#1D1B1B"/>
<path d="M109.711 179.91C109.217 179.91 108.75 179.954 108.219 180.031C102.159 180.898 98.3507 188.124 96.3044 192.008C80.8296 221.367 73.0621 236.105 72.4186 251.603C71.589 271.575 76.6384 301.478 90.4617 305.429C93.5837 306.321 95.8366 305.554 99.2456 304.392C102.728 303.205 107.497 301.58 115.395 301.265C122.878 300.965 127.238 302.207 130.421 303.112C133.674 304.037 135.823 304.649 139.207 303.207C149.281 298.916 154.156 286.434 156.472 276.718C159.009 266.075 159.358 255.176 159.129 251.565C158.68 244.476 157.053 237.018 157.037 236.943C156.943 236.498 156.852 236.121 156.747 235.681C156.205 233.427 155.299 229.653 151.841 208.476L151.712 207.685C149.726 195.509 148.729 189.397 143.6 186.165C141.129 184.608 139.212 184.647 136.307 184.706C133.241 184.767 129.423 184.846 123.173 183.129L120.27 182.33C113.607 180.494 111.487 179.91 109.711 179.91ZM93.1189 306.715C92.2 306.715 91.2497 306.587 90.215 306.291C81.8819 303.911 77.3446 293.113 75.0055 284.475C72.3723 274.748 71.07 262.445 71.5218 251.567C72.1737 235.865 79.9726 221.069 95.5103 191.59C97.6313 187.565 101.579 180.074 108.092 179.143C110.718 178.767 111.833 179.074 120.509 181.466L123.41 182.263C129.535 183.945 133.279 183.87 136.289 183.809C139.246 183.748 141.38 183.706 144.078 185.406C149.55 188.855 150.569 195.098 152.598 207.541L152.727 208.332C156.18 229.474 157.081 233.228 157.619 235.472C157.727 235.92 157.82 236.304 157.914 236.754C157.93 236.825 159.572 244.348 160.025 251.508C160.561 259.97 158.604 295.919 139.559 304.033C135.883 305.599 133.489 304.919 130.176 303.976C126.876 303.037 122.768 301.87 115.431 302.162C107.664 302.473 103.157 304.008 99.5352 305.242C97.1437 306.055 95.2133 306.715 93.1189 306.715Z" fill="#F4F4F4"/>
<path d="M130.002 355.516V367.803L124.09 367.444L122.927 355.516H130.002Z" fill="#1D1B1B"/>
<path d="M124.5 367.018L129.554 367.327V355.965H123.422L124.5 367.018ZM130.002 368.252C129.994 368.252 129.984 368.252 129.975 368.252L124.064 367.893C123.843 367.879 123.665 367.706 123.644 367.487L122.481 355.561C122.468 355.436 122.51 355.31 122.595 355.217C122.68 355.121 122.801 355.068 122.927 355.068H130.002C130.25 355.068 130.451 355.269 130.451 355.517V367.804C130.451 367.927 130.4 368.045 130.31 368.13C130.227 368.209 130.116 368.252 130.002 368.252Z" fill="#F4F4F4"/>
<path d="M123.203 383.123C125.61 383.38 129.549 383.549 134.14 382.757C135.645 382.498 136.598 380.998 136.185 379.53C135.033 375.433 132.76 367.803 130.949 364.147L129.857 366.141L128.985 364.037C128.835 363.788 128.576 363.623 128.287 363.597L125.149 363.615C124.218 363.613 124.148 364.12 124.026 364.506L123.404 366.141L122.542 363.926L120.93 380.317C120.792 381.717 121.804 382.972 123.203 383.123Z" fill="#1D1B1B"/>
<path d="M123.25 382.678C125.7 382.942 129.565 383.092 134.063 382.317C134.658 382.216 135.184 381.865 135.505 381.355C135.829 380.842 135.917 380.238 135.753 379.653C134.875 376.533 132.732 369.186 130.918 365.141L130.251 366.358C130.168 366.508 130.005 366.6 129.833 366.592C129.661 366.581 129.509 366.474 129.443 366.316L128.585 364.246C128.507 364.133 128.382 364.06 128.245 364.045L125.151 364.066C124.623 364.07 124.585 364.204 124.484 364.54L124.453 364.644L123.822 366.301C123.757 366.476 123.59 366.592 123.405 366.592C123.404 366.592 123.404 366.592 123.403 366.592C123.218 366.592 123.052 366.478 122.985 366.305L122.805 365.841L121.376 380.363C121.262 381.518 122.103 382.557 123.25 382.678ZM127.312 383.788C125.684 383.788 124.275 383.691 123.154 383.571C121.519 383.397 120.321 381.917 120.482 380.276L122.096 363.883C122.116 363.676 122.275 363.51 122.481 363.481C122.688 363.455 122.886 363.571 122.961 363.765L123.399 364.891L123.625 364.283C123.741 363.893 123.959 363.169 125.14 363.169C125.143 363.169 125.147 363.169 125.15 363.169L128.284 363.151C128.758 363.193 129.147 363.437 129.369 363.808C129.381 363.826 129.39 363.847 129.399 363.867L129.913 365.106L130.555 363.934C130.635 363.788 130.791 363.692 130.957 363.7C131.125 363.704 131.276 363.8 131.35 363.95C133.267 367.817 135.672 376.05 136.616 379.41C136.847 380.229 136.719 381.114 136.264 381.834C135.807 382.559 135.061 383.056 134.216 383.202C131.672 383.64 129.325 383.788 127.312 383.788Z" fill="#F4F4F4"/>
<path d="M127.999 381.003C124.898 381.003 122.771 380.348 122.639 380.307C122.403 380.232 122.272 379.98 122.346 379.743C122.42 379.508 122.672 379.376 122.909 379.451C122.955 379.465 127.644 380.899 133.183 379.445C133.423 379.38 133.668 379.524 133.731 379.763C133.794 380.005 133.651 380.25 133.411 380.313C131.443 380.83 129.592 381.003 127.999 381.003Z" fill="#F4F4F4"/>
<path d="M130.947 374.62H125.552C125.304 374.62 125.104 374.419 125.104 374.172C125.104 373.924 125.304 373.723 125.552 373.723H130.947C131.195 373.723 131.396 373.924 131.396 374.172C131.396 374.419 131.195 374.62 130.947 374.62Z" fill="#F4F4F4"/>
<path d="M86.516 349.015L84.7685 363.828L79.2275 363.635V349.015H86.516Z" fill="#1D1B1B"/>
<path d="M79.6749 363.204L84.3699 363.366L86.0098 349.465H79.6749V363.204ZM84.7675 364.279C84.7623 364.279 84.757 364.279 84.7517 364.279L79.2107 364.087C78.9689 364.076 78.7773 363.88 78.7773 363.636V349.016C78.7773 348.769 78.9784 348.568 79.2263 348.568H86.5148C86.643 348.568 86.7649 348.623 86.8501 348.718C86.9354 348.813 86.9753 348.941 86.9605 349.069L85.2129 363.882C85.1863 364.109 84.9939 364.279 84.7675 364.279Z" fill="#F4F4F4"/>
<path d="M86.0866 360.295C86.0866 360.295 86.7994 366.875 86.5792 369.52C86.4218 371.413 83.8233 377.135 82.358 380.233C81.7552 381.509 80.6063 382.326 79.3316 382.381C77.7773 382.45 75.6149 382.527 73.8715 382.529C71.4726 382.531 69.823 379.805 70.6793 377.262C71.4698 374.917 72.7246 371.975 74.6989 368.845C76.1856 366.487 78.3567 360.08 78.3567 360.08H82.8717L83.7581 363.829L86.0866 360.295Z" fill="#1D1B1B"/>
<path d="M78.6771 360.527C78.2206 361.846 76.4066 366.977 75.0785 369.083C73.4112 371.727 72.0742 374.526 71.1046 377.405C70.7069 378.584 70.8885 379.87 71.5897 380.844C72.1535 381.629 72.9839 382.08 73.8681 382.08C73.8689 382.08 73.8699 382.08 73.8709 382.08C75.6159 382.078 77.7931 381.999 79.3121 381.932C80.4113 381.885 81.4231 381.159 81.9518 380.041C84.4984 374.652 86.0219 370.805 86.1317 369.483C86.2881 367.602 85.9576 363.629 85.7652 361.597L84.1326 364.074C84.0342 364.224 83.8565 364.301 83.6796 364.271C83.5033 364.238 83.3623 364.106 83.3211 363.932L82.5165 360.527H78.6771ZM73.8681 382.977C72.6911 382.977 71.5956 382.39 70.8609 381.37C69.9913 380.161 69.7643 378.57 70.2539 377.117C71.2462 374.173 72.6138 371.309 74.3193 368.604C75.7602 366.318 77.9097 359.998 77.9313 359.935C77.9931 359.752 78.164 359.629 78.3565 359.629H82.8715C83.0799 359.629 83.2606 359.773 83.3083 359.975L83.9553 362.712L85.7115 360.046C85.8156 359.888 86.0069 359.813 86.1919 359.858C86.3757 359.902 86.5121 360.057 86.5326 360.245C86.5618 360.515 87.2475 366.898 87.0262 369.556C86.8722 371.41 84.623 376.49 82.7636 380.424C82.0916 381.844 80.784 382.768 79.351 382.828C77.8233 382.895 75.6326 382.975 73.8719 382.977C73.8707 382.977 73.8691 382.977 73.8681 382.977Z" fill="#F4F4F4"/>
<path d="M77.3123 380.156C77.3115 380.156 77.3107 380.156 77.3101 380.156L73.412 380.152C73.1643 380.15 72.9637 379.949 72.9639 379.702C72.9641 379.454 73.1651 379.253 73.4126 379.253C73.4128 379.253 73.4133 379.253 73.4135 379.253L77.3113 379.259C77.3115 379.259 77.3121 379.259 77.3125 379.259C78.5663 379.259 79.9338 377.454 80.355 376.758L82.8979 371.836C83.0117 371.615 83.2826 371.528 83.5025 371.643C83.7229 371.757 83.8093 372.027 83.6953 372.248L81.1379 377.196C81.0511 377.342 79.3292 380.156 77.3123 380.156Z" fill="#F4F4F4"/>
<path d="M79.4868 374.805H74.5435C74.2958 374.805 74.0947 374.604 74.0947 374.354C74.0947 374.107 74.2958 373.906 74.5435 373.906H79.4868C79.7345 373.906 79.9356 374.107 79.9356 374.354C79.9356 374.604 79.7345 374.805 79.4868 374.805Z" fill="#F4F4F4"/>
<path d="M139.499 232.684C139.499 232.684 138.911 277.893 137.011 307.325C135.111 336.756 131.364 359.26 131.364 359.26C131.364 359.26 124.916 361.577 120.683 360.363C120.683 360.363 117.178 334.546 116.382 325.818C115.586 317.092 117.7 312.762 117.878 305.619C118.056 298.477 114.8 266.943 114.8 266.943C114.8 266.943 90.4936 338.233 87.7135 353.979C87.7135 353.979 81.8266 354.977 77.678 352.708C77.678 352.708 77.549 324.674 78.1375 320.342C79.228 312.316 85.4958 304.416 86.6218 295.893C87.7478 287.367 88.4009 265.973 91.5018 253.143C94.6025 240.31 100.685 225.895 100.685 225.895L139.499 232.684Z" fill="#F4F4F4"/>
<path d="M99.334 249.473C99.1571 249.473 98.9897 249.367 98.9185 249.193C98.8243 248.963 98.9341 248.702 99.1636 248.608C102.256 247.34 104.853 245.263 106.883 242.428C107.027 242.228 107.307 242.181 107.509 242.325C107.711 242.469 107.757 242.751 107.613 242.952C105.483 245.924 102.755 248.107 99.5038 249.438C99.4482 249.46 99.3904 249.473 99.334 249.473Z" fill="#1D1B1B"/>
<path d="M135.999 249.296C135.888 249.296 135.777 249.255 135.691 249.174C132.875 246.52 132.447 244.836 131.854 242.503L131.691 241.87C131.629 241.629 131.773 241.385 132.013 241.323C132.252 241.26 132.498 241.404 132.56 241.643L132.724 242.282C133.3 244.548 133.68 246.046 136.306 248.521C136.487 248.691 136.495 248.975 136.325 249.156C136.237 249.249 136.118 249.296 135.999 249.296Z" fill="#1D1B1B"/>
<path d="M205.842 200.261C204.146 200.595 200.944 202.267 200.531 202.697C197.27 206.093 195.342 200.804 195.342 200.804C195.342 200.804 201.212 197.252 204.533 196.74C210.938 195.752 209.39 199.559 205.842 200.261Z" fill="#1D1B1B"/>
<path d="M195.905 200.993C196.267 201.791 197.074 203.14 198.103 203.355C198.75 203.491 199.459 203.166 200.207 202.387C200.699 201.874 204.022 200.162 205.754 199.821C207.54 199.468 208.568 198.34 208.465 197.749C208.39 197.329 207.495 196.737 204.601 197.183C201.849 197.607 197.182 200.247 195.905 200.993ZM198.403 204.284C198.24 204.284 198.078 204.268 197.917 204.233C195.986 203.828 194.962 201.075 194.92 200.959C194.846 200.756 194.926 200.531 195.109 200.421C195.352 200.273 201.094 196.816 204.465 196.297C208.554 195.666 209.244 196.992 209.349 197.593C209.573 198.867 208.006 200.289 205.929 200.701C204.283 201.026 201.164 202.685 200.854 203.01C200.039 203.858 199.217 204.284 198.403 204.284Z" fill="#F4F4F4"/>
<path d="M194.855 202.991C194.714 202.991 194.575 202.925 194.488 202.8C194.345 202.598 194.394 202.317 194.597 202.176L240.257 170.152C240.463 170.01 240.739 170.06 240.885 170.262C241.026 170.466 240.976 170.745 240.775 170.888L195.113 202.91C195.034 202.966 194.944 202.991 194.855 202.991Z" fill="#E49273"/>
<path d="M200.457 195.351C199.512 196.331 197.718 197.222 196.386 197.5C195.808 197.619 195.189 197.695 194.584 197.672C189.814 197.494 190.944 204.238 180.766 205.832C180.408 205.889 179.894 212.026 179.911 213.623C184.073 211.852 189.58 207.948 192.178 208.669C196.969 210 198.552 207.526 199.555 206.386C202.19 203.394 198.63 200.468 198.63 200.468C198.63 200.468 199.237 200.362 201.129 199.336C204.022 197.768 204.67 190.987 200.457 195.351Z" fill="#1D1B1B"/>
<path d="M181.053 206.24C180.806 207.114 180.442 210.929 180.371 212.927C181.498 212.41 182.719 211.758 183.906 211.127C187.218 209.362 190.346 207.695 192.297 208.236C196.437 209.387 197.958 207.581 198.964 206.386C199.053 206.28 199.138 206.181 199.218 206.09C199.847 205.376 200.133 204.607 200.068 203.807C199.933 202.138 198.361 200.829 198.345 200.815C198.209 200.703 198.151 200.525 198.195 200.354C198.24 200.184 198.379 200.056 198.552 200.026C198.551 200.026 199.162 199.892 200.916 198.942C202.316 198.183 203.087 196.071 203.003 194.951C202.979 194.639 202.887 194.416 202.763 194.371C202.708 194.351 202.177 194.215 200.78 195.664C199.83 196.648 197.979 197.627 196.477 197.938C195.791 198.082 195.148 198.143 194.567 198.12C192.746 198.051 191.899 199.109 190.713 200.567C189.099 202.556 186.896 205.268 181.053 206.24ZM179.91 214.071C179.824 214.071 179.739 214.047 179.664 213.998C179.539 213.917 179.463 213.777 179.461 213.627C179.453 212.813 179.578 210.87 179.751 209.107C180.107 205.481 180.329 205.447 180.696 205.39C186.362 204.501 188.388 202.006 190.016 200.003C191.264 198.465 192.338 197.136 194.601 197.224C195.11 197.242 195.679 197.187 196.294 197.059C197.62 196.783 199.307 195.897 200.134 195.041C201.373 193.756 202.332 193.261 203.068 193.527C203.347 193.629 203.826 193.939 203.898 194.882C204.003 196.272 203.081 198.788 201.343 199.731C200.482 200.198 199.875 200.48 199.462 200.652C200.031 201.273 200.854 202.387 200.963 203.734C201.048 204.787 200.688 205.779 199.892 206.684C199.815 206.769 199.735 206.865 199.651 206.966C198.638 208.167 196.752 210.405 192.057 209.103C190.453 208.656 187.339 210.314 184.328 211.919C182.897 212.682 181.417 213.469 180.086 214.035C180.029 214.059 179.97 214.071 179.91 214.071Z" fill="#F4F4F4"/>
<path d="M194.953 205.883C194.913 205.883 194.873 205.879 194.833 205.867C193.782 205.576 193.367 204.903 193.204 204.388C192.817 203.166 193.446 201.645 194.24 200.681C195.016 199.737 195.896 199.271 196.847 199.283C198.581 199.313 199.873 200.971 199.927 201.042C200.077 201.239 200.04 201.519 199.844 201.671C199.648 201.821 199.366 201.785 199.215 201.59C199.204 201.576 198.127 200.2 196.828 200.182C196.169 200.176 195.525 200.531 194.933 201.251C194.176 202.17 193.817 203.349 194.06 204.116C194.201 204.562 194.532 204.852 195.072 205.002C195.311 205.067 195.451 205.315 195.385 205.554C195.33 205.753 195.15 205.883 194.953 205.883Z" fill="#F4F4F4"/>
<path d="M143.921 182.724C143.921 182.724 129.415 180.648 115.137 180.234C115.137 180.234 96.3617 230.377 96.3633 233.53C96.3647 236.683 105.355 243.835 114.271 238.144C129.142 228.649 138.433 231.887 145.764 233.599C156.748 236.166 143.921 182.724 143.921 182.724Z" fill="#1D1B1B"/>
<path d="M115.444 180.691C110.151 194.838 96.8104 231.029 96.8116 233.53C96.8122 234.683 98.412 236.752 101.089 238.219C103.068 239.302 108.29 241.429 114.029 237.765C128.031 228.825 137.061 231.023 144.316 232.79C144.843 232.918 145.359 233.043 145.865 233.161C146.702 233.358 147.374 233.183 147.923 232.632C153.645 226.876 144.461 186.988 143.555 183.126C141.414 182.831 128.304 181.089 115.444 180.691ZM107.266 240.725C104.277 240.725 101.885 239.678 100.658 239.006C97.9098 237.501 95.9149 235.198 95.9141 233.53C95.9124 230.333 113.949 182.127 114.716 180.076C114.783 179.896 114.958 179.778 115.15 179.784C129.29 180.196 143.839 182.259 143.984 182.28C144.167 182.306 144.315 182.44 144.357 182.618C144.791 184.424 154.893 226.892 148.559 233.265C147.784 234.046 146.81 234.303 145.661 234.036C145.152 233.918 144.633 233.792 144.104 233.662C137.015 231.936 128.191 229.787 114.512 238.521C111.927 240.171 109.439 240.725 107.266 240.725Z" fill="#F4F4F4"/>
<path d="M189.656 210.728C187.85 212.921 184.541 217.395 176.87 219.884C161.526 224.865 152.053 214.753 152.053 214.753L153.374 245.019C153.374 245.019 145.961 249.412 145.961 249.022C145.961 248.635 142.72 181.508 142.72 181.508C142.72 181.508 148.704 181.606 151.373 185.404C154.041 189.202 164.14 204.895 175.75 205.086C181.03 205.173 183.586 202.988 185.256 202.389L189.656 210.728Z" fill="#1D1B1B"/>
<path d="M144.955 228.37C144.717 228.37 144.519 228.183 144.507 227.942C143.556 208.134 142.271 181.53 142.271 181.53C142.265 181.406 142.311 181.285 142.397 181.195C142.483 181.106 142.607 181.055 142.726 181.059C142.98 181.063 148.971 181.205 151.739 185.145C151.9 185.373 152.088 185.645 152.301 185.955C155.46 190.532 165.074 204.462 175.756 204.637C179.689 204.7 182.008 203.5 183.704 202.624C184.23 202.352 184.684 202.117 185.104 201.967C185.315 201.892 185.548 201.981 185.653 202.18L190.053 210.516C190.137 210.677 190.117 210.871 190.002 211.011L189.686 211.399C187.831 213.677 184.377 217.92 177.008 220.312C173.958 221.302 171.128 221.699 168.553 221.699C160.251 221.699 154.577 217.569 152.549 215.824L152.989 225.905C153 226.153 152.807 226.362 152.56 226.374C152.324 226.386 152.103 226.193 152.092 225.944L151.605 214.773C151.596 214.584 151.706 214.412 151.879 214.339C152.051 214.266 152.252 214.308 152.38 214.446C152.474 214.544 161.853 224.286 176.731 219.457C183.848 217.147 187.193 213.038 188.99 210.831L189.12 210.672L185.049 202.957C184.77 203.083 184.459 203.243 184.116 203.421C182.436 204.29 179.892 205.602 175.742 205.533C164.598 205.351 154.786 191.135 151.562 186.464C151.35 186.158 151.164 185.888 151.005 185.661C148.925 182.699 144.629 182.102 143.192 181.985C143.372 185.722 144.529 209.684 145.404 227.899C145.416 228.147 145.225 228.358 144.977 228.37C144.97 228.37 144.962 228.37 144.955 228.37Z" fill="#F4F4F4"/>
<path d="M162.041 192.574H133.99C133.106 192.574 132.268 193.315 132.12 194.232L125.753 233.531C125.605 234.448 126.202 235.19 127.087 235.19H155.137C156.022 235.19 156.859 234.448 157.008 233.531L163.375 194.232C163.523 193.315 162.926 192.574 162.041 192.574Z" fill="#1D1B1B"/>
<path d="M133.991 193.024C133.33 193.024 132.676 193.61 132.564 194.304L126.197 233.605C126.144 233.929 126.216 234.228 126.398 234.441C126.563 234.635 126.808 234.741 127.088 234.741H155.138C155.799 234.741 156.453 234.155 156.566 233.461L162.932 194.16C162.985 193.835 162.914 193.537 162.732 193.324C162.567 193.129 162.322 193.024 162.042 193.024H133.991ZM155.138 235.64H127.088C126.54 235.64 126.052 235.421 125.715 235.023C125.364 234.611 125.217 234.041 125.311 233.461L131.678 194.16C131.863 193.02 132.879 192.125 133.991 192.125H162.042C162.589 192.125 163.077 192.344 163.415 192.742C163.766 193.153 163.913 193.724 163.819 194.304L157.452 233.605C157.267 234.745 156.251 235.64 155.138 235.64Z" fill="#F4F4F4"/>
<path d="M129.828 208.477L129.362 211.447C129.328 212.798 130.544 213.839 131.873 213.597L139.185 212.269C140.311 212.064 141.354 212.956 141.288 214.099C141.25 214.75 140.958 215.507 140.149 216.294C139.771 216.661 133.283 221.601 128.299 220.704C128.082 220.666 123.413 223.291 123.234 223.163C122.451 222.603 121.904 220.812 121.731 219.305C121.715 219.175 125.599 216.986 125.991 215.785C126.396 214.543 126.068 213.638 126.559 211.518C127.137 209.03 129.828 208.477 129.828 208.477Z" fill="#1D1B1B"/>
<path d="M122.207 219.493C122.4 220.879 122.863 222.159 123.349 222.668C123.818 222.473 125.04 221.834 125.884 221.392C128.131 220.217 128.164 220.223 128.38 220.264C133.012 221.098 139.272 216.517 139.836 215.971C140.465 215.36 140.803 214.721 140.84 214.074C140.863 213.676 140.703 213.295 140.4 213.027C140.088 212.751 139.675 212.636 139.266 212.709L131.954 214.037C131.187 214.177 130.407 213.966 129.815 213.459C129.223 212.952 128.894 212.216 128.914 211.436C128.914 211.416 128.916 211.396 128.919 211.378L129.272 209.128C128.519 209.438 127.339 210.146 126.997 211.619C126.753 212.672 126.719 213.411 126.689 214.06C126.659 214.707 126.634 215.263 126.418 215.922C126.112 216.862 124.418 218.036 122.709 219.16C122.531 219.276 122.339 219.402 122.207 219.493ZM123.222 223.63C123.114 223.63 123.054 223.585 122.974 223.528C122.003 222.835 121.457 220.846 121.285 219.355C121.25 219.045 121.36 218.972 122.216 218.41C123.148 217.797 125.33 216.363 125.565 215.644C125.743 215.101 125.764 214.624 125.792 214.019C125.823 213.364 125.86 212.548 126.123 211.416C126.758 208.681 129.616 208.063 129.738 208.038C129.883 208.008 130.032 208.05 130.138 208.152C130.245 208.253 130.294 208.401 130.272 208.547L129.81 211.485C129.806 211.984 130.02 212.453 130.399 212.778C130.785 213.108 131.292 213.246 131.794 213.155L139.105 211.826C139.786 211.702 140.476 211.895 140.995 212.354C141.505 212.806 141.775 213.451 141.737 214.125C141.685 215.005 141.257 215.841 140.462 216.614C140.404 216.671 133.723 222.053 128.323 221.165C128.031 221.283 127.078 221.782 126.3 222.187C124.121 223.328 123.507 223.63 123.222 223.63Z" fill="#F4F4F4"/>
<path d="M123.308 217.213C120.087 217.737 119.64 219.323 115.643 217.566C106.635 213.608 108.338 199.782 109.871 192.898C110.186 191.484 110.58 190.104 111.006 188.807C111.791 186.42 102.119 184.21 100.407 186.05C98.3359 188.272 96.1514 191.092 94.2672 194.543C88.6548 204.823 86.829 227.83 105.598 231.988C115.485 234.177 123.346 226.082 126.175 222.596C126.821 221.799 124.228 217.063 123.308 217.213Z" fill="#1D1B1B"/>
<path d="M108.996 232.812C107.866 232.812 106.7 232.692 105.503 232.426C92.8198 229.616 90.3622 218.764 90.0261 212.543C90.0127 212.296 90.2026 212.085 90.4501 212.073C90.6948 212.058 90.909 212.249 90.9224 212.497C91.2448 218.461 93.5928 228.869 105.697 231.55C115.364 233.69 122.996 225.804 125.828 222.314C125.877 222.191 125.792 221.476 125.147 220.172C124.391 218.642 123.602 217.755 123.349 217.662C122.413 217.818 121.709 218.07 121.088 218.295C119.581 218.837 118.392 219.265 115.464 217.979C107.099 214.302 107.736 202.474 108.86 195.751C108.901 195.507 109.13 195.341 109.377 195.381C109.621 195.424 109.786 195.655 109.745 195.899C108.664 202.365 108.017 213.726 115.825 217.157C118.426 218.299 119.364 217.96 120.783 217.449C121.449 217.21 122.203 216.938 123.238 216.771C123.854 216.67 124.617 217.411 125.52 218.969C125.928 219.673 127.208 222.038 126.525 222.878C123.934 226.072 117.459 232.812 108.996 232.812Z" fill="#F4F4F4"/>
<path d="M130.639 162.971C130.918 163.137 131.273 163.019 131.396 162.718C131.979 161.286 132.913 158.516 134.822 158.075C137.269 157.511 141.232 156.781 141.572 158.717C141.871 160.413 141.519 163.34 143.305 165.46C143.476 165.663 143.328 165.989 143.117 166.149L141.993 167.098C141.756 167.277 141.553 167.882 141.524 168.18C141.434 169.101 140.489 172.303 140.171 172.556C139.551 173.046 136.456 172.856 136.456 172.856L134.802 180.148C134.708 180.472 134.899 180.809 135.224 180.894L138.178 181.896C138.178 181.896 135.806 185.221 128.396 184.72C123.659 184.4 120.192 181.062 120.192 181.062C120.192 181.062 129.401 179.753 130.645 168.867C130.672 168.628 130.569 168.392 130.377 168.247C129.642 167.696 127.665 166.069 128.01 164.421C128.378 162.671 129.686 162.403 130.639 162.971Z" fill="#1D1B1B"/>
<path d="M121.164 181.295C122.364 182.233 125.084 184.045 128.425 184.272C133.804 184.637 136.414 182.943 137.369 182.097L135.079 181.319C134.838 181.258 134.608 181.083 134.467 180.837C134.327 180.591 134.291 180.295 134.371 180.022L136.017 172.757C136.066 172.543 136.261 172.396 136.483 172.409C138 172.502 139.55 172.413 139.869 172.219C140.14 171.808 140.988 169.053 141.077 168.135C141.11 167.794 141.333 167.033 141.721 166.739L142.827 165.806C142.874 165.771 142.904 165.728 142.919 165.7C141.526 164.006 141.384 161.911 141.27 160.223C141.234 159.694 141.201 159.195 141.13 158.795C141.089 158.562 140.973 158.389 140.767 158.253C139.958 157.717 137.992 157.806 134.922 158.512C133.408 158.862 132.544 161.04 131.973 162.483L131.811 162.887C131.703 163.151 131.488 163.356 131.219 163.445C130.951 163.535 130.655 163.503 130.409 163.356C130.033 163.133 129.622 163.09 129.282 163.239C128.875 163.419 128.586 163.859 128.449 164.514C128.167 165.858 129.892 167.323 130.646 167.889C130.965 168.129 131.136 168.524 131.09 168.919C130.058 177.961 123.584 180.614 121.164 181.295ZM129.89 185.221C129.406 185.221 128.898 185.203 128.365 185.169C123.52 184.84 120.027 181.526 119.88 181.386C119.757 181.267 119.712 181.088 119.765 180.923C119.817 180.761 119.958 180.643 120.128 180.617C120.49 180.565 129.011 179.214 130.198 168.818C130.207 168.736 130.173 168.656 130.107 168.606C128.999 167.774 127.196 166.111 127.571 164.328C127.823 163.129 128.444 162.626 128.921 162.418C129.53 162.15 130.24 162.211 130.868 162.585C130.868 162.585 130.868 162.585 130.868 162.585C130.895 162.602 130.919 162.6 130.934 162.593C130.955 162.587 130.97 162.572 130.979 162.548L131.138 162.15C131.779 160.536 132.748 158.093 134.721 157.639C138.179 156.84 140.197 156.799 141.262 157.505C141.677 157.78 141.93 158.16 142.014 158.64C142.093 159.087 142.128 159.61 142.166 160.163C142.272 161.736 142.404 163.695 143.648 165.173C143.785 165.335 143.847 165.547 143.823 165.769C143.792 166.044 143.625 166.327 143.388 166.508L142.282 167.442C142.171 167.537 141.996 167.964 141.97 168.224C141.899 168.958 140.973 172.491 140.45 172.906C139.84 173.39 137.827 173.37 136.809 173.325L135.239 180.247C135.217 180.327 135.234 180.37 135.246 180.39C135.26 180.416 135.286 180.446 135.334 180.459L138.322 181.472C138.456 181.518 138.561 181.626 138.605 181.76C138.648 181.896 138.625 182.043 138.543 182.157C138.447 182.291 136.278 185.221 129.89 185.221Z" fill="#F4F4F4"/>
<path d="M319.54 360.996L281.47 395.241L176.027 394.917C175.917 394.917 175.862 394.797 175.94 394.728L213.873 360.607L319.394 360.676C319.578 360.676 319.671 360.879 319.54 360.996Z" fill="#1D1B1B"/>
<path opacity="0.6" d="M176.897 394.471L281.298 394.794L318.727 361.125L214.046 361.056L176.897 394.471ZM281.471 395.69H281.469L176.026 395.368C175.785 395.366 175.576 395.224 175.492 395.003C175.41 394.788 175.468 394.55 175.64 394.394L213.573 360.273C213.655 360.2 213.762 360.157 213.874 360.157L319.394 360.228C319.672 360.228 319.914 360.39 320.009 360.642C320.102 360.885 320.035 361.155 319.84 361.332L281.771 395.577C281.688 395.65 281.58 395.69 281.471 395.69Z" fill="white"/>
<path d="M319.711 360.706V406.173L281.762 440.328C281.654 440.426 281.472 440.357 281.472 440.221V395.241C281.472 395.241 319.166 360.733 319.711 360.706Z" fill="#1D1B1B"/>
<path opacity="0.6" d="M281.919 395.438V439.582L319.262 405.974V361.621C314.963 365.255 291.483 386.683 281.919 395.438ZM281.641 440.823C281.554 440.823 281.465 440.805 281.382 440.768C281.16 440.669 281.022 440.46 281.022 440.221V395.241C281.022 395.115 281.075 394.996 281.167 394.91C318.98 360.29 319.477 360.268 319.69 360.258C319.812 360.251 319.932 360.298 320.021 360.381C320.108 360.467 320.159 360.584 320.159 360.706V406.172C320.159 406.3 320.104 406.422 320.011 406.507L282.061 440.663C281.944 440.768 281.793 440.823 281.641 440.823Z" fill="white"/>
<path d="M281.469 440.551L175.89 440.23C176.115 440.433 175.97 394.989 175.97 394.989L281.469 395.24C281.469 395.24 281.469 440.668 281.469 440.551Z" fill="#1D1B1B"/>
<path opacity="0.6" d="M176.367 439.783L281.021 440.101V395.69L176.421 395.44C176.427 397.648 176.456 407.605 176.464 417.573C176.469 424.134 176.463 429.365 176.448 433.122C176.431 437.082 176.423 438.912 176.367 439.783ZM281.47 441H281.468L175.909 440.679C175.795 440.683 175.679 440.645 175.59 440.564C175.458 440.446 175.409 440.261 175.463 440.095C175.624 438.458 175.56 407.061 175.522 394.992C175.521 394.872 175.569 394.758 175.653 394.673C175.737 394.588 175.839 394.554 175.972 394.541L281.47 394.793C281.717 394.793 281.918 394.994 281.918 395.241V440.552C281.918 440.671 281.871 440.785 281.786 440.87C281.703 440.953 281.587 441 281.47 441Z" fill="white"/>
<path opacity="0.6" d="M248.674 421.76C248.553 421.76 248.429 421.709 248.342 421.612C248.175 421.427 248.189 421.143 248.374 420.977L257.985 412.332C258.169 412.167 258.453 412.182 258.62 412.366C258.784 412.551 258.77 412.835 258.585 412.999L248.975 421.644C248.889 421.721 248.782 421.76 248.674 421.76Z" fill="white"/>
<path d="M440.942 317.066L402.517 351.632L298.47 351.309C298.317 351.307 298.242 351.141 298.349 351.043L336.199 316.997L440.942 317.066Z" fill="#1D1B1B"/>
<g opacity="0.6">
<path d="M299.222 350.864L402.347 351.184L439.775 317.515L336.37 317.446L299.222 350.864ZM402.516 352.081L298.471 351.758C298.209 351.758 297.98 351.602 297.889 351.365C297.803 351.133 297.865 350.878 298.05 350.71L335.899 316.663C335.98 316.59 336.087 316.55 336.201 316.55L440.944 316.619C441.13 316.619 441.297 316.734 441.364 316.907C441.429 317.081 441.383 317.278 441.243 317.402L402.818 351.967C402.737 352.04 402.629 352.081 402.516 352.081Z" fill="white"/>
</g>
<path d="M440.94 317.098V405.57L403.096 439.63C402.95 439.763 402.7 439.669 402.7 439.485V351.633C402.7 351.633 440.394 317.125 440.94 317.098Z" fill="#1D1B1B"/>
<g opacity="0.6">
<path d="M403.155 351.832V438.979L440.496 405.369V318.013C436.201 321.648 412.718 343.075 403.155 351.832ZM402.939 440.142C402.842 440.142 402.743 440.121 402.651 440.081C402.406 439.971 402.258 439.744 402.258 439.484V351.633C402.258 351.507 402.309 351.387 402.403 351.302C440.216 316.682 440.715 316.659 440.925 316.649C441.046 316.643 441.167 316.69 441.256 316.775C441.345 316.858 441.393 316.976 441.393 317.1V405.57C441.393 405.698 441.339 405.817 441.245 405.902L403.4 439.965C403.27 440.081 403.106 440.142 402.939 440.142Z" fill="white"/>
</g>
<path d="M402.701 439.695L298.216 439.375C298.442 439.578 298.294 351.383 298.294 351.383L402.701 351.633C402.701 351.633 402.701 439.813 402.701 439.695Z" fill="#1D1B1B"/>
<g opacity="0.6">
<path d="M298.682 438.927L402.252 439.246V352.083L298.744 351.833C298.749 355.069 298.781 375.199 298.788 395.342C298.793 408.107 298.788 418.282 298.771 425.586C298.763 429.714 298.749 433.155 298.731 435.57C298.722 437.347 298.712 438.351 298.682 438.927ZM402.702 440.145C402.702 440.145 402.702 440.145 402.699 440.145L298.227 439.824C298.107 439.828 298.001 439.788 297.915 439.708C297.79 439.597 297.738 439.424 297.78 439.266C297.942 437.276 297.895 381.02 297.846 351.385C297.846 351.265 297.893 351.152 297.979 351.066C298.06 350.983 298.176 350.934 298.294 350.934C298.296 350.934 298.296 350.934 298.296 350.934L402.702 351.186C402.95 351.186 403.149 351.387 403.149 351.634V439.696C403.149 439.814 403.102 439.93 403.016 440.013C402.935 440.098 402.82 440.145 402.702 440.145Z" fill="white"/>
</g>
<g opacity="0.6">
<path d="M342.673 405.394C342.548 405.394 342.428 405.343 342.339 405.245C342.17 405.061 342.189 404.777 342.371 404.611L372.627 377.395C372.811 377.229 373.096 377.245 373.26 377.428C373.426 377.612 373.412 377.897 373.228 378.063L342.972 405.278C342.885 405.355 342.778 405.394 342.673 405.394Z" fill="white"/>
</g>
<g opacity="0.6">
<path d="M341.601 384.906C341.479 384.906 341.355 384.855 341.267 384.756C341.102 384.573 341.115 384.289 341.299 384.123L350.911 375.478C351.095 375.312 351.38 375.328 351.545 375.513C351.71 375.695 351.695 375.979 351.511 376.146L341.901 384.791C341.815 384.868 341.708 384.906 341.601 384.906Z" fill="white"/>
</g>
<path d="M423.531 228.264H310.052C308.382 228.264 307.078 229.706 307.245 231.369L318.079 338.156C318.121 338.563 318.467 338.872 318.878 338.861L324.738 338.738C324.982 338.732 325.17 338.527 325.151 338.283L318.019 238.987C317.902 237.35 319.198 235.964 320.835 235.966L412.933 236.081C414.575 236.083 415.865 237.481 415.741 239.117L408.164 337.902C408.122 338.415 408.52 338.855 409.033 338.87L414.151 339.009C414.515 339.02 414.827 338.746 414.869 338.383L426.33 231.384C426.51 229.716 425.206 228.264 423.531 228.264Z" fill="#1D1B1B"/>
<path d="M320.832 235.514H320.834L412.932 235.632C413.84 235.634 414.713 236.014 415.33 236.681C415.945 237.345 416.257 238.246 416.187 239.15L408.609 337.934C408.601 338.058 408.64 338.178 408.726 338.271C408.809 338.363 408.921 338.415 409.046 338.419L414.163 338.559C414.307 338.557 414.408 338.462 414.421 338.332L425.885 231.335C425.958 230.668 425.742 229.996 425.294 229.499C424.843 228.999 424.2 228.712 423.531 228.712H310.05C309.381 228.712 308.74 228.996 308.292 229.491C307.845 229.988 307.626 230.655 307.694 231.322L318.527 338.109C318.543 338.283 318.707 338.409 318.865 338.411L324.728 338.288L317.571 239.017C317.509 238.116 317.824 237.215 318.441 236.553C319.056 235.892 319.928 235.514 320.832 235.514ZM414.168 339.456C414.158 339.456 414.148 339.456 414.135 339.456L409.02 339.316C408.65 339.306 408.306 339.148 408.056 338.872C407.809 338.594 407.687 338.237 407.715 337.865L415.291 239.08C415.343 238.415 415.122 237.78 414.669 237.29C414.218 236.801 413.601 236.53 412.932 236.53L320.834 236.413C320.832 236.413 320.832 236.413 320.832 236.413C320.165 236.413 319.55 236.681 319.097 237.165C318.644 237.655 318.418 238.288 318.467 238.952L325.6 338.251C325.616 338.488 325.535 338.724 325.376 338.9C325.215 339.075 324.985 339.18 324.748 339.184L318.886 339.31C318.251 339.326 317.696 338.835 317.634 338.2L306.8 231.41C306.709 230.494 307.009 229.574 307.626 228.892C308.246 228.207 309.128 227.814 310.05 227.814H423.531C424.455 227.814 425.34 228.21 425.96 228.897C426.577 229.587 426.877 230.509 426.778 231.428L415.314 338.427C415.252 339.01 414.749 339.456 414.168 339.456Z" fill="#F4F4F4"/>
<path d="M402.969 234.503C402.72 234.503 402.519 234.301 402.519 234.053V229.226C402.519 228.977 402.72 228.775 402.969 228.775C403.215 228.775 403.417 228.977 403.417 229.226V234.053C403.417 234.301 403.215 234.503 402.969 234.503Z" fill="#1D1B1B"/>
<path d="M346.242 319.598L344.035 330.596C343.959 330.968 343.613 331.219 343.29 331.138L336.833 329.495C336.557 329.424 336.392 329.129 336.451 328.809L338.31 318.981L346.242 319.598Z" fill="#1D1B1B"/>
<path d="M338.677 319.459L336.894 328.891C336.879 328.978 336.909 329.049 336.945 329.059L343.4 330.701C343.43 330.709 343.468 330.688 343.482 330.68C343.537 330.644 343.58 330.579 343.596 330.506L345.705 320.005L338.677 319.459ZM343.417 331.602C343.339 331.602 343.259 331.591 343.18 331.571L336.725 329.93C336.212 329.8 335.905 329.28 336.011 328.725L337.872 318.897C337.914 318.672 338.121 318.515 338.347 318.532L346.277 319.148C346.406 319.159 346.524 319.224 346.6 319.325C346.681 319.428 346.708 319.558 346.683 319.684L344.475 330.682C344.412 330.997 344.224 331.273 343.96 331.439C343.791 331.547 343.603 331.602 343.417 331.602Z" fill="#F4F4F4"/>
<path d="M367.051 310.164L372.491 319.103L366.274 322.397L360.682 314.398L367.051 310.164Z" fill="#1D1B1B"/>
<path d="M361.311 314.517L366.417 321.815L371.86 318.93L366.913 310.794L361.311 314.517ZM366.276 322.846C366.133 322.846 365.994 322.779 365.908 322.655L360.313 314.655C360.245 314.556 360.218 314.432 360.24 314.315C360.263 314.195 360.331 314.091 360.434 314.024L366.804 309.788C366.906 309.721 367.029 309.699 367.149 309.725C367.27 309.752 367.372 309.825 367.436 309.93L372.874 318.869C372.94 318.975 372.958 319.103 372.924 319.222C372.892 319.342 372.812 319.441 372.703 319.5L366.485 322.793C366.419 322.83 366.347 322.846 366.276 322.846Z" fill="#F4F4F4"/>
<path d="M346.334 325.762C346.773 327.345 347.705 331.8 348.093 334.482C348.337 336.164 347.274 337.757 345.648 338.197C341.047 339.441 330.051 339.386 320.897 339.791C320.271 339.818 319.115 339.511 318.601 337.994C316.861 332.841 326.481 331.246 335.992 326.008C336.178 325.904 336.405 325.914 336.579 326.038C336.69 326.117 336.828 326.212 336.991 326.316C338.647 327.369 341.397 327.371 343.076 326.361L344.975 325.218C345.495 324.906 346.168 325.174 346.334 325.762Z" fill="#1D1B1B"/>
<path d="M336.263 326.385C336.244 326.385 336.227 326.391 336.208 326.401C333.305 328 330.383 329.264 327.805 330.382C321.508 333.109 317.994 334.801 319.025 337.85C319.525 339.327 320.655 339.351 320.876 339.343C323.225 339.24 325.724 339.165 328.141 339.092C335.033 338.887 342.159 338.674 345.53 337.763C346.949 337.379 347.859 335.996 347.649 334.547C347.274 331.975 346.346 327.487 345.899 325.884C345.859 325.738 345.755 325.624 345.617 325.569C345.483 325.515 345.332 325.527 345.207 325.604L343.307 326.744C341.47 327.85 338.529 327.828 336.752 326.696C336.58 326.586 336.433 326.485 336.319 326.403C336.302 326.391 336.283 326.385 336.263 326.385ZM320.817 340.242C319.905 340.242 318.7 339.696 318.175 338.138C316.828 334.156 321.516 332.127 327.45 329.558C330.009 328.448 332.91 327.193 335.775 325.614C336.117 325.425 336.525 325.448 336.839 325.673C336.943 325.748 337.077 325.837 337.233 325.937C338.729 326.888 341.298 326.906 342.845 325.975L344.743 324.835C345.111 324.612 345.551 324.575 345.95 324.736C346.35 324.894 346.645 325.225 346.764 325.643C347.223 327.284 348.15 331.745 348.537 334.417C348.813 336.316 347.621 338.128 345.763 338.629C342.293 339.568 335.43 339.774 328.168 339.991C325.754 340.062 323.259 340.137 320.917 340.24C320.885 340.24 320.849 340.242 320.817 340.242Z" fill="#F4F4F4"/>
<path d="M348.374 335.694C348.382 335.741 348.386 335.773 348.388 335.79C348.633 337.472 347.035 338.504 345.508 339.222C340.977 341.349 322.673 340.129 321.968 340.083C321.953 340.081 321.943 340.081 321.93 340.081C321.703 340.085 319.377 340.085 318.707 338.64C318.625 338.46 318.574 338.208 318.542 337.971C318.491 337.585 318.516 337.191 318.601 336.812C318.673 336.502 318.977 336.309 319.283 336.386C322.68 337.256 330.647 337.823 338.539 336.67C341.449 336.246 346.099 334.942 347.32 334.211C347.653 334.012 348.078 334.205 348.155 334.588C348.216 334.909 348.293 335.299 348.374 335.694Z" fill="#1D1B1B"/>
<path d="M321.924 339.633C321.941 339.633 321.985 339.633 321.996 339.635C328.516 340.077 341.781 340.477 345.317 338.815C347.297 337.886 348.105 336.973 347.944 335.853L347.931 335.782L347.712 334.676C347.703 334.622 347.665 334.599 347.646 334.589C347.622 334.579 347.588 334.573 347.548 334.597C346.27 335.36 341.588 336.679 338.603 337.115C331.041 338.219 322.949 337.789 319.171 336.823C319.141 336.815 319.116 336.819 319.094 336.833C319.077 336.843 319.05 336.865 319.039 336.91C318.963 337.257 318.943 337.596 318.986 337.912C319.029 338.233 319.084 338.387 319.114 338.452C319.671 339.653 321.824 339.631 321.919 339.633C321.922 339.633 321.922 339.633 321.924 339.633ZM333.43 340.917C327.765 340.919 322.351 340.558 321.936 340.529C321.641 340.532 319.086 340.523 318.301 338.829C318.207 338.63 318.139 338.371 318.095 338.032C318.042 337.608 318.063 337.166 318.163 336.715C318.224 336.443 318.388 336.212 318.622 336.068C318.856 335.926 319.131 335.886 319.392 335.952C322.338 336.705 330.122 337.446 338.473 336.226C341.317 335.812 345.906 334.532 347.089 333.826C347.367 333.658 347.712 333.637 348.01 333.769C348.312 333.903 348.529 334.177 348.593 334.502L348.812 335.609C348.822 335.666 348.831 335.705 348.833 335.723C349.129 337.766 347.184 338.931 345.697 339.629C343.538 340.643 338.388 340.917 333.43 340.917Z" fill="#F4F4F4"/>
<path d="M335.343 330.616C335.248 330.616 335.154 330.588 335.073 330.525L332.296 328.411C332.098 328.261 332.059 327.979 332.211 327.782C332.36 327.585 332.642 327.547 332.839 327.697L335.617 329.811C335.813 329.961 335.852 330.243 335.703 330.44C335.613 330.555 335.48 330.616 335.343 330.616Z" fill="#F4F4F4"/>
<path d="M331.651 332.132C331.558 332.132 331.463 332.101 331.383 332.041L328.953 330.219C328.756 330.071 328.716 329.789 328.864 329.59C329.012 329.391 329.294 329.352 329.493 329.5L331.921 331.322C332.12 331.472 332.161 331.752 332.01 331.951C331.923 332.069 331.787 332.132 331.651 332.132Z" fill="#F4F4F4"/>
<path d="M365.871 320.489L373.018 319.456L377.238 328.41C377.86 329.753 377.367 331.494 376.11 332.289C374.472 333.326 372.028 334.675 369.22 335.578C363.92 337.28 358.633 342.165 354.079 339.763C349.521 337.363 349.825 337.185 349.594 335.539C349.366 333.896 353.883 330.658 356.938 328.527C359.43 326.787 365.871 320.489 365.871 320.489Z" fill="#1D1B1B"/>
<path d="M366.082 320.912C365.21 321.762 359.547 327.254 357.195 328.893C355.377 330.161 349.841 334.024 350.044 335.477C350.06 335.595 350.072 335.706 350.086 335.812C350.231 336.997 350.263 337.244 354.291 339.366C357.201 340.9 360.516 339.206 364.029 337.41C365.673 336.568 367.378 335.698 369.085 335.15C371.885 334.25 374.323 332.89 375.873 331.908C376.936 331.237 377.368 329.749 376.835 328.597L372.757 319.946L366.082 320.912ZM356.752 340.857C355.769 340.857 354.805 340.653 353.871 340.159C349.578 337.897 349.389 337.488 349.195 335.921C349.184 335.82 349.17 335.714 349.152 335.601C348.923 333.943 351.998 331.425 356.682 328.157C359.118 326.457 365.496 320.23 365.558 320.167C365.627 320.102 365.715 320.058 365.807 320.046L372.958 319.011C373.151 318.982 373.343 319.084 373.428 319.262L377.647 328.218C378.364 329.768 377.783 331.762 376.353 332.667C374.757 333.677 372.249 335.075 369.357 336.004C367.722 336.53 366.052 337.384 364.437 338.21C361.877 339.518 359.257 340.857 356.752 340.857Z" fill="#F4F4F4"/>
<path d="M363.524 328.253C363.439 328.253 363.355 328.229 363.28 328.18L360.054 326.084C359.847 325.948 359.787 325.67 359.921 325.463C360.058 325.254 360.335 325.195 360.544 325.331L363.768 327.427C363.974 327.563 364.034 327.841 363.901 328.048C363.812 328.18 363.668 328.253 363.524 328.253Z" fill="#F4F4F4"/>
<path d="M361.23 330.654C361.146 330.654 361.063 330.632 360.985 330.583L357.76 328.485C357.555 328.351 357.496 328.074 357.632 327.865C357.765 327.658 358.042 327.599 358.252 327.733L361.475 329.83C361.682 329.964 361.742 330.242 361.607 330.451C361.521 330.583 361.376 330.654 361.23 330.654Z" fill="#F4F4F4"/>
<path d="M349.905 336.769C349.905 336.769 353.491 339.382 357.434 338.018C361.379 336.653 377.237 328.302 377.237 328.302L378.056 330.098C378.471 331.006 378.113 332.088 377.239 332.581C373.289 334.805 362.747 340.477 357.258 340.85C350.422 341.315 349.905 336.769 349.905 336.769Z" fill="#1D1B1B"/>
<path d="M350.705 337.764C351.313 338.955 352.937 340.698 357.232 340.404C362.578 340.04 372.854 334.538 377.022 332.191C377.69 331.816 377.967 330.978 377.651 330.284L377.029 328.922C374.437 330.282 361.201 337.192 357.583 338.444C354.739 339.426 352.11 338.48 350.705 337.764ZM356.317 341.335C350.051 341.335 349.467 336.869 349.46 336.821C349.439 336.644 349.527 336.474 349.68 336.383C349.834 336.293 350.026 336.303 350.172 336.407C350.206 336.431 353.619 338.862 357.29 337.594C361.157 336.257 376.87 327.989 377.031 327.906C377.138 327.849 377.267 327.839 377.385 327.879C377.5 327.918 377.597 328.005 377.648 328.117L378.466 329.913C378.974 331.026 378.533 332.369 377.463 332.974C373.24 335.352 362.825 340.923 357.292 341.3C356.952 341.323 356.627 341.335 356.317 341.335Z" fill="#F4F4F4"/>
<path d="M361.098 249.382C361.098 249.382 336.475 259.396 327.389 270.401C318.711 280.916 357.808 319.103 357.808 319.103C357.856 319.286 371.095 311.805 371.095 311.574L360.956 289.458C356.955 280.831 348.949 275.903 352.214 272.872C355.184 270.113 371.695 271.539 380.171 271.243C395.226 270.719 395.081 248.77 395.081 248.77L361.098 249.382Z" fill="#1D1B1B"/>
<path d="M361.19 249.83C359.668 250.457 336.396 260.196 327.737 270.686C319.732 280.382 354.893 315.584 357.917 318.581C359.589 317.786 368.863 312.531 370.539 311.435L360.549 289.645C358.904 286.103 356.533 283.137 354.625 280.753C351.873 277.312 349.7 274.593 351.909 272.542C354.165 270.448 362.953 270.609 371.455 270.763C374.69 270.822 377.748 270.878 380.158 270.793C393.425 270.333 394.535 252.338 394.627 249.229L361.19 249.83ZM357.823 319.555C357.7 319.555 357.585 319.506 357.495 319.423C355.887 317.85 318.203 280.824 327.045 270.113C336.097 259.149 360.684 249.065 360.932 248.964C360.983 248.945 361.036 248.935 361.091 248.933L395.075 248.322C395.193 248.318 395.309 248.366 395.398 248.45C395.483 248.532 395.531 248.648 395.533 248.769C395.533 248.991 395.502 271.159 380.186 271.69C377.755 271.775 374.687 271.72 371.439 271.659C363.897 271.524 354.509 271.351 352.52 273.199C350.993 274.618 352.433 276.573 355.327 280.191C357.264 282.613 359.673 285.626 361.364 289.268L371.504 311.387C371.53 311.445 371.545 311.51 371.545 311.573C371.545 311.902 371.545 312.001 364.854 315.793C361.873 317.481 358.243 319.502 357.879 319.551C357.862 319.553 357.84 319.555 357.823 319.555Z" fill="#F4F4F4"/>
<path d="M340.124 276.646C337.997 284.598 335.976 308.518 335.51 321.894C335.502 322.078 349.061 322.208 349.088 321.967C349.225 320.79 359.245 284.567 364.839 274.987C367.816 269.898 386.991 271.357 391.271 270.507C402.691 268.239 401.942 245.18 401.942 245.18L348.469 266.537C343.896 267.233 341.328 272.14 340.124 276.646Z" fill="#1D1B1B"/>
<path d="M335.974 321.506C337.95 321.65 347.039 321.703 348.71 321.579C349.612 317.633 359.144 283.847 364.453 274.759C366.726 270.87 377.233 270.61 384.904 270.42C387.657 270.353 390.031 270.294 391.184 270.064C401.054 268.105 401.511 249.554 401.502 245.838L348.637 266.95C348.605 266.964 348.573 266.973 348.538 266.979C343.672 267.719 341.447 273.424 340.558 276.76C338.456 284.617 336.458 308.314 335.974 321.506ZM345.412 322.549C344.785 322.549 344.063 322.547 343.227 322.543C340.383 322.531 336.92 322.474 335.807 322.389C335.504 322.366 335.045 322.332 335.062 321.877C335.519 308.728 337.552 284.526 339.69 276.529C340.634 272.992 343.018 266.948 348.351 266.098L401.777 244.764C401.912 244.707 402.067 244.724 402.187 244.803C402.313 244.884 402.386 245.019 402.391 245.164C402.423 246.123 403.018 268.63 391.358 270.945C390.132 271.188 387.834 271.245 384.926 271.318C377.887 271.491 367.249 271.755 365.229 275.212C359.66 284.745 349.698 320.723 349.534 322.017C349.482 322.452 349.472 322.549 345.412 322.549Z" fill="#F4F4F4"/>
<path d="M405.368 208.664C405.368 208.664 404.909 190.266 394.091 186.694C393.171 186.392 392.207 186.241 391.243 186.204L381.696 185.844C378.865 185.822 376.518 186.506 373.487 187.616C370.954 188.543 368.131 190.271 366.486 191.768C359.226 198.361 359.154 220.501 352.874 219.978C350.767 219.802 347.238 216.282 343.748 211.972C340.95 208.522 336.132 204.287 336.132 204.287L327.742 208.522C329.735 211.903 331.534 215.405 333.001 219.053C336.072 226.667 341.109 233.062 347.419 238.519C349.518 240.338 352.49 240.71 354.968 239.473C358.991 237.468 365.021 234.236 368.766 231.185C370.144 235.946 368.914 241.139 365.521 244.809C364.503 245.912 363.397 246.924 362.237 247.746C361.095 248.562 360.822 250.165 361.608 251.335C362.872 253.216 365.4 255.38 370.221 254.872C376.558 254.205 394.599 254.277 402.565 254.347C404.679 254.364 406.384 252.612 406.334 250.48L405.368 208.664Z" fill="#F4F4F4"/>
<path d="M368.642 231.733C368.509 231.733 368.379 231.672 368.289 231.562C368.138 231.365 368.173 231.081 368.367 230.93C369.445 230.086 372.726 227.039 374.449 224.515C374.588 224.309 374.87 224.256 375.073 224.396C375.279 224.535 375.332 224.815 375.192 225.021C373.412 227.627 370.031 230.768 368.919 231.635C368.836 231.701 368.74 231.733 368.642 231.733Z" fill="#1D1B1B"/>
<path d="M335.083 204.521L333.801 197.581C333.801 197.581 332.752 192.287 331.471 191.581C330.526 191.062 329.899 193.026 330.097 195.508C330.132 195.918 329.57 196.067 329.401 195.691C328.732 194.214 328.034 192.483 327.974 191.581C327.856 189.817 327.507 186.17 325.876 186.523C324.243 186.876 321.329 192.522 323.545 197.345C325.758 202.17 330.887 206.64 330.887 206.64L335.083 204.521Z" fill="#1D1B1B"/>
<path d="M326.09 186.948C326.053 186.948 326.012 186.952 325.971 186.96C325.593 187.042 324.904 187.7 324.277 188.951C323.247 191.015 322.619 194.253 323.952 197.157C325.838 201.27 329.955 205.184 330.959 206.1L334.58 204.272L333.358 197.662C332.941 195.555 332.011 192.391 331.253 191.974C331.177 191.933 331.157 191.945 331.128 191.964C330.795 192.178 330.382 193.441 330.544 195.471C330.576 195.876 330.325 196.227 329.934 196.33C329.544 196.43 329.156 196.244 328.99 195.876C328.07 193.844 327.578 192.409 327.525 191.61C327.312 188.397 326.781 187.357 326.372 187.048C326.282 186.98 326.192 186.948 326.09 186.948ZM330.887 207.087C330.779 207.087 330.674 207.05 330.591 206.977C330.38 206.793 325.364 202.388 323.136 197.533C321.671 194.339 322.349 190.799 323.474 188.55C324.166 187.168 325.027 186.247 325.781 186.083C326.188 185.995 326.58 186.081 326.911 186.332C327.747 186.96 328.228 188.62 328.42 191.551C328.463 192.172 328.886 193.419 329.622 195.087C329.558 193.55 329.787 191.761 330.642 191.209C330.963 191.001 331.333 190.995 331.686 191.187C333.08 191.955 334.057 196.575 334.241 197.493L335.523 204.44C335.559 204.636 335.461 204.832 335.284 204.922L331.087 207.04C331.026 207.071 330.956 207.087 330.887 207.087Z" fill="#F4F4F4"/>
<path d="M378.324 188.68C378.058 188.632 377.993 188.272 378.228 188.135C379.025 187.674 380.149 186.841 380.077 185.833L380.249 181.94C380.237 181.465 379.925 181.052 379.474 180.915L376.675 180.065C376.243 179.933 375.95 179.528 375.96 179.071L376.049 174.943L374.69 173.848C374.582 173.762 374.565 173.606 374.647 173.498L376.61 170.908C377.244 169.933 377.83 167.641 378.389 167.773C378.389 167.773 389.988 165.944 390.921 171.71C391.063 172.588 390.849 173.493 390.364 174.237L389.38 175.742C388.396 177.254 387.918 179.076 388.18 180.867C388.264 181.429 389.575 186.606 389.575 186.606C389.575 186.606 391.901 187.66 393.326 188.056C393.631 188.14 393.648 188.572 393.35 188.682L390.746 189.304C388.146 189.916 385.448 189.983 382.82 189.503L378.324 188.68Z" fill="#1D1B1B"/>
<path d="M378.803 188.311L382.902 189.061C385.485 189.534 388.089 189.467 390.646 188.866L392.775 188.357C391.352 187.9 389.478 187.055 389.392 187.014C389.267 186.959 389.173 186.848 389.142 186.716C389.005 186.185 387.82 181.5 387.736 180.93C387.47 179.092 387.919 177.163 389.007 175.496L389.988 173.991C390.427 173.319 390.603 172.533 390.48 171.781C389.627 166.519 378.57 168.199 378.46 168.215C378.443 168.22 378.426 168.22 378.411 168.22C378.229 168.41 377.931 169.126 377.727 169.609C377.491 170.169 377.251 170.75 376.987 171.152L375.12 173.617L376.331 174.595C376.439 174.681 376.501 174.813 376.497 174.953L376.41 179.08C376.405 179.335 376.569 179.561 376.809 179.633L379.606 180.486C380.242 180.678 380.682 181.26 380.699 181.927L380.528 185.829C380.586 186.887 379.692 187.735 378.803 188.311ZM386.316 190.27C385.125 190.27 383.928 190.161 382.741 189.943L378.243 189.121C377.936 189.063 377.7 188.826 377.647 188.516C377.592 188.206 377.734 187.903 378.005 187.747C379.079 187.124 379.67 186.44 379.632 185.863C379.63 185.846 379.63 185.829 379.63 185.813L379.803 181.92C379.795 181.668 379.613 181.425 379.344 181.344L376.547 180.493C375.922 180.303 375.499 179.717 375.514 179.063L375.596 175.154L374.411 174.196C374.113 173.955 374.06 173.53 374.291 173.225L376.254 170.637C376.453 170.327 376.679 169.787 376.9 169.263C377.364 168.148 377.748 167.259 378.39 167.319C379.469 167.158 390.398 165.678 391.367 171.637C391.523 172.61 391.302 173.621 390.74 174.482L389.759 175.988C388.793 177.471 388.39 179.179 388.625 180.801C388.683 181.185 389.433 184.212 389.956 186.286C390.543 186.543 392.308 187.307 393.447 187.622C393.774 187.713 394 188.001 394.014 188.34C394.029 188.681 393.825 188.987 393.503 189.104C393.488 189.109 393.471 189.114 393.455 189.119L390.852 189.741C389.353 190.094 387.835 190.27 386.316 190.27Z" fill="#F4F4F4"/>
<path d="M377.618 158.807C380.297 158.557 377.02 161.449 386.842 158.191C390.757 156.894 388.917 161.595 389.933 161.26C393.683 160.029 393.555 160.065 395.422 160.49C396.658 160.768 397.533 163.008 397.361 164.71C397.133 166.955 394.765 170.606 392.663 174.445C391.577 176.436 389.514 176.698 386.888 173.917C386.61 173.621 387.897 171.752 387.15 171.003C385.218 169.052 384.525 172.15 382.995 171.267C381.526 170.419 380.91 169.857 379.337 168.547C377.437 166.962 374.474 169.68 373.255 165.983C372.62 164.055 373.951 159.151 377.618 158.807Z" fill="#F4F4F4"/>
<path d="M403.841 331.096H387.525V272.167H379.134V331.096H362.824C357.838 331.096 353.796 335.138 353.796 340.123V341.758H412.866V340.123C412.866 335.138 408.824 331.096 403.841 331.096Z" fill="#F4F4F4"/>
<path d="M408.382 209.976H404.162C392.906 209.976 383.168 217.885 380.764 228.985L375.848 251.654C374.701 256.959 370.046 260.741 364.665 260.741H355.795C351.153 260.741 347.396 264.534 347.396 269.217C347.396 273.9 351.153 277.696 355.795 277.696H370.204L370.196 277.734H395.555C404.431 277.734 412.107 271.498 414.004 262.747L421.793 226.793C423.667 218.151 417.146 209.976 408.382 209.976Z" fill="#1D1B1B"/>
<path d="M370.395 277.285H395.561C404.16 277.285 411.731 271.131 413.569 262.651L421.362 226.697C422.232 222.683 421.257 218.552 418.686 215.364C416.151 212.223 412.397 210.421 408.386 210.421H404.168C393.204 210.421 383.55 218.268 381.206 229.079L376.293 251.748C375.108 257.218 370.219 261.188 364.672 261.188H355.799C351.413 261.188 347.849 264.789 347.849 269.216C347.849 273.645 351.413 277.246 355.799 277.246H370.209C370.273 277.246 370.338 277.26 370.395 277.285ZM395.561 278.184H370.201C370.139 278.184 370.075 278.169 370.018 278.143H355.799C350.92 278.143 346.95 274.138 346.95 269.216C346.95 264.294 350.92 260.289 355.799 260.289H364.672C369.801 260.289 374.321 256.617 375.416 251.559L380.328 228.888C382.76 217.669 392.783 209.525 404.168 209.525H408.386C412.671 209.525 416.68 211.446 419.383 214.799C422.127 218.201 423.167 222.605 422.238 226.888L414.447 262.841C412.518 271.73 404.575 278.184 395.561 278.184Z" fill="#F4F4F4"/>
<path d="M297.858 274.497H184.38C182.71 274.497 181.407 275.94 181.575 277.599L192.408 384.388C192.449 384.796 192.796 385.102 193.206 385.094L199.067 384.97C199.309 384.964 199.498 384.757 199.48 384.516L192.348 285.218C192.231 283.584 193.525 282.195 195.163 282.197L287.261 282.314C288.902 282.316 290.195 283.714 290.069 285.349L282.491 384.134C282.451 384.645 282.848 385.088 283.361 385.102L288.478 385.242C288.843 385.252 289.156 384.978 289.196 384.613L300.659 277.615C300.838 275.95 299.533 274.497 297.858 274.497Z" fill="#1D1B1B"/>
<path d="M195.159 281.747C195.16 281.747 195.162 281.747 195.163 281.747L287.26 281.865C288.167 281.865 289.039 282.248 289.656 282.914C290.271 283.579 290.585 284.478 290.514 285.383L282.937 384.168C282.929 384.292 282.969 384.411 283.052 384.503C283.135 384.596 283.249 384.649 283.373 384.651L288.49 384.793C288.624 384.789 288.735 384.695 288.749 384.565L300.212 277.568C300.285 276.9 300.068 276.231 299.62 275.73C299.169 275.231 298.528 274.945 297.857 274.945H184.379C183.71 274.945 183.069 275.229 182.621 275.726C182.172 276.223 181.953 276.888 182.021 277.554L192.853 384.342C192.871 384.515 193.026 384.643 193.195 384.645L199.057 384.519L191.899 285.249C191.835 284.346 192.151 283.45 192.768 282.786C193.384 282.127 194.255 281.747 195.159 281.747ZM288.496 385.689C288.486 385.689 288.475 385.689 288.465 385.689L283.348 385.549C282.977 385.539 282.634 385.381 282.385 385.103C282.135 384.827 282.013 384.47 282.042 384.099L289.62 285.314C289.67 284.649 289.449 284.014 288.997 283.523C288.544 283.034 287.928 282.764 287.26 282.762L195.162 282.644C195.161 282.644 195.16 282.644 195.159 282.644C194.494 282.644 193.879 282.912 193.425 283.399C192.971 283.886 192.747 284.521 192.795 285.184L199.927 384.482C199.944 384.72 199.862 384.957 199.702 385.132C199.542 385.308 199.314 385.412 199.076 385.418L193.215 385.541C192.57 385.554 192.025 385.069 191.961 384.432L181.128 277.645C181.035 276.726 181.336 275.809 181.955 275.123C182.573 274.439 183.457 274.048 184.379 274.048H297.857C298.782 274.048 299.669 274.441 300.287 275.131C300.906 275.819 301.204 276.742 301.105 277.663L289.642 384.661C289.579 385.243 289.078 385.689 288.496 385.689Z" fill="#F4F4F4"/>
<path d="M277.3 280.73C277.052 280.73 276.852 280.53 276.852 280.282V275.453C276.852 275.206 277.052 275.005 277.3 275.005C277.547 275.005 277.748 275.206 277.748 275.453V280.282C277.748 280.53 277.547 280.73 277.3 280.73Z" fill="#1D1B1B"/>
<path d="M226.673 316.029C224.117 327.732 234.249 359.745 236.373 367.548C236.651 368.57 237.586 369.278 238.652 369.278H248.092C249.405 369.278 250.466 368.219 250.453 366.915C250.366 357.659 248.684 323.911 254.454 314.195C257.796 308.569 263.915 306.033 268.007 303.357C277.829 296.932 274.13 282.705 274.13 282.705L237.035 304.724C231.896 305.493 227.773 310.987 226.673 316.029Z" fill="#F4F4F4"/>
<path d="M240.743 286.384C240.743 286.384 208.359 286.674 198.149 298.839C188.972 309.775 202.577 357.913 205.425 367.55C205.721 368.549 206.643 369.232 207.691 369.232H219.856C220.114 369.232 220.321 369.025 220.321 368.772V317.765C220.321 314.551 220.95 316.273 223.671 314.533C227.483 312.092 234.399 314.163 243.931 314.234C274.195 314.458 269.32 285.966 269.32 285.966L240.743 286.384Z" fill="#F4F4F4"/>
<path d="M248.174 369.324L248.809 377.584L241.246 377.622L239.682 369.381L248.174 369.324Z" fill="#1D1B1B"/>
<path d="M240.224 369.827L241.618 377.172L248.325 377.137L247.759 369.776L240.224 369.827ZM241.247 378.07C241.031 378.07 240.845 377.918 240.804 377.705L239.242 369.464C239.218 369.334 239.252 369.198 239.335 369.097C239.421 368.993 239.546 368.932 239.68 368.932L248.173 368.876H248.175C248.41 368.876 248.605 369.056 248.623 369.289L249.258 377.549C249.269 377.675 249.226 377.796 249.141 377.888C249.056 377.979 248.938 378.032 248.812 378.034L241.249 378.07H241.247Z" fill="#F4F4F4"/>
<path d="M218.265 369.324L218.15 377.584L210.351 377.622L208.963 369.381L218.265 369.324Z" fill="#1D1B1B"/>
<path d="M209.492 369.827L210.73 377.172L217.707 377.137L217.808 369.776L209.492 369.827ZM210.35 378.07C210.131 378.07 209.942 377.912 209.906 377.697L208.52 369.456C208.498 369.326 208.534 369.192 208.62 369.093C208.705 368.991 208.828 368.932 208.96 368.932L218.261 368.876C218.263 368.876 218.263 368.876 218.265 368.876C218.384 368.876 218.498 368.922 218.583 369.007C218.668 369.093 218.715 369.21 218.713 369.33L218.597 377.589C218.593 377.835 218.395 378.032 218.151 378.034L210.352 378.07C210.35 378.07 210.35 378.07 210.35 378.07Z" fill="#F4F4F4"/>
<path d="M210.459 376.57H217.715C218.228 376.57 218.693 376.874 218.887 377.347C219.53 378.901 220.841 382.531 220.665 385.974C220.618 386.915 219.831 387.651 218.881 387.651H197.595C196.616 387.651 195.873 386.765 196.069 385.811C196.304 384.671 197.113 383.172 199.447 381.822C203.226 379.639 207.974 377.456 209.473 376.781C209.784 376.641 210.119 376.57 210.459 376.57Z" fill="#1D1B1B"/>
<path d="M210.46 377.018C210.182 377.018 209.912 377.075 209.656 377.19C208.271 377.815 203.454 380.027 199.672 382.212C197.887 383.243 196.793 384.519 196.509 385.902C196.444 386.217 196.524 386.541 196.729 386.793C196.942 387.053 197.257 387.203 197.595 387.203H218.881C219.594 387.203 220.182 386.653 220.216 385.951C220.391 382.559 219.056 378.925 218.474 377.519C218.348 377.215 218.05 377.018 217.715 377.018H210.46ZM218.881 388.1H197.595C196.986 388.1 196.417 387.83 196.034 387.359C195.657 386.899 195.51 386.3 195.629 385.722C195.865 384.575 196.68 382.904 199.223 381.435C203.041 379.227 207.893 377.002 209.289 376.373C209.658 376.204 210.054 376.119 210.46 376.119H217.715C218.415 376.119 219.038 376.535 219.303 377.176C219.908 378.637 221.296 382.421 221.113 385.998C221.054 387.176 220.072 388.1 218.881 388.1Z" fill="#F4F4F4"/>
<path d="M241.503 376.57H248.759C249.272 376.57 249.736 376.874 249.931 377.347C250.574 378.901 251.885 382.531 251.709 385.974C251.662 386.915 250.873 387.651 249.925 387.651H228.638C227.661 387.651 226.916 386.765 227.113 385.811C227.348 384.671 228.156 383.172 230.491 381.822C234.269 379.639 239.018 377.456 240.515 376.781C240.826 376.641 241.163 376.57 241.503 376.57Z" fill="#1D1B1B"/>
<path d="M241.504 377.018C241.226 377.018 240.957 377.075 240.701 377.19C239.315 377.815 234.501 380.025 230.715 382.212C228.932 383.243 227.838 384.519 227.552 385.902C227.487 386.217 227.568 386.541 227.773 386.793C227.986 387.053 228.303 387.203 228.639 387.203H249.926C250.638 387.203 251.227 386.653 251.261 385.951C251.436 382.559 250.101 378.925 249.518 377.519C249.392 377.215 249.094 377.018 248.759 377.018H241.504ZM249.926 388.1H228.639C228.031 388.1 227.461 387.83 227.077 387.359C226.702 386.899 226.554 386.3 226.673 385.722C226.909 384.575 227.724 382.904 230.266 381.435C234.089 379.227 238.938 377.002 240.332 376.373C240.703 376.204 241.099 376.119 241.504 376.119H248.759C249.457 376.119 250.082 376.535 250.348 377.176C250.953 378.637 252.34 382.423 252.158 385.998C252.097 387.176 251.117 388.1 249.926 388.1Z" fill="#F4F4F4"/>
<path d="M213.352 270.088L209.385 268.609C207.705 267.98 205.863 268.001 204.202 268.682C202.129 269.532 199.315 270.908 197.387 272.732C196.903 273.19 197.2 274.028 197.852 274.028H213.167L213.352 270.088Z" fill="#1D1B1B"/>
<path d="M206.882 268.604C206.028 268.604 205.177 268.768 204.372 269.099C202.368 269.919 199.583 271.272 197.695 273.059C197.58 273.169 197.581 273.315 197.621 273.414C197.645 273.477 197.708 273.581 197.852 273.581H212.739L212.887 270.395L209.229 269.03C208.468 268.746 207.673 268.604 206.882 268.604ZM213.167 274.479H197.852C197.375 274.479 196.967 274.197 196.786 273.747C196.6 273.276 196.714 272.751 197.078 272.408C199.067 270.525 201.957 269.117 204.032 268.267C205.792 267.547 207.748 267.518 209.544 268.188L213.508 269.669C213.69 269.738 213.808 269.915 213.8 270.111L213.615 274.051C213.603 274.291 213.406 274.479 213.167 274.479Z" fill="#F4F4F4"/>
<path d="M280.841 252.448C280.841 252.448 281.269 237.077 270.666 235.223C270.67 235.209 270.679 235.193 270.683 235.178L259.453 234.543C259.453 234.543 252.236 233.545 245.588 239.267C239.591 244.428 238.274 257.666 234.437 261.034C231.112 263.956 216.8 267.754 213.051 268.711C212.518 268.847 212.15 269.324 212.152 269.87L212.165 273.501H234.859C238.026 273.501 241.053 272.221 243.253 269.957C244.577 268.594 246.209 266.918 248.01 265.031C247.988 266.198 248.118 268.129 248.939 270.282C250.597 274.623 249.806 279.539 246.629 282.946C245.296 284.376 243.788 285.658 242.196 286.427C242.196 286.427 243.21 291.225 250.603 291.554C253.608 291.688 261.547 291.974 267.451 291.639C275.513 291.181 281.466 289.696 281.466 289.696L280.841 252.448Z" fill="#1D1B1B"/>
<path d="M242.732 286.66C243.106 287.696 244.721 290.845 250.623 291.107C253.031 291.214 261.361 291.535 267.426 291.192C274.263 290.805 279.629 289.66 281.011 289.344L280.392 252.457C280.392 252.451 280.392 252.443 280.392 252.437C280.396 252.287 280.682 237.434 270.589 235.666C270.538 235.658 270.489 235.64 270.445 235.616L259.426 234.993C259.32 234.979 252.284 234.096 245.879 239.609C242.631 242.404 240.756 247.742 239.103 252.451C237.717 256.395 236.522 259.802 234.733 261.372C231.367 264.33 217.37 268.071 213.16 269.147C212.829 269.232 212.598 269.53 212.6 269.869L212.61 273.052H234.858C237.886 273.052 240.827 271.81 242.929 269.646L243.246 269.321C244.51 268.019 246.025 266.46 247.685 264.722C247.813 264.588 248.009 264.547 248.18 264.616C248.35 264.687 248.462 264.856 248.458 265.04C248.436 266.227 248.574 268.071 249.357 270.122C251.122 274.742 250.203 279.774 246.957 283.253C245.526 284.785 244.108 285.929 242.732 286.66ZM260.921 292.247C256.685 292.247 252.613 292.093 250.582 292.004C242.929 291.663 241.799 286.733 241.755 286.522C241.712 286.319 241.813 286.114 241.998 286.025C243.38 285.357 244.828 284.219 246.299 282.64C249.31 279.413 250.16 274.74 248.519 270.443C247.898 268.816 247.656 267.31 247.585 266.126C246.216 267.552 244.962 268.842 243.891 269.946L243.574 270.273C241.302 272.61 238.127 273.951 234.858 273.951H212.164C211.916 273.951 211.715 273.75 211.715 273.503L211.701 269.873C211.699 269.12 212.208 268.465 212.939 268.278C221.513 266.085 231.586 262.942 234.14 260.698C235.753 259.282 236.968 255.821 238.257 252.155C239.947 247.338 241.864 241.881 245.295 238.927C252.019 233.141 259.211 234.058 259.513 234.1L270.708 234.731C270.798 234.735 270.883 234.768 270.954 234.82C281.475 236.859 281.299 251.954 281.289 252.451L281.914 289.691C281.918 289.9 281.776 290.082 281.573 290.133C281.514 290.147 275.488 291.632 267.476 292.089C265.427 292.204 263.151 292.247 260.921 292.247Z" fill="#F4F4F4"/>
<path d="M247.522 266.785C247.412 266.785 247.303 266.745 247.216 266.665C247.035 266.497 247.025 266.213 247.193 266.03C250.131 262.867 252.407 259.224 253.959 255.196C254.049 254.965 254.308 254.849 254.54 254.939C254.771 255.028 254.887 255.288 254.797 255.519C253.205 259.654 250.865 263.395 247.851 266.641C247.761 266.736 247.642 266.785 247.522 266.785Z" fill="#F4F4F4"/>
<path d="M252.758 215.089C252.758 215.089 252.338 218.844 250.455 220.93C250.311 221.09 250.279 221.321 250.39 221.504L251.165 222.8C251.232 222.914 251.289 223.034 251.329 223.157L252.618 226.945C252.735 227.29 253.048 227.538 253.415 227.568C254.221 227.635 256.262 227.323 256.43 227.86C256.615 228.461 256.473 233.324 256.4 235.44C256.379 236.002 256.775 236.493 257.329 236.594L261.689 237.4C263.653 237.761 265.671 237.52 267.485 236.722C268.072 236.463 268.335 235.773 268.063 235.19C267.065 233.062 264.884 227.978 265.172 224.868L267.11 219.447C267.061 216.848 264.892 214.786 262.277 214.851L252.758 215.089Z" fill="#1D1B1B"/>
<path d="M255.227 227.088C256.055 227.088 256.694 227.196 256.858 227.727C257.01 228.218 257.006 230.817 256.848 235.455C256.836 235.798 257.073 236.092 257.41 236.155L261.77 236.959C263.645 237.304 265.558 237.08 267.303 236.311C267.477 236.234 267.611 236.094 267.678 235.918C267.743 235.743 267.735 235.553 267.656 235.382C266.676 233.286 264.426 228.058 264.726 224.826C264.73 224.79 264.738 224.753 264.75 224.717L266.659 219.375C266.619 218.277 266.158 217.252 265.359 216.487C264.529 215.694 263.442 215.27 262.287 215.301L253.151 215.53C252.985 216.573 252.403 219.444 250.79 221.231C250.776 221.247 250.769 221.265 250.774 221.276L251.551 222.572C251.634 222.71 251.703 222.86 251.755 223.014L253.044 226.8C253.105 226.981 253.265 227.106 253.452 227.121C253.665 227.139 254.005 227.125 254.367 227.111C254.667 227.1 254.957 227.088 255.227 227.088ZM263.494 238.016C262.865 238.016 262.234 237.957 261.606 237.841L257.248 237.038C256.468 236.894 255.925 236.216 255.951 235.425C256.111 230.7 256.089 228.541 256.014 228.062C255.744 227.955 254.88 227.989 254.401 228.007C254.014 228.024 253.646 228.038 253.377 228.015C252.835 227.971 252.368 227.608 252.194 227.09L250.905 223.302C250.873 223.209 250.832 223.118 250.78 223.033L250.005 221.736C249.794 221.385 249.842 220.941 250.122 220.63C251.887 218.675 252.309 215.075 252.313 215.041C252.338 214.818 252.524 214.647 252.748 214.641L262.265 214.404C263.657 214.369 264.975 214.879 265.98 215.838C266.972 216.79 267.534 218.068 267.558 219.439C267.56 219.492 267.55 219.547 267.532 219.598L265.615 224.964C265.367 227.985 267.526 232.984 268.469 235.003C268.652 235.392 268.668 235.831 268.518 236.234C268.366 236.638 268.063 236.959 267.666 237.133C266.339 237.717 264.923 238.016 263.494 238.016Z" fill="#F4F4F4"/>
<path d="M251.876 213.759C251.491 214.35 251.724 215.147 252.367 215.443L252.757 215.622L260.235 219.306C260.424 219.4 260.653 219.388 260.824 219.264C261.134 219.039 261.69 218.763 262.248 219.118C263.025 219.615 263.181 222.262 261.185 222.964C260.921 223.058 260.777 223.336 260.883 223.591C260.998 223.869 261.169 224.238 261.402 224.642C263.165 227.671 267.521 227.852 269.621 225.042C271.169 222.97 272.585 219.566 270.842 214.912C268.105 207.61 256.93 206.038 251.876 213.759Z" fill="#F4F4F4"/>
<path d="M270.087 212.069C270.087 212.069 273.349 208.196 278.123 209.697C282.899 211.199 283.14 219.278 283.694 224.315C285.644 242.054 289.976 248.511 291.374 250.112C292.926 251.891 280.722 250.684 276.612 249.282C264.763 245.245 271.002 233.837 271.56 231.781C272.116 229.728 276.533 218.231 271.042 216.888L268.257 214.518L270.087 212.069Z" fill="#F4F4F4"/>
<path d="M271.588 217.605L271.529 217.626C271.01 217.816 270.432 217.551 270.241 217.035L268.786 213.103C268.596 212.586 268.861 212.014 269.381 211.823L269.44 211.803C269.961 211.612 270.537 211.878 270.728 212.393L272.183 216.327C272.375 216.843 272.108 217.415 271.588 217.605Z" fill="#1D1B1B"/>
<path d="M269.787 212.191C269.722 212.191 269.657 212.201 269.594 212.226L269.535 212.246C269.397 212.297 269.285 212.398 269.223 212.532C269.162 212.664 269.156 212.812 269.206 212.948L270.663 216.88C270.769 217.164 271.087 217.31 271.375 217.206L271.434 217.184C271.574 217.133 271.684 217.032 271.746 216.898C271.807 216.766 271.813 216.618 271.763 216.484L270.308 212.55C270.225 212.329 270.012 212.191 269.787 212.191ZM271.184 218.138C270.594 218.138 270.036 217.775 269.821 217.192L268.364 213.258C268.23 212.897 268.247 212.506 268.409 212.155C268.571 211.804 268.861 211.536 269.229 211.404L269.287 211.382C270.038 211.108 270.872 211.493 271.15 212.24L272.605 216.172C272.739 216.533 272.722 216.924 272.56 217.275C272.398 217.626 272.108 217.894 271.742 218.028L271.684 218.048C271.519 218.109 271.351 218.138 271.184 218.138Z" fill="#F4F4F4"/>
<path d="M274.657 381.256H258.343V322.326H249.952V381.256H233.638C228.653 381.256 224.611 385.298 224.611 390.283V391.92H283.683V390.283C283.683 385.298 279.642 381.256 274.657 381.256Z" fill="#1D1B1B"/>
<path d="M225.06 391.47H283.233V390.283C283.233 385.554 279.386 381.708 274.657 381.708H258.343C258.096 381.708 257.895 381.507 257.895 381.257V322.778H250.4V381.257C250.4 381.507 250.199 381.708 249.952 381.708H233.638C228.909 381.708 225.06 385.554 225.06 390.283V391.47ZM283.683 392.369H224.611C224.364 392.369 224.163 392.168 224.163 391.921V390.283C224.163 385.059 228.414 380.809 233.638 380.809H249.503V322.327C249.503 322.08 249.704 321.879 249.952 321.879H258.343C258.591 321.879 258.792 322.08 258.792 322.327V380.809H274.657C279.881 380.809 284.132 385.059 284.132 390.283V391.921C284.132 392.168 283.931 392.369 283.683 392.369Z" fill="#F4F4F4"/>
<path d="M279.203 260.135H274.981C263.725 260.135 253.989 268.047 251.582 279.145L246.671 301.816C245.52 307.119 240.866 310.901 235.488 310.901H226.613C221.975 310.901 218.214 314.697 218.214 319.379C218.214 324.062 221.975 327.858 226.613 327.858H241.026L241.018 327.896H266.375C275.251 327.896 282.926 321.658 284.823 312.907L292.614 276.956C294.488 268.313 287.968 260.135 279.203 260.135Z" fill="#1D1B1B"/>
<path d="M241.208 327.448H266.374C274.972 327.448 282.546 321.292 284.384 312.812L292.175 276.861C293.045 272.846 292.069 268.713 289.499 265.525C286.967 262.385 283.213 260.585 279.202 260.585H274.98C264.018 260.585 254.363 268.431 252.02 279.24L247.108 301.911C245.923 307.379 241.036 311.349 235.487 311.349H226.612C222.228 311.349 218.663 314.95 218.663 319.379C218.663 323.806 222.228 327.407 226.612 327.407H241.025C241.09 327.407 241.151 327.422 241.208 327.448ZM266.374 328.345H241.017C240.952 328.345 240.892 328.331 240.835 328.306H226.612C221.733 328.306 217.765 324.301 217.765 319.379C217.765 314.457 221.733 310.452 226.612 310.452H235.487C240.616 310.452 245.134 306.78 246.229 301.72L251.143 279.052C253.574 267.83 263.6 259.686 274.98 259.686H279.202C283.485 259.686 287.494 261.61 290.199 264.961C292.94 268.362 293.98 272.768 293.053 277.051L285.26 313.003C283.335 321.893 275.392 328.345 266.374 328.345Z" fill="#F4F4F4"/>
<path d="M142.841 102.19C144.808 102.19 146.403 103.785 146.403 105.751V130.265C146.403 132.232 144.808 133.826 142.841 133.826H103.914L99.7251 139.082L93.1423 133.826H75.2665C73.2993 133.826 71.7041 132.232 71.7041 130.265V105.751C71.7041 103.785 73.2993 102.19 75.2665 102.19H142.841Z" fill="#1D1B1B"/>
<path d="M99.7236 140.125C99.6139 140.125 99.5075 140.085 99.4253 140.013L92.9701 134.274H75.2647C73.0532 134.274 71.2539 132.473 71.2539 130.262V105.748C71.2539 103.537 73.0532 101.738 75.2647 101.738H88.5953C88.8431 101.738 89.0442 101.938 89.0442 102.188C89.0442 102.435 88.8431 102.635 88.5953 102.635H75.2647C73.5481 102.635 72.1516 104.032 72.1516 105.748V130.262C72.1516 131.978 73.5481 133.375 75.2647 133.375H93.141C93.2509 133.375 93.3569 133.415 93.4393 133.489L99.6724 139.031L104.164 133.539C104.249 133.437 104.376 133.375 104.511 133.375H142.839C144.556 133.375 145.953 131.978 145.953 130.262V105.748C145.953 104.032 144.556 102.635 142.839 102.635H97.5788C97.3307 102.635 97.1298 102.435 97.1298 102.188C97.1298 101.938 97.3307 101.738 97.5788 101.738H142.839C145.051 101.738 146.85 103.537 146.85 105.748V130.262C146.85 132.473 145.051 134.274 142.839 134.274H104.724L100.071 139.963C99.9934 140.055 99.881 140.115 99.7591 140.125C99.7471 140.125 99.7353 140.125 99.7236 140.125Z" fill="#F4F4F4"/>
<path d="M136.539 114.309H82.8344C82.5869 114.309 82.3857 114.107 82.3857 113.86C82.3857 113.612 82.5869 113.411 82.8344 113.411H136.539C136.787 113.411 136.988 113.612 136.988 113.86C136.988 114.107 136.787 114.309 136.539 114.309Z" fill="#F4F4F4"/>
<path d="M136.541 121.484H125.312C125.064 121.484 124.863 121.282 124.863 121.034C124.863 120.786 125.064 120.586 125.312 120.586H136.541C136.789 120.586 136.99 120.786 136.99 121.034C136.99 121.282 136.789 121.484 136.541 121.484Z" fill="#F4F4F4"/>
<path d="M118.133 121.484H82.8346C82.5868 121.484 82.3857 121.282 82.3857 121.034C82.3857 120.786 82.5868 120.586 82.8346 120.586H118.133C118.381 120.586 118.582 120.786 118.582 121.034C118.582 121.282 118.381 121.484 118.133 121.484Z" fill="#F4F4F4"/>
</svg>
