<svg width="512" height="512" viewBox="0 0 512 512" fill="none" xmlns="http://www.w3.org/2000/svg">
<path d="M400.46 148.311C400.229 148.311 400.045 148.126 400.045 147.896V144.684C400.045 144.454 400.229 144.269 400.46 144.269C400.688 144.269 400.875 144.454 400.875 144.684V147.896C400.875 148.126 400.688 148.311 400.46 148.311Z" fill="#F4F4F4"/>
<path d="M400.46 155.795C400.229 155.795 400.045 155.611 400.045 155.382V152.169C400.045 151.938 400.229 151.754 400.46 151.754C400.688 151.754 400.875 151.938 400.875 152.169V155.382C400.875 155.611 400.688 155.795 400.46 155.795Z" fill="#F4F4F4"/>
<path d="M398.326 150.445H395.11C394.883 150.445 394.697 150.26 394.697 150.03C394.697 149.801 394.883 149.616 395.11 149.616H398.326C398.553 149.616 398.739 149.801 398.739 150.03C398.739 150.26 398.553 150.445 398.326 150.445Z" fill="#F4F4F4"/>
<path d="M405.811 150.445H402.597C402.368 150.445 402.184 150.259 402.184 150.029C402.184 149.8 402.368 149.616 402.597 149.616H405.811C406.038 149.616 406.225 149.8 406.225 150.029C406.225 150.259 406.038 150.445 405.811 150.445Z" fill="#F4F4F4"/>
<path d="M409.668 164.118C409.49 164.118 409.31 164.137 409.129 164.18C408.54 164.322 408.044 164.688 407.729 165.208C407.072 166.303 407.435 167.75 408.537 168.436C409.072 168.77 409.702 168.876 410.306 168.729C410.898 168.587 411.394 168.221 411.707 167.701C412.364 166.609 412.003 165.16 410.901 164.474C410.523 164.238 410.099 164.118 409.668 164.118ZM409.767 169.622C409.185 169.622 408.609 169.458 408.097 169.141C406.612 168.217 406.13 166.26 407.019 164.782C407.447 164.07 408.128 163.569 408.937 163.374C409.757 163.179 410.612 163.319 411.339 163.771C412.821 164.695 413.308 166.65 412.419 168.13C411.989 168.84 411.31 169.34 410.501 169.535C410.258 169.593 410.013 169.622 409.767 169.622Z" fill="#F4F4F4"/>
<path d="M339.144 416.26H184.994C178.351 416.26 173.645 410.902 174.483 404.294L212.441 105.011C213.279 98.4017 219.342 93.0427 225.986 93.0427L372.398 91.3362C389.203 91.3362 391.483 98.4017 390.645 105.011L352.688 404.294C351.85 410.902 345.785 416.26 339.144 416.26Z" fill="#F4F4F4"/>
<path d="M329.868 416.26H175.717C169.074 416.26 164.369 410.875 165.207 404.231L203.164 103.423C204.002 96.7799 210.065 91.3942 216.71 91.3942H370.858C377.503 91.3942 382.208 96.7799 381.37 103.423L343.413 404.231C342.575 410.875 336.508 416.26 329.868 416.26Z" fill="#1D1B1B"/>
<path d="M216.71 91.8091C210.278 91.8091 204.387 97.0404 203.575 103.473L165.618 404.284C165.226 407.395 166.07 410.311 167.997 412.495C169.901 414.656 172.643 415.846 175.717 415.846H329.868C336.298 415.846 342.191 410.612 343 404.18L380.958 103.37C381.35 100.259 380.506 97.3426 378.58 95.1577C376.675 92.9977 373.931 91.8091 370.857 91.8091H216.71ZM329.868 416.675H175.717C172.402 416.675 169.439 415.385 167.376 413.045C165.289 410.678 164.373 407.531 164.796 404.18L202.753 103.37C203.615 96.5385 209.876 90.9801 216.71 90.9801H370.857C374.176 90.9801 377.137 92.2686 379.2 94.6108C381.287 96.9755 382.201 100.124 381.779 103.473L343.824 404.284C342.96 411.116 336.7 416.675 329.868 416.675Z" fill="#F4F4F4"/>
<path d="M173.992 404.647L210.233 117.425C210.427 115.891 211.828 114.647 213.362 114.647H368.339C369.873 114.647 370.959 115.891 370.767 117.425L334.524 404.647C334.332 406.181 332.93 407.424 331.399 407.424H176.418C174.885 407.424 173.799 406.181 173.992 404.647Z" fill="#1D1B1B"/>
<path d="M292.991 98.0966C290.707 98.0966 288.615 99.9552 288.327 102.239C288.189 103.331 288.484 104.351 289.156 105.113C289.819 105.865 290.778 106.278 291.852 106.278C294.134 106.278 296.226 104.42 296.516 102.136C296.654 101.047 296.359 100.027 295.688 99.2644C295.024 98.5121 294.065 98.0966 292.991 98.0966ZM291.852 107.109C290.535 107.109 289.355 106.596 288.534 105.661C287.703 104.717 287.336 103.466 287.503 102.136C287.843 99.4512 290.304 97.2681 292.991 97.2681C294.308 97.2681 295.486 97.7819 296.31 98.7162C297.141 99.6577 297.505 100.909 297.337 102.239C297.001 104.924 294.54 107.109 291.852 107.109Z" fill="#F4F4F4"/>
<path d="M357.78 220.539C357.764 220.539 357.745 220.539 357.728 220.537C357.5 220.506 357.34 220.301 357.368 220.073L370.355 117.372C370.433 116.748 370.265 116.161 369.882 115.728C369.505 115.297 368.956 115.062 368.34 115.062H213.361C212.03 115.062 210.812 116.145 210.645 117.475L204.639 165.072C204.61 165.298 204.402 165.46 204.176 165.432C203.949 165.401 203.788 165.194 203.817 164.968L209.823 117.372C210.041 115.641 211.628 114.233 213.361 114.233H368.34C369.199 114.233 369.964 114.57 370.503 115.18C371.045 115.794 371.285 116.611 371.177 117.475L358.19 220.176C358.164 220.386 357.985 220.539 357.78 220.539Z" fill="#F4F4F4"/>
<path d="M186.992 298.571C186.975 298.571 186.958 298.569 186.942 298.568C186.714 298.541 186.553 298.334 186.58 298.107L187.751 288.446C187.779 288.218 187.988 288.058 188.212 288.085C188.439 288.113 188.601 288.32 188.574 288.545L187.403 298.207C187.377 298.417 187.199 298.571 186.992 298.571Z" fill="#F4F4F4"/>
<path d="M179.705 359.786C179.688 359.786 179.67 359.786 179.653 359.782C179.425 359.754 179.265 359.547 179.293 359.32L185.522 309.959C185.551 309.731 185.761 309.577 185.985 309.598C186.212 309.628 186.373 309.835 186.344 310.062L180.116 359.423C180.089 359.634 179.911 359.786 179.705 359.786Z" fill="#F4F4F4"/>
<path d="M217.998 407.975H217.996L176.417 407.837C175.56 407.837 174.791 407.503 174.253 406.892C173.71 406.277 173.471 405.461 173.58 404.594L177.299 375.123C177.328 374.896 177.537 374.742 177.762 374.764C177.989 374.793 178.15 374.999 178.122 375.227L174.403 404.698C174.324 405.326 174.491 405.908 174.875 406.345C175.253 406.773 175.801 407.008 176.418 407.008L217.999 407.147C218.227 407.147 218.413 407.334 218.411 407.563C218.411 407.79 218.225 407.975 217.998 407.975Z" fill="#F4F4F4"/>
<path d="M264.567 134.765C261.934 134.765 259.745 136.741 259.482 139.361C259.336 140.797 259.808 142.234 260.775 143.306C261.742 144.376 263.124 144.99 264.567 144.99H347.935C350.569 144.99 352.758 143.013 353.021 140.393C353.166 138.957 352.695 137.519 351.728 136.449C350.761 135.379 349.378 134.765 347.935 134.765H264.567ZM347.935 145.818H264.567C262.892 145.818 261.284 145.104 260.16 143.862C259.035 142.618 258.488 140.947 258.657 139.279C258.966 136.232 261.505 133.936 264.567 133.936H347.935C349.611 133.936 351.219 134.649 352.342 135.893C353.468 137.137 354.015 138.807 353.845 140.476C353.537 143.52 350.998 145.818 347.935 145.818Z" fill="#F4F4F4"/>
<path d="M264.567 226.799C261.934 226.799 259.745 228.776 259.482 231.395C259.336 232.832 259.808 234.268 260.775 235.34C261.742 236.41 263.124 237.024 264.567 237.024H347.935C350.569 237.024 352.758 235.047 353.021 232.427C353.166 230.991 352.695 229.553 351.728 228.483C350.761 227.413 349.378 226.799 347.935 226.799H264.567ZM347.935 237.853H264.567C262.892 237.853 261.284 237.138 260.16 235.896C259.035 234.652 258.488 232.981 258.657 231.313C258.966 228.266 261.505 225.97 264.567 225.97H347.935C349.611 225.97 351.219 226.683 352.342 227.927C353.468 229.171 354.015 230.842 353.845 232.51C353.537 235.554 350.998 237.853 347.935 237.853Z" fill="#F4F4F4"/>
<path d="M238.091 154.127C234.665 154.127 231.818 156.023 231.475 158.535C231.286 159.912 231.899 161.289 233.157 162.317C234.415 163.343 236.214 163.932 238.091 163.932H346.545C349.97 163.932 352.818 162.037 353.161 159.524C353.35 158.147 352.736 156.768 351.478 155.742C350.22 154.716 348.422 154.127 346.545 154.127H238.091ZM346.545 164.727H238.091C235.912 164.727 233.82 164.041 232.358 162.85C230.894 161.657 230.182 160.055 230.403 158.456C230.804 155.534 234.107 153.333 238.091 153.333H346.545C348.724 153.333 350.816 154.016 352.277 155.209C353.742 156.402 354.454 158.004 354.233 159.604C353.832 162.523 350.528 164.727 346.545 164.727Z" fill="#F4F4F4"/>
<path d="M212.727 181.188C210.443 181.188 208.545 183.083 208.316 185.595C208.19 186.973 208.599 188.35 209.438 189.378C210.277 190.404 211.476 190.993 212.727 190.993H285.029C287.313 190.993 289.212 189.097 289.44 186.585C289.566 185.208 289.157 183.828 288.319 182.803C287.48 181.777 286.281 181.188 285.029 181.188H212.727ZM285.029 191.787H212.727C211.274 191.787 209.88 191.102 208.905 189.911C207.929 188.718 207.454 187.116 207.602 185.516C207.869 182.595 210.071 180.393 212.727 180.393H285.029C286.482 180.393 287.877 181.076 288.851 182.269C289.828 183.462 290.302 185.064 290.155 186.664C289.888 189.583 287.685 191.787 285.029 191.787Z" fill="#F4F4F4"/>
<path d="M213.971 199.703C211.135 199.703 208.779 201.599 208.495 204.111C208.339 205.488 208.846 206.865 209.887 207.893C210.929 208.919 212.417 209.508 213.971 209.508H303.725C306.56 209.508 308.917 207.613 309.201 205.1C309.357 203.723 308.85 202.344 307.808 201.318C306.767 200.292 305.279 199.703 303.725 199.703H213.971ZM303.725 210.303H213.971C212.167 210.303 210.436 209.617 209.226 208.427C208.014 207.234 207.425 205.632 207.608 204.032C207.94 201.11 210.674 198.909 213.971 198.909H303.725C305.529 198.909 307.26 199.592 308.47 200.785C309.682 201.978 310.271 203.58 310.088 205.18C309.756 208.099 307.022 210.303 303.725 210.303Z" fill="#F4F4F4"/>
<path d="M201.317 247.895C198.369 246.349 196.002 240.183 195.519 232.883C195.006 225.148 197.091 218.286 200.105 216.839L190.689 223.8L190.623 223.857C188.924 224.989 187.915 228.873 188.215 233.4C188.511 237.876 190.043 241.559 191.851 242.521L191.782 242.525L201.317 247.895Z" fill="#1D1B1B"/>
<path d="M220.278 252.852L221.13 253.038C216.484 252.062 212.574 242.709 211.829 231.49C211.072 220.048 214.221 210.33 218.851 209.08L218.214 209.343L200.157 216.814C197.115 218.209 195.004 225.103 195.519 232.883C196.016 240.389 198.597 246.699 201.656 248.017L220.278 252.852Z" fill="#1D1B1B"/>
<path d="M263.713 403.348C252.392 406.444 240.702 399.787 237.602 388.477C234.502 377.167 241.166 365.486 252.488 362.39C263.809 359.294 275.499 365.953 278.599 377.263C281.697 388.573 275.035 400.251 263.713 403.348ZM300.383 375.578L298.202 367.624L289.195 368.032C288.36 366.28 287.394 364.62 286.3 363.067L291.069 355.434L285.2 349.634L277.601 354.488C276.02 353.405 274.35 352.454 272.611 351.646L272.921 342.641L264.935 340.55L260.792 348.538C258.897 348.39 256.973 348.405 255.039 348.579L250.803 340.627L242.84 342.806L243.249 351.804C241.495 352.638 239.833 353.605 238.279 354.697L230.64 349.931L224.835 355.795L229.693 363.386C228.608 364.967 227.657 366.635 226.848 368.372L217.834 368.062L215.741 376.041L223.737 380.18C223.588 382.074 223.603 383.995 223.778 385.928L215.818 390.159L217.999 398.116L227.006 397.706C227.841 399.458 228.807 401.118 229.901 402.673L225.132 410.304L231.001 416.103L238.6 411.249C240.181 412.334 241.851 413.283 243.59 414.092L243.279 423.097L251.266 425.189L255.409 417.199C257.304 417.348 259.227 417.333 261.162 417.16L265.398 425.11L273.361 422.933L272.952 413.934C274.706 413.099 276.367 412.135 277.922 411.042L285.561 415.806L291.366 409.943L286.508 402.351C287.593 400.772 288.544 399.104 289.353 397.365L298.367 397.676L300.46 389.697L292.464 385.557C292.613 383.664 292.598 381.743 292.423 379.81L300.383 375.578Z" fill="#1D1B1B"/>
<path d="M258.096 362.048C256.278 362.048 254.432 362.289 252.597 362.791C247.229 364.259 242.753 367.728 239.997 372.559C237.241 377.389 236.532 383.005 238.002 388.366C241.037 399.44 252.523 405.982 263.604 402.948C268.971 401.479 273.446 398.011 276.204 393.179C278.96 388.349 279.669 382.736 278.198 377.372C275.666 368.134 267.251 362.048 258.096 362.048ZM258.107 404.519C248.585 404.519 239.835 398.193 237.203 388.586C235.675 383.01 236.412 377.171 239.277 372.149C242.144 367.124 246.797 363.518 252.379 361.992C263.901 358.839 275.843 365.641 278.997 377.152C280.526 382.73 279.789 388.568 276.924 393.591C274.057 398.614 269.404 402.22 263.822 403.749C261.914 404.269 259.994 404.519 258.107 404.519ZM243.704 422.782L251.049 424.705L255.041 417.01C255.118 416.862 255.278 416.773 255.441 416.788C257.3 416.933 259.212 416.92 261.124 416.747C261.288 416.73 261.448 416.818 261.527 416.965L265.608 424.624L272.931 422.622L272.538 413.953C272.53 413.788 272.622 413.632 272.773 413.56C274.508 412.735 276.161 411.774 277.683 410.703C277.819 410.607 277.999 410.601 278.14 410.691L285.5 415.28L290.84 409.887L286.158 402.575C286.068 402.434 286.072 402.256 286.166 402.119C287.234 400.562 288.179 398.904 288.977 397.191C289.048 397.041 289.198 396.932 289.368 396.952L298.049 397.251L299.975 389.914L292.274 385.926C292.126 385.849 292.037 385.691 292.05 385.526C292.197 383.668 292.182 381.758 292.009 379.848C291.994 379.683 292.08 379.523 292.229 379.446L299.896 375.37L297.89 368.053L289.213 368.446C289.05 368.459 288.892 368.361 288.82 368.211C287.995 366.479 287.033 364.829 285.961 363.306C285.865 363.169 285.859 362.988 285.948 362.847L290.543 355.496L285.143 350.161L277.824 354.838C277.683 354.927 277.505 354.925 277.368 354.831C275.809 353.763 274.149 352.817 272.436 352.022C272.286 351.953 272.19 351.798 272.196 351.633L272.496 342.959L265.151 341.035L261.158 348.728C261.083 348.877 260.923 348.963 260.76 348.952C258.9 348.806 256.988 348.821 255.076 348.992C254.913 349.007 254.751 348.922 254.674 348.774L250.593 341.114L243.27 343.119L243.663 351.785C243.67 351.953 243.578 352.107 243.428 352.178C241.696 353.002 240.044 353.964 238.517 355.036C238.382 355.132 238.201 355.135 238.06 355.049L230.7 350.458L225.361 355.852L230.042 363.163C230.133 363.304 230.129 363.485 230.035 363.622C228.965 365.18 228.019 366.837 227.224 368.547C227.153 368.698 227 368.801 226.833 368.786L218.151 368.487L216.226 375.825L223.927 379.814C224.075 379.889 224.164 380.047 224.15 380.213C224.004 382.07 224.019 383.98 224.19 385.89C224.205 386.056 224.12 386.216 223.974 386.293L216.305 390.37L218.311 397.687L226.987 397.293C227.151 397.283 227.309 397.377 227.38 397.528C228.206 399.259 229.168 400.91 230.24 402.434C230.336 402.57 230.341 402.75 230.253 402.891L225.658 410.244L231.057 415.577L238.376 410.9C238.517 410.812 238.696 410.814 238.833 410.908C240.39 411.975 242.05 412.921 243.764 413.716C243.915 413.788 244.011 413.94 244.005 414.107L243.704 422.782ZM251.266 425.604C251.23 425.604 251.194 425.6 251.16 425.59L243.174 423.498C242.986 423.449 242.858 423.278 242.866 423.084L243.167 414.352C241.582 413.6 240.044 412.726 238.593 411.746L231.225 416.454C231.061 416.559 230.847 416.536 230.71 416.399L224.84 410.599C224.703 410.464 224.677 410.25 224.78 410.086L229.405 402.684C228.42 401.259 227.529 399.731 226.752 398.133L218.018 398.53C217.828 398.545 217.649 398.411 217.599 398.225L215.42 390.269C215.367 390.083 215.454 389.885 215.625 389.795L223.342 385.691C223.195 383.92 223.182 382.151 223.302 380.423L215.551 376.408C215.378 376.319 215.292 376.122 215.341 375.936L217.433 367.957C217.482 367.771 217.664 367.637 217.849 367.649L226.589 367.95C227.341 366.368 228.215 364.834 229.196 363.379L224.485 356.019C224.38 355.857 224.402 355.643 224.54 355.504L230.345 349.64C230.48 349.503 230.695 349.479 230.858 349.58L238.267 354.201C239.694 353.216 241.225 352.325 242.823 351.55L242.426 342.823C242.418 342.632 242.544 342.457 242.73 342.406L250.694 340.227C250.88 340.176 251.078 340.261 251.168 340.432L255.276 348.144C257.048 347.997 258.819 347.984 260.549 348.104L264.568 340.359C264.657 340.188 264.852 340.101 265.04 340.148L273.027 342.241C273.215 342.289 273.342 342.462 273.335 342.656L273.034 351.389C274.619 352.139 276.155 353.013 277.608 353.992L284.976 349.285C285.139 349.182 285.354 349.204 285.491 349.339L291.36 355.139C291.498 355.276 291.524 355.489 291.421 355.654L286.796 363.054C287.781 364.479 288.672 366.009 289.448 367.606L298.183 367.209C298.375 367.203 298.549 367.327 298.602 367.513L300.783 375.47C300.834 375.656 300.747 375.853 300.576 375.945L292.859 380.049C293.005 381.818 293.019 383.589 292.896 385.315L300.649 389.331C300.822 389.419 300.909 389.617 300.86 389.803L298.768 397.781C298.719 397.964 298.553 398.092 298.367 398.092C298.361 398.092 298.356 398.092 298.352 398.092L289.612 397.791C288.86 399.374 287.984 400.908 287.004 402.359L291.716 409.719C291.821 409.883 291.798 410.097 291.661 410.235L285.856 416.098C285.72 416.235 285.506 416.26 285.342 416.158L277.933 411.539C276.51 412.522 274.98 413.412 273.378 414.19L273.775 422.915C273.782 423.109 273.656 423.282 273.47 423.332L265.507 425.511C265.32 425.56 265.123 425.478 265.033 425.306L260.925 417.597C259.15 417.743 257.379 417.755 255.652 417.634L251.632 425.38C251.561 425.519 251.418 425.604 251.266 425.604Z" fill="#F4F4F4"/>
<path d="M333.326 380.241C324.776 379.735 318.257 372.402 318.767 363.861C319.276 355.32 326.621 348.806 335.171 349.312C343.721 349.817 350.24 357.151 349.731 365.692C349.221 374.233 341.876 380.747 333.326 380.241ZM365.18 369.621L365.54 363.613L359.219 361.791C359.052 360.385 358.773 359.01 358.382 357.681L363.468 353.521L360.771 348.14L354.381 349.719C353.544 348.601 352.612 347.554 351.599 346.589L353.927 340.438L348.898 337.125L344.161 341.679C342.887 341.132 341.553 340.694 340.175 340.363L339.111 333.875L333.096 333.52L331.269 339.834C329.864 340.002 328.486 340.28 327.156 340.673L322.994 335.593L317.604 338.289L319.185 344.672C318.065 345.51 317.014 346.441 316.048 347.452L309.891 345.13L306.573 350.156L311.128 354.886C310.582 356.16 310.143 357.491 309.811 358.868L303.315 359.932L302.958 365.94L309.278 367.764C309.445 369.168 309.724 370.542 310.115 371.871L305.027 376.032L307.727 381.412L314.116 379.833C314.953 380.952 315.886 381.999 316.898 382.963L314.571 389.115L319.599 392.427L324.338 387.876C325.613 388.421 326.945 388.859 328.323 389.192L329.386 395.678L335.4 396.033L337.226 389.718C338.636 389.551 340.012 389.273 341.339 388.882L345.503 393.959L350.891 391.264L349.312 384.881C350.435 384.043 351.483 383.112 352.449 382.1L358.606 384.422L361.923 379.397L357.37 374.667C357.915 373.392 358.355 372.061 358.687 370.685L365.18 369.621Z" fill="#1D1B1B"/>
<path d="M333.35 379.827C341.657 380.32 348.821 373.967 349.318 365.667C349.56 361.648 348.216 357.775 345.541 354.763C342.863 351.751 339.175 349.961 335.149 349.724C326.834 349.23 319.677 355.584 319.181 363.885C318.94 367.904 320.284 371.777 322.959 374.789C325.636 377.8 329.325 379.59 333.35 379.827ZM334.252 380.684C333.939 380.684 333.619 380.675 333.302 380.654C329.056 380.404 325.162 378.517 322.339 375.339C319.516 372.162 318.1 368.077 318.354 363.836C318.877 355.079 326.434 348.38 335.198 348.897C339.443 349.147 343.335 351.035 346.159 354.212C348.984 357.389 350.4 361.475 350.146 365.716C349.642 374.153 342.607 380.684 334.252 380.684ZM329.742 395.283L335.096 395.6L336.832 389.601C336.876 389.442 337.014 389.325 337.179 389.306C338.565 389.141 339.928 388.864 341.225 388.483C341.384 388.438 341.558 388.49 341.664 388.618L345.615 393.44L350.41 391.041L348.912 384.98C348.87 384.818 348.933 384.649 349.067 384.55C350.165 383.728 351.202 382.807 352.15 381.814C352.264 381.694 352.44 381.653 352.594 381.713L358.444 383.916L361.394 379.445L357.071 374.954C356.954 374.834 356.922 374.655 356.988 374.503C357.523 373.258 357.959 371.942 358.285 370.589C358.326 370.425 358.457 370.303 358.62 370.277L364.789 369.265L365.108 363.919L359.104 362.187C358.944 362.142 358.827 362.005 358.808 361.837C358.645 360.456 358.368 359.096 357.987 357.797C357.94 357.637 357.993 357.466 358.12 357.359L362.95 353.409L360.552 348.621L354.482 350.121C354.321 350.161 354.152 350.1 354.053 349.967C353.229 348.871 352.307 347.835 351.314 346.887C351.193 346.773 351.153 346.598 351.213 346.442L353.422 340.601L348.948 337.653L344.447 341.975C344.326 342.09 344.15 342.122 343.998 342.058C342.751 341.526 341.433 341.09 340.078 340.764C339.915 340.725 339.795 340.593 339.765 340.428L338.758 334.269L333.403 333.953L331.668 339.95C331.621 340.11 331.484 340.227 331.319 340.245C329.935 340.409 328.574 340.687 327.274 341.069C327.116 341.116 326.942 341.063 326.836 340.933L322.883 336.111L318.089 338.51L319.588 344.571C319.628 344.733 319.567 344.902 319.433 345.002C318.333 345.825 317.296 346.746 316.348 347.737C316.233 347.858 316.06 347.899 315.903 347.839L310.056 345.635L307.106 350.106L311.429 354.598C311.546 354.718 311.577 354.896 311.512 355.049C310.976 356.291 310.54 357.609 310.215 358.965C310.174 359.127 310.043 359.249 309.878 359.277L303.711 360.286L303.391 365.633L309.393 367.365C309.554 367.41 309.673 367.549 309.692 367.714C309.855 369.098 310.132 370.457 310.513 371.754C310.559 371.914 310.507 372.087 310.377 372.192L305.55 376.142L307.948 380.931L314.018 379.43C314.178 379.389 314.348 379.451 314.447 379.585C315.268 380.681 316.191 381.716 317.186 382.664C317.306 382.779 317.345 382.953 317.287 383.11L315.078 388.951L319.552 391.899L324.051 387.576C324.172 387.46 324.348 387.428 324.502 387.494C325.746 388.026 327.065 388.462 328.419 388.787C328.582 388.827 328.705 388.96 328.733 389.124L329.742 395.283ZM335.401 396.446C335.393 396.446 335.386 396.446 335.376 396.446L329.361 396.091C329.169 396.08 329.008 395.935 328.978 395.743L327.96 389.528C326.743 389.221 325.558 388.83 324.428 388.362L319.888 392.726C319.749 392.859 319.535 392.88 319.374 392.773L314.344 389.46C314.183 389.355 314.115 389.15 314.185 388.968L316.413 383.072C315.529 382.211 314.701 381.28 313.952 380.301L307.827 381.814C307.639 381.859 307.442 381.771 307.357 381.598L304.659 376.218C304.572 376.043 304.617 375.834 304.767 375.71L309.643 371.724C309.311 370.547 309.061 369.325 308.902 368.085L302.845 366.338C302.657 366.284 302.532 366.109 302.545 365.915L302.903 359.907C302.915 359.713 303.059 359.555 303.25 359.523L309.476 358.502C309.781 357.288 310.172 356.103 310.642 354.977L306.278 350.443C306.143 350.304 306.124 350.089 306.229 349.928L309.546 344.902C309.654 344.741 309.857 344.673 310.039 344.743L315.941 346.968C316.803 346.083 317.736 345.258 318.718 344.506L317.205 338.388C317.158 338.2 317.249 338.004 317.423 337.918L322.811 335.222C322.982 335.136 323.194 335.181 323.317 335.329L327.306 340.198C328.483 339.866 329.706 339.618 330.948 339.458L332.701 333.404C332.754 333.218 332.929 333.096 333.124 333.105L339.139 333.461C339.329 333.474 339.49 333.617 339.522 333.808L340.54 340.024C341.755 340.33 342.94 340.721 344.072 341.189L348.612 336.826C348.751 336.692 348.965 336.672 349.126 336.779L354.156 340.091C354.317 340.197 354.383 340.401 354.315 340.584L352.084 346.48C352.969 347.341 353.797 348.271 354.548 349.251L360.673 347.737C360.863 347.69 361.058 347.781 361.142 347.954L363.839 353.334C363.925 353.507 363.883 353.718 363.733 353.842L358.857 357.829C359.189 359.004 359.437 360.226 359.595 361.467L365.654 363.214C365.841 363.268 365.966 363.443 365.955 363.636L365.595 369.645C365.585 369.839 365.441 369.997 365.25 370.028L359.024 371.049C358.717 372.264 358.328 373.446 357.858 374.576L362.222 379.109C362.357 379.248 362.376 379.462 362.27 379.624L358.954 384.649C358.846 384.811 358.641 384.879 358.461 384.809L352.559 382.583C351.695 383.469 350.762 384.296 349.78 385.046L351.295 391.163C351.342 391.352 351.251 391.547 351.077 391.633L345.689 394.33C345.517 394.416 345.306 394.371 345.183 394.222L341.194 389.355C340.017 389.686 338.794 389.934 337.551 390.096L335.799 396.147C335.748 396.326 335.585 396.446 335.401 396.446Z" fill="#F4F4F4"/>
<path d="M392.667 377.594C392.665 377.594 392.665 377.594 392.665 377.594C392.435 377.592 392.252 377.406 392.252 377.176L392.302 361.997C392.302 361.768 392.487 361.584 392.715 361.584C392.715 361.584 392.715 361.584 392.718 361.584C392.946 361.584 393.131 361.77 393.129 361.999L393.081 377.18C393.078 377.408 392.893 377.594 392.667 377.594Z" fill="#1D1B1B"/>
<path d="M393.652 330.681C393.423 330.681 393.237 330.495 393.237 330.265V322.433C393.237 322.296 393.307 322.166 393.423 322.089L398.037 319.021C398.227 318.893 398.484 318.946 398.611 319.136C398.739 319.327 398.686 319.585 398.496 319.711L394.065 322.657V330.265C394.065 330.495 393.882 330.681 393.652 330.681Z" fill="#1D1B1B"/>
<path d="M370.746 324.335C370.628 324.335 370.512 324.286 370.431 324.188C370.282 324.013 370.304 323.752 370.479 323.604C370.527 323.562 375.522 319.229 377.197 308.611C377.235 308.383 377.447 308.229 377.673 308.265C377.898 308.3 378.052 308.513 378.017 308.738C376.286 319.691 371.228 324.059 371.014 324.239C370.937 324.303 370.841 324.335 370.746 324.335Z" fill="#1D1B1B"/>
<path d="M364.389 290.562C364.349 290.562 364.308 290.555 364.266 290.542C364.046 290.472 363.927 290.241 363.995 290.023L367.828 277.915C367.898 277.695 368.131 277.573 368.348 277.644C368.568 277.712 368.69 277.947 368.619 278.164L364.784 290.273C364.729 290.448 364.566 290.562 364.389 290.562Z" fill="#F4F4F4"/>
<path d="M382.177 239.24L383.057 239.59C383.057 239.59 380.528 245.376 380.122 247.137C379.715 248.899 385.074 250.572 385.074 250.572L385.946 249.974L386.601 250.164C386.804 250.22 387.021 250.186 387.195 250.064C387.366 249.942 387.477 249.75 387.488 249.54C387.601 247.923 387.967 244.385 389.098 241.84C389.098 241.84 386.657 238.646 382.177 239.24Z" fill="#1D1B1B"/>
<path d="M380.199 243.319C380.199 243.319 380.797 239.904 379.185 239.957C377.574 240.014 377.009 243.791 380.199 243.319Z" fill="#1D1B1B"/>
<path d="M119.078 290.693C118.854 291.292 118.537 291.849 118.096 292.34C116.97 293.594 115.267 294.129 113.65 294.614C112.316 295.013 110.96 295.415 109.567 295.427C106.811 295.449 104.238 293.945 101.484 293.812C99.6196 293.723 97.7915 294.265 95.9511 294.579C92.4784 295.169 89.6973 293.766 87.1159 291.494C82.5422 287.465 82.7838 276.143 87.2123 268.967C91.8909 261.387 99.1742 261.788 100.183 255.283C100.764 251.542 98.2995 249.983 99.5444 245.998C100.196 243.911 102.078 242.115 105.842 238.526C111.003 233.606 113.163 232.858 113.911 232.625C115.181 232.227 117.751 231.463 120.476 232.582C121.295 232.917 123.308 233.742 124.039 235.752C124.806 237.861 123.685 239.961 123.076 241.104C121.712 243.659 119.975 244.349 118.998 245.548C114.617 250.925 122.873 258.535 120.91 270.682C120.489 273.288 119.445 275.653 118.769 278.181C117.889 281.468 119.256 282.317 119.476 285.271C119.611 287.077 119.695 289.046 119.078 290.693Z" fill="#F4F4F4"/>
<path d="M143.681 406.917L141.634 411.388C141.727 411.768 141.934 412.142 142.344 412.61C144.518 415.09 150.406 413.112 151.811 412.64C156.985 410.903 157.64 408.76 162.296 407.117C165.494 405.989 168.371 405.876 170.232 405.942C170.013 405.487 169.628 404.772 168.921 404.135C167.916 403.231 166.213 402.325 163.418 402.317C157.829 402.3 143.681 406.917 143.681 406.917Z" fill="#1D1B1B"/>
<path d="M142.074 411.42C142.17 411.704 142.353 411.994 142.655 412.338C143.399 413.186 145.561 414.302 151.678 412.249C154.31 411.366 155.766 410.362 157.173 409.392C158.498 408.478 159.867 407.534 162.157 406.726C164.44 405.921 166.874 405.513 169.402 405.513C169.444 405.513 169.486 405.513 169.528 405.513C169.317 405.171 169.032 404.793 168.643 404.444C167.405 403.329 165.598 402.737 163.416 402.731C163.407 402.731 163.398 402.731 163.389 402.731C158.242 402.731 145.607 406.733 143.982 407.254L142.074 411.42ZM145.873 414.242C143.798 414.242 142.658 413.597 142.032 412.883C141.591 412.381 141.344 411.95 141.231 411.486C141.208 411.396 141.217 411.3 141.257 411.215L143.304 406.745C143.352 406.639 143.442 406.559 143.552 406.523C144.131 406.335 157.779 401.902 163.39 401.902C163.399 401.902 163.409 401.902 163.419 401.902C166.436 401.911 168.227 402.953 169.198 403.827C169.95 404.504 170.361 405.256 170.605 405.763C170.668 405.893 170.658 406.047 170.578 406.169C170.499 406.292 170.369 406.373 170.217 406.357C167.492 406.262 164.871 406.647 162.433 407.508C160.247 408.279 158.982 409.151 157.644 410.074C156.189 411.076 154.685 412.114 151.943 413.033C149.334 413.909 147.363 414.242 145.873 414.242Z" fill="#F4F4F4"/>
<path d="M161.373 427.78C161.373 427.78 170.87 431.431 170.861 425.206C170.86 425.003 163.057 399.822 163.057 399.822L151.878 405.868L161.373 427.78Z" fill="#1D1B1B"/>
<path d="M161.683 427.451C162.596 427.774 167.154 429.273 169.313 427.786C170.068 427.267 170.439 426.438 170.447 425.252C170.199 424.308 165.45 408.944 162.811 400.426L152.41 406.051L161.683 427.451ZM166.674 429.258C164.104 429.258 161.388 428.229 161.225 428.167C161.122 428.126 161.038 428.047 160.994 427.944L151.498 406.032C151.413 405.835 151.492 405.606 151.681 405.504L162.861 399.458C162.97 399.398 163.099 399.392 163.214 399.439C163.329 399.486 163.417 399.58 163.453 399.699C171.275 424.941 171.275 425.126 171.275 425.206C171.277 426.688 170.775 427.786 169.782 428.47C168.934 429.053 167.818 429.258 166.674 429.258Z" fill="#F4F4F4"/>
<path d="M160.203 434.294H183.732C184.367 434.294 184.858 433.736 184.775 433.108L184.6 431.769C184.157 430.583 183.297 429.598 182.18 428.998L169.418 422.149C169.418 422.149 165.3 423.023 165.657 427.338C165.657 427.338 162.885 424.678 160.329 426.541C160.329 426.541 159.333 429.859 159.415 433.527C159.425 433.954 159.776 434.294 160.203 434.294Z" fill="#1D1B1B"/>
<path d="M160.688 426.797C160.508 427.451 159.759 430.373 159.829 433.518C159.834 433.717 160.001 433.881 160.203 433.881H183.733C183.919 433.881 184.089 433.804 184.212 433.663C184.335 433.524 184.389 433.345 184.365 433.163L184.196 431.871C183.784 430.798 183 429.908 181.984 429.363L169.364 422.591C168.674 422.783 165.781 423.802 166.07 427.305C166.084 427.476 165.991 427.637 165.835 427.713C165.68 427.788 165.495 427.758 165.37 427.637C165.269 427.541 162.896 425.321 160.688 426.797ZM183.733 434.708H160.203C159.555 434.708 159.015 434.183 159.001 433.537C158.918 429.844 159.891 426.56 159.933 426.423C159.959 426.336 160.012 426.259 160.085 426.207C161.919 424.868 163.972 425.605 165.23 426.466C165.452 422.616 169.291 421.755 169.332 421.745C169.428 421.725 169.528 421.74 169.614 421.785L182.376 428.634C183.583 429.28 184.511 430.343 184.989 431.625C184.999 431.655 185.007 431.685 185.011 431.715L185.186 433.055C185.241 433.471 185.113 433.894 184.835 434.21C184.557 434.528 184.155 434.708 183.733 434.708Z" fill="#F4F4F4"/>
<path d="M177.153 429.884C177.132 429.884 177.11 429.882 177.088 429.878C170.887 428.904 167.212 425.652 167.058 425.515C166.888 425.362 166.874 425.099 167.027 424.93C167.18 424.759 167.442 424.746 167.612 424.898C167.648 424.93 171.27 428.124 177.217 429.058C177.443 429.094 177.597 429.307 177.562 429.532C177.53 429.737 177.353 429.884 177.153 429.884Z" fill="#F4F4F4"/>
<path d="M183.914 433.186H160.245C160.017 433.186 159.831 433.001 159.831 432.772C159.831 432.543 160.017 432.356 160.245 432.356H183.914C184.143 432.356 184.329 432.543 184.329 432.772C184.329 433.001 184.143 433.186 183.914 433.186Z" fill="#F4F4F4"/>
<path d="M111.187 413.558C109.108 413.097 105.121 412.216 104.24 409.491C103.572 407.429 105.001 405.282 105.327 404.793C109.347 398.755 122.664 397.048 130.203 402.96C134.18 406.079 136.874 411.573 135.467 413.327C134.612 414.393 132.808 413.372 128.4 412.985C120.171 412.263 118.067 415.081 111.187 413.558Z" fill="#1D1B1B"/>
<path d="M111.276 413.154C114.833 413.942 117.057 413.547 119.632 413.09C121.915 412.684 124.503 412.227 128.436 412.573C130.061 412.716 131.321 412.94 132.334 413.12C134.056 413.429 134.769 413.534 135.144 413.068C135.39 412.761 135.48 412.252 135.404 411.596C135.153 409.417 133.043 405.713 129.947 403.286C126.176 400.331 120.602 399.099 115.038 399.99C110.757 400.678 107.343 402.513 105.672 405.023C104.596 406.638 104.237 408.138 104.634 409.364C105.443 411.861 109.237 412.703 111.275 413.154L111.187 413.558L111.276 413.154ZM115.132 414.429C113.942 414.429 112.631 414.303 111.097 413.962L111.187 413.558L111.096 413.962C108.896 413.476 104.8 412.568 103.846 409.62C103.368 408.144 103.761 406.395 104.982 404.564C106.781 401.863 110.398 399.896 114.907 399.173C120.696 398.242 126.509 399.537 130.459 402.634C133.433 404.967 135.913 408.779 136.228 411.5C136.331 412.395 136.184 413.096 135.79 413.586C135.093 414.455 134 414.26 132.188 413.936C131.192 413.759 129.952 413.538 128.364 413.398C124.538 413.06 122.009 413.511 119.776 413.906C118.277 414.171 116.827 414.429 115.132 414.429Z" fill="#F4F4F4"/>
<path d="M112.34 402.317C112.009 402.526 116.309 428.735 116.309 428.735L124.897 429.782L124.519 404.532L112.34 402.317Z" fill="#1D1B1B"/>
<path d="M116.667 428.361L124.475 429.313L124.109 404.878L112.755 402.814C112.985 405.442 115.138 419.033 116.667 428.361ZM124.896 430.196C124.88 430.196 124.863 430.196 124.846 430.193L116.258 429.147C116.076 429.125 115.929 428.984 115.9 428.803C115.889 428.737 114.813 422.174 113.791 415.67C111.681 402.244 111.791 402.175 112.118 401.966C112.206 401.91 112.312 401.889 112.414 401.91L124.592 404.124C124.787 404.16 124.929 404.327 124.932 404.527L125.311 429.775C125.312 429.895 125.262 430.01 125.173 430.091C125.097 430.159 124.998 430.196 124.896 430.196Z" fill="#F4F4F4"/>
<path d="M138.813 434.294H115.176C115.176 434.294 114.306 428.43 115.668 425.819L116.404 426.646C116.785 427.073 117.441 427.107 117.867 426.725C118.807 425.881 120.457 424.503 121.882 423.854C124.649 422.593 133.912 428.851 137.459 430.974C138.3 431.478 138.813 432.382 138.813 433.361V434.294Z" fill="#1D1B1B"/>
<path d="M115.54 433.881H138.398V433.362C138.398 432.533 137.957 431.755 137.246 431.33C136.738 431.025 136.112 430.636 135.405 430.196C131.497 427.765 124.222 423.242 122.054 424.233C120.658 424.868 119.005 426.259 118.144 427.034C117.855 427.293 117.481 427.417 117.093 427.402C116.707 427.382 116.352 427.211 116.095 426.921L115.792 426.583C115.009 428.839 115.395 432.698 115.54 433.881ZM138.813 434.708H115.177C114.971 434.708 114.797 434.558 114.767 434.355C114.73 434.11 113.892 428.327 115.3 425.628C115.363 425.507 115.482 425.425 115.617 425.41C115.751 425.391 115.887 425.443 115.977 425.545L116.713 426.37C116.823 426.494 116.974 426.566 117.139 426.575C117.309 426.581 117.466 426.528 117.591 426.417C118.685 425.434 120.289 424.125 121.711 423.479C124.085 422.398 129.993 425.855 135.842 429.491C136.545 429.929 137.167 430.316 137.672 430.619C138.631 431.192 139.227 432.243 139.227 433.362V434.294C139.227 434.524 139.042 434.708 138.813 434.708Z" fill="#F4F4F4"/>
<path d="M137.709 432.865H115.676C115.447 432.865 115.262 432.681 115.262 432.452C115.262 432.222 115.447 432.038 115.676 432.038H137.709C137.938 432.038 138.124 432.222 138.124 432.452C138.124 432.681 137.938 432.865 137.709 432.865Z" fill="#F4F4F4"/>
<path d="M127.79 430.042C127.727 430.042 127.663 430.029 127.603 429.997L120.788 426.558C120.584 426.455 120.502 426.207 120.605 426.002C120.708 425.799 120.958 425.716 121.162 425.818L127.977 429.258C128.181 429.361 128.263 429.61 128.16 429.815C128.087 429.959 127.941 430.042 127.79 430.042Z" fill="#F4F4F4"/>
<path d="M170.232 405.942C165.688 391.53 161.101 377.128 156.471 362.736C150.231 343.34 143.915 323.971 137.523 304.631C127.597 305.795 105.429 298.263 107.744 308.122C108.891 313.01 108.785 314.091 108.662 315.911C107.703 330.124 106.213 340.285 106.261 343.84C106.304 346.991 106.426 356.461 106.214 369.406C106.179 371.521 106.121 373.776 106.024 376.494C105.539 390.173 104.622 393.51 104.549 404.651C104.538 406.217 104.545 407.734 104.565 409.208C109.617 408.219 115.387 407.945 121.507 409.326C126.347 410.419 126.894 411.53 131.251 412.118C132.683 412.312 134.023 412.378 135.295 412.348C131.721 364.737 131.985 353.818 131.985 353.818C133.343 364.393 135.032 375.43 137.121 386.875C138.655 395.281 140.316 403.401 142.068 411.24C147.224 409.717 151.746 407.048 157.903 405.912C161.118 405.32 165.224 405.066 170.232 405.942Z" fill="#F4F4F4"/>
<path d="M131.985 353.436C131.762 353.436 131.577 353.257 131.571 353.031L130.937 329.68C130.933 329.541 131 329.407 131.116 329.328L134.158 327.232C134.346 327.102 134.604 327.151 134.734 327.339C134.864 327.527 134.816 327.785 134.628 327.915L131.771 329.883L132.4 353.009C132.406 353.238 132.225 353.428 131.997 353.436C131.993 353.436 131.989 353.436 131.985 353.436Z" fill="#1D1B1B"/>
<path d="M163.73 262.646L159.759 262.911C159.287 264.628 158.409 267.117 156.707 269.762C155.133 272.208 151.777 277.421 147.71 277.545C143.515 277.671 140.45 268.76 135.114 264.047C128.141 263.442 122.209 263.72 117.715 264.19C111.853 264.803 107.415 265.848 105.6 266.303C101.162 267.414 97.3533 268.758 94.0719 270.074C92.1656 276.094 86.6216 290.769 89.0673 308.212C90.9381 321.554 105.365 329.988 109.263 334.323C110.223 333.246 111.024 331.996 111.692 330.657C110.554 328.612 108.848 325.546 106.764 321.817C102.773 314.683 101.982 313.322 101.645 312.683C99.8755 309.315 99.0859 303.756 102.23 293.978C102.081 295.83 102.043 297.834 102.18 299.966C102.542 305.602 102.86 310.554 106.195 312.852C109.022 314.801 111.083 312.82 123.064 310.791C132.876 309.129 137.006 309.524 139.914 305.9C141.517 303.901 142.009 301.604 142.171 299.964C141.404 296.328 140.651 292.655 139.905 288.963C143.196 290.69 146.914 291.422 150.014 290.907C158.716 289.461 166.587 277.532 163.73 262.646Z" fill="#1D1B1B"/>
<path d="M94.4077 270.387C94.264 270.836 94.102 271.331 93.9258 271.868C91.758 278.484 87.2473 292.248 89.4778 308.156C90.89 318.229 99.6083 325.49 105.377 330.295C106.94 331.596 108.313 332.739 109.25 333.703C109.972 332.835 110.634 331.816 111.223 330.667C110.087 328.624 108.422 325.633 106.402 322.021C104.329 318.314 103.119 316.165 102.388 314.868C101.7 313.646 101.443 313.189 101.278 312.875C98.9894 308.521 99.1769 302.119 101.835 293.853C101.899 293.652 102.103 293.53 102.31 293.573C102.516 293.614 102.66 293.802 102.642 294.013C102.484 295.989 102.467 297.983 102.593 299.94C102.951 305.515 103.261 310.327 106.43 312.512C108.083 313.651 109.412 313.332 113.357 312.386C115.59 311.852 118.649 311.119 122.995 310.382C125.276 309.997 127.239 309.722 128.97 309.481C134.623 308.692 137.46 308.297 139.591 305.641C140.793 304.142 141.52 302.24 141.752 299.987C141.062 296.716 140.346 293.236 139.499 289.046C139.467 288.89 139.528 288.728 139.656 288.632C139.784 288.536 139.956 288.523 140.098 288.597C143.352 290.304 146.942 290.997 149.946 290.499C153.517 289.905 156.912 287.527 159.507 283.799C163.363 278.26 164.771 270.729 163.39 263.085L160.079 263.305C159.394 265.687 158.378 267.933 157.056 269.986C155.417 272.532 152.008 277.83 147.723 277.96C147.689 277.96 147.654 277.961 147.62 277.961C144.98 277.961 142.884 274.888 140.461 271.338C138.867 268.999 137.062 266.354 134.941 264.448C129.202 263.959 123.422 264.012 117.758 264.602C113.642 265.033 109.473 265.76 105.701 266.704C101.963 267.64 98.2671 268.847 94.4077 270.387ZM109.263 334.739C109.146 334.739 109.034 334.688 108.955 334.602C108.066 333.613 106.574 332.37 104.847 330.93C98.98 326.044 90.1138 318.66 88.6571 308.271C86.3998 292.172 90.9511 278.285 93.1383 271.611C93.3383 271 93.5199 270.445 93.6769 269.951C93.7141 269.832 93.8027 269.736 93.9176 269.691C97.8778 268.101 101.667 266.862 105.5 265.901C109.309 264.946 113.518 264.213 117.672 263.779C123.432 263.177 129.312 263.126 135.15 263.634C135.238 263.643 135.322 263.677 135.388 263.737C137.631 265.719 139.499 268.456 141.146 270.87C143.436 274.228 145.418 277.132 147.622 277.132C147.648 277.132 147.673 277.132 147.698 277.13C151.547 277.014 154.797 271.964 156.359 269.539C157.688 267.473 158.697 265.207 159.36 262.801C159.407 262.632 159.556 262.51 159.732 262.498L163.702 262.233C163.91 262.218 164.097 262.363 164.137 262.568C165.67 270.554 164.23 278.465 160.187 284.273C157.464 288.185 153.875 290.685 150.082 291.317C147.141 291.806 143.683 291.221 140.479 289.711C141.259 293.56 141.929 296.81 142.577 299.878C142.585 299.92 142.588 299.963 142.584 300.004C142.342 302.448 141.553 304.52 140.237 306.159C137.9 309.072 134.769 309.508 129.085 310.301C127.359 310.542 125.402 310.814 123.133 311.2C118.815 311.931 115.772 312.661 113.55 313.193C109.566 314.148 107.917 314.542 105.96 313.194C102.459 310.782 102.138 305.783 101.766 299.995C101.71 299.123 101.682 298.243 101.681 297.361C100.025 303.838 100.135 308.917 102.012 312.489C102.171 312.792 102.446 313.281 103.111 314.462C103.842 315.759 105.052 317.908 107.126 321.617C109.21 325.343 110.917 328.409 112.054 330.458C112.12 330.577 112.123 330.722 112.062 330.844C111.338 332.293 110.501 333.559 109.573 334.6C109.494 334.688 109.382 334.737 109.264 334.739C109.264 334.739 109.264 334.739 109.263 334.739Z" fill="#F4F4F4"/>
<path d="M159.143 256.923L161.26 249.881C161.407 249.392 161.884 249.08 162.391 249.137C162.967 249.202 163.383 249.719 163.322 250.295L163.018 253.182L165.826 255.435C166.691 256.126 167.03 257.284 166.677 258.333L165.741 261.108C165.273 262.498 164 263.458 162.534 263.528L161.548 263.575C160.028 263.648 158.631 262.75 158.067 261.34L157.402 259.678C156.986 258.634 157.534 257.457 158.601 257.104L159.143 256.923Z" fill="#1D1B1B"/>
<path d="M162.271 249.544C161.99 249.544 161.739 249.727 161.657 250.001L159.539 257.042C159.5 257.172 159.401 257.275 159.273 257.316L158.731 257.497C158.324 257.632 158.001 257.92 157.82 258.307C157.64 258.694 157.629 259.127 157.787 259.523L158.451 261.185C158.949 262.43 160.186 263.223 161.527 263.161L162.514 263.114C163.819 263.052 164.932 262.212 165.348 260.977L166.284 258.202C166.58 257.32 166.292 256.339 165.567 255.758L162.759 253.506C162.649 253.417 162.591 253.28 162.606 253.139L162.91 250.251C162.947 249.904 162.693 249.588 162.344 249.55C162.32 249.546 162.295 249.544 162.271 249.544ZM161.377 263.994C159.756 263.994 158.287 263.007 157.682 261.494L157.017 259.83C156.773 259.219 156.791 258.555 157.069 257.957C157.347 257.361 157.844 256.918 158.47 256.711L158.807 256.598L160.863 249.763C161.068 249.08 161.729 248.646 162.438 248.725C163.236 248.815 163.818 249.539 163.734 250.338L163.454 253.002L166.085 255.111C167.081 255.908 167.476 257.258 167.069 258.465L166.134 261.24C165.607 262.802 164.202 263.863 162.553 263.941L161.567 263.988C161.503 263.992 161.44 263.994 161.377 263.994Z" fill="#F4F4F4"/>
<path d="M159.143 256.924L161.582 257.234C161.582 257.234 161.943 259.218 160.406 259.18L159.143 256.924Z" fill="#1D1B1B"/>
<path d="M160.448 259.596C160.431 259.596 160.413 259.596 160.395 259.594C160.166 259.588 159.986 259.398 159.991 259.171C159.997 258.941 160.177 258.767 160.416 258.767C160.668 258.776 160.854 258.706 160.976 258.565C161.18 258.329 161.215 257.911 161.203 257.605L159.09 257.336C158.863 257.306 158.702 257.099 158.731 256.872C158.76 256.644 158.97 256.488 159.195 256.513L161.634 256.825C161.813 256.847 161.957 256.983 161.989 257.161C162.012 257.287 162.196 258.413 161.607 259.103C161.413 259.329 161.056 259.596 160.448 259.596Z" fill="#F4F4F4"/>
<path d="M163.174 257.698C163.151 257.698 163.127 257.696 163.104 257.693C162.878 257.653 162.726 257.439 162.765 257.213L163.36 253.722C163.399 253.496 163.614 253.342 163.839 253.382C164.064 253.421 164.216 253.636 164.178 253.861L163.582 257.352C163.547 257.555 163.372 257.698 163.174 257.698Z" fill="#F4F4F4"/>
<path d="M164.92 258.537C164.895 258.537 164.87 258.535 164.846 258.531C164.62 258.49 164.471 258.274 164.512 258.048L165.013 255.275C165.054 255.05 165.27 254.901 165.495 254.941C165.72 254.982 165.87 255.196 165.829 255.422L165.327 258.197C165.291 258.396 165.116 258.537 164.92 258.537Z" fill="#F4F4F4"/>
<path d="M139.758 286.715C139.569 286.715 139.398 286.583 139.355 286.391L136.574 274.156C136.523 273.933 136.663 273.711 136.886 273.66C137.11 273.609 137.331 273.748 137.382 273.972L140.163 286.207C140.214 286.431 140.074 286.653 139.851 286.704C139.82 286.711 139.789 286.715 139.758 286.715Z" fill="#F4F4F4"/>
<path d="M106.804 336.51C106.641 336.51 106.485 336.414 106.42 336.252C106.334 336.04 106.436 335.799 106.648 335.713C114.885 332.372 113.674 313.867 113.66 313.681C113.644 313.452 113.816 313.254 114.044 313.237C114.283 313.218 114.471 313.393 114.487 313.623C114.543 314.408 115.748 332.915 106.96 336.48C106.909 336.5 106.856 336.51 106.804 336.51Z" fill="#1D1B1B"/>
<path d="M125.001 263.692C122.488 263.282 120.685 261.049 120.818 258.509L121.025 254.565C123.409 254.379 125.395 253.243 125.389 252.491C125.386 252.123 124.51 248.539 123.963 247.058C124.425 246.682 124.987 245.648 123.991 245.014C122.996 244.381 120.76 240.348 120.76 240.348C118.001 237.147 117.203 241.659 115.142 242.035C113.716 242.296 112.941 243.163 113.48 245.024C114.019 246.887 112.994 245.953 111.944 245.422C110.895 244.89 110.181 245.304 110.757 246.996C111.333 248.69 113.432 249.707 113.432 249.707L114.427 251.656L112.33 261.246C111.933 263.059 110.628 264.54 108.877 265.164L105.988 266.193L121.175 274.132L128.51 264.266L125.001 263.692Z" fill="#1D1B1B"/>
<path d="M107.02 266.264L121.053 273.599L127.77 264.564L124.934 264.102C122.207 263.656 120.259 261.242 120.404 258.486L120.61 254.542C120.621 254.335 120.784 254.168 120.992 254.151C123.416 253.963 124.976 252.838 124.974 252.493C124.956 252.143 124.118 248.674 123.574 247.2C123.513 247.035 123.564 246.847 123.701 246.736C123.89 246.582 124.148 246.215 124.129 245.882C124.117 245.679 123.999 245.51 123.768 245.364C122.741 244.709 120.735 241.156 120.418 240.586C119.859 239.945 119.366 239.62 118.954 239.62C118.396 239.62 117.881 240.216 117.337 240.848C116.729 241.551 116.1 242.28 115.216 242.442C114.577 242.559 114.14 242.799 113.918 243.158C113.671 243.559 113.657 244.147 113.878 244.909C114.081 245.614 114.145 246.14 113.79 246.416C113.396 246.725 112.885 246.43 112.294 246.087C112.121 245.99 111.939 245.882 111.756 245.79C111.355 245.587 111.112 245.597 111.047 245.655C110.964 245.726 110.879 246.07 111.148 246.862C111.663 248.373 113.593 249.323 113.612 249.332C113.693 249.372 113.76 249.438 113.801 249.518L114.795 251.468C114.839 251.554 114.851 251.652 114.831 251.744L112.734 261.334C112.304 263.301 110.914 264.878 109.016 265.553L107.02 266.264ZM121.174 274.545C121.109 274.545 121.043 274.53 120.982 274.498L105.796 266.559C105.65 266.483 105.563 266.327 105.574 266.164C105.586 265.998 105.693 265.857 105.849 265.801L108.738 264.773C110.365 264.194 111.556 262.842 111.924 261.157L113.99 251.712L113.123 250.013C112.633 249.751 110.909 248.733 110.364 247.129C110.019 246.116 110.066 245.409 110.503 245.029C110.72 244.839 111.222 244.591 112.131 245.051C112.327 245.151 112.523 245.264 112.708 245.371C112.855 245.456 113.048 245.567 113.199 245.64C113.182 245.531 113.148 245.369 113.082 245.14C112.793 244.143 112.837 243.329 113.213 242.722C113.564 242.156 114.188 241.788 115.067 241.626C115.664 241.517 116.196 240.9 116.71 240.306C117.352 239.562 118.016 238.791 118.953 238.791C118.954 238.791 118.954 238.791 118.954 238.791C119.635 238.791 120.328 239.212 121.073 240.077C121.091 240.098 121.108 240.122 121.121 240.147C121.966 241.669 123.553 244.245 124.213 244.664C124.792 245.033 124.937 245.503 124.956 245.834C124.986 246.341 124.743 246.832 124.442 247.168C124.992 248.774 125.799 252.058 125.802 252.487C125.811 253.542 123.764 254.668 121.419 254.94L121.231 258.529C121.109 260.862 122.758 262.906 125.068 263.284L128.576 263.857C128.719 263.88 128.839 263.976 128.893 264.111C128.948 264.244 128.928 264.397 128.842 264.513L121.507 274.378C121.426 274.487 121.301 274.545 121.174 274.545Z" fill="#F4F4F4"/>
<path d="M120.168 255.083C118.364 255.083 117.246 253.778 116.873 252.977C116.776 252.771 116.866 252.524 117.073 252.427C117.28 252.331 117.527 252.419 117.624 252.626C117.667 252.718 118.642 254.699 120.928 254.16C121.15 254.105 121.374 254.245 121.427 254.468C121.48 254.69 121.342 254.914 121.12 254.966C120.784 255.045 120.466 255.083 120.168 255.083Z" fill="#F4F4F4"/>
<path d="M112.898 187.018C110.59 179.355 114.962 171.277 122.664 168.981C130.366 166.684 138.48 171.036 140.789 178.701C143.097 186.366 138.725 194.441 131.023 196.738C123.321 199.035 115.206 194.683 112.898 187.018Z" fill="#1D1B1B"/>
<path d="M126.837 168.782C125.495 168.782 124.132 168.973 122.782 169.376C119.153 170.459 116.168 172.886 114.378 176.207C112.599 179.511 112.214 183.309 113.295 186.898C115.534 194.333 123.433 198.567 130.905 196.34C134.534 195.257 137.519 192.831 139.309 189.507C141.089 186.205 141.474 182.409 140.392 178.819C138.558 172.727 132.922 168.782 126.837 168.782ZM126.851 197.763C120.409 197.763 114.444 193.586 112.502 187.138C111.356 183.333 111.764 179.313 113.649 175.815C115.544 172.297 118.704 169.729 122.546 168.583C130.454 166.224 138.816 170.708 141.186 178.579C142.331 182.381 141.924 186.403 140.039 189.902C138.143 193.419 134.984 195.988 131.142 197.134C129.714 197.559 128.271 197.763 126.851 197.763Z" fill="#F4F4F4"/>
<path d="M122.454 188.533L121.547 177.481C121.5 176.917 122.062 176.501 122.589 176.708L134.093 181.251C134.678 181.481 134.747 182.28 134.211 182.61L123.615 189.118C123.129 189.416 122.501 189.099 122.454 188.533Z" fill="#E49273"/>
<path d="M162.039 127.138C159.705 119.389 164.126 111.224 171.913 108.9C179.7 106.578 187.905 110.977 190.239 118.726C192.573 126.478 188.152 134.642 180.365 136.965C172.578 139.289 164.373 134.89 162.039 127.138Z" fill="#1D1B1B"/>
<path d="M162.436 127.021C164.7 134.538 172.69 138.823 180.247 136.568C183.918 135.474 186.937 133.019 188.747 129.658C190.547 126.319 190.936 122.479 189.843 118.846C187.578 111.328 179.588 107.044 172.032 109.297C168.361 110.393 165.342 112.848 163.531 116.207C161.731 119.548 161.342 123.388 162.436 127.021ZM176.147 137.998C169.635 137.998 163.606 133.779 161.642 127.259C160.485 123.414 160.897 119.351 162.802 115.815C164.718 112.259 167.911 109.662 171.795 108.504C179.787 106.119 188.24 110.653 190.636 118.608C191.794 122.453 191.382 126.516 189.477 130.052C187.561 133.608 184.367 136.205 180.484 137.363C179.041 137.794 177.582 137.998 176.147 137.998Z" fill="#F4F4F4"/>
<path d="M172.931 132.531H170.589L173.559 113.557H175.901L172.931 132.531Z" fill="#E49273"/>
<path d="M168.693 121.396L169.012 119.17H184.178L183.86 121.396H168.693Z" fill="#E49273"/>
<path d="M167.97 126.459L168.288 124.232H183.454L183.136 126.459H167.97Z" fill="#E49273"/>
<path d="M178.536 132.531H176.193L179.163 113.557H181.506L178.536 132.531Z" fill="#E49273"/>
<path d="M118.552 141.84C118.552 131.522 126.917 123.156 137.237 123.156C147.557 123.156 155.923 131.522 155.923 141.84C155.923 152.161 147.557 160.527 137.237 160.527C126.917 160.527 118.552 152.161 118.552 141.84Z" fill="#1D1B1B"/>
<path d="M137.237 123.572C127.162 123.572 118.966 131.768 118.966 141.842C118.966 151.916 127.162 160.115 137.237 160.115C147.311 160.115 155.508 151.916 155.508 141.842C155.508 131.768 147.311 123.572 137.237 123.572ZM137.237 160.943C126.705 160.943 118.137 152.375 118.137 141.842C118.137 131.312 126.705 122.743 137.237 122.743C147.768 122.743 156.337 131.312 156.337 141.842C156.337 152.375 147.768 160.943 137.237 160.943Z" fill="#F4F4F4"/>
<path d="M173.687 229.273L161.729 231.969C160.256 232.3 159.11 233.46 158.796 234.938L157.203 242.446L151.733 236.272C150.798 235.218 149.364 234.755 147.988 235.065L136.991 237.543C134.907 238.011 132.838 236.705 132.368 234.62L127.108 211.276C126.639 209.193 127.947 207.123 130.031 206.655L166.727 198.385C168.811 197.917 170.88 199.225 171.35 201.308L176.61 224.652C177.079 226.735 175.771 228.805 173.687 229.273Z" fill="#1D1B1B"/>
<path d="M148.838 234.555C150.048 234.555 151.221 235.069 152.043 235.997L156.968 241.555L158.391 234.851C158.737 233.221 160.012 231.931 161.638 231.564L173.596 228.87C175.453 228.451 176.624 226.599 176.205 224.742L170.945 201.398C170.527 199.54 168.676 198.371 166.818 198.788L130.122 207.057C128.264 207.476 127.094 209.328 127.512 211.185L132.772 234.529C132.975 235.428 133.516 236.195 134.296 236.687C135.075 237.182 136 237.342 136.9 237.139L147.897 234.661C148.21 234.589 148.525 234.555 148.838 234.555ZM157.202 242.859C157.085 242.859 156.972 242.81 156.892 242.72L151.423 236.546C150.588 235.604 149.308 235.193 148.079 235.469L137.082 237.947C134.779 238.468 132.483 237.014 131.964 234.711L126.704 211.367C126.185 209.064 127.637 206.769 129.939 206.248L166.636 197.98C168.938 197.463 171.235 198.912 171.754 201.215L177.014 224.559C177.533 226.862 176.081 229.158 173.778 229.679L161.82 232.373C160.509 232.668 159.481 233.708 159.202 235.024L157.608 242.532C157.575 242.685 157.459 242.807 157.308 242.846C157.273 242.856 157.237 242.859 157.202 242.859Z" fill="#F4F4F4"/>
<path d="M138.047 215.034C137.858 215.034 137.687 214.904 137.643 214.713C137.592 214.489 137.732 214.267 137.955 214.216L164.336 208.2C164.559 208.148 164.781 208.289 164.832 208.511C164.883 208.734 164.743 208.956 164.52 209.007L138.139 215.025C138.108 215.03 138.077 215.034 138.047 215.034Z" fill="#F4F4F4"/>
<path d="M138.818 221.36C138.629 221.36 138.459 221.229 138.415 221.037C138.364 220.813 138.504 220.591 138.727 220.541L158.278 216.083C158.501 216.031 158.723 216.172 158.774 216.393C158.825 216.617 158.685 216.839 158.462 216.89L138.911 221.349C138.88 221.357 138.849 221.36 138.818 221.36Z" fill="#F4F4F4"/>
<path d="M140.979 227.53C140.79 227.53 140.619 227.401 140.575 227.209C140.524 226.985 140.664 226.763 140.887 226.712L167.267 220.695C167.49 220.644 167.712 220.783 167.763 221.007C167.814 221.23 167.675 221.452 167.452 221.503L141.071 227.519C141.04 227.527 141.009 227.53 140.979 227.53Z" fill="#F4F4F4"/>
<path d="M425.016 207.863C426.087 207.863 426.953 208.732 426.953 209.801V223.14C426.953 224.211 426.087 225.08 425.016 225.08H388.243C387.175 225.08 386.306 224.211 386.306 223.14V209.801C386.306 208.732 387.175 207.863 388.243 207.863H425.016Z" fill="#1D1B1B"/>
<path d="M425.013 225.495H388.243C386.944 225.495 385.89 224.441 385.89 223.142V209.804C385.89 208.505 386.944 207.45 388.243 207.45H395.498C395.725 207.45 395.909 207.635 395.909 207.864C395.909 208.094 395.725 208.278 395.498 208.278H388.243C387.4 208.278 386.72 208.964 386.72 209.804V223.142C386.72 223.984 387.4 224.665 388.243 224.665H425.013C425.853 224.665 426.536 223.984 426.536 223.142V209.804C426.536 208.964 425.853 208.278 425.013 208.278H400.384C400.155 208.278 399.97 208.094 399.97 207.864C399.97 207.635 400.155 207.45 400.384 207.45H425.013C426.312 207.45 427.367 208.505 427.367 209.804V223.142C427.367 224.441 426.312 225.495 425.013 225.495Z" fill="#F4F4F4"/>
<path d="M421.588 214.628H392.364C392.133 214.628 391.948 214.441 391.948 214.212C391.948 213.983 392.133 213.799 392.364 213.799H421.588C421.817 213.799 422.001 213.983 422.001 214.212C422.001 214.441 421.817 214.628 421.588 214.628Z" fill="#F4F4F4"/>
<path d="M421.587 218.531H415.476C415.248 218.531 415.061 218.347 415.061 218.118C415.061 217.889 415.248 217.702 415.476 217.702H421.587C421.816 217.702 422.001 217.889 422.001 218.118C422.001 218.347 421.816 218.531 421.587 218.531Z" fill="#F4F4F4"/>
<path d="M411.571 218.531H392.363C392.133 218.531 391.95 218.347 391.95 218.119C391.95 217.888 392.133 217.704 392.363 217.704H411.571C411.799 217.704 411.986 217.888 411.986 218.119C411.986 218.347 411.799 218.531 411.571 218.531Z" fill="#F4F4F4"/>
<path d="M137.788 150.249C142.376 150.249 146.096 146.529 146.096 141.941C146.096 137.352 142.376 133.633 137.788 133.633C133.199 133.633 129.479 137.352 129.479 141.941C129.479 146.529 133.199 150.249 137.788 150.249Z" stroke="#E49273" stroke-width="0.9375" stroke-linecap="round" stroke-linejoin="round"/>
<path d="M137.788 136.957V141.942L141.111 140.28" stroke="#E49273" stroke-width="0.9375" stroke-linecap="round" stroke-linejoin="round"/>
</svg>
