<svg width="512" height="512" viewBox="0 0 512 512" fill="none" xmlns="http://www.w3.org/2000/svg">
<path d="M396.743 187.787H308.088C305.007 187.787 302.488 185.269 302.488 182.188C302.488 179.109 305.007 176.588 308.088 176.588H396.743C399.821 176.588 402.342 179.109 402.342 182.188C402.342 185.269 399.821 187.787 396.743 187.787Z" fill="#1D1B1B"/>
<path d="M308.083 177.057C305.253 177.057 302.953 179.359 302.953 182.19C302.953 185.021 305.253 187.323 308.083 187.323H396.738C399.569 187.323 401.871 185.021 401.871 182.19C401.871 179.359 399.569 177.057 396.738 177.057H308.083ZM396.738 188.256H308.083C304.738 188.256 302.018 185.536 302.018 182.19C302.018 178.847 304.738 176.124 308.083 176.124H396.738C400.084 176.124 402.804 178.847 402.804 182.19C402.804 185.536 400.084 188.256 396.738 188.256Z" fill="#F4F4F4"/>
<path d="M389.276 206.451H295.955C292.876 206.451 290.356 203.932 290.356 200.853C290.356 197.774 292.876 195.254 295.955 195.254H389.276C392.355 195.254 394.877 197.774 394.877 200.853C394.877 203.932 392.355 206.451 389.276 206.451Z" fill="#1D1B1B"/>
<path d="M295.952 195.722C293.121 195.722 290.821 198.025 290.821 200.855C290.821 203.686 293.121 205.986 295.952 205.986H389.273C392.104 205.986 394.406 203.686 394.406 200.855C394.406 198.025 392.104 195.722 389.273 195.722H295.952ZM389.273 206.922H295.952C292.608 206.922 289.886 204.2 289.886 200.855C289.886 197.511 292.608 194.789 295.952 194.789H389.273C392.62 194.789 395.339 197.511 395.339 200.855C395.339 204.2 392.62 206.922 389.273 206.922Z" fill="#F4F4F4"/>
<path d="M119.894 408.175H280.739C287.669 408.175 292.582 402.573 291.707 395.664L252.101 82.7834C251.226 75.8756 244.899 70.274 237.967 70.274L85.1955 68.4889C67.6593 68.4889 65.2803 75.8756 66.1546 82.7834L105.76 395.664C106.634 402.573 112.962 408.175 119.894 408.175Z" fill="#F4F4F4"/>
<path d="M129.571 408.175H290.415C297.345 408.175 302.256 402.556 301.382 395.624L261.777 81.7501C260.902 74.82 254.575 69.1996 247.643 69.1996H86.7989C79.8677 69.1996 74.9577 74.82 75.8323 81.7501L115.437 395.624C116.312 402.556 122.64 408.175 129.571 408.175Z" fill="#1D1B1B"/>
<path d="M86.7996 69.6658C83.6017 69.6658 80.7502 70.905 78.7697 73.1511C76.7665 75.422 75.8877 78.4564 76.2963 81.6927L115.901 395.566C116.746 402.262 122.878 407.708 129.572 407.708H290.417C293.615 407.708 296.467 406.473 298.447 404.226C300.45 401.954 301.329 398.919 300.92 395.684L261.316 81.8089C260.471 75.115 254.338 69.6658 247.644 69.6658H86.7996ZM290.417 408.642H129.572C122.425 408.642 115.877 402.829 114.975 395.684L75.3702 81.8089C74.9276 78.3043 75.8866 75.0098 78.0699 72.5314C80.2296 70.0835 83.3301 68.7336 86.7996 68.7336H247.644C254.791 68.7336 261.339 74.5479 262.241 81.6927L301.847 395.566C302.289 399.073 301.329 402.367 299.147 404.844C296.987 407.293 293.886 408.642 290.417 408.642Z" fill="#F4F4F4"/>
<path d="M145.877 408.642H129.572C122.425 408.642 115.877 402.829 114.975 395.684L108.915 347.655C108.883 347.397 109.064 347.166 109.319 347.132C109.577 347.098 109.809 347.282 109.841 347.537L115.901 395.566C116.746 402.262 122.879 407.708 129.572 407.708H145.877C146.135 407.708 146.344 407.919 146.344 408.176C146.344 408.433 146.135 408.642 145.877 408.642Z" fill="#F4F4F4"/>
<path d="M89.4292 93.9291C88.7953 93.9291 88.2329 94.1699 87.8447 94.6096C87.4511 95.0571 87.2791 95.6565 87.3603 96.3003L125.177 396C125.35 397.372 126.606 398.487 127.977 398.487H289.688C290.319 398.487 290.884 398.247 291.272 397.807C291.664 397.36 291.837 396.759 291.756 396.116L253.939 96.4181C253.766 95.044 252.51 93.9291 251.14 93.9291H89.4292ZM289.688 399.421H127.977C126.152 399.421 124.481 397.94 124.251 396.116L86.4346 96.4181C86.3191 95.5047 86.5717 94.6436 87.1449 93.9945C87.7126 93.3481 88.5236 92.9948 89.4292 92.9948H251.14C252.965 92.9948 254.635 94.4787 254.866 96.3003L292.682 395.998C292.682 395.998 292.682 395.998 292.682 396C292.798 396.913 292.546 397.773 291.973 398.424C291.403 399.067 290.591 399.421 289.688 399.421Z" fill="#F4F4F4"/>
<path d="M169.236 85.1621C171.833 85.1621 173.672 83.0573 173.344 80.4623C173.016 77.8646 170.646 75.7597 168.05 75.7597C165.453 75.7597 163.614 77.8646 163.941 80.4623C164.269 83.0573 166.639 85.1621 169.236 85.1621Z" fill="#F4F4F4"/>
<path d="M278.026 296.95C277.996 296.95 277.967 296.95 277.935 296.95C268.605 296.923 259.003 291.304 249.397 280.252C242.665 272.504 238.378 264.841 238.201 264.519C236.772 261.948 237.697 258.706 240.269 257.279C242.838 255.85 246.079 256.776 247.508 259.347C251.683 266.835 265.29 286.265 277.967 286.303C277.986 286.303 278.005 286.303 278.024 286.303C282.045 286.303 285.154 285.061 287.527 282.509C293.205 276.399 293.62 264.19 293.302 260C293.078 257.068 295.274 254.512 298.206 254.289C301.133 254.065 303.694 256.259 303.918 259.193C303.981 259.996 305.306 279.021 295.325 289.759C290.891 294.531 285.069 296.95 278.026 296.95Z" fill="#F4F4F4"/>
<path d="M315.411 258.59H283.88C280.939 258.59 278.554 256.206 278.554 253.266C278.554 250.326 280.939 247.942 283.88 247.942H315.411C318.351 247.942 320.735 250.326 320.735 253.266C320.735 256.206 318.351 258.59 315.411 258.59Z" fill="#F4F4F4"/>
<path d="M274.589 185.34H272.076V153.857H274.589C282.122 153.857 288.23 159.964 288.23 167.497V171.697C288.23 179.232 282.122 185.34 274.589 185.34Z" fill="#1D1B1B"/>
<path d="M272.542 184.873H274.588C281.854 184.873 287.763 178.962 287.763 171.699V167.497C287.763 160.234 281.854 154.323 274.588 154.323H272.542V184.873ZM274.588 185.806H272.077C271.818 185.806 271.609 185.597 271.609 185.341V153.858C271.609 153.599 271.818 153.39 272.077 153.39H274.588C282.369 153.39 288.698 159.719 288.698 167.497V171.699C288.698 179.477 282.369 185.806 274.588 185.806Z" fill="#F4F4F4"/>
<path d="M127.415 185.34H129.927V153.857H127.415C119.881 153.857 113.773 159.964 113.773 167.497V171.697C113.773 179.232 119.881 185.34 127.415 185.34Z" fill="#1D1B1B"/>
<path d="M127.416 154.323C120.152 154.323 114.242 160.234 114.242 167.497V171.699C114.242 178.962 120.152 184.873 127.416 184.873H129.462V154.323H127.416ZM129.928 185.806H127.416C119.638 185.806 113.309 179.477 113.309 171.699V167.497C113.309 159.719 119.638 153.39 127.416 153.39H129.928C130.186 153.39 130.395 153.599 130.395 153.858V185.341C130.395 185.597 130.186 185.806 129.928 185.806Z" fill="#F4F4F4"/>
<path d="M124.84 168.299C124.84 134.47 158.939 99.4755 201.002 99.4755C243.066 99.4755 277.164 134.47 277.164 168.299C277.164 202.128 243.066 221.982 201.002 221.982C158.939 221.982 124.84 202.128 124.84 168.299Z" fill="#1D1B1B"/>
<path d="M201.003 99.9428C157.679 99.9428 125.307 136.031 125.307 168.298C125.307 184.263 132.949 197.797 147.407 207.439C161.019 216.517 180.053 221.515 201.003 221.515C221.953 221.515 240.989 216.517 254.599 207.439C269.059 197.797 276.699 184.263 276.699 168.298C276.699 136.031 244.327 99.9428 201.003 99.9428ZM201.003 222.449C179.87 222.449 160.652 217.394 146.889 208.214C132.16 198.39 124.374 184.588 124.374 168.298C124.374 151.588 132.558 134.297 146.828 120.862C161.795 106.77 181.035 99.0087 201.003 99.0087C220.971 99.0087 240.211 106.77 255.179 120.862C269.449 134.297 277.633 151.588 277.633 168.298C277.633 184.588 269.848 198.39 255.117 208.214C241.354 217.394 222.137 222.449 201.003 222.449Z" fill="#F4F4F4"/>
<path d="M220.079 232.146H181.925C165.202 232.146 151.646 245.702 151.646 262.426C151.646 273.474 152.723 284.496 154.863 295.336L160.349 323.118C164.183 342.535 181.211 356.529 201.002 356.529C220.794 356.529 237.823 342.535 241.656 323.118L247.142 295.336C249.282 284.496 250.361 273.474 250.361 262.426C250.361 245.702 236.803 232.146 220.079 232.146Z" fill="#1D1B1B"/>
<path d="M181.925 232.613C165.486 232.613 152.112 245.988 152.112 262.427C152.112 273.42 153.191 284.462 155.321 295.246L160.807 323.028C164.586 342.171 181.491 356.065 201.002 356.065C220.513 356.065 237.418 342.171 241.199 323.028L246.685 295.246C248.814 284.46 249.893 273.418 249.893 262.427C249.893 245.988 236.518 232.613 220.079 232.613H181.925ZM201.002 356.996C181.046 356.996 163.757 342.787 159.891 323.209L154.405 295.427C152.265 284.584 151.179 273.481 151.179 262.427C151.179 245.473 164.971 231.681 181.925 231.681H220.079C237.034 231.681 250.826 245.473 250.826 262.427C250.826 273.479 249.741 284.582 247.6 295.427L242.114 323.209C238.248 342.787 220.958 356.996 201.002 356.996Z" fill="#F4F4F4"/>
<path d="M221.772 232.612H180.234C179.976 232.612 179.768 232.404 179.768 232.147C179.768 231.889 179.976 231.681 180.234 231.681H221.772C222.029 231.681 222.237 231.889 222.237 232.147C222.237 232.404 222.029 232.612 221.772 232.612Z" fill="#F4F4F4"/>
<path d="M252.208 158.147H178.866C171.247 158.147 165.07 164.801 165.07 173.013V182.71C165.07 188.972 168.412 195.61 174.176 196.692C194.501 200.51 236.574 200.51 256.898 196.692C262.661 195.61 266.005 188.972 266.005 182.71V173.013C266.005 164.801 259.829 158.147 252.208 158.147Z" fill="#F4F4F4"/>
<path d="M198.302 177.663C198.302 180.415 196.232 182.644 193.68 182.644C191.127 182.644 189.058 180.415 189.058 177.663C189.058 174.913 191.127 172.683 193.68 172.683C196.232 172.683 198.302 174.913 198.302 177.663Z" fill="#1D1B1B"/>
<path d="M247.478 177.663C247.478 180.415 245.409 182.644 242.857 182.644C240.305 182.644 238.234 180.415 238.234 177.663C238.234 174.913 240.305 172.683 242.857 172.683C245.409 172.683 247.478 174.913 247.478 177.663Z" fill="#1D1B1B"/>
<path d="M226.292 267.97C226.292 281.475 215.345 292.422 201.84 292.422C188.336 292.422 177.389 281.475 177.389 267.97C177.389 254.466 188.336 243.52 201.84 243.52C215.345 243.52 226.292 254.466 226.292 267.97Z" fill="#1D1B1B"/>
<path d="M201.842 243.985C188.617 243.985 177.857 254.744 177.857 267.969C177.857 281.194 188.617 291.955 201.842 291.955C215.067 291.955 225.826 281.194 225.826 267.969C225.826 254.744 215.067 243.985 201.842 243.985ZM201.842 292.887C188.102 292.887 176.924 281.71 176.924 267.969C176.924 254.229 188.102 243.051 201.842 243.051C215.581 243.051 226.759 254.229 226.759 267.969C226.759 281.71 215.581 292.887 201.842 292.887Z" fill="#F4F4F4"/>
<path d="M204.199 282.867H200.315C198.278 282.867 196.627 281.215 196.627 279.179V257.766C196.627 255.728 198.278 254.078 200.315 254.078H204.199C206.235 254.078 207.887 255.728 207.887 257.766V279.179C207.887 281.215 206.235 282.867 204.199 282.867Z" fill="#E49273"/>
<path d="M187.927 270.439V266.504C187.927 264.468 189.578 262.818 191.615 262.818H212.899C214.935 262.818 216.588 264.468 216.588 266.504V270.439C216.588 272.475 214.935 274.127 212.899 274.127H191.615C189.578 274.127 187.927 272.475 187.927 270.439Z" fill="#E49273"/>
<path d="M152.288 321.153C141.857 321.153 127.744 319.667 118.697 312.731C113.483 308.733 110.437 303.456 109.645 297.045C106.085 268.261 140.82 251.787 142.3 251.099C144.967 249.86 148.133 251.019 149.371 253.685C150.608 256.352 149.453 259.513 146.79 260.754C146.498 260.891 117.605 274.662 120.212 295.738C120.648 299.26 122.271 302.054 125.176 304.282C135.122 311.907 156.812 310.837 164.33 309.781C167.241 309.37 169.933 311.399 170.342 314.312C170.751 317.223 168.723 319.916 165.811 320.325C165.277 320.399 159.715 321.153 152.288 321.153Z" fill="#F4F4F4"/>
<path d="M189.05 326.815H178.826C173.239 326.815 168.608 322.623 168.052 317.064L167.696 313.506C167.392 310.469 168.393 307.428 170.442 305.164C172.491 302.901 175.417 301.602 178.47 301.602H194.779C197.719 301.602 200.103 303.986 200.103 306.926C200.103 309.866 197.719 312.25 194.779 312.25H178.47C178.44 312.25 178.39 312.25 178.337 312.309C178.283 312.368 178.288 312.416 178.291 312.446L178.647 316.006C178.656 316.096 178.733 316.166 178.826 316.166H189.05C191.991 316.166 194.374 318.55 194.374 321.492C194.374 324.432 191.991 326.815 189.05 326.815Z" fill="#F4F4F4"/>
<path d="M431.422 316.813C431.346 316.813 431.267 316.795 431.197 316.755C430.97 316.63 430.889 316.348 431.013 316.122L432.76 312.95C432.884 312.725 433.168 312.643 433.392 312.767C433.619 312.891 433.7 313.176 433.576 313.401L431.83 316.571C431.746 316.727 431.586 316.813 431.422 316.813Z" fill="#F4F4F4"/>
<path d="M427.357 324.198C427.279 324.198 427.204 324.179 427.132 324.139C426.907 324.015 426.824 323.732 426.949 323.507L428.693 320.335C428.819 320.11 429.1 320.027 429.328 320.152C429.553 320.276 429.636 320.559 429.513 320.786L427.766 323.956C427.681 324.11 427.523 324.198 427.357 324.198Z" fill="#F4F4F4"/>
<path d="M428.153 317.758C428.078 317.758 428.003 317.741 427.931 317.701L424.759 315.956C424.534 315.832 424.452 315.547 424.575 315.321C424.7 315.096 424.983 315.014 425.211 315.138L428.38 316.883C428.605 317.008 428.688 317.292 428.562 317.518C428.479 317.671 428.319 317.758 428.153 317.758Z" fill="#F4F4F4"/>
<path d="M435.541 321.826C435.465 321.826 435.389 321.807 435.318 321.769L432.146 320.022C431.921 319.898 431.836 319.615 431.961 319.39C432.086 319.162 432.369 319.08 432.597 319.204L435.766 320.952C435.992 321.076 436.074 321.358 435.948 321.584C435.864 321.74 435.704 321.826 435.541 321.826Z" fill="#F4F4F4"/>
<path d="M266.761 64.9856C266.287 64.9856 265.812 65.0862 265.366 65.2875C263.608 66.0759 262.809 68.1809 263.585 69.9757C263.962 70.8535 264.653 71.5216 265.528 71.8627C266.384 72.1954 267.317 72.173 268.158 71.7956C269.914 71.0072 270.714 68.9022 269.939 67.1074C269.562 66.2296 268.871 65.5615 267.996 65.2204C267.595 65.0638 267.178 64.9856 266.761 64.9856ZM266.763 73.0312C266.232 73.0312 265.701 72.9306 265.191 72.7321C264.08 72.3016 263.205 71.4545 262.727 70.3447C261.751 68.0831 262.765 65.4329 264.984 64.4376C266.053 63.9568 267.242 63.9261 268.333 64.351C269.444 64.7815 270.318 65.6285 270.797 66.7384C271.773 69 270.761 71.6502 268.54 72.6455C267.971 72.9027 267.368 73.0312 266.763 73.0312Z" fill="#F4F4F4"/>
<path d="M261.566 432.267C260.589 432.267 259.615 432.256 258.639 432.237C258.382 432.233 258.177 432.02 258.182 431.761C258.188 431.504 258.424 431.297 258.658 431.303C279.093 431.719 299.802 427.761 320.174 419.541C320.412 419.446 320.686 419.56 320.783 419.8C320.878 420.038 320.764 420.31 320.524 420.407C301.006 428.281 281.186 432.267 261.566 432.267Z" fill="#F4F4F4"/>
<path d="M251.386 431.851C251.384 431.851 251.382 431.851 251.38 431.851C238.376 431.667 230.243 429.682 230.163 429.661C229.912 429.6 229.76 429.347 229.821 429.096C229.884 428.845 230.135 428.693 230.388 428.755C230.466 428.776 238.506 430.736 251.392 430.917C251.651 430.921 251.856 431.132 251.854 431.391C251.85 431.646 251.641 431.851 251.386 431.851Z" fill="#F4F4F4"/>
<path d="M262.812 440.867C257.68 440.867 254.641 440.595 254.534 440.585C254.279 440.559 254.091 440.332 254.114 440.077C254.14 439.82 254.361 439.632 254.624 439.655C255.006 439.691 293.214 443.097 330.128 425.098C330.362 424.984 330.64 425.081 330.752 425.313C330.866 425.545 330.769 425.823 330.539 425.937C303.695 439.025 276.17 440.867 262.812 440.867Z" fill="#F4F4F4"/>
<path d="M434.198 290.498C434.159 290.498 434.123 290.494 434.085 290.486C433.835 290.425 433.684 290.171 433.745 289.921C439.082 268.124 439.425 247.017 434.76 227.187C434.702 226.935 434.856 226.685 435.109 226.627C435.356 226.567 435.611 226.723 435.668 226.973C440.367 246.947 440.026 268.2 434.65 290.144C434.598 290.357 434.409 290.498 434.198 290.498Z" fill="#F4F4F4"/>
<path d="M440.204 297.941C440.156 297.941 440.108 297.933 440.057 297.916C439.814 297.836 439.681 297.573 439.76 297.328C453.026 257.099 441.27 220.665 441.149 220.303C441.067 220.057 441.2 219.791 441.446 219.712C441.692 219.63 441.955 219.763 442.034 220.009C442.155 220.374 454.01 257.086 440.648 297.621C440.583 297.817 440.399 297.941 440.204 297.941Z" fill="#F4F4F4"/>
<path d="M71.4805 286.649C70.5458 286.649 69.636 287.134 69.1356 287.998C68.3902 289.29 68.834 290.946 70.1249 291.692C71.415 292.436 73.0722 291.994 73.818 290.704C74.5635 289.412 74.1198 287.755 72.8289 287.011C72.404 286.765 71.9393 286.649 71.4805 286.649ZM71.4714 292.986C70.8543 292.986 70.2297 292.83 69.6583 292.499C67.9216 291.496 67.3248 289.269 68.3274 287.532C69.3306 285.795 71.5593 285.199 73.2953 286.202C75.032 287.205 75.6289 289.433 74.6265 291.17C73.9533 292.335 72.7286 292.986 71.4714 292.986Z" fill="#F4F4F4"/>
<path d="M89.7158 353.9C89.575 353.9 89.4359 353.837 89.3445 353.717C80.6176 342.273 74.1789 325.419 69.6601 302.195C69.6108 301.942 69.7758 301.698 70.0287 301.649C70.2793 301.601 70.5267 301.765 70.576 302.018C75.0671 325.098 81.4486 341.822 90.0863 353.15C90.2425 353.355 90.2033 353.647 89.9982 353.806C89.9135 353.869 89.8142 353.9 89.7158 353.9Z" fill="#F4F4F4"/>
<path d="M296.031 93.8008C295.989 93.8008 295.949 93.7955 295.906 93.7848C295.659 93.7157 295.51 93.4607 295.579 93.2109C296.023 91.5847 296.988 89.4271 298.446 86.7939C298.571 86.5707 298.856 86.4884 299.082 86.6132C299.307 86.7381 299.387 87.0224 299.262 87.2483C297.841 89.8151 296.903 91.9036 296.48 93.4554C296.424 93.6653 296.236 93.8008 296.031 93.8008Z" fill="#1D1B1B"/>
<path d="M303.947 103.707C299.853 103.707 296.287 100.8 295.468 96.7948C295.414 96.5428 295.58 96.296 295.832 96.2441C296.081 96.1921 296.328 96.3558 296.383 96.6078C297.113 100.179 300.295 102.775 303.947 102.775C305.183 102.775 306.36 102.491 307.454 101.935C307.682 101.819 307.963 101.909 308.082 102.141C308.197 102.369 308.106 102.65 307.877 102.767C306.651 103.39 305.332 103.707 303.947 103.707Z" fill="#1D1B1B"/>
<path d="M354.81 250.718C354.71 250.718 354.612 250.687 354.525 250.62L353.523 249.853C352.478 249.057 351.323 247.555 351.271 247.491C351.116 247.288 351.154 246.995 351.358 246.837C351.563 246.682 351.854 246.719 352.014 246.924C352.023 246.939 353.145 248.391 354.09 249.111L355.092 249.878C355.297 250.038 355.337 250.329 355.181 250.533C355.088 250.653 354.95 250.718 354.81 250.718Z" fill="#F4F4F4"/>
<path d="M356.515 248.801C356.441 248.801 356.368 248.785 356.301 248.749L355.177 248.164C354.014 247.559 352.614 246.282 352.556 246.228C352.366 246.054 352.353 245.759 352.527 245.567C352.701 245.377 352.996 245.366 353.186 245.54C353.201 245.554 354.554 246.791 355.608 247.338L356.729 247.921C356.957 248.039 357.049 248.323 356.928 248.551C356.846 248.711 356.685 248.801 356.515 248.801Z" fill="#F4F4F4"/>
<path d="M395.074 228.152C398.151 228.549 414.885 231.935 416.308 250.789C416.339 251.222 416.113 251.635 415.737 251.853L406.061 257.424C405.698 257.634 405.479 258.021 405.492 258.442C405.599 261.889 406.155 277.557 407.617 284.139C408.757 289.271 409.549 293.454 409.928 295.547C410.063 296.285 409.458 296.945 408.712 296.877C406.344 296.66 401.646 296.137 398.548 295.185C394.658 293.988 392.942 291.705 383.539 295.606C381.565 296.426 379.326 296.314 377.436 295.313C372.289 292.588 361.567 287.756 354.176 290.196C353.34 290.472 352.522 289.737 352.714 288.875C353.792 284.036 356.051 274.705 356.29 269.774C356.591 263.613 353.049 243.092 354.698 240.949C356.266 238.908 363.179 234.215 367.851 232.93C369.56 232.46 371.359 232.416 372.801 232.06C376.421 231.169 386.452 227.035 395.074 228.152Z" fill="#F4F4F4"/>
<path d="M411.621 274.076C408.744 278.374 405.412 279.744 398.155 277.872C390.898 276.001 375.51 264.984 367.904 254.493C367.904 254.493 367.379 253.53 365.894 253.704C364.409 253.88 358.287 256.239 353.742 252.219C349.194 248.198 350.28 245.314 350.505 244.765C350.893 243.844 357.674 245.024 359.511 244.206C361.348 243.389 361.325 242.119 359.948 240.24C358.306 238 361.969 237.49 364.758 241.467C366.45 243.883 369.301 247.063 371.883 248.366C374.548 249.714 401.653 259.47 403.05 259.036C404.449 258.601 413.251 253.282 413.251 253.282C413.251 253.282 414.754 269.396 411.621 274.076Z" fill="#1D1B1B"/>
<path d="M368.294 254.232C375.726 264.475 390.983 275.54 398.274 277.42C405.792 279.359 408.719 277.567 411.231 273.816C413.862 269.887 413.093 257.273 412.85 254.069C410.695 255.364 404.425 259.096 403.189 259.48C403.143 259.495 403.078 259.5 402.995 259.5C399.936 259.503 373.232 249.573 371.671 248.781C368.977 247.419 366.059 244.132 364.375 241.731C362.868 239.582 361.153 238.911 360.389 238.986C360.2 239.004 360.063 239.064 360.024 239.149C359.972 239.266 360.019 239.548 360.325 239.965C361.239 241.211 361.56 242.174 361.342 243.003C361.159 243.689 360.622 244.22 359.7 244.632C358.696 245.08 356.574 244.994 354.529 244.914C353.166 244.862 351.314 244.787 350.916 245.002C350.54 245.963 350.178 248.442 354.049 251.868C357.709 255.108 362.487 253.992 364.782 253.456C365.23 253.355 365.582 253.272 365.838 253.241C367.467 253.049 368.167 254.03 368.294 254.232ZM403.58 279.152C401.98 279.152 400.157 278.868 398.038 278.322C390.6 276.404 375.061 265.156 367.527 254.766C367.514 254.748 367.504 254.732 367.496 254.714C367.48 254.693 367.076 254.033 365.95 254.168C365.745 254.191 365.396 254.271 364.997 254.365C362.547 254.937 357.45 256.126 353.43 252.567C349.028 248.672 349.618 245.689 350.077 244.588C350.382 243.85 351.747 243.87 354.562 243.982C356.417 244.054 358.514 244.137 359.32 243.78C359.97 243.49 360.335 243.158 360.439 242.762C360.576 242.244 360.286 241.488 359.571 240.517C358.965 239.688 359.019 239.108 359.172 238.766C359.356 238.359 359.755 238.108 360.301 238.056C361.534 237.937 363.505 238.864 365.139 241.198C366.76 243.508 369.552 246.665 372.093 247.949C375.25 249.547 401.343 258.747 402.946 258.583C404.016 258.247 410.576 254.352 413.01 252.881C413.147 252.8 413.321 252.793 413.461 252.865C413.606 252.938 413.702 253.077 413.717 253.238C413.777 253.904 415.199 269.571 412.008 274.334C409.801 277.631 407.287 279.152 403.58 279.152Z" fill="#F4F4F4"/>
<path d="M355.19 253.249L355.292 254.212L355.894 259.785C356.516 264.686 356.033 268.68 356.033 268.68C356.041 270.218 355.105 272.031 353.95 273.05C352.619 274.223 351.923 274.466 350.839 274.858C346.761 276.344 344.979 275.886 343.501 271.67C342.018 267.455 342.542 264.842 346.025 251.773C346.025 251.773 346.984 249.135 344.283 247.36C341.884 245.784 342.676 242 344.89 239.136C348.42 234.565 355.821 252.64 355.19 253.249Z" fill="#1D1B1B"/>
<path d="M346.209 238.863C345.854 238.863 345.55 239.046 345.26 239.421C343.807 241.301 343.072 243.464 343.34 245.063C343.479 245.898 343.883 246.538 344.541 246.971C347.517 248.925 346.477 251.903 346.468 251.932C342.972 265.046 342.514 267.453 343.941 271.518C344.615 273.432 345.32 274.479 346.233 274.912C347.191 275.363 348.479 275.222 350.683 274.423L350.732 274.403C351.775 274.026 352.402 273.798 353.643 272.702C354.766 271.71 355.577 270.018 355.568 268.683C355.568 268.663 355.568 268.643 355.572 268.623C355.577 268.585 356.039 264.626 355.434 259.842L354.726 253.301C354.717 253.218 354.731 253.135 354.762 253.062C354.775 251.568 350.004 240.249 346.702 238.965C346.526 238.898 346.363 238.863 346.209 238.863ZM347.464 276.1C346.847 276.1 346.318 275.984 345.836 275.754C344.677 275.209 343.822 273.997 343.061 271.824C341.545 267.509 342.005 265.044 345.577 251.653C345.622 251.521 346.374 249.291 344.028 247.751C343.159 247.179 342.601 246.302 342.418 245.217C342.108 243.368 342.914 240.93 344.521 238.849C345.231 237.934 346.035 237.865 346.588 237.965C350.263 238.648 354.652 249.235 355.443 251.876C355.684 252.68 355.735 253.084 355.666 253.33L356.36 259.735C356.961 264.466 356.548 268.306 356.501 268.705C356.499 270.311 355.581 272.237 354.262 273.403C352.887 274.613 352.119 274.894 351.054 275.28L351 275.298C349.524 275.836 348.395 276.1 347.464 276.1Z" fill="#F4F4F4"/>
<path d="M352.761 244.684C352.761 244.684 358.755 245.327 360.613 243.862C361.989 242.776 359.42 239.528 359.228 239.272C357.6 237.128 353.805 232.133 353.239 231.425C352.727 230.782 351.749 229.256 350.473 229.367C349.196 229.478 342.13 230.642 341.616 230.87C340.539 231.343 340.994 232.842 341.779 233.665C342.567 234.492 352.761 244.684 352.761 244.684Z" fill="#F4F4F4"/>
<path d="M402.706 294.549C402.706 294.549 408.494 342.674 409.206 351.958C409.922 361.242 410.994 393.736 409.206 409.804C408.053 420.214 407.247 427.177 406.827 430.79C406.632 432.465 405.212 433.728 403.527 433.728H391.732C391.13 433.728 390.637 433.245 390.63 432.642C390.578 428.309 390.189 411.796 387.425 397.665C384.212 381.238 380.64 355.528 378.856 345.173C378.261 341.717 377.758 337.875 377.335 334.115C377.335 334.115 377.335 334.115 375.999 338.033C374.663 341.949 369.571 368.384 368.146 378.739C366.843 388.158 364.658 425.94 364.274 432.693C364.24 433.277 363.758 433.728 363.174 433.728H348.071C347.505 433.728 347.033 433.302 346.977 432.739C346.274 425.736 342.136 383.42 342.79 364.456C343.505 343.744 352.789 319.107 354.574 312.322C356.361 305.538 358.756 288.334 358.756 288.334C358.756 288.334 394.963 288.878 402.706 294.549Z" fill="#1D1B1B"/>
<path d="M377.338 333.649C377.356 333.649 377.374 333.649 377.389 333.651C377.607 333.674 377.776 333.845 377.802 334.062C378.292 338.401 378.788 342.01 379.316 345.095C379.94 348.699 380.774 354.143 381.742 360.442C383.546 372.218 385.792 386.872 387.886 397.574C390.64 411.642 391.043 427.967 391.102 432.636C391.105 432.982 391.39 433.262 391.736 433.262H403.53C404.98 433.262 406.199 432.176 406.366 430.737C406.743 427.516 407.552 420.507 408.745 409.754C410.478 394.17 409.531 362.202 408.745 351.993C408.062 343.133 402.685 298.248 402.272 294.81C394.86 289.716 363.157 288.892 359.163 288.808C358.786 291.466 356.646 306.292 355.029 312.44C354.667 313.81 354.01 315.886 353.178 318.512C349.911 328.808 343.83 347.972 343.261 364.472C342.614 383.247 346.631 424.593 347.442 432.691C347.475 433.017 347.747 433.262 348.076 433.262H363.178C363.514 433.262 363.794 433 363.812 432.665C364.232 425.295 366.391 388.052 367.685 378.675C369.14 368.12 374.219 341.814 375.559 337.881L376.896 333.963C376.96 333.773 377.14 333.649 377.338 333.649ZM403.53 434.195H391.736C390.879 434.195 390.178 433.502 390.168 432.648C390.112 427.999 389.709 411.745 386.97 397.753C384.873 387.032 382.625 372.367 380.818 360.584C379.853 354.288 379.019 348.851 378.398 345.253C377.951 342.65 377.528 339.681 377.114 336.22L376.442 338.182C375.112 342.086 370.061 368.279 368.609 378.802C367.32 388.143 365.164 425.354 364.743 432.72C364.694 433.546 364.009 434.195 363.178 434.195H348.076C347.265 434.195 346.595 433.588 346.515 432.785C345.702 424.675 341.677 383.274 342.326 364.439C342.901 347.812 349.007 328.57 352.287 318.23C353.116 315.616 353.771 313.551 354.125 312.204C355.883 305.523 358.27 288.441 358.296 288.268C358.329 288.034 358.532 287.868 358.766 287.866C360.249 287.889 395.211 288.479 402.986 294.174C403.088 294.25 403.158 294.366 403.173 294.494C403.23 294.975 408.968 342.735 409.674 351.922C410.462 362.158 411.412 394.214 409.674 409.855C408.478 420.612 407.67 427.624 407.292 430.844C407.072 432.754 405.455 434.195 403.53 434.195Z" fill="#F4F4F4"/>
<path d="M377.318 334.452C377.085 334.452 376.882 334.275 376.858 334.037C376.615 331.889 376.379 329.596 376.155 327.223C375.753 322.915 372.864 319.157 368.802 317.653L366.196 316.687C365.955 316.599 365.83 316.329 365.922 316.089C366.009 315.847 366.276 315.724 366.519 315.813L369.127 316.778C373.525 318.407 376.648 322.473 377.085 327.135C377.309 329.504 377.543 331.79 377.783 333.934C377.812 334.189 377.628 334.421 377.373 334.448C377.354 334.45 377.337 334.452 377.318 334.452Z" fill="#F4F4F4"/>
<path d="M351.391 433.723H361.013C361.696 433.723 362.312 434.132 362.57 434.764C363.424 436.84 365.164 441.69 364.931 446.291C364.864 447.549 363.821 448.533 362.561 448.533H334.322C333.023 448.533 332.037 447.347 332.297 446.074C332.607 444.55 333.682 442.546 336.778 440.744C341.794 437.827 348.092 434.91 350.08 434.008C350.491 433.82 350.937 433.723 351.391 433.723Z" fill="#1D1B1B"/>
<path d="M351.389 434.192C351.001 434.192 350.624 434.274 350.272 434.434C348.432 435.269 342.038 438.224 337.012 441.149C334.612 442.545 333.137 444.281 332.751 446.17C332.657 446.631 332.776 447.107 333.076 447.476C333.382 447.851 333.837 448.066 334.319 448.066H362.56C363.575 448.066 364.409 447.276 364.462 446.268C364.693 441.708 362.914 436.829 362.137 434.942C361.95 434.487 361.509 434.192 361.013 434.192H351.389ZM362.56 449H334.319C333.556 449 332.838 448.661 332.353 448.066C331.876 447.48 331.688 446.719 331.837 445.982C332.145 444.479 333.211 442.281 336.543 440.342C341.606 437.396 348.036 434.424 349.885 433.585C350.361 433.368 350.866 433.259 351.389 433.259H361.013C361.89 433.259 362.67 433.781 363.001 434.588C363.801 436.532 365.634 441.566 365.394 446.315C365.319 447.822 364.073 449 362.56 449Z" fill="#F4F4F4"/>
<path d="M350.084 440.507C349.966 440.507 349.847 440.463 349.757 440.372L345.706 436.389C345.522 436.208 345.52 435.912 345.702 435.729C345.881 435.546 346.175 435.541 346.362 435.723L350.409 439.708C350.593 439.889 350.595 440.184 350.415 440.368C350.323 440.461 350.203 440.507 350.084 440.507Z" fill="#F4F4F4"/>
<path d="M347.47 442.144C347.352 442.144 347.233 442.099 347.143 442.009L343.093 438.025C342.908 437.844 342.906 437.549 343.089 437.366C343.268 437.18 343.564 437.178 343.749 437.359L347.797 441.345C347.98 441.524 347.984 441.819 347.803 442.005C347.712 442.097 347.59 442.144 347.47 442.144Z" fill="#F4F4F4"/>
<path d="M393.855 433.723H403.477C404.161 433.723 404.777 434.132 405.036 434.764C405.888 436.84 407.628 441.69 407.394 446.291C407.33 447.549 406.285 448.533 405.026 448.533H376.786C375.487 448.533 374.5 447.347 374.759 446.074C375.072 444.55 376.148 442.546 379.243 440.744C384.256 437.827 390.556 434.91 392.543 434.008C392.955 433.82 393.403 433.723 393.855 433.723Z" fill="#1D1B1B"/>
<path d="M393.857 434.192C393.468 434.192 393.091 434.274 392.74 434.435C390.899 435.269 384.505 438.224 379.478 441.149C377.077 442.545 375.605 444.281 375.218 446.17C375.127 446.631 375.244 447.107 375.544 447.476C375.852 447.851 376.303 448.066 376.787 448.066H405.028C406.042 448.066 406.877 447.276 406.93 446.269C407.162 441.708 405.379 436.829 404.605 434.943C404.417 434.487 403.976 434.192 403.48 434.192H393.857ZM405.028 449H376.787C376.023 449 375.305 448.661 374.821 448.066C374.342 447.48 374.154 446.72 374.307 445.982C374.612 444.479 375.679 442.281 379.01 440.342C384.072 437.396 390.504 434.424 392.353 433.585C392.829 433.368 393.333 433.258 393.857 433.258H403.48C404.356 433.258 405.135 433.781 405.469 434.588C406.268 436.531 408.101 441.567 407.862 446.315C407.786 447.822 406.541 449 405.028 449Z" fill="#F4F4F4"/>
<path d="M393.63 440.161C393.512 440.161 393.394 440.115 393.303 440.026L389.253 436.043C389.068 435.862 389.068 435.566 389.245 435.381C389.427 435.198 389.723 435.196 389.905 435.377L393.957 439.36C394.14 439.541 394.142 439.836 393.962 440.022C393.871 440.113 393.751 440.161 393.63 440.161Z" fill="#F4F4F4"/>
<path d="M391.016 441.791C390.897 441.791 390.779 441.747 390.689 441.658L386.638 437.673C386.455 437.494 386.452 437.196 386.633 437.013C386.814 436.83 387.11 436.828 387.293 437.009L391.342 440.992C391.525 441.173 391.53 441.468 391.349 441.652C391.258 441.745 391.136 441.791 391.016 441.791Z" fill="#F4F4F4"/>
<path d="M382.766 204.357C382.555 204.429 382.333 204.52 382.095 204.635C382.095 204.635 381.561 204.961 381.075 205.855C380.586 206.751 379.772 209.512 378.715 209.35C377.659 209.187 376.358 204.88 376.358 204.88C376.358 204.88 375.954 202.764 372.701 203.577C369.45 204.391 366.928 205.773 365.953 206.343C364.978 206.911 364.084 207.074 363.107 206.992C362.132 206.911 358.963 205.043 359.53 202.034C360.101 199.025 362.865 196.98 365.303 196.994C367.84 197.006 371.481 195.367 372.133 195.042C372.782 194.718 376.607 193.149 378.694 194.311C380.553 195.351 382.117 196.994 382.967 199.84C383.509 201.658 383.092 203.323 383.034 203.871C383.01 204.084 382.972 204.288 382.766 204.357Z" fill="#F4F4F4"/>
<path d="M365.543 206.648C365.479 206.679 365.448 206.743 365.45 206.814C365.484 207.31 365.594 209.364 365.284 211.215C365.113 212.238 364.457 214.722 364.731 215.236C365.007 215.747 366.032 215.786 366.504 215.747C366.976 215.708 367.766 215.906 367.964 216.297C368.159 216.691 368.751 220.356 368.988 221.222C369.223 222.09 370.011 223.114 371.468 222.958C371.656 222.936 372.202 222.814 372.622 222.716C372.93 222.642 373.236 222.848 373.285 223.158C373.984 227.609 369.487 232.622 368.406 233.766C368.294 233.886 368.333 234.079 368.485 234.145C378.457 238.495 388.715 230.983 391.517 228.648C391.642 228.545 386.279 227.093 383.717 220.928C382.589 218.214 382.966 213.996 382.924 212.321C382.917 211.981 383.105 211.67 383.413 211.528C384.088 211.218 385.069 210.188 385.35 209.171C385.758 207.706 385.595 203.043 381.731 204.911C381.731 204.911 381.198 205.237 380.709 206.132C380.22 207.027 379.408 209.79 378.352 209.626C377.293 209.465 375.992 205.156 375.992 205.156C375.992 205.156 375.586 203.043 372.336 203.855C369.402 204.589 366.149 206.315 365.543 206.648Z" fill="#1D1B1B"/>
<path d="M368.967 233.843C378.067 237.591 387.269 231.428 390.649 228.748C387.198 227.137 384.721 224.565 383.282 221.106C382.342 218.847 382.404 215.683 382.445 213.59C382.455 213.093 382.465 212.66 382.455 212.33C382.443 211.806 382.739 211.324 383.216 211.103C383.747 210.859 384.645 209.958 384.898 209.047C385.145 208.156 385.12 206.008 384.2 205.239C383.698 204.818 382.944 204.847 381.958 205.317C381.875 205.376 381.483 205.68 381.114 206.355C381.008 206.546 380.874 206.867 380.732 207.207C380.157 208.57 379.447 210.269 378.275 210.088C377.061 209.899 375.959 206.671 375.543 205.29C375.538 205.273 375.533 205.259 375.531 205.241C375.528 205.227 375.418 204.75 374.904 204.429C374.349 204.086 373.499 204.042 372.445 204.307C369.767 204.977 366.81 206.495 365.924 206.969C365.968 207.728 366.027 209.586 365.741 211.294C365.697 211.556 365.621 211.916 365.535 212.312C365.371 213.086 365.031 214.696 365.146 215.027C365.241 215.203 365.873 215.333 366.463 215.281C367.048 215.232 368.061 215.455 368.377 216.089C368.504 216.343 368.661 217.141 368.991 218.904C369.16 219.807 369.336 220.739 369.432 221.099C369.505 221.361 369.931 222.651 371.417 222.494C371.475 222.487 371.7 222.45 372.511 222.262C372.785 222.196 373.074 222.252 373.308 222.406C373.541 222.563 373.698 222.812 373.742 223.084C374.42 227.397 370.521 232.147 368.967 233.843ZM374.985 235.953C372.804 235.953 370.548 235.557 368.291 234.573C368.083 234.482 367.931 234.291 367.885 234.069C367.841 233.843 367.907 233.611 368.063 233.447C369.341 232.091 373.468 227.35 372.819 223.231C372.814 223.206 372.799 223.189 372.787 223.179C372.775 223.172 372.753 223.162 372.724 223.17C371.767 223.392 371.578 223.414 371.514 223.419C369.894 223.596 368.849 222.504 368.533 221.344C368.426 220.947 368.254 220.039 368.073 219.077C367.887 218.081 367.633 216.72 367.537 216.5C367.476 216.378 366.952 216.177 366.541 216.211C366.25 216.236 364.779 216.312 364.316 215.455C364.072 214.997 364.206 214.097 364.622 212.121C364.703 211.737 364.776 211.392 364.818 211.138C365.119 209.366 365.019 207.403 364.982 206.845C364.962 206.595 365.095 206.355 365.317 206.235C365.944 205.893 369.231 204.147 372.219 203.401C373.556 203.068 374.635 203.151 375.423 203.653C376.189 204.143 376.402 204.872 376.439 205.036C377.078 207.131 378 209.06 378.419 209.165C378.874 209.238 379.596 207.498 379.87 206.845C380.029 206.468 380.169 206.142 380.294 205.91C380.827 204.933 381.417 204.554 381.483 204.512C383.216 203.673 384.239 204.057 384.797 204.522C386.114 205.621 386.097 208.215 385.798 209.295C385.483 210.425 384.411 211.581 383.605 211.95C383.468 212.014 383.385 212.153 383.39 212.308C383.397 212.648 383.39 213.093 383.378 213.61C383.338 215.624 383.28 218.669 384.144 220.749C385.541 224.105 387.986 226.569 391.41 228.07C391.751 228.216 391.937 228.3 391.978 228.579C392 228.738 391.934 228.902 391.812 229.005C389.531 230.906 382.734 235.953 374.985 235.953Z" fill="#F4F4F4"/>
<path d="M372.893 223.11C372.692 223.11 372.505 222.98 372.446 222.775C372.373 222.529 372.515 222.269 372.763 222.196C374.037 221.82 376.086 220.941 377.537 219.988C377.75 219.849 378.041 219.905 378.183 220.12C378.324 220.338 378.263 220.626 378.048 220.768C376.523 221.773 374.365 222.694 373.025 223.091C372.983 223.103 372.938 223.11 372.893 223.11Z" fill="#F4F4F4"/>
</svg>
