<svg width="19" height="16" viewBox="0 0 19 16" fill="none" xmlns="http://www.w3.org/2000/svg">
<g opacity="0.7" clip-path="url(#clip0_5014_26722)">
<path d="M13.9582 4.93154C13.9582 6.07534 13.0376 6.99969 11.8971 6.99969C10.7566 6.99969 9.83594 6.07534 9.83594 4.93154V3.74784C9.83594 2.60404 10.7566 1.67969 11.8971 1.67969C13.0376 1.67969 13.9582 2.60404 13.9582 3.74784V4.93154Z" stroke="black" stroke-width="1.5" stroke-linecap="round" stroke-linejoin="round"/>
<path d="M6.40122 5.3377C7.34984 5.3377 8.11885 4.59337 8.11885 3.6752C8.11885 2.75702 7.34984 2.0127 6.40122 2.0127C5.4526 2.0127 4.68359 2.75702 4.68359 3.6752C4.68359 4.59337 5.4526 5.3377 6.40122 5.3377Z" stroke="black" stroke-width="1.5" stroke-linecap="round" stroke-linejoin="round"/>
<path d="M8.13371 9.08818C7.45353 8.60938 6.6222 8.33008 5.71529 8.33008C3.7091 8.33008 2.03956 9.71993 1.66856 11.5553C1.58611 11.9543 1.92964 12.3201 2.34874 12.3201H5.71529" stroke="black" stroke-width="1.5" stroke-linecap="round" stroke-linejoin="round"/>
<path d="M11.8981 8.99512C9.12933 8.99512 6.83458 10.9768 6.4567 13.557C6.39486 13.956 6.72465 14.3151 7.14375 14.3151H16.6525C17.0716 14.3151 17.3946 13.956 17.3396 13.557C16.9617 10.9768 14.667 8.99512 11.8981 8.99512Z" stroke="black" stroke-width="1.5" stroke-linecap="round" stroke-linejoin="round"/>
</g>
<defs>
<clipPath id="clip0_5014_26722">
<rect width="19" height="15.2" fill="white" transform="translate(0 0.713867)"/>
</clipPath>
</defs>
</svg>
