<svg width="16" height="16" viewBox="0 0 16 16" fill="none" xmlns="http://www.w3.org/2000/svg">
<g opacity="0.7">
<path d="M2 2V5.33333H5.33333" stroke="black" stroke-width="1.5" stroke-linecap="round" stroke-linejoin="round"/>
<path d="M2.03333 8.6664C2.181 10.0036 2.7738 11.2524 3.71652 12.2122C4.65924 13.172 5.89718 13.7871 7.23153 13.9588C8.56587 14.1304 9.91919 13.8487 11.0741 13.1587C12.2291 12.4688 13.1187 11.4107 13.6 10.1544C14.0813 8.89808 14.1264 7.51647 13.7281 6.23145C13.3298 4.94642 12.5112 3.83254 11.4037 3.0687C10.2962 2.30485 8.96419 1.93537 7.62148 2.01958C6.27878 2.1038 5.00334 2.63683 4 3.53307L2 5.33307" stroke="black" stroke-width="1.5" stroke-linecap="round" stroke-linejoin="round"/>
<path d="M8 4.66699V8.00033L10.6667 9.33366" stroke="black" stroke-width="2" stroke-linecap="round" stroke-linejoin="round"/>
</g>
</svg>

