<svg width="17" height="17" viewBox="0 0 17 17" fill="none" xmlns="http://www.w3.org/2000/svg">
<g opacity="0.7">
<path d="M14.166 4.95801H7.79102" stroke="black" stroke-width="1.5" stroke-linecap="round" stroke-linejoin="round"/>
<path d="M9.91602 12.042H3.54102" stroke="black" stroke-width="1.5" stroke-linecap="round" stroke-linejoin="round"/>
<path d="M12.041 14.167C13.2146 14.167 14.166 13.2156 14.166 12.042C14.166 10.8684 13.2146 9.91699 12.041 9.91699C10.8674 9.91699 9.91602 10.8684 9.91602 12.042C9.91602 13.2156 10.8674 14.167 12.041 14.167Z" stroke="black" stroke-width="1.5" stroke-linecap="round" stroke-linejoin="round"/>
<path d="M4.95898 7.08301C6.13259 7.08301 7.08398 6.13161 7.08398 4.95801C7.08398 3.7844 6.13259 2.83301 4.95898 2.83301C3.78538 2.83301 2.83398 3.7844 2.83398 4.95801C2.83398 6.13161 3.78538 7.08301 4.95898 7.08301Z" stroke="black" stroke-width="1.5" stroke-linecap="round" stroke-linejoin="round"/>
</g>
</svg>
