<svg width="8" height="13" viewBox="0 0 8 13" fill="none" xmlns="http://www.w3.org/2000/svg">
<path d="M1.58525 0.257257L7.79724 6.01979C7.87097 6.08839 7.92307 6.16271 7.95355 6.24274C7.98452 6.32278 8 6.40853 8 6.5C8 6.59147 7.98452 6.67722 7.95355 6.75726C7.92307 6.83729 7.87097 6.91161 7.79724 6.98021L1.58525 12.7599C1.41321 12.92 1.19816 13 0.940092 13C0.682027 13 0.46083 12.9142 0.276498 12.7427C0.0921659 12.5712 0 12.3712 0 12.1425C0 11.9138 0.0921659 11.7137 0.276498 11.5422L5.69585 6.5L0.276498 1.45778C0.104455 1.29771 0.0184331 1.1006 0.0184331 0.866439C0.0184331 0.631822 0.110599 0.428761 0.294931 0.257257C0.479262 0.0857525 0.694316 0 0.940092 0C1.18587 0 1.40092 0.0857525 1.58525 0.257257Z" fill="#B0B0B0"/>
</svg>
