<svg width="33" height="30" viewBox="0 0 33 30" fill="none" xmlns="http://www.w3.org/2000/svg">
<g filter="url(#filter0_d_6910_16342)">
<rect width="33" height="28" rx="5" fill="#1D1B1B"/>
<path d="M23.1787 8.99414H20.5984L19.9836 7.27137C19.9412 7.15349 19.8633 7.05159 19.7608 6.9796C19.6582 6.90761 19.5359 6.86903 19.4106 6.86914H13.5896C13.3335 6.86914 13.1039 7.03041 13.0186 7.27137L12.4019 8.99414H9.82157C8.98295 8.99414 8.30371 9.67338 8.30371 10.512V19.1638C8.30371 20.0024 8.98295 20.6816 9.82157 20.6816H23.1787C24.0173 20.6816 24.6966 20.0024 24.6966 19.1638V10.512C24.6966 9.67338 24.0173 8.99414 23.1787 8.99414ZM23.3305 19.1638C23.3305 19.2473 23.2622 19.3156 23.1787 19.3156H9.82157C9.73809 19.3156 9.66978 19.2473 9.66978 19.1638V10.512C9.66978 10.4285 9.73809 10.3602 9.82157 10.3602H13.3639L13.6883 9.45329L14.1228 8.23521H18.8756L19.3101 9.45329L19.6345 10.3602H23.1787C23.2622 10.3602 23.3305 10.4285 23.3305 10.512V19.1638ZM16.5001 11.5745C14.8229 11.5745 13.4644 12.933 13.4644 14.6102C13.4644 16.2874 14.8229 17.6459 16.5001 17.6459C18.1774 17.6459 19.5359 16.2874 19.5359 14.6102C19.5359 12.933 18.1774 11.5745 16.5001 11.5745ZM16.5001 16.4316C15.4946 16.4316 14.6787 15.6158 14.6787 14.6102C14.6787 13.6046 15.4946 12.7888 16.5001 12.7888C17.5057 12.7888 18.3216 13.6046 18.3216 14.6102C18.3216 15.6158 17.5057 16.4316 16.5001 16.4316Z" fill="white"/>
</g>
<defs>
<filter id="filter0_d_6910_16342" x="0" y="0" width="33" height="30" filterUnits="userSpaceOnUse" color-interpolation-filters="sRGB">
<feFlood flood-opacity="0" result="BackgroundImageFix"/>
<feColorMatrix in="SourceAlpha" type="matrix" values="0 0 0 0 0 0 0 0 0 0 0 0 0 0 0 0 0 0 127 0" result="hardAlpha"/>
<feOffset dy="2"/>
<feColorMatrix type="matrix" values="0 0 0 0 0 0 0 0 0 0 0 0 0 0 0 0 0 0 0.016 0"/>
<feBlend mode="normal" in2="BackgroundImageFix" result="effect1_dropShadow_6910_16342"/>
<feBlend mode="normal" in="SourceGraphic" in2="effect1_dropShadow_6910_16342" result="shape"/>
</filter>
</defs>
</svg>
