<svg width="35" height="35" viewBox="0 0 35 35" fill="none" xmlns="http://www.w3.org/2000/svg">
<circle cx="17" cy="18" r="15.5" fill="#FFF0EB" stroke="#E49273"/>
<g clip-path="url(#clip0_6910_31661)">
<path d="M11.1213 11.75C10.2863 11.75 9.51501 12.1675 9.05064 12.8631L7.31251 15.4612C7.10796 15.7676 6.99917 16.1279 7.00001 16.4962V20.6369C6.99886 20.9143 7.09051 21.1842 7.26038 21.4036C7.43026 21.6229 7.6686 21.7792 7.93751 21.8475L9.55876 22.2581C9.67536 22.8198 9.9816 23.3244 10.4261 23.687C10.8706 24.0497 11.4263 24.2485 12 24.25C13.1575 24.25 14.1238 23.4494 14.4025 22.375H20.2225C20.5013 23.4494 21.4675 24.25 22.625 24.25C23.7825 24.25 24.7488 23.4494 25.0275 22.375H25.75C26.4338 22.375 27 21.8087 27 21.125V18.84C26.9994 18.2829 26.8127 17.742 26.4694 17.3032C26.1262 16.8644 25.6462 16.5529 25.1056 16.4181L21.7263 15.5587L19.285 12.6488C19.0515 12.3677 18.759 12.1415 18.4282 11.9862C18.0975 11.8309 17.7366 11.7503 17.3713 11.75H11.1213ZM11.1213 13H13.875V15.5H8.79689L10.0863 13.5663V13.5469C10.1995 13.3768 10.3534 13.2377 10.5341 13.1422C10.7147 13.0467 10.9169 12.9978 11.1213 13ZM15.125 13H17.3713C17.7419 13 18.0913 13.1637 18.3281 13.4494L20.0469 15.5H15.125V13ZM8.25001 16.75H21.2969L24.8125 17.6288C25.0823 17.6957 25.3216 17.8517 25.4917 18.0715C25.6618 18.2913 25.7528 18.5621 25.75 18.84V21.125H25.0275C24.7488 20.0506 23.7825 19.25 22.625 19.25C21.4675 19.25 20.5013 20.0506 20.2225 21.125H14.4025C14.1238 20.0506 13.1575 19.25 12 19.25C10.8919 19.25 9.96126 19.9825 9.63689 20.9881L8.25001 20.6375V16.75ZM12 20.5C12.6981 20.5 13.25 21.0519 13.25 21.75C13.25 22.4481 12.6981 23 12 23C11.3019 23 10.75 22.4481 10.75 21.75C10.75 21.0519 11.3019 20.5 12 20.5ZM22.625 20.5C23.3231 20.5 23.875 21.0519 23.875 21.75C23.875 22.4481 23.3231 23 22.625 23C21.9269 23 21.375 22.4481 21.375 21.75C21.375 21.0519 21.9269 20.5 22.625 20.5Z" fill="#E49273"/>
</g>
<defs>
<clipPath id="clip0_6910_31661">
<rect width="20" height="20" fill="white" transform="translate(7 8)"/>
</clipPath>
</defs>
</svg>
