<svg width="40" height="42" viewBox="0 0 40 42" fill="none" xmlns="http://www.w3.org/2000/svg">
<path d="M21.3847 21.3855C24.4435 21.3855 26.9231 18.9059 26.9231 15.8471C26.9231 12.7882 24.4435 10.3086 21.3847 10.3086C18.3258 10.3086 15.8462 12.7882 15.8462 15.8471C15.8462 18.9059 18.3258 21.3855 21.3847 21.3855Z" stroke="white" stroke-width="2.42308" stroke-linecap="round" stroke-linejoin="round"/>
<path d="M2 10.3077H4.76923V7.53846C4.76923 6.06957 5.35275 4.66084 6.39141 3.62218C7.43007 2.58351 8.8388 2 10.3077 2H32.4615C33.9304 2 35.3392 2.58351 36.3778 3.62218C37.4165 4.66084 38 6.06957 38 7.53846V35.2308C38 36.6997 37.4165 38.1084 36.3778 39.147C35.3392 40.1857 33.9304 40.7692 32.4615 40.7692H10.3077C8.8388 40.7692 7.43007 40.1857 6.39141 39.147C5.35275 38.1084 4.76923 36.6997 4.76923 35.2308V32.4615H2M2 21.3846H4.76923M2 15.8462H4.76923M2 26.9231H4.76923" stroke="white" stroke-width="2.42308" stroke-linecap="round" stroke-linejoin="round"/>
<path fill-rule="evenodd" clip-rule="evenodd" d="M29.692 29.6925V26.9232C29.692 25.4543 29.1085 24.0456 28.0699 23.0069C27.0312 21.9683 25.6225 21.3848 24.1536 21.3848H18.6151C17.1462 21.3848 15.7375 21.9683 14.6988 23.0069C13.6602 24.0456 13.0767 25.4543 13.0767 26.9232V29.6925C13.0767 30.4269 13.3684 31.1313 13.8877 31.6506C14.4071 32.1699 15.1114 32.4617 15.8459 32.4617H26.9228C27.6573 32.4617 28.3616 32.1699 28.881 31.6506C29.4003 31.1313 29.692 30.4269 29.692 29.6925Z" stroke="white" stroke-width="2.42308" stroke-linecap="round" stroke-linejoin="round"/>
</svg>
