<svg width="48" height="48" viewBox="0 0 48 48" fill="none" xmlns="http://www.w3.org/2000/svg">
<path d="M42 25V10C42 9.20435 41.6839 8.44129 41.1213 7.87868C40.5587 7.31607 39.7956 7 39 7H9C8.20435 7 7.44129 7.31607 6.87868 7.87868C6.31607 8.44129 6 9.20435 6 10V40C6 40.7956 6.31607 41.5587 6.87868 42.1213C7.44129 42.6839 8.20435 43 9 43H24" stroke="white" stroke-width="3" stroke-linecap="round" stroke-linejoin="round"/>
<path d="M32 39C35.3137 39 38 36.3137 38 33C38 29.6863 35.3137 27 32 27C28.6863 27 26 29.6863 26 33C26 36.3137 28.6863 39 32 39Z" stroke="white" stroke-width="3"/>
<path d="M37 37L42 41M14 17H34M14 25H22" stroke="white" stroke-width="3" stroke-linecap="round" stroke-linejoin="round"/>
</svg>
