<svg width="20" height="20" viewBox="0 0 20 20" fill="none" xmlns="http://www.w3.org/2000/svg">
<path d="M11.2539 8.125C11.2539 7.95924 11.1881 7.80027 11.0708 7.68306C10.9536 7.56585 10.7947 7.5 10.6289 7.5H5.62891C5.46315 7.5 5.30417 7.56585 5.18696 7.68306C5.06975 7.80027 5.00391 7.95924 5.00391 8.125C5.00391 8.29076 5.06975 8.44973 5.18696 8.56694C5.30417 8.68415 5.46315 8.75 5.62891 8.75H10.6289C10.7947 8.75 10.9536 8.68415 11.0708 8.56694C11.1881 8.44973 11.2539 8.29076 11.2539 8.125ZM10.4206 10.625C10.4206 10.4592 10.3547 10.3003 10.2375 10.1831C10.1203 10.0658 9.96133 10 9.79557 10H5.62891C5.46315 10 5.30417 10.0658 5.18696 10.1831C5.06975 10.3003 5.00391 10.4592 5.00391 10.625C5.00391 10.7908 5.06975 10.9497 5.18696 11.0669C5.30417 11.1842 5.46315 11.25 5.62891 11.25H9.79557C9.96133 11.25 10.1203 11.1842 10.2375 11.0669C10.3547 10.9497 10.4206 10.7908 10.4206 10.625ZM10.6289 12.5C10.7947 12.5 10.9536 12.5658 11.0708 12.6831C11.1881 12.8003 11.2539 12.9592 11.2539 13.125C11.2539 13.2908 11.1881 13.4497 11.0708 13.5669C10.9536 13.6842 10.7947 13.75 10.6289 13.75H5.62891C5.46315 13.75 5.30417 13.6842 5.18696 13.5669C5.06975 13.4497 5.00391 13.2908 5.00391 13.125C5.00391 12.9592 5.06975 12.8003 5.18696 12.6831C5.30417 12.5658 5.46315 12.5 5.62891 12.5H10.6289Z" fill="black"/>
<path fill-rule="evenodd" clip-rule="evenodd" d="M5.00391 18.1268H15.8372C16.445 18.1268 17.0279 17.8854 17.4577 17.4556C17.8875 17.0259 18.1289 16.443 18.1289 15.8352V11.2518C18.1289 11.0861 18.0631 10.9271 17.9458 10.8099C17.8286 10.6927 17.6697 10.6268 17.5039 10.6268H14.7956V4.12102C14.7956 2.93518 13.4547 2.24518 12.4897 2.93435L12.3439 3.03852C12.0246 3.2652 11.6425 3.3867 11.2509 3.38611C10.8593 3.38551 10.4776 3.26284 10.1589 3.03518C9.62692 2.65657 8.99019 2.45312 8.33724 2.45313C7.68428 2.45312 7.04755 2.65657 6.51557 3.03518C6.19692 3.26284 5.81523 3.38551 5.42361 3.38611C5.03198 3.3867 4.64992 3.2652 4.33057 3.03852L4.18474 2.93435C3.21974 2.24518 1.87891 2.93435 1.87891 4.12102V15.0018C1.87891 15.8307 2.20815 16.6255 2.7942 17.2116C3.38025 17.7976 4.1751 18.1268 5.00391 18.1268ZM7.24224 4.05185C7.5622 3.82472 7.94486 3.70271 8.33724 3.70271C8.72962 3.70271 9.11228 3.82472 9.43224 4.05185C9.96283 4.43112 10.5985 4.63536 11.2507 4.63611C11.9029 4.63685 12.5391 4.43407 13.0706 4.05602L13.2164 3.95185C13.2475 3.92969 13.2841 3.91652 13.3223 3.91377C13.3604 3.91102 13.3985 3.9188 13.4325 3.93626C13.4664 3.95373 13.495 3.9802 13.5149 4.01278C13.5349 4.04537 13.5455 4.08281 13.5456 4.12102V15.8352C13.5456 16.2102 13.6356 16.5643 13.7956 16.8768H5.00391C4.50663 16.8768 4.02971 16.6793 3.67808 16.3277C3.32645 15.976 3.12891 15.4991 3.12891 15.0018V4.12102C3.12901 4.08281 3.13961 4.04537 3.15956 4.01278C3.17951 3.9802 3.20803 3.95373 3.24201 3.93626C3.27599 3.9188 3.31412 3.91102 3.35223 3.91377C3.39033 3.91652 3.42695 3.92969 3.45807 3.95185L3.60391 4.05602C4.13536 4.43407 4.77154 4.63685 5.42374 4.63611C6.07594 4.63536 6.71165 4.43112 7.24224 4.05185ZM14.7956 15.8352V11.8768H16.8789V15.8352C16.8789 16.1114 16.7692 16.3764 16.5738 16.5718C16.3785 16.7671 16.1135 16.8768 15.8372 16.8768C15.561 16.8768 15.296 16.7671 15.1007 16.5718C14.9053 16.3764 14.7956 16.1114 14.7956 15.8352Z" fill="black"/>
</svg>
