<svg width="58" height="53" viewBox="0 0 58 53" fill="none" xmlns="http://www.w3.org/2000/svg">
<rect x="0.5" y="0.5" width="57" height="52" rx="3.5" fill="#FFF0EB" stroke="#E49273"/>
<rect x="14.5597" y="14.5597" width="26.4361" height="26.4361" rx="2.88472" stroke="#E49273" stroke-width="1.11944"/>
<path d="M23.3477 22.7148V23.8017H25.5213C26.4467 23.8017 27.6628 24.3668 28.0856 25.4319H23.3477V26.5187H28.2214C28.0535 27.937 26.5934 28.6923 25.5213 28.6923H23.3477V30.0339L28.9175 34.6697H30.6157L24.7399 29.7791H25.5213C27.2786 29.7791 29.149 28.4804 29.3083 26.5187H32.0421V25.4319H29.2229C29.0583 24.7885 28.7056 24.2391 28.2383 23.8017H32.0421V22.7148H23.3477Z" fill="#E49273"/>
<rect width="10" height="10" transform="translate(33 11)" fill="#FFF0EB"/>
<path d="M41.9081 16.4637H38.4637V19.9081H37.3155V16.4637H33.8711V15.3155H37.3155V11.8711H38.4637V15.3155H41.9081V16.4637Z" fill="#E49273"/>
</svg>
