<svg width="45" height="45" viewBox="0 0 45 45" fill="none" xmlns="http://www.w3.org/2000/svg">
<g clip-path="url(#clip0_6481_46058)">
<path d="M0 1.40625C0 1.03329 0.148158 0.675604 0.411881 0.411881C0.675604 0.148158 1.03329 0 1.40625 0L9.84375 0C10.2167 0 10.5744 0.148158 10.8381 0.411881C11.1018 0.675604 11.25 1.03329 11.25 1.40625C11.25 1.77921 11.1018 2.1369 10.8381 2.40062C10.5744 2.66434 10.2167 2.8125 9.84375 2.8125H2.8125V9.84375C2.8125 10.2167 2.66434 10.5744 2.40062 10.8381C2.1369 11.1018 1.77921 11.25 1.40625 11.25C1.03329 11.25 0.675604 11.1018 0.411881 10.8381C0.148158 10.5744 0 10.2167 0 9.84375V1.40625ZM33.75 1.40625C33.75 1.03329 33.8982 0.675604 34.1619 0.411881C34.4256 0.148158 34.7833 0 35.1562 0L43.5938 0C43.9667 0 44.3244 0.148158 44.5881 0.411881C44.8518 0.675604 45 1.03329 45 1.40625V9.84375C45 10.2167 44.8518 10.5744 44.5881 10.8381C44.3244 11.1018 43.9667 11.25 43.5938 11.25C43.2208 11.25 42.8631 11.1018 42.5994 10.8381C42.3357 10.5744 42.1875 10.2167 42.1875 9.84375V2.8125H35.1562C34.7833 2.8125 34.4256 2.66434 34.1619 2.40062C33.8982 2.1369 33.75 1.77921 33.75 1.40625ZM1.40625 33.75C1.77921 33.75 2.1369 33.8982 2.40062 34.1619C2.66434 34.4256 2.8125 34.7833 2.8125 35.1562V42.1875H9.84375C10.2167 42.1875 10.5744 42.3357 10.8381 42.5994C11.1018 42.8631 11.25 43.2208 11.25 43.5938C11.25 43.9667 11.1018 44.3244 10.8381 44.5881C10.5744 44.8518 10.2167 45 9.84375 45H1.40625C1.03329 45 0.675604 44.8518 0.411881 44.5881C0.148158 44.3244 0 43.9667 0 43.5938V35.1562C0 34.7833 0.148158 34.4256 0.411881 34.1619C0.675604 33.8982 1.03329 33.75 1.40625 33.75ZM43.5938 33.75C43.9667 33.75 44.3244 33.8982 44.5881 34.1619C44.8518 34.4256 45 34.7833 45 35.1562V43.5938C45 43.9667 44.8518 44.3244 44.5881 44.5881C44.3244 44.8518 43.9667 45 43.5938 45H35.1562C34.7833 45 34.4256 44.8518 34.1619 44.5881C33.8982 44.3244 33.75 43.9667 33.75 43.5938C33.75 43.2208 33.8982 42.8631 34.1619 42.5994C34.4256 42.3357 34.7833 42.1875 35.1562 42.1875H42.1875V35.1562C42.1875 34.7833 42.3357 34.4256 42.5994 34.1619C42.8631 33.8982 43.2208 33.75 43.5938 33.75ZM11.25 11.25H14.0625V14.0625H11.25V11.25Z" fill="white"/>
<path d="M19.6875 5.625H5.625V19.6875H19.6875V5.625ZM8.4375 8.4375H16.875V16.875H8.4375V8.4375ZM14.0625 30.9375H11.25V33.75H14.0625V30.9375Z" fill="white"/>
<path d="M19.6875 25.3125H5.625V39.375H19.6875V25.3125ZM8.4375 28.125H16.875V36.5625H8.4375V28.125ZM30.9375 11.25H33.75V14.0625H30.9375V11.25Z" fill="white"/>
<path d="M25.3125 5.625H39.375V19.6875H25.3125V5.625ZM28.125 8.4375V16.875H36.5625V8.4375H28.125ZM22.5 22.5V28.125H25.3125V30.9375H22.5V33.75H28.125V28.125H30.9375V33.75H33.75V30.9375H39.375V28.125H30.9375V22.5H22.5ZM28.125 28.125H25.3125V25.3125H28.125V28.125ZM39.375 33.75H36.5625V36.5625H30.9375V39.375H39.375V33.75ZM28.125 39.375V36.5625H22.5V39.375H28.125Z" fill="white"/>
<path d="M33.75 25.3125H39.375V22.5H33.75V25.3125Z" fill="white"/>
</g>
<defs>
<clipPath id="clip0_6481_46058">
<rect width="45" height="45" fill="white"/>
</clipPath>
</defs>
</svg>
