<svg width="64" height="64" viewBox="0 0 64 64" fill="none" xmlns="http://www.w3.org/2000/svg">
<path d="M11.6473 12C10.2792 12 9.21576 13.0634 9.21576 14.4315C9.21576 15.7996 10.2792 16.863 11.6473 16.863H49.3359V12H11.6473ZM8 17.6419V49.0807C8 50.7645 9.35557 52.1201 11.0394 52.1201H53.591C55.2749 52.1201 56.6304 50.7645 56.6304 49.0807V43.6098H37.7861C36.1233 43.6098 34.7467 42.2332 34.7467 40.5704V30.8443C34.7467 29.1815 36.1233 27.8049 37.7861 27.8049H56.6304V22.334C56.6304 20.6501 55.2749 19.2946 53.591 19.2946L11.0774 19.2569C9.85932 19.1117 8.77359 18.5215 8 17.6419ZM37.7861 30.2364C37.4283 30.2364 37.1783 30.4865 37.1783 30.8443V40.5704C37.1783 40.9282 37.4283 41.1783 37.7861 41.1783H56.6304V30.2364H37.7861ZM43.865 33.8837C44.8721 33.8837 45.6886 34.7001 45.6886 35.7073C45.6886 36.7145 44.8721 37.531 43.865 37.531C42.8578 37.531 42.0413 36.7145 42.0413 35.7073C42.0413 34.7001 42.8578 33.8837 43.865 33.8837Z" fill="#1D1B1B"/>
</svg>
