<svg width="24" height="24" viewBox="0 0 24 24" fill="none" xmlns="http://www.w3.org/2000/svg">
<path d="M21.0039 12V7H5.00391C4.47347 7 3.96477 6.78929 3.58969 6.41421C3.21462 6.03914 3.00391 5.53043 3.00391 5C3.00391 4.46957 3.21462 3.96086 3.58969 3.58579C3.96477 3.21071 4.47347 3 5.00391 3H19.0039V7" stroke="#E49273" stroke-width="1.5" stroke-linecap="round" stroke-linejoin="round"/>
<path d="M3.00391 5V19C3.00391 19.5304 3.21462 20.0391 3.58969 20.4142C3.96477 20.7893 4.47347 21 5.00391 21H21.0039V16" stroke="#E49273" stroke-width="1.5" stroke-linecap="round" stroke-linejoin="round"/>
<path d="M18.0039 12C17.4735 12 16.9648 12.2107 16.5897 12.5858C16.2146 12.9609 16.0039 13.4696 16.0039 14C16.0039 14.5304 16.2146 15.0391 16.5897 15.4142C16.9648 15.7893 17.4735 16 18.0039 16H22.0039V12H18.0039Z" stroke="#E49273" stroke-width="1.5" stroke-linecap="round" stroke-linejoin="round"/>
</svg>
