<svg width="46" height="36" viewBox="0 0 46 36" fill="none" xmlns="http://www.w3.org/2000/svg">
<g filter="url(#filter0_d_6481_45439)">
<rect width="46" height="34" rx="5" fill="#1D1B1B"/>
<path d="M17.75 13.5H28.25H17.75Z" fill="black" fill-opacity="0.25"/>
<path d="M17.75 13.5H28.25" stroke="white" stroke-linecap="round" stroke-linejoin="round"/>
<path d="M27.0832 13.5V21.6667C27.0832 22.25 26.4998 22.8333 25.9165 22.8333H20.0832C19.4998 22.8333 18.9165 22.25 18.9165 21.6667V13.5" stroke="white" stroke-linecap="round" stroke-linejoin="round"/>
<path d="M20.6665 13.4993V12.3327C20.6665 11.7493 21.2498 11.166 21.8332 11.166H24.1665C24.7498 11.166 25.3332 11.7493 25.3332 12.3327V13.4993" stroke="white" stroke-linecap="round" stroke-linejoin="round"/>
<path d="M21.8335 16.416V19.916" stroke="white" stroke-linecap="round" stroke-linejoin="round"/>
<path d="M24.1665 16.416V19.916" stroke="white" stroke-linecap="round" stroke-linejoin="round"/>
<rect x="0.5" y="0.5" width="45" height="33" rx="4.5" stroke="#D9D9D9"/>
</g>
<defs>
<filter id="filter0_d_6481_45439" x="0" y="0" width="46" height="36" filterUnits="userSpaceOnUse" color-interpolation-filters="sRGB">
<feFlood flood-opacity="0" result="BackgroundImageFix"/>
<feColorMatrix in="SourceAlpha" type="matrix" values="0 0 0 0 0 0 0 0 0 0 0 0 0 0 0 0 0 0 127 0" result="hardAlpha"/>
<feOffset dy="2"/>
<feColorMatrix type="matrix" values="0 0 0 0 0 0 0 0 0 0 0 0 0 0 0 0 0 0 0.016 0"/>
<feBlend mode="normal" in2="BackgroundImageFix" result="effect1_dropShadow_6481_45439"/>
<feBlend mode="normal" in="SourceGraphic" in2="effect1_dropShadow_6481_45439" result="shape"/>
</filter>
</defs>
</svg>
