<svg width="22" height="22" viewBox="0 0 22 22" fill="none" xmlns="http://www.w3.org/2000/svg">
<rect width="22" height="22" fill="white"/>
<path d="M11.2062 9.7135L6.15624 14.7643L4.44207 14.0521L4.28899 14.207L6.47066 15.6617L7.92632 17.8434L8.08032 17.6894L7.36899 15.9752L12.4189 10.9262L16.3862 16.6572L16.5787 16.4666L13.9323 9.41192L17.9657 5.38042C18.0453 5.30079 18.1084 5.20625 18.1515 5.10221C18.1946 4.99817 18.2168 4.88666 18.2168 4.77404C18.2168 4.66143 18.1946 4.54992 18.1515 4.44588C18.1084 4.34183 18.0453 4.2473 17.9657 4.16767C17.886 4.08804 17.7915 4.02487 17.6874 3.98178C17.5834 3.93868 17.4719 3.9165 17.3593 3.9165C17.2467 3.9165 17.1352 3.93868 17.0311 3.98178C16.9271 4.02487 16.8325 4.08804 16.7529 4.16767L12.7196 8.20008L5.66674 5.55458L5.47424 5.74617L11.2062 9.7135ZM16.147 19.3229L12.1778 13.591L9.39115 16.3777L10.1034 18.0918L7.65957 20.5347L5.23499 16.8983L1.59766 14.4728L4.04149 12.029L5.75474 12.7403L8.5414 9.95367L2.80949 5.98633L5.23499 3.56175L12.2887 6.20633L15.5402 2.95492C15.7779 2.71138 16.0617 2.51746 16.375 2.3844C16.6882 2.25133 17.0248 2.18177 17.3652 2.17973C17.7055 2.1777 18.0429 2.24324 18.3578 2.37255C18.6726 2.50187 18.9587 2.69238 19.1993 2.93306C19.44 3.17373 19.6305 3.45978 19.7599 3.77463C19.8892 4.08948 19.9547 4.42686 19.9527 4.76722C19.9506 5.10758 19.8811 5.44416 19.748 5.75743C19.6149 6.07071 19.421 6.35447 19.1775 6.59225L15.9261 9.84367L18.5716 16.8983L16.147 19.3229Z" fill="#E49273"/>
</svg>
