<svg width="43" height="42" viewBox="0 0 43 42" fill="none" xmlns="http://www.w3.org/2000/svg">
<rect width="42.3652" height="41.9005" rx="20.9503" fill="#F4F4F4"/>
<path d="M30 21V16H14C13.4696 16 12.9609 15.7893 12.5858 15.4142C12.2107 15.0391 12 14.5304 12 14C12 13.4696 12.2107 12.9609 12.5858 12.5858C12.9609 12.2107 13.4696 12 14 12H28V16" stroke="#1D1B1B" stroke-width="1.5" stroke-linecap="round" stroke-linejoin="round"/>
<path d="M12 14V28C12 28.5304 12.2107 29.0391 12.5858 29.4142C12.9609 29.7893 13.4696 30 14 30H30V25" stroke="black" stroke-width="1.5" stroke-linecap="round" stroke-linejoin="round"/>
<path d="M27 21C26.4696 21 25.9609 21.2107 25.5858 21.5858C25.2107 21.9609 25 22.4696 25 23C25 23.5304 25.2107 24.0391 25.5858 24.4142C25.9609 24.7893 26.4696 25 27 25H31V21H27Z" stroke="black" stroke-width="1.5" stroke-linecap="round" stroke-linejoin="round"/>
</svg>
